<?xml version="1.0" encoding="utf-8"?>
<!-- Generator: Adobe Illustrator 18.1.1, SVG Export Plug-In . SVG Version: 6.00 Build 0)  -->
<svg version="1.1" id="Ebene_1" xmlns="http://www.w3.org/2000/svg" xmlns:xlink="http://www.w3.org/1999/xlink" x="0px" y="0px"
	 viewBox="0 0 50 50" enable-background="new 0 0 50 50" xml:space="preserve">
<g>
	<rect x="0" fill="#007CFF" width="50" height="50"/>
	<g>
		<defs>
			<rect id="SVGID_53_" x="0" width="50" height="50"/>
		</defs>
		<clipPath id="SVGID_1_">
			<use xlink:href="#SVGID_53_"  overflow="visible"/>
		</clipPath>
		<rect x="0" y="0" clip-path="url(#SVGID_1_)" fill-rule="evenodd" clip-rule="evenodd" fill="#1A171B" width="25" height="50"/>
		<g clip-path="url(#SVGID_1_)">
			<defs>
				<rect id="SVGID_55_" x="0" y="0" width="25" height="50"/>
			</defs>
			<clipPath id="SVGID_2_">
				<use xlink:href="#SVGID_55_"  overflow="visible"/>
			</clipPath>
			<path clip-path="url(#SVGID_2_)" fill-rule="evenodd" clip-rule="evenodd" fill="#FFFFFF" d="M25,18.6c-1.8,0-2.4-1.4-4.1-1.4
				c-1.7,0-2.4,1.4-4.1,1.5c-1.7,0-2.4-1.5-4.2-1.5c-1.7,0-2.4,1.5-4.1,1.5c-1.7,0-2.5-1.5-4.2-1.5c-1.8,0-2.5,1.5-4.3,1.5v14.2
				c1.7,0,2.5-1.5,4.3-1.5c1.7,0,2.5,1.5,4.2,1.5c1.7,0,2.4-1.5,4.1-1.5c1.7,0,2.4,1.5,4.2,1.5c1.7,0,2.4-1.5,4.1-1.5
				c1.7,0,2.4,1.5,4.1,1.5V18.6z"/>
			<g clip-path="url(#SVGID_2_)">
				<defs>
					<path id="SVGID_57_" d="M25,18.6c-1.8,0-2.4-1.4-4.1-1.4c-1.7,0-2.4,1.4-4.1,1.5c-1.7,0-2.4-1.5-4.2-1.5
						c-1.7,0-2.4,1.5-4.1,1.5c-1.7,0-2.5-1.5-4.2-1.5c-1.8,0-2.5,1.5-4.3,1.5v14.2c1.7,0,2.5-1.5,4.3-1.5c1.7,0,2.5,1.5,4.2,1.5
						c1.7,0,2.4-1.5,4.1-1.5c1.7,0,2.4,1.5,4.2,1.5c1.7,0,2.4-1.5,4.1-1.5c1.7,0,2.4,1.5,4.1,1.5V18.6z"/>
				</defs>
				<clipPath id="SVGID_3_">
					<use xlink:href="#SVGID_57_"  overflow="visible"/>
				</clipPath>
				
					<path clip-path="url(#SVGID_3_)" fill="none" stroke="#000000" stroke-width="0.406" stroke-linecap="square" stroke-miterlimit="3.8637" d="
					M25,23.4c-1.7,0-2.4-1.6-4.1-1.6c-1.7,0-2.4,1.5-4.1,1.6c-1.7,0-2.4-1.6-4.2-1.6c-1.7,0-2.4,1.5-4.1,1.6c-1.8,0-2.5-1.6-4.2-1.6
					c-1.7,0-2.4,1.6-4.2,1.6"/>
				
					<path clip-path="url(#SVGID_3_)" fill="none" stroke="#000000" stroke-width="0.406" stroke-linecap="square" stroke-miterlimit="3.8637" d="
					M25,28.1c-1.7,0-2.3-1.5-4-1.6c-1.7,0-2.4,1.5-4.2,1.6c-1.7,0-2.4-1.6-4.2-1.6c-1.7,0-2.4,1.5-4.1,1.6c-1.8,0-2.5-1.6-4.2-1.6
					c-1.8,0-2.5,1.6-4.2,1.6"/>
			</g>
		</g>
	</g>
	<rect x="0" fill="none" width="50" height="50"/>
	<polygon fill-rule="evenodd" clip-rule="evenodd" fill="#1A171B" points="31.6,14.8 30.4,18.7 26.3,18.7 29.6,21.1 28.4,24.9 
		31.6,22.5 34.9,24.9 33.7,21.1 36.9,18.7 32.9,18.7 	"/>
	<polygon fill-rule="evenodd" clip-rule="evenodd" fill="#FFFFFF" points="31.6,16.8 30.8,19.3 28.2,19.3 30.3,20.8 29.5,23.2 
		31.6,21.7 33.7,23.2 32.9,20.8 35,19.3 32.4,19.3 	"/>
	<polygon fill="none" stroke="#FFFFFF" stroke-width="0.1212" stroke-miterlimit="3.8637" points="31.6,16.8 30.8,19.3 28.2,19.3 
		30.3,20.8 29.5,23.2 31.6,21.7 33.7,23.2 32.9,20.8 35,19.3 32.4,19.3 	"/>
	<polygon fill-rule="evenodd" clip-rule="evenodd" fill="#1A171B" points="43.3,14.8 42,18.7 37.9,18.7 41.2,21.1 40,24.9 
		43.3,22.5 46.5,24.9 45.3,21.1 48.6,18.7 44.5,18.7 	"/>
	<polygon fill-rule="evenodd" clip-rule="evenodd" fill="#FFFFFF" points="43.3,16.8 42.4,19.3 39.9,19.3 42,20.8 41.2,23.2 
		43.3,21.7 45.3,23.2 44.5,20.8 46.7,19.3 44.1,19.3 	"/>
	<polygon fill="none" stroke="#FFFFFF" stroke-width="0.1212" stroke-miterlimit="3.8637" points="43.3,16.8 42.4,19.3 39.9,19.3 
		42,20.8 41.2,23.2 43.3,21.7 45.3,23.2 44.5,20.8 46.7,19.3 44.1,19.3 	"/>
	<polygon fill-rule="evenodd" clip-rule="evenodd" fill="#1A171B" points="37.5,24.6 36.2,28.5 32.2,28.5 35.4,30.9 34.2,34.7 
		37.5,32.4 40.8,34.7 39.5,30.9 42.8,28.5 38.7,28.5 	"/>
	<polygon fill-rule="evenodd" clip-rule="evenodd" fill="#FFFFFF" points="37.5,26.6 36.7,29.1 34.1,29.1 36.2,30.6 35.4,33.1 
		37.5,31.6 39.6,33.1 38.8,30.6 40.9,29.1 38.3,29.1 	"/>
	<polygon fill="none" stroke="#FFFFFF" stroke-width="0.1212" stroke-miterlimit="3.8637" points="37.5,26.6 36.7,29.1 34.1,29.1 
		36.2,30.6 35.4,33.1 37.5,31.6 39.6,33.1 38.8,30.6 40.9,29.1 38.3,29.1 	"/>
</g>
</svg>
