<?xml version="1.0" encoding="utf-8"?>
<!-- Generator: Adobe Illustrator 18.1.1, SVG Export Plug-In . SVG Version: 6.00 Build 0)  -->
<svg version="1.1" id="Ebene_1" xmlns="http://www.w3.org/2000/svg" xmlns:xlink="http://www.w3.org/1999/xlink" x="0px" y="0px"
	 viewBox="0 0 50 50" enable-background="new 0 0 50 50" xml:space="preserve">
<g>
	<rect x="0" fill="#FFFFFF" width="50" height="50"/>
	<rect x="0" fill="none" width="50" height="50"/>
	<path fill-rule="evenodd" clip-rule="evenodd" fill="#ED081B" d="M12.3,3.3c0.2-2.7-1.8-2.4-1.8-2.4c1.3,0.9,0.8,2.2,0.8,2.2
		c-1.1-2.4-2.5-1.4-2.5-1.4c1.2,0.2,1.9,1.9,1.9,1.9C9.2,2.1,7.9,3,7.9,3C9.2,3.1,10,4.1,10,4.1C7.9,3.3,7.3,4.3,7.3,4.3
		c1.4-0.2,2.1,0.4,2.1,0.4c-1.5-0.1-1.6,1-1.6,1c1-0.6,1.8-0.2,1.8-0.2C11,3.4,12.3,3.3,12.3,3.3z"/>
	<path fill="none" stroke="#1A171B" stroke-width="0.1795" stroke-miterlimit="3.8637" d="M12.3,3.3c0.2-2.7-1.8-2.4-1.8-2.4
		c1.3,0.9,0.8,2.2,0.8,2.2c-1.1-2.4-2.5-1.4-2.5-1.4c1.2,0.2,1.9,1.9,1.9,1.9C9.2,2.1,7.9,3,7.9,3C9.2,3.1,10,4.1,10,4.1
		C7.9,3.3,7.3,4.3,7.3,4.3c1.4-0.2,2.1,0.4,2.1,0.4c-1.5-0.1-1.6,1-1.6,1c1-0.6,1.8-0.2,1.8-0.2C11,3.4,12.3,3.3,12.3,3.3z"/>
	<path fill-rule="evenodd" clip-rule="evenodd" fill="#ED081B" d="M10.5,15.4c-0.4-2.5-2.2-1.8-2.2-1.8c1.2,0.6,1.1,2.1,1.1,2.1
		c-1.4-1.9-2.6-0.8-2.6-0.8c1.4,0.1,2,1.3,2,1.3c-2-1.1-2.4,0.5-2.4,0.5C7.8,16.2,8,16.9,8,16.9c-1.6,0.1-1.8,1.3-1.8,1.3
		c1-0.7,1.8-0.4,1.8-0.4c-1.4,1.2-0.9,1.9-0.9,1.9c0.6-0.8,1.3-1.2,1.3-1.2C8.1,16.5,10.5,15.4,10.5,15.4z"/>
	<path fill="none" stroke="#1A171B" stroke-width="0.1795" stroke-miterlimit="3.8637" d="M10.5,15.4c-0.4-2.5-2.2-1.8-2.2-1.8
		c1.2,0.6,1.1,2.1,1.1,2.1c-1.4-1.9-2.6-0.8-2.6-0.8c1.4,0.1,2,1.3,2,1.3c-2-1.1-2.4,0.5-2.4,0.5C7.8,16.2,8,16.9,8,16.9
		c-1.6,0.1-1.8,1.3-1.8,1.3c1-0.7,1.8-0.4,1.8-0.4c-1.4,1.2-0.9,1.9-0.9,1.9c0.6-0.8,1.3-1.2,1.3-1.2C8.1,16.5,10.5,15.4,10.5,15.4z
		"/>
	<path fill-rule="evenodd" clip-rule="evenodd" fill="#ED081B" d="M27.1,43.9c-2.9-0.7-2.7,1.1-2.7,1.1c0.3-0.7,2.2-0.3,2.2-0.3
		C24.8,45,25,46.4,25,46.4c0.8-0.9,2.1-0.9,2.1-0.9c-1.8,1.4-1.2,2.2-1.2,2.2c0.8-0.9,2-1.3,2-1.3c-1.3,1.5-0.3,2.2-0.3,2.2
		c0.3-1.4,1.2-1.6,1.2-1.6c-0.4,1.4,0.7,1.8,0.7,1.8c-0.1-1.3,0.5-1.7,0.5-1.7C26.2,45.8,27.1,43.9,27.1,43.9z"/>
	<path fill="none" stroke="#1A171B" stroke-width="0.1795" stroke-miterlimit="3.8637" d="M27.1,43.9c-2.9-0.7-2.7,1.1-2.7,1.1
		c0.3-0.7,2.2-0.3,2.2-0.3C24.8,45,25,46.4,25,46.4c0.8-0.9,2.1-0.9,2.1-0.9c-1.8,1.4-1.2,2.2-1.2,2.2c0.8-0.9,2-1.3,2-1.3
		c-1.3,1.5-0.3,2.2-0.3,2.2c0.3-1.4,1.2-1.6,1.2-1.6c-0.4,1.4,0.7,1.8,0.7,1.8c-0.1-1.3,0.5-1.7,0.5-1.7
		C26.2,45.8,27.1,43.9,27.1,43.9z"/>
	<path fill-rule="evenodd" clip-rule="evenodd" fill="#ED081B" d="M13.1,40c-2.2-1.2-2.9,0.7-2.9,0.7c1.3-0.6,2.3,0.1,2.3,0.1
		c-2.2,0.3-1.8,1.4-1.8,1.4c0.9-0.8,1.9-0.3,1.9-0.3c-1.9,0.6-1.6,1.6-1.6,1.6c1.2-0.9,1.8-0.8,1.8-0.8c-1.3,1.2-1,2-1,2
		c0.5-0.9,1.6-1.2,1.6-1.2c-0.7,1.1-0.2,1.7-0.2,1.7c0.4-1.1,1.1-1.1,1.1-1.1C11.9,41.4,13.1,40,13.1,40z"/>
	<path fill="none" stroke="#1A171B" stroke-width="0.1795" stroke-miterlimit="3.8637" d="M13.1,40c-2.2-1.2-2.9,0.7-2.9,0.7
		c1.3-0.6,2.3,0.1,2.3,0.1c-2.2,0.3-1.8,1.4-1.8,1.4c0.9-0.8,1.9-0.3,1.9-0.3c-1.9,0.6-1.6,1.6-1.6,1.6c1.2-0.9,1.8-0.8,1.8-0.8
		c-1.3,1.2-1,2-1,2c0.5-0.9,1.6-1.2,1.6-1.2c-0.7,1.1-0.2,1.7-0.2,1.7c0.4-1.1,1.1-1.1,1.1-1.1C11.9,41.4,13.1,40,13.1,40z"/>
	<path fill-rule="evenodd" clip-rule="evenodd" fill="#1A171B" d="M20.3,43.5c0.6-2.3-3.6-1.9-3.6-1.9c-3.7,0.3-3.3-0.8-3.3-0.8
		l-0.2,0.1c-0.1,1.4,3.6,1,3.6,1c3.8-0.4,3.2,1.5,3.2,1.5L20.3,43.5z M24.2,26.8c2.1,1.8,2.7,3.3,2.1,4.6
		c-7.9-0.2-4.7,10.7-4.7,10.7C22.2,43.8,20,44,20,44c-1.9,0.4-5.6,0-5.6,0c-1.4-0.1-2.4-2.7-1.9-3.6c0.3-0.5,0.6-0.6,1.1-0.4
		c1.6,0.5,3.1,0.6,3.1-0.2c0.2,0.6,0.7,1.2,0.7,1.2l0.2-0.2c-0.5-0.7-0.8-1.4-1-2.5c-0.1-0.4-0.1-1.4-0.1-1.4c0-0.1-0.4,0.1-0.4,0
		c-0.1-0.3,0-0.8,0.3-1.5c0-0.1-0.4,0.1-0.4,0c0-0.3,0-0.7,0.2-1.1c0-0.1-0.3,0.1-0.3,0c0-0.5,0.2-1.2,0.4-1.6
		c0-0.1-0.4-0.1-0.4-0.2c0.1-0.5,0.5-1.2,0.9-1.5c0-0.1-0.6-0.1-0.5-0.2c0.2-0.5,0.6-0.9,1.2-1.2c0.1-0.1-0.3-0.3-0.3-0.4
		c0.2-0.2,0.4-0.6,0.6-0.8C20.4,26.2,24.2,26.8,24.2,26.8z"/>
	<path fill="none" stroke="#1A171B" stroke-width="0" stroke-miterlimit="3.8637" d="M20.3,43.5c0.6-2.3-3.6-1.9-3.6-1.9
		c-3.7,0.3-3.3-0.8-3.3-0.8l-0.2,0.1c-0.1,1.4,3.6,1,3.6,1c3.8-0.4,3.2,1.5,3.2,1.5L20.3,43.5z M24.2,26.8c2.1,1.8,2.7,3.3,2.1,4.6
		c-7.9-0.2-4.7,10.7-4.7,10.7C22.2,43.8,20,44,20,44c-1.9,0.4-5.6,0-5.6,0c-1.4-0.1-2.4-2.7-1.9-3.6c0.3-0.5,0.6-0.6,1.1-0.4
		c1.6,0.5,3.1,0.6,3.1-0.2c0.2,0.6,0.7,1.2,0.7,1.2l0.2-0.2c-0.5-0.7-0.8-1.4-1-2.5c-0.1-0.4-0.1-1.4-0.1-1.4c0-0.1-0.4,0.1-0.4,0
		c-0.1-0.3,0-0.8,0.3-1.5c0-0.1-0.4,0.1-0.4,0c0-0.3,0-0.7,0.2-1.1c0-0.1-0.3,0.1-0.3,0c0-0.5,0.2-1.2,0.4-1.6
		c0-0.1-0.4-0.1-0.4-0.2c0.1-0.5,0.5-1.2,0.9-1.5c0-0.1-0.6-0.1-0.5-0.2c0.2-0.5,0.6-0.9,1.2-1.2c0.1-0.1-0.3-0.3-0.3-0.4
		c0.2-0.2,0.4-0.6,0.6-0.8C20.4,26.2,24.2,26.8,24.2,26.8z"/>
	<path fill-rule="evenodd" clip-rule="evenodd" fill="#ED081B" d="M26.5,30.4c-1-1.5-1.3-1.7-2.8-2.7c1.4,0.2,2,0.8,2,0.8
		C26.4,29.1,26.5,30.4,26.5,30.4z"/>
	<path fill="none" stroke="#ED081B" stroke-width="0" stroke-miterlimit="3.8637" d="M26.5,30.4c-1-1.5-1.3-1.7-2.8-2.7
		c1.4,0.2,2,0.8,2,0.8C26.4,29.1,26.5,30.4,26.5,30.4z"/>
	<path fill-rule="evenodd" clip-rule="evenodd" fill="#ED081B" d="M26.6,8.4c-1.1-0.5-4.2,0.2-5.3,0.1c-3.2,0.1-2.1-2.4-1.9-2.6
		c0.4,1.5,1.6,1.5,2.1,1.5C26.6,7.1,27,8.1,27,8.1L26.6,8.4z"/>
	<path fill="none" stroke="#1A171B" stroke-width="0.1795" stroke-miterlimit="3.8637" d="M26.6,8.4c-1.1-0.5-4.2,0.2-5.3,0.1
		c-3.2,0.1-2.1-2.4-1.9-2.6c0.4,1.5,1.6,1.5,2.1,1.5C26.6,7.1,27,8.1,27,8.1L26.6,8.4z"/>
	<path fill-rule="evenodd" clip-rule="evenodd" fill="#FFFFFF" d="M23.3,5.6c-0.3,0.9,0,1.6,0,1.6c0.2-0.9,0.8-1.4,0.8-1.4
		c-0.1,0.9,0.2,1.5,0.2,1.5C24.4,6.4,25,5.8,25,5.8L23.3,5.6z"/>
	<path fill="none" stroke="#1A171B" stroke-width="6.729839e-02" stroke-miterlimit="3.8637" d="M23.3,5.6c-0.3,0.9,0,1.6,0,1.6
		c0.2-0.9,0.8-1.4,0.8-1.4c-0.1,0.9,0.2,1.5,0.2,1.5C24.4,6.4,25,5.8,25,5.8L23.3,5.6z"/>
	<path fill-rule="evenodd" clip-rule="evenodd" fill="#FFFFFF" d="M25.5,8.9c-0.6-0.4-1-1-1-1c-0.1,0.4,0.2,0.9,0.2,0.9
		C24.1,8.6,23.6,8,23.6,8c0,0.5,0.3,1,0.3,1L25.5,8.9z"/>
	<path fill="none" stroke="#1A171B" stroke-width="6.729839e-02" stroke-miterlimit="3.8637" d="M25.5,8.9c-0.6-0.4-1-1-1-1
		c-0.1,0.4,0.2,0.9,0.2,0.9C24.1,8.6,23.6,8,23.6,8c0,0.5,0.3,1,0.3,1L25.5,8.9z"/>
	<path fill-rule="evenodd" clip-rule="evenodd" fill="#1A171B" d="M32.6,7.2c1,0.2,2-0.7,1.9-1.6c-0.1-1-1.1-1.4-2.4-1.2
		c-0.4-0.8-0.7-1.5-1.5-1.7c-2.8-0.6-3.3,0.7-5.4,0.9c-1.4,0.2-1.5,0-2.4-0.2c0,0.8,0.3,1.4,0.3,1.4c-0.4,0.4-0.4,1.2-0.4,1.2
		c1.5-0.4,4.3-0.2,4.1,2c-0.1,0.7-1.4,1.3-3.2,0.7l0.2,0.9c0,0,1.8-0.1,2.4,0.1c2,0.8,3.9,0.2,4.5-0.7c1.3-1.9-0.1-3.9,2-4.2
		c1-0.2,1.5,0.5,1.5,0.5L34,5.3c-0.5-0.3-1-0.5-1.6-0.3c-1.3,0.4-0.4,2.8-1.5,4.2c-1.7,2.1-4.3,0.6-6.7,2.2
		c-1.7,1.1-2.5,2.8-2.7,5.1c0.6-0.3,1.6-0.4,1.6-0.4l0.1,0.3c-4.6,1.1-7.6,2.4-7.6,2.4c-2.5,1.2-4.2-0.9-4.2-0.9l0.1-0.1
		c1.1,0.9,1.9,1,2.2,0.9c-1.3-0.5-1.3-2.6-3.4-3.4c-1.2-0.6-2.9,2.6-2.1,3.3C8.4,19.1,9,19,9.5,19.4c1.3,1,1.7,1.9,3.3,2.7
		c0.2,0.1,0.6,0.2,1.3,0.4c0.1,0-0.1-0.3,0.1-0.3c0.5,0.3,0.9,0.4,1.3,0.5c0.1,0,0-0.5,0.1-0.5c0.5,0.3,1.1,0.6,1.5,0.6
		c0.2,0,0-0.3,0.2-0.3c0.4,0.2,0.8,0.3,1.1,0.3c0.1,0,0-0.3,0.1-0.3c0.4,0.2,0.9,0.4,1.2,0.4c0.1,0-0.1-0.4,0-0.4
		c0.5,0.3,0.9,0.3,1.2,0.3c0.1,0-0.1-0.3,0-0.3c0.4-0.1,1.1,0.1,1.5,0c2.9,0.2,3.7-2.3,3.7-2.3l0.3,0.1c-1,2.8-4.1,2.5-4.1,2.5
		c0.1,1,0.2,1.7,0.7,2.5c0.5,0.8,3.1,2.3,3.8,4.5c0.5,1.5-1.5,3.3-1.1,5.5l0.3,0.1c-0.1,0.9,0,1.4,0,1.4s0.3-0.1,0.5-0.3
		c-0.1,1,0.2,1.5,0.2,1.5s0.3-0.5,0.4-0.7c-0.1,0.9,0.4,1.8,0.4,1.8s0.1-0.5,0.2-0.7c0.1,0.6,0.4,1.2,0.4,1.2s0.2-0.3,0.3-0.5
		c0.1,0.9,0.5,1.4,0.5,1.4s0-0.5,0.2-0.8c0,0.5,0.4,1,0.4,1c0.2,0.3,3.1,2.9,1.5,3.9c0-0.2-0.2-0.1-0.2-0.1c0.3-0.4,0.2-0.8,0.2-0.8
		c-2.9-1.3-4.3,0.2-4.3,0.2c-0.4,0.6,0,1.3,0,1.3c0.5,1.1,1.2,1.7,2.4,2.1c1.2,0.4,5.5-0.8,6.2-3.5c0.2-0.9-2.1-3.3-2.4-5.7
		c-0.1-0.7-0.2-4.8-0.1-7.1c-0.1-0.6-0.6-1.2-0.6-1.2l0.2-0.2c0.3,0.1,0.9,1.3,0.9,1.3c0.3-0.5,0.1-1.1,0.1-1.1
		c0.3,0,0.5,0.7,0.5,0.7c0.2-0.5,0.3-0.8,0.2-1.4c-0.2-1.5-1.7-2.6-2.3-4.5c-0.8-2.5-0.6-4.6-0.8-6.7c0.2,0.2,0.6,0.3,0.6,0.3
		c-0.2-0.6,0-1,0-1c0.1,0.2,0.8,0.5,0.8,0.5c-0.2-0.8-0.1-1.4-0.1-1.4c0.3,0.3,0.8,0.3,0.8,0.3c-0.4-0.9-0.4-1.7-0.4-1.7
		c0.3,0.3,0.8,0.2,0.8,0.2c-0.5-0.5-0.1-1.1-0.6-1.8c0.3,0.1,0.7,0,0.7,0s-0.8-0.6-0.6-1.6C34.4,8.1,32.6,7.2,32.6,7.2z M28.6,4.9
		h0.3c0,0.2,0.2,0.4,0.4,0.4c0.2,0,0.4-0.2,0.4-0.4L30,5c0,0.4-0.2,0.7-0.7,0.7C28.8,5.7,28.6,5.3,28.6,4.9z"/>
	<path fill="none" stroke="#1A171B" stroke-width="0" stroke-miterlimit="3.8637" d="M32.6,7.2c1,0.2,2-0.7,1.9-1.6
		c-0.1-1-1.1-1.4-2.4-1.2c-0.4-0.8-0.7-1.5-1.5-1.7c-2.8-0.6-3.3,0.7-5.4,0.9c-1.4,0.2-1.5,0-2.4-0.2c0,0.8,0.3,1.4,0.3,1.4
		c-0.4,0.4-0.4,1.2-0.4,1.2c1.5-0.4,4.3-0.2,4.1,2c-0.1,0.7-1.4,1.3-3.2,0.7l0.2,0.9c0,0,1.8-0.1,2.4,0.1c2,0.8,3.9,0.2,4.5-0.7
		c1.3-1.9-0.1-3.9,2-4.2c1-0.2,1.5,0.5,1.5,0.5L34,5.3c-0.5-0.3-1-0.5-1.6-0.3c-1.3,0.4-0.4,2.8-1.5,4.2c-1.7,2.1-4.3,0.6-6.7,2.2
		c-1.7,1.1-2.5,2.8-2.7,5.1c0.6-0.3,1.6-0.4,1.6-0.4l0.1,0.3c-4.6,1.1-7.6,2.4-7.6,2.4c-2.5,1.2-4.2-0.9-4.2-0.9l0.1-0.1
		c1.1,0.9,1.9,1,2.2,0.9c-1.3-0.5-1.3-2.6-3.4-3.4c-1.2-0.6-2.9,2.6-2.1,3.3C8.4,19.1,9,19,9.5,19.4c1.3,1,1.7,1.9,3.3,2.7
		c0.2,0.1,0.6,0.2,1.3,0.4c0.1,0-0.1-0.3,0.1-0.3c0.5,0.3,0.9,0.4,1.3,0.5c0.1,0,0-0.5,0.1-0.5c0.5,0.3,1.1,0.6,1.5,0.6
		c0.2,0,0-0.3,0.2-0.3c0.4,0.2,0.8,0.3,1.1,0.3c0.1,0,0-0.3,0.1-0.3c0.4,0.2,0.9,0.4,1.2,0.4c0.1,0-0.1-0.4,0-0.4
		c0.5,0.3,0.9,0.3,1.2,0.3c0.1,0-0.1-0.3,0-0.3c0.4-0.1,1.1,0.1,1.5,0c2.9,0.2,3.7-2.3,3.7-2.3l0.3,0.1c-1,2.8-4.1,2.5-4.1,2.5
		c0.1,1,0.2,1.7,0.7,2.5c0.5,0.8,3.1,2.3,3.8,4.5c0.5,1.5-1.5,3.3-1.1,5.5l0.3,0.1c-0.1,0.9,0,1.4,0,1.4s0.3-0.1,0.5-0.3
		c-0.1,1,0.2,1.5,0.2,1.5s0.3-0.5,0.4-0.7c-0.1,0.9,0.4,1.8,0.4,1.8s0.1-0.5,0.2-0.7c0.1,0.6,0.4,1.2,0.4,1.2s0.2-0.3,0.3-0.5
		c0.1,0.9,0.5,1.4,0.5,1.4s0-0.5,0.2-0.8c0,0.5,0.4,1,0.4,1c0.2,0.3,3.1,2.9,1.5,3.9c0-0.2-0.2-0.1-0.2-0.1c0.3-0.4,0.2-0.8,0.2-0.8
		c-2.9-1.3-4.3,0.2-4.3,0.2c-0.4,0.6,0,1.3,0,1.3c0.5,1.1,1.2,1.7,2.4,2.1c1.2,0.4,5.5-0.8,6.2-3.5c0.2-0.9-2.1-3.3-2.4-5.7
		c-0.1-0.7-0.2-4.8-0.1-7.1c-0.1-0.6-0.6-1.2-0.6-1.2l0.2-0.2c0.3,0.1,0.9,1.3,0.9,1.3c0.3-0.5,0.1-1.1,0.1-1.1
		c0.3,0,0.5,0.7,0.5,0.7c0.2-0.5,0.3-0.8,0.2-1.4c-0.2-1.5-1.7-2.6-2.3-4.5c-0.8-2.5-0.6-4.6-0.8-6.7c0.2,0.2,0.6,0.3,0.6,0.3
		c-0.2-0.6,0-1,0-1c0.1,0.2,0.8,0.5,0.8,0.5c-0.2-0.8-0.1-1.4-0.1-1.4c0.3,0.3,0.8,0.3,0.8,0.3c-0.4-0.9-0.4-1.7-0.4-1.7
		c0.3,0.3,0.8,0.2,0.8,0.2c-0.5-0.5-0.1-1.1-0.6-1.8c0.3,0.1,0.7,0,0.7,0s-0.8-0.6-0.6-1.6C34.4,8.1,32.6,7.2,32.6,7.2z M28.6,4.9
		h0.3c0,0.2,0.2,0.4,0.4,0.4c0.2,0,0.4-0.2,0.4-0.4L30,5c0,0.4-0.2,0.7-0.7,0.7C28.8,5.7,28.6,5.3,28.6,4.9z"/>
	<path fill-rule="evenodd" clip-rule="evenodd" fill="#1A171B" d="M32.4,4.1c-0.1-0.9-1.4-1.9-1.4-1.9c0.5-0.7,1.6-0.6,2.1,0
		c0.4,0.6,0.5,1.5,0,1.8C33.1,4.1,32.6,4,32.4,4.1z"/>
	<path fill="none" stroke="#1A171B" stroke-width="0" stroke-miterlimit="3.8637" d="M32.4,4.1c-0.1-0.9-1.4-1.9-1.4-1.9
		c0.5-0.7,1.6-0.6,2.1,0c0.4,0.6,0.5,1.5,0,1.8C33.1,4.1,32.6,4,32.4,4.1z"/>
	<path fill-rule="evenodd" clip-rule="evenodd" fill="#ED081B" d="M30.9,4.7c-1.6-0.4-3.2-0.1-3.2-0.1c1.1-1.1,2-1.3,2-1.3l0,0.1
		c-0.9,0.3-1.6,1-1.6,1C29.8,4.2,30.9,4.7,30.9,4.7L30.9,4.7z"/>
	<path fill="none" stroke="#ED081B" stroke-width="0" stroke-miterlimit="3.8637" d="M30.9,4.7c-1.6-0.4-3.2-0.1-3.2-0.1
		c1.1-1.1,2-1.3,2-1.3l0,0.1c-0.9,0.3-1.6,1-1.6,1C29.8,4.2,30.9,4.7,30.9,4.7L30.9,4.7z"/>
	<path fill-rule="evenodd" clip-rule="evenodd" fill="#ED081B" d="M33.3,5.5C33.3,6,32.8,6,32.5,6c0,0.1,0,0.1,0,0.1
		c0.9,0.2,1-0.4,0.9-0.5C33.4,5.5,33.3,5.5,33.3,5.5z"/>
	<path fill="none" stroke="#ED081B" stroke-width="0" stroke-miterlimit="3.8637" d="M33.3,5.5C33.3,6,32.8,6,32.5,6
		c0,0.1,0,0.1,0,0.1c0.9,0.2,1-0.4,0.9-0.5C33.4,5.5,33.3,5.5,33.3,5.5z"/>
	<path fill-rule="evenodd" clip-rule="evenodd" fill="#ED081B" d="M33.7,5.6c0.1,0.8-0.7,0.8-1.1,0.7c0,0.1,0,0.1,0,0.1
		c1.3,0.3,1.4-0.7,1.3-0.8C33.8,5.6,33.7,5.6,33.7,5.6z"/>
	<path fill="none" stroke="#ED081B" stroke-width="0" stroke-miterlimit="3.8637" d="M33.7,5.6c0.1,0.8-0.7,0.8-1.1,0.7
		c0,0.1,0,0.1,0,0.1c1.3,0.3,1.4-0.7,1.3-0.8C33.8,5.6,33.7,5.6,33.7,5.6z"/>
	<path fill-rule="evenodd" clip-rule="evenodd" fill="#1A171B" d="M11.7,3.7c-0.1,0.3-0.3,0.4-0.3,0.7c-0.1,1,1.2,2.7,0.8,3.9
		c-0.1,0.5-0.4,0.7-0.7,1.1l0.1,0.1c0.5-0.4,0.9-0.3,1-1.3c0.1-1-0.5-2.2-0.8-3.1c-0.2-0.8,0-0.7,0-1.2L11.7,3.7z M22.7,12
		c-1.7,2.2-1.5,4.6-1.5,4.6c-0.4,0-0.9,0.2-0.9,0.2c-0.2,0-0.6-0.4-0.6-0.4c-0.1,0.1-0.3,0.3-0.3,0.3c-0.5-0.3-0.9-1-0.9-1
		c-0.1,0.2-0.3,0.4-0.3,0.4c-0.4-0.3-0.9-0.8-0.9-0.8c0,0.2-0.2,0.3-0.2,0.3c-0.4-0.5-0.7-1.2-0.7-1.2c-0.1,0.2-0.3,0.4-0.3,0.4
		c-0.2-0.2-0.6-1-0.6-1c-0.1,0.2-0.3,0.3-0.3,0.3c-0.3-0.3-0.6-1-0.6-1c0,0.2-0.3,0.3-0.3,0.3c-0.3-0.3-0.6-1-0.6-1
		c-0.1,0.2-0.3,0.2-0.3,0.2c-0.3-0.5-0.4-1.2-0.4-1.2l-0.4,0.1c-0.4-0.4-0.8-1.6-0.8-1.6c-1.6,0.4-2.4-4.7-2.4-4.7
		C9.1,4.9,9.5,4.6,9.5,4.6c1.1-1.2,1.8-1.4,1.8-1.4c0.8-0.4,1.3,0.2,1.3,0.2c0.4,0.6,0.6,3.3,0.6,3.3c0.2,1.8,1.5,2.3,1.5,2.3
		S20.5,10.8,22.7,12z"/>
	<path fill="none" stroke="#1A171B" stroke-width="0" stroke-miterlimit="3.8637" d="M11.7,3.7c-0.1,0.3-0.3,0.4-0.3,0.7
		c-0.1,1,1.2,2.7,0.8,3.9c-0.1,0.5-0.4,0.7-0.7,1.1l0.1,0.1c0.5-0.4,0.9-0.3,1-1.3c0.1-1-0.5-2.2-0.8-3.1c-0.2-0.8,0-0.7,0-1.2
		L11.7,3.7z M22.7,12c-1.7,2.2-1.5,4.6-1.5,4.6c-0.4,0-0.9,0.2-0.9,0.2c-0.2,0-0.6-0.4-0.6-0.4c-0.1,0.1-0.3,0.3-0.3,0.3
		c-0.5-0.3-0.9-1-0.9-1c-0.1,0.2-0.3,0.4-0.3,0.4c-0.4-0.3-0.9-0.8-0.9-0.8c0,0.2-0.2,0.3-0.2,0.3c-0.4-0.5-0.7-1.2-0.7-1.2
		c-0.1,0.2-0.3,0.4-0.3,0.4c-0.2-0.2-0.6-1-0.6-1c-0.1,0.2-0.3,0.3-0.3,0.3c-0.3-0.3-0.6-1-0.6-1c0,0.2-0.3,0.3-0.3,0.3
		c-0.3-0.3-0.6-1-0.6-1c-0.1,0.2-0.3,0.2-0.3,0.2c-0.3-0.5-0.4-1.2-0.4-1.2l-0.4,0.1c-0.4-0.4-0.8-1.6-0.8-1.6
		c-1.6,0.4-2.4-4.7-2.4-4.7C9.1,4.9,9.5,4.6,9.5,4.6c1.1-1.2,1.8-1.4,1.8-1.4c0.8-0.4,1.3,0.2,1.3,0.2c0.4,0.6,0.6,3.3,0.6,3.3
		c0.2,1.8,1.5,2.3,1.5,2.3S20.5,10.8,22.7,12z"/>
</g>
</svg>
