<?xml version="1.0" encoding="utf-8"?>
<!-- Generator: Adobe Illustrator 18.1.1, SVG Export Plug-In . SVG Version: 6.00 Build 0)  -->
<svg version="1.1" id="Ebene_1" xmlns="http://www.w3.org/2000/svg" xmlns:xlink="http://www.w3.org/1999/xlink" x="0px" y="0px"
	 viewBox="0 0 50 50" enable-background="new 0 0 50 50" xml:space="preserve">
<g>
	<rect x="0" fill-rule="evenodd" clip-rule="evenodd" fill="#FFE600" width="50" height="50"/>
	<g>
		<defs>
			<rect id="SVGID_39_" x="0" width="50" height="50"/>
		</defs>
		<clipPath id="SVGID_1_">
			<use xlink:href="#SVGID_39_"  overflow="visible"/>
		</clipPath>
		<polygon clip-path="url(#SVGID_1_)" fill-rule="evenodd" clip-rule="evenodd" fill="#ED081B" points="50,0 50,26.7 14.7,0 		"/>
		<polygon clip-path="url(#SVGID_1_)" fill-rule="evenodd" clip-rule="evenodd" fill="#ED081B" points="0,24.3 34,50 0,50 		"/>
	</g>
	<rect x="0" fill="none" width="50" height="50"/>
	<path fill-rule="evenodd" clip-rule="evenodd" fill="#1A171B" d="M18,18.5c0.1,1.3-0.2,2.6-0.4,3.8c-0.2,2.6-1.7,5-0.7,7.6
		c-0.6-0.5-0.7-1.4-0.7-2.1c-0.7-0.7-1.5-1.4-2.1-2.1c-0.1-0.5-0.3-1-0.8-1.3c-1.5-0.8-2.9,0.3-3.1,0.7c0.4,0,0.8,0,1,0.2
		c-0.6,0.2-1.3,1-1.5,1.6c0.4,0,0.6,0,0.9,0c-0.5,0.3-1.1,1.1-1.1,1.9c0.4-0.1,0.6-0.1,0.9-0.2c-0.4,0.4-0.6,1.6-0.4,1.9
		c0.3-0.2,0.5-0.4,1.1-0.5c-0.2,0.8,0.1,1.5,0.2,1.8c0.4-0.3,0.7-0.6,1.1-0.7c1,1.2,5.3,3.2,6.9,3.2c1.5-0.4,1.7-2.1,2.3-3.2
		l0.7,0.8c0,0,0.5-2.8,0.8-4.1c0.3,0.5,0.4,0.4,0.8,0.9c0.3-1.4,1.3-5.9,1.6-7.9c0.1-0.8-0.4-0.9-0.7-1.6c1.3,0.5,1.4,0.6,1.4,1.2
		c-0.1,1-1.3,5.2-1.3,5.2c1.4,0.3,2.9,0.4,4.2,0.7c-1.3,0.2-3.6,0.4-4.1,2.4c-0.1,2.4,1.2,4.3,1.5,6.7c-0.5-0.4-1.6-1-1.6-1.1
		c-0.1-0.4-0.4-1.5-1.9-1.3c-0.9,0.3-1.5,1.1-1.9,1.8c0.3,0.1,0.9,0,0.9,0c-0.7,0.3-1,0.9-1.3,1.4c0.3,0,0.8-0.1,1,0
		c-0.9,0.6-1,1.6-1,1.6c0.3,0,0.8-0.1,1.1,0c-0.1,0.1-0.6,0.6-0.5,1.6c0.2-0.2,0.8-0.4,1.1-0.4c-0.1,0.5-0.1,1,0,1.4
		c0.2-0.3,1-0.5,1.2-0.4c0.1,0.1,0,0.4,0.8,0.6c1.5,0.4,3,1.5,4.5,1.5c0.6-0.2,1.1-0.2,1.5-0.7c1-1.2,0.9-2.9,1.3-4.3
		c0.5,0.6,0.9,0.8,0.9,0.8c0.2-1.3-0.1-3,0.1-4.3c-0.4-0.6-0.8-1.3-0.5-2c0.4-0.6,0.7-1.3,1.1-1.9c-0.4,1.2-1.1,2.6-0.4,3.8
		c0.4,1.3,4.5,7.6,5.2,8.6c0.3,0.4,0.7,0.6,0.7,0.6c-0.4,0.2-0.9-0.3-1.1-0.5c-0.3-0.4-0.5-0.7-0.8-1.1c-0.8,0.2-1.6,0.3-2.4,0.5
		c-0.4-0.6-1-0.7-1.7-0.6c-1.9,0.5-1.8,2.7-1.8,2.7l0.7-0.2c-0.5,1.2-0.2,2.1-0.2,2.1c0.2-0.2,0.5-0.5,0.7-0.5
		c-0.3,0.6-0.1,1.3,0.2,1.8c0.1-0.2,0.4-0.5,0.7-0.7c-0.1,0.6-0.1,1.6,0.5,2.1c0.2-0.3,0.3-0.6,0.5-0.8c0.3,1.4,1.9,1.9,2.1,1.7
		c-0.3-0.4-0.7-1-0.2-1.3c0.3-0.2,0.3,0,0.8-0.1c0.9-0.5,4.8-2.7,6.2-4.6c0.6-1.2,0.1-2.5-0.3-3.6c0.4,0.1,0.6,0.2,1.2,0.3
		c-0.4-1.4-1-2.8-1.4-4.2c0.4,0.1,0.5,0.1,1.1,0.3c-0.3-1.5-1.8-6.4-1.9-7c0.5,0,1.2,0.2,1.7,0.2c-1.3-2.8-1.5-6-3.6-7.4
		c-0.2-0.3-3.4-1.4-3.6-1.6c0.3-0.2,1-0.4,1.3-0.7c-1.2-0.5-4.6-1.5-5.2-1.8c0.1-0.1,1.2-0.4,1.7-0.7c-0.5-0.3-5.4-2.4-7.1-3.3
		c-0.1-0.8-0.3-1.6-1.1-2.1c-1.8-1.1-4.9-2.4-5.7-2.8C20.1,7.8,21,6,19.5,5.2c-1-0.5-2,0.8-2.7,1.6c-0.3-0.4,0.3-0.7,0-1
		c-2-1.4-3.9-2.6-4.8-1.9c-1.4-0.8-3.1-1.7-4.5-2.5c-0.7,0-0.2,0.9-0.2,1.2C6.8,3,6.7,4.1,6.9,4.5C7.1,5,7.4,5.1,7.4,5.2
		c-0.1,0.7,0,0.9,0,1.3C5.6,5.4,4.9,4.2,4.8,3.6C4.6,2.7,5.1,2,5.2,1.6C4.4,1.1,3.1,1.3,2.3,2.1c-1,1-0.5,2.7,0.3,3.5
		c0.9,1,3.1,1.9,4.6,2.5c1,0.5,2.6,1.2,3.2,1.7c-0.4,0.2-1.2,0-1.8,0l-0.7-1c-0.2,0.4,0,0.9-0.5,0.9c-0.2,0.3,0.1,1.3,0.3,1.4
		c2.3,0.4,4.5,1.4,6.3,2.7c0.4,0.2,0.6,0.4,1,0.5c0.7-0.2,1-1.7,1.5-1.4c0.3,0.2-0.6,1.2-0.1,1.6C17.4,15.9,17.5,16.6,18,18.5z
		 M18.7,4.7c0,0-0.4,0-0.9,0.4c-0.3,0.2-0.6,0.6-0.6,0.6c-0.2-0.2-0.9-0.7-1.1-0.9C16.2,4.6,17.8,3.6,18.7,4.7z M17.7,18.6
		c0-0.4-1.2-2.2-1.2-2.2s-7.7,0.4-8.3,0.3c0-0.2,0-1.6-0.1-1.9c0.4-0.5,0.6-1.4,0.3-2.2c-0.4-1.2-1.8-1.3-2.9-1.2
		c0.3,0.3,0.4,0.3,0.5,0.6c-0.4-0.1-0.9-0.5-1.7-0.3c0.3,0.3,0.4,0.5,0.5,0.8c0,0-1-0.4-1.8,0.1c0.3,0.1,0.6,0.3,0.9,0.6
		c-0.3-0.1-0.8-0.2-1.7,0.3c0.5,0.1,0.9,0.5,1.1,0.6c-0.9,0.1-1.4,0.3-1.7,0.7C2,15,2.9,15.3,3,15.9c-0.1,0.1-0.4,0.3-0.4,1.1
		c0.2,1.4,0.5,3.2,1.1,4.6c1.2,2.1,4,1,5.9,1.2C9.2,23.3,8.9,24,8.9,24c0.3-0.1,4.8-0.4,6.7-0.2c0.3,0,0.7,0.1,1.1,0.1
		C17.1,22.3,17.4,20.3,17.7,18.6z"/>
	<path fill-rule="evenodd" clip-rule="evenodd" fill="#FFFFFF" d="M13.5,6.7C13.7,7,14,7.1,14.3,7c-0.1-0.2-0.3-0.4-0.1-0.9
		c0.4,0.2,1.1,0.6,1.3,0.8c-0.4,0.5-1.4,0.8-2.1,0.5c-0.8-0.4-1-1.3-0.6-2.1c0.2,0.1,0.6,0.3,0.6,0.4C13.3,6.1,13.2,6.4,13.5,6.7z"
		/>
	<path fill="none" stroke="#1A171B" stroke-width="0" stroke-miterlimit="3.8637" d="M13.5,6.7C13.7,7,14,7.1,14.3,7
		c-0.1-0.2-0.3-0.4-0.1-0.9c0.4,0.2,1.1,0.6,1.3,0.8c-0.4,0.5-1.4,0.8-2.1,0.5c-0.8-0.4-1-1.3-0.6-2.1c0.2,0.1,0.6,0.3,0.6,0.4
		C13.3,6.1,13.2,6.4,13.5,6.7z"/>
	<path fill-rule="evenodd" clip-rule="evenodd" fill="#FFE600" d="M10.9,7.6c0.4,0.6,0.2,1.3,0.3,2C10.8,9.2,10.5,8.8,9.6,8
		C8.9,7.4,8.1,7,7.6,6.6C7.9,6.4,8.1,5.5,8.6,6C9.4,6.5,10.1,7,10.9,7.6z"/>
	<path fill="none" stroke="#1A171B" stroke-width="0" stroke-miterlimit="3.8637" d="M10.9,7.6c0.4,0.6,0.2,1.3,0.3,2
		C10.8,9.2,10.5,8.8,9.6,8C8.9,7.4,8.1,7,7.6,6.6C7.9,6.4,8.1,5.5,8.6,6C9.4,6.5,10.1,7,10.9,7.6z"/>
	<path fill-rule="evenodd" clip-rule="evenodd" fill="#ED081B" d="M7.9,20.6C7.9,21.4,7.1,22,7.1,22c1.1-1.4-1-4.8-0.7-6.3
		c0.1-0.5,0.5-0.9,0.5-0.9C6.3,16.3,8,19.5,7.9,20.6z M4.4,2C3.8,3,4,4.2,4.6,4.9c0.9,1.2,2.3,1.8,3.5,2.6c0.6,0.4,1.7,1,2,1.6
		c-0.8-0.5-1.8-1-2-1.1C6.1,6.8,3.2,6.1,2.7,4.3C2.2,2.5,3.5,1.8,4.4,2z M13.5,25.6c-0.5,0-0.5,0.1-0.8,0.2c-0.3-0.7-0.8-0.8-1.3-1
		c0.3-0.2,0.9-0.2,1.2-0.1C13,24.8,13.5,25.2,13.5,25.6z M12.5,26c-0.1,0.2-0.3,0.4-0.4,0.6c-0.4-0.2-1.5-0.3-1.5-0.3
		C10.9,25.9,12,25.7,12.5,26z M34,27.1c-0.1,0.6-0.4,1.1-0.5,1.7l-4-2.5L34,27.1z M12,27.1c0,0.3-0.1,0.5-0.1,1c0,0-0.4-0.1-0.6-0.1
		c-0.4,0-0.9,0.2-0.9,0.2C10.7,27.3,11.7,27,12,27.1z M11.9,28.4c0,0.2,0,0.7,0.1,0.9c-0.6-0.1-0.8,0.1-1.5,0.3
		C10.7,28.7,11.8,28.4,11.9,28.4z M12.2,30.5L11.4,31c-0.1-0.9,0.5-1.3,0.6-1.3C12.1,30.1,12.1,30.1,12.2,30.5z M24.2,34.1
		c-0.2,0-0.6,0.2-0.7,0.5c-0.4-0.3-1-0.3-1.7-0.3c0.2-0.5,0.6-0.8,1.1-0.9C23.4,33.2,24.1,33.5,24.2,34.1z M23.1,35.8
		c-0.4,0-0.9-0.2-1.6-0.1c0.1-0.4,0.6-0.8,1.2-0.8c0.3,0,0.7,0,0.7,0L23.1,35.8z M29.6,37.8c0.6,0.5,0.6,1.5,0.6,1.5
		c-0.5-1.7-4.5-2.1-5.5-3.2c-0.3-0.4-0.4-0.9-0.4-0.9C25.2,36.5,28.7,37,29.6,37.8z M23,37.1c-0.4,0-1.2-0.1-1.6,0
		c0-0.2,0.4-0.6,0.8-0.8c0.5-0.2,0.6-0.1,0.9-0.1C23,36.4,23,36.7,23,37.1z M23.1,38.2c-0.4,0.1-1,0.1-1.4,0.2
		c0.2-0.4,0.8-0.9,1.3-1L23.1,38.2z M23.4,39.3c-0.3,0-0.7,0.3-0.7,0.3c-0.1-0.5,0.3-0.8,0.5-1C23.2,38.9,23.3,39.1,23.4,39.3z
		 M33.9,41.6c-0.2,0.1-0.4,0.2-0.7,0.7c-0.6-0.2-1.3,0.3-1.7,0.5C31.8,41.6,32.8,40.8,33.9,41.6z M33.2,43.6
		c-0.5,0.2-0.9,0.4-1.4,0.9c0-0.4,0.2-1,0.4-1.3c0.2-0.3,0.7-0.5,1-0.5C33.1,43.1,33.1,43.4,33.2,43.6z M33.7,44.8
		c-0.3,0-0.5,0.2-0.8,0.4c-0.3,0.2-0.6,0.6-0.6,0.6c-0.1-0.3,0-0.8,0.3-1.2c0.2-0.2,0.5-0.4,0.6-0.5L33.7,44.8z M34.6,45.8
		c-0.4,0.2-0.8,0.7-1.1,1.2c-0.1-0.6,0.1-1.5,0.5-1.9C34.1,45.4,34.4,45.6,34.6,45.8z M35.7,46.7c-0.3,0.4-0.5,0.4-0.3,1.5
		c-0.6-0.4-1-1.6-0.5-2.2C35.2,46.3,35.5,46.6,35.7,46.7z M7.9,14c-0.3-0.4-0.5-0.5-0.7-0.7c0-0.7-0.4-1.4-0.6-1.6
		c0.3,0.1,1,0.2,1.3,0.7C8.1,13,8.1,13.5,7.9,14z M6.8,13.2c-0.2,0-0.6,0-0.8,0.1c-0.1-0.4-0.8-1.2-0.8-1.2
		C5.8,12.1,6.7,12.7,6.8,13.2z M4.8,14c-0.3,0.2-0.1,0.1-0.5,0.4c0,0-0.2-0.3-0.3-0.4c-0.3-0.3-0.8-0.5-0.8-0.5
		C4.1,13.2,4.7,13.7,4.8,14z M3.9,14.8c-0.4,0.3-0.5,0.4-0.6,0.6c-0.3-0.5-0.8-0.6-1-0.7C3.2,14.3,3.9,14.8,3.9,14.8z M5.8,13.5
		c-0.2,0.1-0.5,0.2-0.7,0.4c-0.3-0.5-0.4-0.7-1-1.1C5.1,12.7,5.8,13.4,5.8,13.5z"/>
	<path fill="none" stroke="#1A171B" stroke-width="0" stroke-miterlimit="3.8637" d="M7.9,20.6C7.9,21.4,7.1,22,7.1,22
		c1.1-1.4-1-4.8-0.7-6.3c0.1-0.5,0.5-0.9,0.5-0.9C6.3,16.3,8,19.5,7.9,20.6z M4.4,2C3.8,3,4,4.2,4.6,4.9c0.9,1.2,2.3,1.8,3.5,2.6
		c0.6,0.4,1.7,1,2,1.6c-0.8-0.5-1.8-1-2-1.1C6.1,6.8,3.2,6.1,2.7,4.3C2.2,2.5,3.5,1.8,4.4,2z M13.5,25.6c-0.5,0-0.5,0.1-0.8,0.2
		c-0.3-0.7-0.8-0.8-1.3-1c0.3-0.2,0.9-0.2,1.2-0.1C13,24.8,13.5,25.2,13.5,25.6z M12.5,26c-0.1,0.2-0.3,0.4-0.4,0.6
		c-0.4-0.2-1.5-0.3-1.5-0.3C10.9,25.9,12,25.7,12.5,26z M34,27.1c-0.1,0.6-0.4,1.1-0.5,1.7l-4-2.5L34,27.1z M12,27.1
		c0,0.3-0.1,0.5-0.1,1c0,0-0.4-0.1-0.6-0.1c-0.4,0-0.9,0.2-0.9,0.2C10.7,27.3,11.7,27,12,27.1z M11.9,28.4c0,0.2,0,0.7,0.1,0.9
		c-0.6-0.1-0.8,0.1-1.5,0.3C10.7,28.7,11.8,28.4,11.9,28.4z M12.2,30.5L11.4,31c-0.1-0.9,0.5-1.3,0.6-1.3
		C12.1,30.1,12.1,30.1,12.2,30.5z M24.2,34.1c-0.2,0-0.6,0.2-0.7,0.5c-0.4-0.3-1-0.3-1.7-0.3c0.2-0.5,0.6-0.8,1.1-0.9
		C23.4,33.2,24.1,33.5,24.2,34.1z M23.1,35.8c-0.4,0-0.9-0.2-1.6-0.1c0.1-0.4,0.6-0.8,1.2-0.8c0.3,0,0.7,0,0.7,0L23.1,35.8z
		 M29.6,37.8c0.6,0.5,0.6,1.5,0.6,1.5c-0.5-1.7-4.5-2.1-5.5-3.2c-0.3-0.4-0.4-0.9-0.4-0.9C25.2,36.5,28.7,37,29.6,37.8z M23,37.1
		c-0.4,0-1.2-0.1-1.6,0c0-0.2,0.4-0.6,0.8-0.8c0.5-0.2,0.6-0.1,0.9-0.1C23,36.4,23,36.7,23,37.1z M23.1,38.2c-0.4,0.1-1,0.1-1.4,0.2
		c0.2-0.4,0.8-0.9,1.3-1L23.1,38.2z M23.4,39.3c-0.3,0-0.7,0.3-0.7,0.3c-0.1-0.5,0.3-0.8,0.5-1C23.2,38.9,23.3,39.1,23.4,39.3z
		 M33.9,41.6c-0.2,0.1-0.4,0.2-0.7,0.7c-0.6-0.2-1.3,0.3-1.7,0.5C31.8,41.6,32.8,40.8,33.9,41.6z M33.2,43.6
		c-0.5,0.2-0.9,0.4-1.4,0.9c0-0.4,0.2-1,0.4-1.3c0.2-0.3,0.7-0.5,1-0.5C33.1,43.1,33.1,43.4,33.2,43.6z M33.7,44.8
		c-0.3,0-0.5,0.2-0.8,0.4c-0.3,0.2-0.6,0.6-0.6,0.6c-0.1-0.3,0-0.8,0.3-1.2c0.2-0.2,0.5-0.4,0.6-0.5L33.7,44.8z M34.6,45.8
		c-0.4,0.2-0.8,0.7-1.1,1.2c-0.1-0.6,0.1-1.5,0.5-1.9C34.1,45.4,34.4,45.6,34.6,45.8z M35.7,46.7c-0.3,0.4-0.5,0.4-0.3,1.5
		c-0.6-0.4-1-1.6-0.5-2.2C35.2,46.3,35.5,46.6,35.7,46.7z M7.9,14c-0.3-0.4-0.5-0.5-0.7-0.7c0-0.7-0.4-1.4-0.6-1.6
		c0.3,0.1,1,0.2,1.3,0.7C8.1,13,8.1,13.5,7.9,14z M6.8,13.2c-0.2,0-0.6,0-0.8,0.1c-0.1-0.4-0.8-1.2-0.8-1.2
		C5.8,12.1,6.7,12.7,6.8,13.2z M4.8,14c-0.3,0.2-0.1,0.1-0.5,0.4c0,0-0.2-0.3-0.3-0.4c-0.3-0.3-0.8-0.5-0.8-0.5
		C4.1,13.2,4.7,13.7,4.8,14z M3.9,14.8c-0.4,0.3-0.5,0.4-0.6,0.6c-0.3-0.5-0.8-0.6-1-0.7C3.2,14.3,3.9,14.8,3.9,14.8z M5.8,13.5
		c-0.2,0.1-0.5,0.2-0.7,0.4c-0.3-0.5-0.4-0.7-1-1.1C5.1,12.7,5.8,13.4,5.8,13.5z"/>
</g>
</svg>
