<?xml version="1.0"?>
<svg width="290" height="130" xmlns="http://www.w3.org/2000/svg">

 <g>
  <title>background</title>
  <rect fill="none" id="canvas_background" height="132" width="292" y="-1" x="-1"/>
 </g>
 <g>
  <title>Layer 1</title>
  <g id="svg_2">
   <g id="svg_3">
    <path id="svg_4" d="m4.100003,23c0.899994,0 1.799995,-0.599998 1.799995,-1.799995l0,-18.800003c0,-2.400002 -3.599998,-2.400002 -3.599998,0l0,18.800003c0,1.299995 1,1.799995 1.800003,1.799995z"/>
    <path id="svg_5" d="m16.600002,23l0.299995,0c3.099998,0 6.300003,-2.099998 6.300003,-5.5l0,-0.099998c0,-1.199997 -0.700005,-1.900002 -1.800003,-1.900002c-0.900002,0 -1.5,0.5 -1.799995,1.5c-0.300003,1.5 -1.300003,2.400002 -2.700005,2.400002l-0.299995,0c-1.600005,0 -2.800002,-1.099998 -2.800002,-2.699997l0,-10c0,-1.5 1.199997,-2.599998 2.800002,-2.599998l0.299995,0c1.400002,0 2.5,0.899994 2.700005,2.399994c0.299995,1 0.899994,1.5 1.799995,1.5c1.099998,0 1.800003,-0.699997 1.800003,-1.899994l0,0c0,-3.300003 -3.300003,-5.5 -6.300003,-5.5l-0.299995,0c-3.600005,0 -6.400001,2.699997 -6.400001,6.199997l0,9.900002c0,3.599998 2.799995,6.299995 6.400001,6.299995z"/>
    <path id="svg_6" d="m28.600002,23c0.899994,0 1.799995,-0.599998 1.799995,-1.799995l0,-7.900002l5.800003,0l0,7.900002c0,1.199997 0.900002,1.799995 1.799995,1.799995s1.800003,-0.599998 1.800003,-1.799995l0,-18.800003c0,-2.400002 -3.599998,-2.400002 -3.599998,0l0,7.300003l-5.800003,0l0,-7.300003c0,-2.400002 -3.599998,-2.400002 -3.599998,0l0,18.800003c0,1.299995 0.900002,1.799995 1.800003,1.799995z"/>
    <path id="svg_7" d="m4.8,55.900009c0.199997,0.900009 1,1.5 2.099998,1.5c1,0 1.800004,-0.599991 2,-1.5l2.900002,-12.599991l2.900002,12.599991c0.199997,0.900009 1,1.400009 2.099998,1.400009c1,0 1.800003,-0.600006 2.099998,-1.5l4,-18.700005c0,-0.099998 0,-0.300003 0,-0.400002c0,-1 -0.799995,-1.799995 -1.799995,-1.799995c-0.900002,0 -1.600006,0.599998 -1.700005,1.399994l-2.599998,12.199989l-2.900001,-12.099998c-0.199997,-0.900002 -1,-1.5 -2,-1.5c-1,0 -1.799995,0.599998 -2,1.5l-3,12.200005l-2.599998,-12.200005c-0.199997,-0.900002 -0.900002,-1.400002 -1.699997,-1.400002c-1,0 -1.800003,0.800003 -1.800003,1.800003c0,0.199997 0,0.300003 0,0.400002l4,18.700005z"/>
    <path id="svg_8" d="m25.600002,57.400009c0.599998,0 1.5,-0.300003 1.799995,-1.300003l1.200005,-3.899994l6.399994,0l1.200005,3.899994c0.299995,0.800003 0.900002,1.300003 1.699997,1.300003c1.099998,0 1.800003,-0.699997 1.800003,-1.699997c0,-0.100006 0,-0.199997 0,-0.300003l-5.900002,-18.999992c-0.300003,-0.900002 -1,-1.400002 -2,-1.400002c-0.800003,0 -1.699997,0.400002 -2,1.400002l-5.900002,18.799995l0,0.199997c0,0.199997 0,0.300003 0,0.400009c-0.099998,0.899979 0.700005,1.599991 1.700005,1.599991zm4.099998,-8.800003l2.099998,-6.800003l2.099998,6.800003l-4.199997,0z"/>
    <path id="svg_9" d="m27.200001,30.5l0,0.700005c0,1.199997 0.900002,1.799995 1.799995,1.799995s1.800003,-0.599998 1.800003,-1.799995l0,-0.700005c0,-2.399994 -3.599998,-2.399994 -3.599998,0z"/>
    <path id="svg_10" d="m32.600002,30.5l0,0.700005c0,1.199997 0.899994,1.799995 1.799995,1.799995s1.800003,-0.599998 1.800003,-1.799995l0,-0.700005c0,-1.199997 -0.900002,-1.799995 -1.800003,-1.799995c-0.799995,-0.099998 -1.799995,0.599998 -1.799995,1.799995z"/>
    <path id="svg_11" d="m44.999996,57.400009c0.900002,0 1.800003,-0.599991 1.800003,-1.800003l0,-7.899994l5.800003,0l0,7.899994c0,1.200012 0.899994,1.800003 1.799995,1.800003s1.800003,-0.599991 1.800003,-1.800003l0,-18.899994c0,-2.400002 -3.599998,-2.400002 -3.599998,0l0,7.300003l-5.800003,0l0,-7.300003c0,-2.400002 -3.599998,-2.400002 -3.599998,0l0,18.800003c0,1.299988 1,1.899994 1.799995,1.899994z"/>
    <path id="svg_12" d="m62.600002,57.199997l8.300007,0c1.199997,0 1.799988,-0.900009 1.799988,-1.800003c0,-0.899994 -0.599991,-1.800003 -1.799988,-1.800003l-6.5,0l0,-16.900002c0,-1.199997 -0.900013,-1.799995 -1.800007,-1.799995c-0.900009,0 -1.800003,0.599998 -1.800003,1.799995l0,18.70002c0,1 0.899994,1.799988 1.800003,1.799988z"/>
    <path id="svg_13" d="m76.699997,57.199997l9.399994,0c1.199997,0 1.800003,-0.900009 1.800003,-1.800003c0,-0.899994 -0.600006,-1.800003 -1.800003,-1.800003l-7.599991,0l0,-6l5.099991,0c1.199997,0 1.800003,-0.899994 1.800003,-1.800003c0,-0.899994 -0.600006,-1.799988 -1.800003,-1.799988l-5.099991,0l0,-5.300011l7.599991,0c1.199997,0 1.800003,-0.899994 1.800003,-1.799995s-0.600006,-1.800003 -1.800003,-1.800003l-9.399994,0c-0.900009,0 -1.800003,0.900002 -1.800003,1.800003l0,18.5c-0.099991,1.000015 0.800003,1.800003 1.800003,1.800003z"/>
    <path id="svg_14" d="m15.100003,89.699997c0,-0.900009 -0.600006,-1.800003 -1.800003,-1.800003l-7.599998,0l0,-6l5.099998,0c1.199997,0 1.800003,-0.899994 1.800003,-1.800003s-0.600006,-1.800003 -1.800003,-1.800003l-5.099998,0l0,-5.399994l7.599998,0c1.199997,0 1.800003,-0.899994 1.800003,-1.800003c0,-0.899994 -0.600006,-1.800003 -1.800003,-1.800003l-9.400002,0c-0.900002,0 -1.799995,0.900009 -1.799995,1.800003l0,18.5c0,0.900009 0.899994,1.800003 1.799995,1.800003l9.400002,0c1.199997,0.000015 1.800003,-0.799988 1.800003,-1.699997z"/>
    <path id="svg_15" d="m24.700001,91.600006c3.5,0 6.400002,-2.800003 6.400002,-6.300003l0,-14.300003c0,-2.399994 -3.600006,-2.399994 -3.600006,0l0,14.300003c0,1.5 -1.299995,2.800003 -2.799995,2.800003l-0.300003,0c-1.5,0 -2.799995,-1.300003 -2.799995,-2.800003l0,-14.300003c0,-2.399994 -3.600006,-2.399994 -3.600006,0l0,14.300003c0,3.5 2.900002,6.300003 6.400002,6.300003c0,0 0.300003,0 0.300003,0z"/>
    <path id="svg_16" d="m35.399998,71.199997l0,18.699997c0,1.199997 1,1.800003 1.800003,1.800003c0.900002,0 1.799995,-0.600006 1.799995,-1.800003l0,-7.5l2,0l3.900002,8.300003c0.300003,0.599991 0.900002,1 1.599998,1c1.100006,0 1.900002,-0.699997 1.900002,-1.800003c0,-0.199997 -0.099998,-0.399994 -0.199997,-0.800003l-3.400002,-7.099991c2.300003,-0.900009 3.800003,-3.300003 3.800003,-5.900009l0,-0.399994c0,-3.5 -2.900002,-6.400009 -6.400002,-6.400009l-5.099998,0c-0.800003,0.100021 -1.700005,0.900009 -1.700005,1.900009zm3.700005,7.600006l0,-5.800003l3.299995,0c1.5,0 2.700005,1.199997 2.700005,2.800003l0,0.300003c0,1.599991 -1.100006,2.800003 -2.600006,2.800003l-3.399994,0l0,-0.100006z"/>
    <path id="svg_17" d="m52.200001,75.400009l0,9.900009c0,3.5 2.799995,6.199997 6.400002,6.199997l0.300003,0c3.599991,0 6.399998,-2.699997 6.399998,-6.199997l0,-9.900009c0,-3.5 -2.800007,-6.199997 -6.399998,-6.199997l-0.300003,0c-3.600006,-0.000015 -6.400002,2.699997 -6.400002,6.199997zm9.499992,10c0,1.5 -1.199997,2.699997 -2.800003,2.699997l-0.300003,0c-1.599998,0 -2.799995,-1.199997 -2.799995,-2.699997l0,-9.899994c0,-1.5 1.199997,-2.699997 2.799995,-2.699997l0.300003,0c1.600006,0 2.800003,1.099991 2.800003,2.699997l0,9.899994z"/>
    <path id="svg_18" d="m76.400009,69.400009l-5,0c-1,0 -1.800003,0.800003 -1.800003,1.800003l0,18.699997c0,1.199997 0.900009,1.800003 1.800003,1.800003c0.900009,0 1.800003,-0.600006 1.800003,-1.800003l0,-7.800003l3.199997,0c3.5,0 6.199997,-2.799988 6.199997,-6.399994c-0.100006,-3.600006 -2.800003,-6.300003 -6.199997,-6.300003zm0,9.099991l-3.199997,0l0,-5.5l3.199997,0c1.5,0 2.5,1.100006 2.5,2.800003c0,1.5 -1,2.699997 -2.5,2.699997z"/>
    <path id="svg_19" d="m92.400009,70.600006c-0.300003,-0.900009 -1,-1.400009 -2,-1.400009c-0.800003,0 -1.699997,0.400009 -2,1.400009l-5.899994,18.800003l0,0.199997c0,0.199997 0,0.300003 0,0.399994c0,1 0.800003,1.699997 1.800003,1.699997c0.599991,0 1.5,-0.299988 1.799988,-1.299988l1.200012,-3.900009l6.399994,0l1.199997,3.900009c0.300003,0.799988 0.900009,1.299988 1.699997,1.299988c1.100006,0 1.800003,-0.699997 1.800003,-1.699997c0,-0.099991 0,-0.199997 0,-0.300003l-6,-19.099991zm0,12.300003l-4.199997,0l2.100006,-6.800003l2.099991,6.800003z"/>
   </g>
   <rect id="svg_20" height="4" width="257.4" y="110.700003" x="0"/>
   <g id="svg_21">
    <g id="svg_22">
     <rect id="svg_23" height="27.8" width="27.8" fill="#EB0029" y="98.600003" x="260.1"/>
    </g>
    <polygon id="svg_24" points="282.8 109.8 276.7 109.8 276.7 103.8 271.4 103.8 271.4 109.8 265.3 109.8 265.3 115.2 271.4 115.2 271.4 121.2 276.7 121.2 276.7 115.2 282.8 115.2" fill="#FFFFFF"/>
   </g>
  </g>
 </g>
</svg>