<?xml version="1.0" encoding="utf-8"?>
<!-- Generator: Adobe Illustrator 18.1.1, SVG Export Plug-In . SVG Version: 6.00 Build 0)  -->
<svg version="1.1" id="Ebene_1" xmlns="http://www.w3.org/2000/svg" xmlns:xlink="http://www.w3.org/1999/xlink" x="0px" y="0px"
	 viewBox="0 0 419.5 297.6" enable-background="new 0 0 419.5 297.6" xml:space="preserve">
<g>
	<rect x="70.2" y="67.1" fill="#FFFFFF" width="288" height="148"/>
	<g>
		<rect x="70.2" y="197.9" width="257.4" height="4"/>
		<g>
			<g>
				<rect x="330.3" y="185.8" fill="#EB0029" width="27.8" height="27.8"/>
			</g>
			<polygon fill="#FFFFFF" points="353,197 346.9,197 346.9,191 341.6,191 341.6,197 335.5,197 335.5,202.3 341.6,202.3 
				341.6,208.3 346.9,208.3 346.9,202.3 353,202.3 			"/>
		</g>
		<g>
			<path d="M73.9,110.2c0.9,0,1.8-0.6,1.8-1.8V96.8l2.9,6.4c0.3,0.7,1,1.1,1.8,1.1c0.8,0,1.6-0.4,1.9-1.1l2.7-6.4v11.6
				c0,1.2,0.9,1.8,1.8,1.8s1.8-0.6,1.8-1.8V89.5c0-0.9-0.9-1.8-1.8-1.8h-0.4c-1,0-1.5,0.3-1.8,1.1l-4.2,9.6l-4.3-9.6
				c-0.3-0.7-0.9-1.1-1.8-1.1h-0.4c-1,0-1.8,0.9-1.8,1.8v18.8C72.1,109.7,73,110.2,73.9,110.2z"/>
			<path d="M93.9,110.2c0.6,0,1.5-0.3,1.8-1.3l1.2-3.9h6.4l1.2,3.9c0.3,0.8,0.9,1.3,1.7,1.3c1.1,0,1.8-0.7,1.8-1.7
				c0-0.1,0-0.2,0-0.3l-5.9-19c-0.3-0.9-1-1.4-2-1.4c-0.8,0-1.7,0.4-2,1.4L92.2,108v0.2c0,0.2,0,0.3,0,0.4
				C92.1,109.5,92.9,110.2,93.9,110.2z M98,101.5l2.1-6.8l2.1,6.8H98z"/>
			<path d="M121.3,108.7c0.2,0.9,1,1.5,2,1.5c1,0,1.8-0.6,2-1.5l4.5-18.6c0-0.1,0-0.3,0-0.5c0-1-0.8-1.8-1.9-1.8
				c-0.8,0-1.5,0.5-1.7,1.4l-3,13l-3-13c-0.1-0.9-0.8-1.4-1.6-1.4c-1.1,0-1.9,0.8-1.9,1.8c0,0.2,0,0.4,0,0.5L121.3,108.7z"/>
			<path d="M139.5,110.2h0.3c3.6,0,6.4-2.7,6.4-6.2V94c0-3.5-2.8-6.2-6.4-6.2h-0.3c-3.6,0-6.4,2.7-6.4,6.2v9.9
				C133.1,107.5,135.9,110.2,139.5,110.2z M142.5,104c0,1.5-1.2,2.7-2.8,2.7h-0.3c-1.6,0-2.8-1.2-2.8-2.7V94c0-1.5,1.2-2.7,2.8-2.7
				h0.3c1.6,0,2.8,1.1,2.8,2.7V104z"/>
			<path d="M152.3,110.2c0.9,0,1.8-0.6,1.8-1.8V89.5c0-2.4-3.6-2.4-3.6,0v18.8C150.5,109.7,151.4,110.2,152.3,110.2z"/>
			<path d="M159.8,110.2c0.7,0,1.3-0.4,1.6-1l3.2-6.5l3.2,6.5c0.4,0.6,0.9,1,1.6,1c1,0,1.9-0.8,1.9-1.7c0-0.3-0.1-0.6-0.2-0.9
				l-4.4-8.9l4.1-8.3c0.1-0.3,0.2-0.6,0.2-0.9c0-1-0.8-1.8-1.9-1.8c-0.5,0-1.1,0.2-1.6,1l-2.9,5.8l-2.9-5.7c-0.3-0.6-0.9-1-1.6-1
				c-1,0-1.9,0.8-1.9,1.8c0,0.3,0.1,0.6,0.2,0.9l4.1,8.3l-4.4,8.9c-0.1,0.3-0.2,0.6-0.2,0.9C157.9,109.5,158.7,110.2,159.8,110.2z"
				/>
			<path d="M73.9,144.5c0.9,0,1.8-0.6,1.8-1.8v-7.8h3.2c3.5,0,6.2-2.8,6.2-6.4c0-3.6-2.7-6.3-6.2-6.3h-5c-1,0-1.8,0.8-1.8,1.8v18.7
				C72.1,143.9,73,144.5,73.9,144.5z M78.9,131.3h-3.2v-5.5h3.2c1.5,0,2.5,1.1,2.5,2.8C81.4,130.2,80.4,131.3,78.9,131.3z"/>
			<path d="M88.3,138.2c0,3.5,2.8,6.2,6.4,6.2H95c3.6,0,6.4-2.7,6.4-6.2v-9.9c0-3.5-2.8-6.2-6.4-6.2h-0.3c-3.6,0-6.4,2.7-6.4,6.2
				V138.2z M97.7,138.2c0,1.5-1.2,2.7-2.8,2.7h-0.3c-1.6,0-2.8-1.2-2.8-2.7v-9.9c0-1.5,1.2-2.7,2.8-2.7h0.3c1.6,0,2.8,1.1,2.8,2.7
				V138.2z"/>
			<path d="M105.4,123.8v14.3c0,3.5,2.9,6.3,6.4,6.3h0.3c3.5,0,6.4-2.8,6.4-6.3v-14.3c0-2.4-3.6-2.4-3.6,0v14.3
				c0,1.5-1.3,2.8-2.8,2.8h-0.3c-1.5,0-2.8-1.3-2.8-2.8v-14.3C109.1,121.5,105.4,121.5,105.4,123.8z"/>
			<path d="M136.3,128.9v-0.3c0-3.5-2.9-6.4-6.4-6.4h-5.1c-0.9,0-1.8,0.9-1.8,1.8v18.7c0,1.2,1,1.8,1.8,1.8c0.9,0,1.8-0.6,1.8-1.8
				v-7.5h2l3.9,8.3c0.3,0.6,0.9,1,1.6,1c1.1,0,1.9-0.7,1.9-1.8c0-0.2-0.1-0.4-0.2-0.8l-3.4-7.1C134.8,133.8,136.3,131.6,136.3,128.9
				z M132.6,128.6v0.3c0,1.6-1.1,2.8-2.6,2.8h-3.4v-5.9h3.3C131.5,125.8,132.6,127,132.6,128.6z"/>
			<path d="M73.9,178.6h8.3c1.2,0,1.8-0.9,1.8-1.8s-0.6-1.8-1.8-1.8h-6.5v-16.8c0-1.2-0.9-1.8-1.8-1.8s-1.8,0.6-1.8,1.8v18.7
				C72.1,177.8,72.9,178.6,73.9,178.6z"/>
			<path d="M85.1,156.3c-1.5,0-2.7,2.3-2.7,5v0.7c0,1.2,0.9,1.8,1.7,1.8c0.9,0,1.8-0.6,1.8-1.7v-0.9c0-1.2,0.1-1.4,0.6-2.1l0.1-0.1
				c0.2-0.4,0.3-0.7,0.3-1.1C86.9,157,86.2,156.3,85.1,156.3z"/>
			<path d="M101.6,160c1.2,0,1.8-0.9,1.8-1.8s-0.6-1.8-1.8-1.8h-9.4c-0.9,0-1.8,0.9-1.8,1.8v18.5c0,0.9,0.9,1.8,1.8,1.8h9.4
				c1.2,0,1.8-0.9,1.8-1.8s-0.6-1.8-1.8-1.8H94v-6h5.1c1.2,0,1.8-0.9,1.8-1.8s-0.6-1.8-1.8-1.8H94v-5.4h7.6
				C101.6,159.9,101.6,160,101.6,160z"/>
			<path d="M106.8,158.1v14.3c0,3.5,2.9,6.3,6.4,6.3h0.3c3.5,0,6.4-2.8,6.4-6.3v-14.3c0-2.4-3.6-2.4-3.6,0v14.3
				c0,1.5-1.3,2.8-2.8,2.8h-0.3c-1.5,0-2.8-1.3-2.8-2.8v-14.3C110.5,155.7,106.8,155.7,106.8,158.1z"/>
			<path d="M137.7,163.1v-0.3c0-3.5-2.9-6.4-6.4-6.4h-5.1c-0.9,0-1.8,0.9-1.8,1.8V177c0,1.2,1,1.8,1.8,1.8c0.9,0,1.8-0.6,1.8-1.8
				v-7.5h2l3.9,8.3c0.3,0.6,0.9,1,1.6,1c1.1,0,1.9-0.7,1.9-1.8c0-0.2-0.1-0.4-0.2-0.8l-3.4-7.1C136.2,168.2,137.7,165.9,137.7,163.1
				z M134,162.8v0.3c0,1.6-1.1,2.8-2.6,2.8H128v-5.8h3.3C132.9,160,134,161.2,134,162.8z"/>
			<path d="M147.9,156.3h-0.3c-3.6,0-6.4,2.7-6.4,6.2v9.9c0,3.5,2.8,6.2,6.4,6.2h0.3c3.6,0,6.4-2.7,6.4-6.2v-9.9
				C154.2,159,151.4,156.3,147.9,156.3z M144.8,162.5c0-1.5,1.2-2.7,2.8-2.7h0.3c1.6,0,2.8,1.1,2.8,2.7v9.9c0,1.5-1.2,2.7-2.8,2.7
				h-0.3c-1.6,0-2.8-1.2-2.8-2.7V162.5z"/>
			<path d="M165.2,156.5h-5c-1,0-1.8,0.8-1.8,1.8v18.7c0,1.2,0.9,1.8,1.8,1.8c0.9,0,1.8-0.6,1.8-1.8v-7.8h3.2c3.5,0,6.2-2.8,6.2-6.4
				C171.4,159.2,168.7,156.5,165.2,156.5z M165.2,165.7H162v-5.5h3.2c1.5,0,2.5,1.1,2.5,2.8C167.8,164.5,166.7,165.7,165.2,165.7z"
				/>
			<path d="M186,160c1.2,0,1.8-0.9,1.8-1.8s-0.6-1.8-1.8-1.8h-9.4c-0.9,0-1.8,0.9-1.8,1.8v18.5c0,0.9,0.9,1.8,1.8,1.8h9.4
				c1.2,0,1.8-0.9,1.8-1.8s-0.6-1.8-1.8-1.8h-7.6v-6h5.1c1.2,0,1.8-0.9,1.8-1.8s-0.6-1.8-1.8-1.8h-5.1v-5.4h7.6V160z"/>
		</g>
	</g>
</g>
</svg>
