<?xml version="1.0"?>
<svg width="290" height="130" xmlns="http://www.w3.org/2000/svg">

 <g>
  <title>background</title>
  <rect fill="none" id="canvas_background" height="132" width="292" y="-1" x="-1"/>
 </g>
 <g>
  <title>Layer 1</title>
  <g id="svg_25">
   <g id="svg_3">
    <path id="svg_4" d="m3.700005,23c0.900002,0 1.800003,-0.599998 1.800003,-1.800003l0,-11.599991l2.899994,6.400002c0.300003,0.699997 1,1.099998 1.800003,1.099998c0.800003,0 1.599998,-0.400002 1.900002,-1.099998l2.699997,-6.400002l0,11.599998c0,1.200005 0.900002,1.800003 1.800003,1.800003s1.799995,-0.599998 1.799995,-1.800003l0,-18.800003c0,-0.900002 -0.899994,-1.800003 -1.799995,-1.800003l-0.400002,0c-1,0 -1.5,0.300003 -1.800003,1.100006l-4.199997,9.599998l-4.300003,-9.599998c-0.299995,-0.700005 -0.899994,-1.100006 -1.799995,-1.100006l-0.400002,0c-1,0 -1.800003,0.900002 -1.800003,1.800003l0,18.800003c0,1.299995 0.900002,1.799995 1.800003,1.799995z"/>
    <path id="svg_5" d="m23.700005,23c0.599998,0 1.5,-0.300003 1.800003,-1.300003l1.199997,-3.899994l6.400002,0l1.199997,3.899994c0.300003,0.800003 0.900002,1.300003 1.700005,1.300003c1.099998,0 1.799995,-0.699997 1.799995,-1.699997c0,-0.100006 0,-0.200005 0,-0.300003l-5.900002,-19c-0.299995,-0.900002 -1,-1.400002 -2,-1.400002c-0.799995,0 -1.699997,0.400002 -2,1.400002l-5.900002,18.800003l0,0.199997c0,0.200005 0,0.300003 0,0.400002c-0.099998,0.900002 0.700005,1.599998 1.700005,1.599998zm4.099998,-8.699997l2.099998,-6.800003l2.099998,6.800003l-4.199997,0z"/>
    <path id="svg_6" d="m51.100006,21.5c0.199997,0.900002 1,1.5 2,1.5s1.800003,-0.599998 2,-1.5l4.5,-18.599998c0,-0.099998 0,-0.300003 0,-0.5c0,-1 -0.800003,-1.800003 -1.900002,-1.800003c-0.799995,0 -1.5,0.5 -1.699997,1.400002l-3,13l-3,-13c-0.099998,-0.900002 -0.800003,-1.400002 -1.599998,-1.400002c-1.100006,0 -1.900002,0.800003 -1.900002,1.800003c0,0.199997 0,0.400002 0,0.5l4.599998,18.599998z"/>
    <path id="svg_7" d="m69.300003,23l0.300003,0c3.599991,0 6.399994,-2.699997 6.399994,-6.199997l0,-10c0,-3.5 -2.800003,-6.199997 -6.399994,-6.199997l-0.300003,0c-3.600006,0 -6.399994,2.699997 -6.399994,6.199997l0,9.900002c0,3.599998 2.799988,6.299995 6.399994,6.299995zm3,-6.199997c0,1.5 -1.199997,2.699997 -2.800003,2.699997l-0.300003,0c-1.599991,0 -2.799988,-1.199997 -2.799988,-2.699997l0,-10c0,-1.5 1.199997,-2.699997 2.799988,-2.699997l0.300003,0c1.600006,0 2.800003,1.099998 2.800003,2.699997l0,10z"/>
    <path id="svg_8" d="m82.100006,23c0.899994,0 1.800003,-0.599998 1.800003,-1.800003l0,-18.799995c0,-2.400002 -3.600006,-2.400002 -3.600006,0l0,18.800003c0,1.299995 0.899994,1.799995 1.800003,1.799995z"/>
    <path id="svg_9" d="m89.600006,23c0.699997,0 1.300003,-0.400002 1.600006,-1l3.199997,-6.5l3.199997,6.5c0.399994,0.599998 0.899994,1 1.600006,1c1,0 1.899994,-0.800003 1.899994,-1.699997c0,-0.300003 -0.100006,-0.600006 -0.199997,-0.900002l-4.400009,-8.900002l4.100006,-8.300003c0.100006,-0.299995 0.199997,-0.599998 0.199997,-0.899994c0,-1 -0.800003,-1.800003 -1.899994,-1.800003c-0.5,0 -1.100006,0.199997 -1.600006,1l-2.899994,5.800003l-2.900009,-5.700005c-0.299988,-0.599998 -0.899994,-1 -1.599991,-1c-1,0 -1.900009,0.800003 -1.900009,1.800003c0,0.299995 0.100006,0.599998 0.200012,0.900002l4.099991,8.299995l-4.399994,8.900002c-0.100006,0.300003 -0.199997,0.599998 -0.199997,0.900002c-0.000015,0.900002 0.799988,1.599998 1.899994,1.599998z"/>
    <path id="svg_10" d="m3.700005,57.400009c0.900002,0 1.800003,-0.600006 1.800003,-1.800003l0,-7.800003l3.199997,0c3.5,0 6.199997,-2.800003 6.199997,-6.399994c0,-3.600006 -2.699997,-6.300003 -6.199997,-6.300003l-5,0c-1,0 -1.800003,0.800003 -1.800003,1.800003l0,18.699997c0,1.199997 0.900002,1.800003 1.800003,1.800003zm5,-13.200012l-3.199997,0l0,-5.5l3.199997,0c1.5,0 2.5,1.100006 2.5,2.800003c0,1.600006 -1,2.699997 -2.5,2.699997z"/>
    <path id="svg_11" d="m18.100006,51.100006c0,3.5 2.800003,6.199997 6.400002,6.199997l0.299995,0c3.599998,0 6.400002,-2.699997 6.400002,-6.199997l0,-9.899994c0,-3.500015 -2.800003,-6.199997 -6.400002,-6.199997l-0.300003,0c-3.599998,0 -6.399994,2.699982 -6.399994,6.199997l0,9.899994zm9.399994,0c0,1.5 -1.199997,2.699997 -2.800003,2.699997l-0.299995,0c-1.599998,0 -2.800003,-1.199997 -2.800003,-2.699997l0,-9.899994c0,-1.500015 1.200005,-2.700012 2.800003,-2.700012l0.299995,0c1.600006,0 2.800003,1.100006 2.800003,2.700012l0,9.899994z"/>
    <path id="svg_12" d="m35.200005,36.600006l0,14.300003c0,3.5 2.900002,6.300003 6.400002,6.300003l0.299995,0c3.5,0 6.400002,-2.800003 6.400002,-6.300003l0,-14.300003c0,-2.399994 -3.599998,-2.399994 -3.599998,0l0,14.300003c0,1.5 -1.300003,2.800003 -2.800003,2.800003l-0.299995,0c-1.5,0 -2.800003,-1.300003 -2.800003,-2.800003l0,-14.300003c0.099998,-2.300003 -3.599998,-2.300003 -3.599998,0z"/>
    <path id="svg_13" d="m66.100006,41.699997l0,-0.300003c0,-3.5 -2.899994,-6.399994 -6.399994,-6.399994l-5.100006,0c-0.900002,0 -1.800003,0.899994 -1.800003,1.800003l0,18.699997c0,1.199997 1,1.800003 1.800003,1.800003c0.900002,0 1.800003,-0.600006 1.800003,-1.800003l0,-7.5l2,0l3.899994,8.300003c0.300003,0.599991 0.900009,1 1.600006,1c1.099991,0 1.899994,-0.700012 1.899994,-1.800003c0,-0.199997 -0.099991,-0.400009 -0.199997,-0.800003l-3.399994,-7.100006c2.399994,-0.899994 3.899994,-3.099991 3.899994,-5.899994zm-3.699997,-0.299988l0,0.300003c0,1.599991 -1.100006,2.800003 -2.600006,2.800003l-3.399994,0l0,-5.900009l3.300003,0c1.599991,0 2.699997,1.199997 2.699997,2.800003z"/>
    <path id="svg_14" d="m3.700005,91.400009l8.300003,0c1.199997,0 1.799995,-0.899994 1.799995,-1.800003s-0.599998,-1.800003 -1.799995,-1.800003l-6.5,0l0,-16.799988c0,-1.200012 -0.900002,-1.800003 -1.800003,-1.800003s-1.800003,0.599991 -1.800003,1.800003l0,18.699997c0,0.899994 0.800003,1.699997 1.800003,1.699997z"/>
    <path id="svg_15" d="m14.900002,69.199997c-1.5,0 -2.699997,2.300003 -2.699997,5l0,0.699997c0,1.199997 0.899994,1.800003 1.699997,1.800003c0.900002,0 1.800003,-0.600006 1.800003,-1.699997l0,-0.900009c0,-1.199997 0.099998,-1.399994 0.599998,-2.099991l0.099998,-0.100006c0.199997,-0.399994 0.300003,-0.699997 0.300003,-1.099991c0,-0.899994 -0.700005,-1.600006 -1.800003,-1.600006z"/>
    <path id="svg_16" d="m31.400002,72.900009c1.199997,0 1.800003,-0.899994 1.800003,-1.800003s-0.600006,-1.800003 -1.800003,-1.800003l-9.400002,0c-0.900002,0 -1.799995,0.900009 -1.799995,1.800003l0,18.5c0,0.900009 0.899994,1.800003 1.799995,1.800003l9.400002,0c1.199997,0 1.800003,-0.899994 1.800003,-1.800003s-0.600006,-1.800003 -1.800003,-1.800003l-7.599998,0l0,-6l5.099998,0c1.200005,0 1.800003,-0.899994 1.800003,-1.799988s-0.599998,-1.800003 -1.800003,-1.800003l-5.099998,0l0,-5.400009l7.599998,0c0,0 0,0.100006 0,0.100006z"/>
    <path id="svg_17" d="m36.600006,71l0,14.300003c0,3.5 2.900002,6.300003 6.400002,6.300003l0.299995,0c3.5,0 6.400002,-2.800003 6.400002,-6.300003l0,-14.300003c0,-2.399994 -3.599998,-2.399994 -3.599998,0l0,14.300003c0,1.5 -1.300003,2.800003 -2.800003,2.800003l-0.299995,0c-1.5,0 -2.800003,-1.300003 -2.800003,-2.800003l0,-14.300003c0.099998,-2.399994 -3.599998,-2.399994 -3.599998,0z"/>
    <path id="svg_18" d="m67.5,76l0,-0.300003c0,-3.5 -2.899994,-6.399994 -6.399994,-6.399994l-5.100006,0c-0.900002,0 -1.800003,0.899994 -1.800003,1.800003l0,18.699997c0,1.199997 1,1.800003 1.800003,1.800003c0.900002,0 1.800003,-0.600006 1.800003,-1.800003l0,-7.5l2,0l3.899994,8.300003c0.300003,0.599991 0.900009,1 1.600006,1c1.099991,0 1.899994,-0.699997 1.899994,-1.800003c0,-0.199997 -0.099991,-0.399994 -0.199997,-0.800003l-3.399994,-7.099991c2.399994,-0.900009 3.899994,-3.200012 3.899994,-5.900009zm-3.699997,-0.300003l0,0.300003c0,1.599991 -1.100006,2.800003 -2.600006,2.800003l-3.399994,0l0,-5.800003l3.300003,0c1.599991,-0.099991 2.699997,1.100006 2.699997,2.699997z"/>
    <path id="svg_19" d="m77.699997,69.199997l-0.300003,0c-3.599991,0 -6.399994,2.699997 -6.399994,6.199997l0,9.900009c0,3.5 2.800003,6.199997 6.399994,6.199997l0.300003,0c3.600006,0 6.399994,-2.699997 6.399994,-6.199997l0,-9.900009c-0.099991,-3.499985 -2.899994,-6.199997 -6.399994,-6.199997zm-3.099991,6.200012c0,-1.5 1.199997,-2.699997 2.800003,-2.699997l0.300003,0c1.599991,0 2.799988,1.099991 2.799988,2.699997l0,9.899994c0,1.5 -1.199997,2.700012 -2.799988,2.700012l-0.300003,0c-1.600006,0 -2.800003,-1.200012 -2.800003,-2.700012l0,-9.899994z"/>
    <path id="svg_20" d="m95,69.400009l-5,0c-1,0 -1.800003,0.800003 -1.800003,1.800003l0,18.699997c0,1.199997 0.900009,1.800003 1.800003,1.800003c0.899994,0 1.800003,-0.600006 1.800003,-1.800003l0,-7.800003l3.199997,0c3.5,0 6.199997,-2.800003 6.199997,-6.399994c0,-3.600006 -2.699997,-6.300003 -6.199997,-6.300003zm0,9.099991l-3.199997,0l0,-5.5l3.199997,0c1.5,0 2.5,1.100006 2.5,2.800003c0.100006,1.5 -1,2.699997 -2.5,2.699997z"/>
    <path id="svg_21" d="m115.800003,72.900009c1.199997,0 1.800003,-0.899994 1.800003,-1.800003s-0.600006,-1.800003 -1.800003,-1.800003l-9.399994,0c-0.900009,0 -1.800003,0.900009 -1.800003,1.800003l0,18.5c0,0.900009 0.899994,1.800003 1.800003,1.800003l9.399994,0c1.199997,0 1.800003,-0.899994 1.800003,-1.800003s-0.600006,-1.800003 -1.800003,-1.800003l-7.600006,0l0,-6l5.100006,0c1.199997,0 1.800003,-0.899994 1.800003,-1.799988s-0.600006,-1.800003 -1.800003,-1.800003l-5.100006,0l0,-5.400009l7.600006,0l0,0.100006z"/>
   </g>
   <polygon id="svg_22" points="263.1 113.9 252.1 104.2 265.8 104.2 269.9 91.2 274.2 104.2 288 104.2 276.8 114 281 127.9 269.9 120.2 258.9 127.7" fill="#0054BF"/>
   <g id="svg_23">
    <polygon id="svg_24" points="255.2 110.7 0 110.7 0 114.8 259.7 114.8"/>
   </g>
  </g>
 </g>
</svg>