<?xml version="1.0" encoding="utf-8"?>
<!-- Generator: Adobe Illustrator 18.1.1, SVG Export Plug-In . SVG Version: 6.00 Build 0)  -->
<svg version="1.1" id="Ebene_1" xmlns="http://www.w3.org/2000/svg" xmlns:xlink="http://www.w3.org/1999/xlink" x="0px" y="0px"
	 viewBox="0 0 419.5 297.6" enable-background="new 0 0 419.5 297.6" xml:space="preserve">
<rect x="70.2" y="67.1" fill="#FFFFFF" width="288" height="148"/>
<g>
	<g>
		<path d="M74.3,110.2c0.9,0,1.8-0.6,1.8-1.8V89.6c0-2.4-3.6-2.4-3.6,0v18.8C72.5,109.7,73.5,110.2,74.3,110.2z"/>
		<path d="M86.8,110.2h0.3c3.1,0,6.3-2.1,6.3-5.5v-0.1c0-1.2-0.7-1.9-1.8-1.9c-0.9,0-1.5,0.5-1.8,1.5c-0.3,1.5-1.3,2.4-2.7,2.4h-0.3
			c-1.6,0-2.8-1.1-2.8-2.7v-10c0-1.5,1.2-2.6,2.8-2.6h0.3c1.4,0,2.5,0.9,2.7,2.4c0.3,1,0.9,1.5,1.8,1.5c1.1,0,1.8-0.7,1.8-1.9l0,0
			c0-3.3-3.3-5.5-6.3-5.5h-0.3c-3.6,0-6.4,2.7-6.4,6.2v9.9C80.4,107.5,83.2,110.2,86.8,110.2z"/>
		<path d="M98.8,110.2c0.9,0,1.8-0.6,1.8-1.8v-7.9h5.8v7.9c0,1.2,0.9,1.8,1.8,1.8s1.8-0.6,1.8-1.8V89.6c0-2.4-3.6-2.4-3.6,0v7.3
			h-5.8v-7.3c0-2.4-3.6-2.4-3.6,0v18.8C97,109.7,97.9,110.2,98.8,110.2z"/>
		<path d="M75,143.1c0.2,0.9,1,1.5,2.1,1.5c1,0,1.8-0.6,2-1.5l2.9-12.6l2.9,12.6c0.2,0.9,1,1.4,2.1,1.4c1,0,1.8-0.6,2.1-1.5l4-18.7
			c0-0.1,0-0.3,0-0.4c0-1-0.8-1.8-1.8-1.8c-0.9,0-1.6,0.6-1.7,1.4L87,135.7l-2.9-12.1c-0.2-0.9-1-1.5-2-1.5c-1,0-1.8,0.6-2,1.5
			l-3,12.2l-2.6-12.2c-0.2-0.9-0.9-1.4-1.7-1.4c-1,0-1.8,0.8-1.8,1.8c0,0.2,0,0.3,0,0.4L75,143.1z"/>
		<path d="M95.8,144.6c0.6,0,1.5-0.3,1.8-1.3l1.2-3.9h6.4l1.2,3.9c0.3,0.8,0.9,1.3,1.7,1.3c1.1,0,1.8-0.7,1.8-1.7c0-0.1,0-0.2,0-0.3
			l-5.9-19c-0.3-0.9-1-1.4-2-1.4c-0.8,0-1.7,0.4-2,1.4l-5.9,18.8v0.2c0,0.2,0,0.3,0,0.4C94,143.9,94.8,144.6,95.8,144.6z
			 M99.9,135.8l2.1-6.8l2.1,6.8H99.9z"/>
		<path d="M97.4,117.7v0.7c0,1.2,0.9,1.8,1.8,1.8s1.8-0.6,1.8-1.8v-0.7C101,115.3,97.4,115.3,97.4,117.7z"/>
		<path d="M102.8,117.7v0.7c0,1.2,0.9,1.8,1.8,1.8s1.8-0.6,1.8-1.8v-0.7c0-1.2-0.9-1.8-1.8-1.8C103.8,115.8,102.8,116.5,102.8,117.7
			z"/>
		<path d="M115.2,144.6c0.9,0,1.8-0.6,1.8-1.8v-7.9h5.8v7.9c0,1.2,0.9,1.8,1.8,1.8s1.8-0.6,1.8-1.8v-18.9c0-2.4-3.6-2.4-3.6,0v7.3
			H117v-7.3c0-2.4-3.6-2.4-3.6,0v18.8C113.4,144,114.4,144.6,115.2,144.6z"/>
		<path d="M132.8,144.4h8.3c1.2,0,1.8-0.9,1.8-1.8c0-0.9-0.6-1.8-1.8-1.8h-6.5v-16.9c0-1.2-0.9-1.8-1.8-1.8c-0.9,0-1.8,0.6-1.8,1.8
			v18.7C131,143.6,131.9,144.4,132.8,144.4z"/>
		<path d="M146.9,144.4h9.4c1.2,0,1.8-0.9,1.8-1.8c0-0.9-0.6-1.8-1.8-1.8h-7.6v-6h5.1c1.2,0,1.8-0.9,1.8-1.8c0-0.9-0.6-1.8-1.8-1.8
			h-5.1v-5.3h7.6c1.2,0,1.8-0.9,1.8-1.8s-0.6-1.8-1.8-1.8h-9.4c-0.9,0-1.8,0.9-1.8,1.8v18.5C145,143.6,145.9,144.4,146.9,144.4z"/>
		<path d="M85.3,176.9c0-0.9-0.6-1.8-1.8-1.8h-7.6v-6H81c1.2,0,1.8-0.9,1.8-1.8s-0.6-1.8-1.8-1.8h-5.1v-5.4h7.6
			c1.2,0,1.8-0.9,1.8-1.8c0-0.9-0.6-1.8-1.8-1.8h-9.4c-0.9,0-1.8,0.9-1.8,1.8v18.5c0,0.9,0.9,1.8,1.8,1.8h9.4
			C84.7,178.6,85.3,177.8,85.3,176.9z"/>
		<path d="M94.9,178.8c3.5,0,6.4-2.8,6.4-6.3v-14.3c0-2.4-3.6-2.4-3.6,0v14.3c0,1.5-1.3,2.8-2.8,2.8h-0.3c-1.5,0-2.8-1.3-2.8-2.8
			v-14.3c0-2.4-3.6-2.4-3.6,0v14.3c0,3.5,2.9,6.3,6.4,6.3C94.6,178.8,94.9,178.8,94.9,178.8z"/>
		<path d="M105.6,158.4v18.7c0,1.2,1,1.8,1.8,1.8c0.9,0,1.8-0.6,1.8-1.8v-7.5h2l3.9,8.3c0.3,0.6,0.9,1,1.6,1c1.1,0,1.9-0.7,1.9-1.8
			c0-0.2-0.1-0.4-0.2-0.8l-3.4-7.1c2.3-0.9,3.8-3.3,3.8-5.9v-0.4c0-3.5-2.9-6.4-6.4-6.4h-5.1C106.5,156.6,105.6,157.4,105.6,158.4z
			 M109.3,166v-5.8h3.3c1.5,0,2.7,1.2,2.7,2.8v0.3c0,1.6-1.1,2.8-2.6,2.8h-3.4V166z"/>
		<path d="M122.4,162.6v9.9c0,3.5,2.8,6.2,6.4,6.2h0.3c3.6,0,6.4-2.7,6.4-6.2v-9.9c0-3.5-2.8-6.2-6.4-6.2h-0.3
			C125.2,156.4,122.4,159.1,122.4,162.6z M131.9,172.6c0,1.5-1.2,2.7-2.8,2.7h-0.3c-1.6,0-2.8-1.2-2.8-2.7v-9.9
			c0-1.5,1.2-2.7,2.8-2.7h0.3c1.6,0,2.8,1.1,2.8,2.7V172.6z"/>
		<path d="M146.6,156.6h-5c-1,0-1.8,0.8-1.8,1.8v18.7c0,1.2,0.9,1.8,1.8,1.8c0.9,0,1.8-0.6,1.8-1.8v-7.8h3.2c3.5,0,6.2-2.8,6.2-6.4
			C152.7,159.3,150,156.6,146.6,156.6z M146.6,165.7h-3.2v-5.5h3.2c1.5,0,2.5,1.1,2.5,2.8C149.1,164.5,148.1,165.7,146.6,165.7z"/>
		<path d="M162.6,157.8c-0.3-0.9-1-1.4-2-1.4c-0.8,0-1.7,0.4-2,1.4l-5.9,18.8v0.2c0,0.2,0,0.3,0,0.4c0,1,0.8,1.7,1.8,1.7
			c0.6,0,1.5-0.3,1.8-1.3l1.2-3.9h6.4l1.2,3.9c0.3,0.8,0.9,1.3,1.7,1.3c1.1,0,1.8-0.7,1.8-1.7c0-0.1,0-0.2,0-0.3L162.6,157.8z
			 M162.6,170.1h-4.2l2.1-6.8L162.6,170.1z"/>
	</g>
	<rect x="70.2" y="197.9" width="257.4" height="4"/>
	<g>
		<g>
			<rect x="330.3" y="185.8" fill="#EB0029" width="27.8" height="27.8"/>
		</g>
		<polygon fill="#FFFFFF" points="353,197 346.9,197 346.9,191 341.6,191 341.6,197 335.5,197 335.5,202.4 341.6,202.4 341.6,208.4 
			346.9,208.4 346.9,202.4 353,202.4 		"/>
	</g>
</g>
</svg>
