<?xml version="1.0"?>
<svg width="290" height="130" xmlns="http://www.w3.org/2000/svg">

 <g>
  <title>background</title>
  <rect fill="none" id="canvas_background" height="132" width="292" y="-1" x="-1"/>
 </g>
 <g>
  <title>Layer 1</title>
  <g id="svg_22">
   <polygon id="svg_2" points="263.2 113.9 252.2 104.2 265.9 104.2 270 91.2 274.2 104.2 288.1 104.2 276.9 114 281.1 127.9 270 120.2 259 127.7" fill="#0054BF"/>
   <g id="svg_3">
    <polygon id="svg_4" points="255.3 110.7 0 110.7 0 114.7 259.8 114.7"/>
   </g>
   <g id="svg_5">
    <path id="svg_6" d="m4.099998,23c0.900002,0 1.800003,-0.599998 1.800003,-1.800003l0,-18.799995c0,-2.400002 -3.600006,-2.400002 -3.600006,0l0,18.800003c0.000008,1.299995 1.000008,1.799995 1.800003,1.799995z"/>
    <path id="svg_7" d="m16.599998,23l0.300003,0c3.099998,0 6.300003,-2.099998 6.300003,-5.5l0,-0.099998c0,-1.200005 -0.700005,-1.900002 -1.800003,-1.900002c-0.900002,0 -1.5,0.5 -1.800003,1.5c-0.299995,1.5 -1.299995,2.400002 -2.699997,2.400002l-0.300003,0c-1.599998,0 -2.799995,-1.099998 -2.799995,-2.700005l0,-10c0,-1.5 1.199997,-2.599998 2.799995,-2.599998l0.300003,0c1.400002,0 2.5,0.900002 2.699997,2.400002c0.300003,1 0.900002,1.5 1.800003,1.5c1.099998,0 1.800003,-0.699997 1.800003,-1.900002l0,0c0,-3.299995 -3.300003,-5.5 -6.300003,-5.5l-0.300003,0c-3.599998,0 -6.399994,2.700005 -6.399994,6.200005l0,9.899994c0,3.600006 2.799995,6.300003 6.399994,6.300003z"/>
    <path id="svg_8" d="m28.599998,23c0.900002,0 1.800003,-0.599998 1.800003,-1.800003l0,-7.899994l5.799995,0l0,7.899994c0,1.200005 0.900002,1.800003 1.800003,1.800003s1.799995,-0.599998 1.799995,-1.800003l0,-18.799995c0,-2.400002 -3.599998,-2.400002 -3.599998,0l0,7.300003l-5.799995,0l0,-7.300003c0,-2.400002 -3.600006,-2.400002 -3.600006,0l0,18.800003c0.000008,1.299995 0.900009,1.799995 1.800003,1.799995z"/>
    <path id="svg_9" d="m4.800003,55.900009c0.199997,0.899994 1,1.5 2.099998,1.5c1,0 1.800003,-0.600006 2,-1.5l2.900002,-12.600006l2.900002,12.600006c0.199997,0.899994 1,1.399994 2.099998,1.399994c1,0 1.800003,-0.599991 2.099998,-1.5l4,-18.699997c0,-0.099998 0,-0.299995 0,-0.400002c0,-1 -0.799995,-1.799995 -1.799995,-1.799995c-0.900002,0 -1.600006,0.599998 -1.700005,1.400002l-2.599998,12.200005l-2.900002,-12.200012c-0.199997,-0.900002 -1,-1.5 -2,-1.5c-1,0 -1.800003,0.599998 -2,1.5l-3,12.199997l-2.599998,-12.199997c-0.200005,-0.900002 -0.900002,-1.400002 -1.700005,-1.400002c-1,0 -1.799995,0.800003 -1.799995,1.800003c0,0.199997 0,0.299995 0,0.400002l4,18.800003z"/>
    <path id="svg_10" d="m25.599998,57.400009c0.599998,0 1.5,-0.300003 1.800003,-1.300003l1.199997,-3.899994l6.400002,0l1.199997,3.899994c0.300003,0.800003 0.900002,1.300003 1.700005,1.300003c1.099998,0 1.799995,-0.699997 1.799995,-1.699997c0,-0.100006 0,-0.199997 0,-0.300003l-5.900002,-19c-0.299995,-0.900002 -1,-1.400002 -2,-1.400002c-0.799995,0 -1.699997,0.400002 -2,1.400002l-5.899994,18.699997l0,0.199997c0,0.199997 0,0.300003 0,0.400009c-0.099998,0.999985 0.699997,1.699997 1.699997,1.699997zm4.100006,-8.900009l2.099998,-6.800003l2.099998,6.800003l-4.199997,0z"/>
    <path id="svg_11" d="m27.200005,30.5l0,0.699997c0,1.200005 0.900002,1.800003 1.800003,1.800003s1.799995,-0.599998 1.799995,-1.800003l0,-0.699997c0.099998,-2.399994 -3.599998,-2.399994 -3.599998,0z"/>
    <path id="svg_12" d="m32.700005,30.5l0,0.699997c0,1.200005 0.900002,1.800003 1.800003,1.800003s1.799995,-0.599998 1.799995,-1.800003l0,-0.699997c0,-1.199997 -0.900002,-1.800003 -1.799995,-1.800003c-0.800003,-0.099991 -1.800003,0.600006 -1.800003,1.800003z"/>
    <path id="svg_13" d="m45.099998,57.400009c0.900002,0 1.800003,-0.600006 1.800003,-1.800003l0,-7.899994l5.799995,0l0,7.899994c0,1.199997 0.900002,1.800003 1.800003,1.800003c0.900002,0 1.799995,-0.600006 1.799995,-1.800003l0,-18.899994c0,-2.400002 -3.599998,-2.400002 -3.599998,0l0,7.300003l-5.799995,0l0,-7.300003c0,-2.400002 -3.599998,-2.400002 -3.599998,0l0,18.800003c0,1.299988 1,1.899994 1.799995,1.899994z"/>
    <path id="svg_14" d="m62.599998,57.199997l8.300003,0c1.199997,0 1.800003,-0.899994 1.800003,-1.800003c0,-0.899994 -0.600006,-1.800003 -1.800003,-1.800003l-6.5,0l0,-16.899994c0,-1.199997 -0.900009,-1.800003 -1.800003,-1.800003c-0.899994,0 -1.800003,0.600006 -1.800003,1.800003l0,18.699997c0,1.000015 0.900009,1.800003 1.800003,1.800003z"/>
    <path id="svg_15" d="m76.700005,57.199997l9.399994,0c1.200012,0 1.800003,-0.899994 1.800003,-1.800003c0,-0.899994 -0.599991,-1.800003 -1.800003,-1.800003l-7.599991,0l0,-6l5.099991,0c1.200012,0 1.800003,-0.899994 1.800003,-1.799988s-0.599991,-1.800003 -1.800003,-1.800003l-5.099991,0l0,-5.300003l7.599991,0c1.200012,0 1.800003,-0.900002 1.800003,-1.800003c0,-0.899994 -0.599991,-1.799995 -1.800003,-1.799995l-9.399994,0c-0.899994,0 -1.800003,0.900002 -1.800003,1.799995l0,18.5c-0.100006,1.000015 0.800003,1.800003 1.800003,1.800003z"/>
    <path id="svg_16" d="m15.099998,89.699997c0,-0.899994 -0.599998,-1.800003 -1.800003,-1.800003l-7.599998,0l0,-6l5.099998,0c1.200005,0 1.800003,-0.899994 1.800003,-1.800003c0,-0.899994 -0.599998,-1.799988 -1.800003,-1.799988l-5.099998,0l0,-5.400009l7.599998,0c1.200005,0 1.800003,-0.899994 1.800003,-1.800003c0,-0.899994 -0.599998,-1.799988 -1.800003,-1.799988l-9.399994,0c-0.900002,0 -1.800003,0.899994 -1.800003,1.799988l0,18.5c0,0.900009 0.900002,1.800003 1.800003,1.800003l9.400002,0c1.199997,0.000015 1.799995,-0.799988 1.799995,-1.699997z"/>
    <path id="svg_17" d="m24.700005,91.600006c3.5,0 6.400002,-2.800003 6.400002,-6.300003l0,-14.300003c0,-2.399994 -3.599998,-2.399994 -3.599998,0l0,14.300003c0,1.5 -1.300003,2.800003 -2.800003,2.800003l-0.300003,0c-1.5,0 -2.799995,-1.300003 -2.799995,-2.800003l0,-14.300003c0,-2.399994 -3.599998,-2.399994 -3.599998,0l0,14.300003c0,3.5 2.900002,6.300003 6.400002,6.300003c-0.000008,0 0.299995,0 0.299995,0z"/>
    <path id="svg_18" d="m35.5,71.199997l0,18.699997c0,1.199997 1,1.800003 1.800003,1.800003c0.899994,0 1.799995,-0.600006 1.799995,-1.800003l0,-7.5l2,0l3.900002,8.300003c0.300003,0.600006 0.900002,1 1.599998,1c1.099998,0 1.900002,-0.699997 1.900002,-1.800003c0,-0.199997 -0.099998,-0.399994 -0.199997,-0.800003l-3.400002,-7.099991c2.299995,-0.900009 3.799995,-3.300003 3.799995,-5.900009l0,-0.399994c0,-3.5 -2.899994,-6.399994 -6.399994,-6.399994l-5.100006,0c-0.799995,0.100006 -1.699997,0.899994 -1.699997,1.899994zm3.700005,7.600006l0,-5.800003l3.300003,0c1.5,0 2.699997,1.199997 2.699997,2.800003l0,0.300003c0,1.599991 -1.099998,2.800003 -2.599998,2.800003l-3.400002,0l0,-0.100006z"/>
    <path id="svg_19" d="m52.300003,75.400009l0,9.899994c0,3.5 2.800003,6.200012 6.400002,6.200012l0.300003,0c3.599991,0 6.399994,-2.700012 6.399994,-6.200012l0,-9.899994c0,-3.5 -2.800003,-6.199997 -6.399994,-6.199997l-0.300003,0c-3.600006,-0.000015 -6.400002,2.699997 -6.400002,6.199997zm9.400002,10c0,1.5 -1.199997,2.699997 -2.800003,2.699997l-0.300003,0c-1.599991,0 -2.799995,-1.199997 -2.799995,-2.699997l0,-9.899994c0,-1.5 1.200005,-2.700012 2.799995,-2.700012l0.300003,0c1.600006,0 2.800003,1.100006 2.800003,2.700012l0,9.899994z"/>
    <path id="svg_20" d="m76.400002,69.400009l-5,0c-1,0 -1.800003,0.800003 -1.800003,1.800003l0,18.699997c0,1.199997 0.900009,1.800003 1.800003,1.800003s1.800003,-0.600006 1.800003,-1.800003l0,-7.800003l3.199997,0c3.5,0 6.199997,-2.800003 6.199997,-6.399994c-0.099991,-3.600006 -2.800003,-6.300003 -6.199997,-6.300003zm0,9.099991l-3.199997,0l0,-5.5l3.199997,0c1.5,0 2.5,1.100006 2.5,2.800003c0,1.5 -1,2.699997 -2.5,2.699997z"/>
    <path id="svg_21" d="m92.500008,70.600006c-0.300003,-0.899994 -1,-1.399994 -2,-1.399994c-0.800003,0 -1.699997,0.399994 -2,1.399994l-5.899994,18.800003l0,0.199997c0,0.199997 0,0.300003 0,0.399994c0,1 0.799988,1.700012 1.799988,1.700012c0.600006,0 1.5,-0.300003 1.800003,-1.300003l1.199997,-3.900009l6.400009,0l1.199997,3.900009c0.300003,0.800003 0.899994,1.300003 1.699997,1.300003c1.100006,0 1.800003,-0.700012 1.800003,-1.700012c0,-0.099991 0,-0.199997 0,-0.299988l-6,-19.100006zm0,12.300003l-4.199997,0l2.099991,-6.800003l2.100006,6.800003z"/>
   </g>
  </g>
 </g>
</svg>