<?xml version="1.0" encoding="utf-8"?>
<!-- Generator: Adobe Illustrator 18.1.1, SVG Export Plug-In . SVG Version: 6.00 Build 0)  -->
<svg version="1.1" id="Ebene_1" xmlns="http://www.w3.org/2000/svg" xmlns:xlink="http://www.w3.org/1999/xlink" x="0px" y="0px"
	 viewBox="0 0 50 50" enable-background="new 0 0 50 50" xml:space="preserve">
<g>
	<rect x="0" fill="#FFFFFF" width="50" height="50"/>
	<rect x="0" fill="none" width="50" height="50"/>
	<polygon fill-rule="evenodd" clip-rule="evenodd" fill="#1A171B" points="20.4,25.1 17.1,46.3 22.7,41.6 26.4,46.3 30.1,41.6 
		35.7,46.3 32.4,25.1 	"/>
	<path fill-rule="evenodd" clip-rule="evenodd" fill="#1A171B" d="M19.7,24.6c-0.4,0-0.7-0.3-0.7-0.7c0-0.4,0.3-0.7,0.7-0.7H33
		c0.4,0,0.7,0.3,0.7,0.7c0,0.4-0.3,0.7-0.7,0.7H19.7z"/>
	<path fill-rule="evenodd" clip-rule="evenodd" fill="#1A171B" d="M20.5,19.5c-0.4,0-0.7-0.3-0.7-0.7c0-0.4,0.3-0.7,0.7-0.7h11.8
		c0.4,0,0.7,0.3,0.7,0.7c0,0.4-0.3,0.7-0.7,0.7H20.5z"/>
	<path fill-rule="evenodd" clip-rule="evenodd" fill="#1A171B" d="M19.1,22.6c-0.7,0-1.3-0.6-1.3-1.3c0-0.7,0.6-1.3,1.3-1.3h14.7
		c0.7,0,1.3,0.6,1.3,1.3c0,0.7-0.6,1.3-1.3,1.3H19.1z"/>
	<path fill-rule="evenodd" clip-rule="evenodd" fill="#1A171B" d="M31.3,17.6c0,0-0.5-5.4-1.7-8.3C28,5.6,24.7,2,19.4,2
		c-5,0-9.1,3.6-9.1,8.3c0,3.2,2.5,6.1,5.4,6.1c2.1,0,4.1-1.6,4.1-3.7c0-1.4-1-2.8-2.1-2.8c-0.9,0-1.6,0.6-1.6,1.5
		c0.4-0.2,1,0.1,1,0.6c0,0.6-0.3,1-1.1,0.9c-0.6,0-1.2-0.7-1.1-1.9c0-1.4,1.5-2.8,3.1-2.8c2.5,0,4.1,2.4,4.1,5.1
		c0,1.7-0.2,2.4-0.4,4.2H31.3z"/>
</g>
</svg>
