<?xml version="1.0" encoding="utf-8"?>
<!-- Generator: Adobe Illustrator 16.0.0, SVG Export Plug-In . SVG Version: 6.00 Build 0)  -->
<!DOCTYPE svg PUBLIC "-//W3C//DTD SVG 1.1//EN" "http://www.w3.org/Graphics/SVG/1.1/DTD/svg11.dtd">
<svg version="1.1" id="Ebene_1" xmlns="http://www.w3.org/2000/svg" xmlns:xlink="http://www.w3.org/1999/xlink" x="0px" y="0px"
	 width="960px" height="560px" viewBox="0 0 960 560" enable-background="new 0 0 960 560" xml:space="preserve">
<g>
	<path fill="#00539F" stroke="#FFFFFF" stroke-width="9.0943" stroke-miterlimit="10" d="M126.74,185.423
		c-1.812-13.307-8.465-13.307-22.381-13.913c-7.253-0.602-8.463,0-8.463-8.467c0-7.26,0-10.285,6.653-10.285
		c21.172,0,42.95,0.604,64.123,0.604c45.365,0,90.133-0.604,135.497-0.604c4.235,0,6.654,0.604,6.654,4.841
		c0,1.814-3.624,29.641-6.654,55.654c-0.604,5.444-2.415,6.648-12.095,6.648c-9.076,0-9.076-0.6-10.285-7.257
		c-5.441-28.428-5.441-30.848-16.937-33.269c-16.33-3.027-40.531-3.027-52.628-3.027c-15.124,0-15.728,3.631-15.728,6.654
		c-0.604,23.592-0.604,67.146-1.208,75.619c37.505-0.606,55.646-0.606,62.301-7.265c3.629-3.626,4.838-8.464,6.058-18.146
		c0.603-3.629,1.205-4.239,10.273-4.239c8.476,0,9.681,3.637,9.681,6.056c0,10.285-1.205,18.754-1.205,36.291
		c0,19.966,1.205,33.275,1.205,37.507c0,6.653-3.623,7.259-9.681,7.259c-9.068,0-9.068-1.209-11.493-12.098
		c-3.016-13.311-5.444-19.357-27.219-20.564c-4.235-0.603-22.984-1.819-39.919-0.603c-0.606,13.912-1.208,70.773,2.416,80.449
		c2.424,6.648,5.442,6.648,30.25,7.857c4.236,0,6.048,0.61,6.048,8.473c0,8.473,0,10.284-7.258,10.284
		c-20.568,0-41.139-1.207-61.101-1.207c-21.172,0-42.951,1.207-64.123,1.207c-4.227,0-6.048-1.207-6.048-5.445
		c0-10.885,0-12.097,4.236-12.701c26.615-3.632,27.22-3.632,28.428-42.946C127.958,300.962,128.562,200.547,126.74,185.423"/>
	<path fill="#00539F" stroke="#FFFFFF" stroke-width="9.0943" stroke-miterlimit="10" d="M578.012,363.271
		c-37.51,26.012-87.711,26.012-125.221,26.012c-12.697,0-67.139-0.604-100.415,0h-10.893c-3.623,0-3.623-1.209-3.623-10.282
		c0-5.445,0-7.262,5.444-7.872c29.639-3.62,29.639-3.62,30.242-42.948c0.612-27.82,1.218-127.633-0.603-143.358
		c-1.812-13.311-8.461-13.311-22.379-13.912c-7.26,0-8.469,0-8.469-9.079c0-7.858,0-10.887,6.657-10.887
		c15.729,0,31.454,1.212,47.784,1.212c25.404,0,50.814-1.212,76.218-1.212c50.208,0,80.455,3.632,104.648,18.147
		c41.739,24.802,49.001,65.939,49.001,93.765C625.796,291.887,618.545,335.443,578.012,363.271 M442.508,186.027
		c-2.414,17.544-2.414,105.859-1.811,131.877c0,44.155,0,48.999,29.636,48.999c15.731,0,31.459-3.021,45.979-10.286
		c36.899-18.155,39.921-69.568,39.921-88.319c0-31.459-7.862-64.727-34.476-83.477c-12.097-8.472-27.825-12.099-49.001-12.099
		C447.352,173.327,443.716,175.75,442.508,186.027"/>
	<path fill="#00539F" stroke="#FFFFFF" stroke-width="9.0943" stroke-miterlimit="10" d="M749.202,345.125
		c0,23.591,5.439,25.401,24.806,25.401c12.097,0,12.697,0.602,12.697,7.265c0,10.887-0.601,12.094-7.863,12.094
		c-19.354,0-38.107-1.207-57.465-1.207c-21.176,0-42.951,1.207-64.122,1.207c-7.256,0-7.256-0.603-7.256-8.47
		c0-8.463,0-9.072,9.077-10.889c13.3-1.208,21.16-2.42,22.38-21.778c1.209-26.006,1.209-59.278,1.209-117.351v-27.826
		c0-26.615-3.636-30.849-19.965-31.455c-12.097-0.606-12.701-0.606-12.701-9.073c0-9.072,0-10.285,7.256-10.285
		c12.097,0,30.247,0.604,73.197,0.604c73.202,0,97.392,0,122.197,15.124c21.171,12.707,28.427,34.481,28.427,53.235
		c0,52.628-48.395,76.824-97.387,76.824c-11.498,0-21.781-0.611-34.487-1.213V345.125z M762.514,275.557
		c46.572,0,46.572-36.898,46.572-49.604c0-52.626-33.268-52.626-46.572-52.626c-11.495,0-13.919,0-13.919,8.47
		c-0.602,28.432-1.206,64.121-0.602,91.942C752.831,274.953,756.463,275.557,762.514,275.557"/>
</g>
</svg>
