<?xml version="1.0" encoding="utf-8"?>
<!-- Generator: Adobe Illustrator 18.1.1, SVG Export Plug-In . SVG Version: 6.00 Build 0)  -->
<svg version="1.1" id="Ebene_1" xmlns="http://www.w3.org/2000/svg" xmlns:xlink="http://www.w3.org/1999/xlink" x="0px" y="0px"
	 viewBox="0 0 50 50" enable-background="new 0 0 50 50" xml:space="preserve">
<g>
	<rect x="0" fill-rule="evenodd" clip-rule="evenodd" fill="#FFE600" width="50" height="50"/>
	<g>
		<defs>
			<rect id="SVGID_67_" x="0" width="50" height="50"/>
		</defs>
		<clipPath id="SVGID_1_">
			<use xlink:href="#SVGID_67_"  overflow="visible"/>
		</clipPath>
		<rect x="25.2" clip-path="url(#SVGID_1_)" fill="#ED081B" width="24.8" height="50"/>
	</g>
	<rect x="0" fill="none" width="50" height="50"/>
	<ellipse fill="#FFE600" cx="27.1" cy="38.3" rx="1.2" ry="1"/>
	<ellipse fill="none" stroke="#1A171B" stroke-width="0.1741" stroke-miterlimit="3.8636" cx="27.1" cy="38.3" rx="1.2" ry="1"/>
	<ellipse fill="#FFE600" cx="41.9" cy="38.2" rx="1.2" ry="1"/>
	<ellipse fill="none" stroke="#1A171B" stroke-width="0.1741" stroke-miterlimit="3.8636" cx="41.9" cy="38.2" rx="1.2" ry="1"/>
	<path fill-rule="evenodd" clip-rule="evenodd" fill="#FFE600" d="M44.6,11.2V13h-2.4v2.8h-2.1V13h-2.5v-1.8h2.5l0-2.8h2.1v2.8H44.6
		z M37.4,3.7h3.5l0,1.9h2.9l0-1.9h3.5v2.7l-2.3,0v1.9h2.3v7.5l-2.3,0v1.9l2.3,0v2.8h-3.5v-1.9h-2.9v1.9h-3.5v-4.7l-1.1,0V8.4l1.1,0
		V3.7z"/>
	<path fill="none" stroke="#1A171B" stroke-width="0.1741" stroke-miterlimit="3.8636" d="M44.6,11.2V13h-2.4v2.8h-2.1V13h-2.5v-1.8
		h2.5l0-2.8h2.1v2.8H44.6z M37.4,3.7h3.5l0,1.9h2.9l0-1.9h3.5v2.7l-2.3,0v1.9h2.3v7.5l-2.3,0v1.9l2.3,0v2.8h-3.5v-1.9h-2.9v1.9h-3.5
		v-4.7l-1.1,0V8.4l1.1,0V3.7z"/>
	<path fill-rule="evenodd" clip-rule="evenodd" fill="#FFE600" d="M34.5,35.8c-0.7,0-1.3,0.5-1.3,1.1v0.3h-0.4
		c-0.7,0-1.3,0.5-1.3,1.1c0,0.6,0.6,1.1,1.3,1.1l0.4,0v0.3c0,0.6,0.6,1.1,1.3,1.1c0.7,0,1.3-0.5,1.3-1.1v-0.3l0.4,0
		c0.7,0,1.3-0.5,1.3-1.1c0-0.6-0.6-1.1-1.3-1.1h-0.4v-0.3C35.8,36.2,35.2,35.8,34.5,35.8z M33.4,2.4c0-0.6,0.5-1,1.2-1
		s1.2,0.5,1.2,1h0.5v29.6c0,2.1,1.6,4,3.8,4.7v2.8c-2.2,0.7-3.8,2.6-3.8,4.7v0.4h-3.4v-0.4c0-2.1-1.6-4-3.8-4.7v-2.8
		c2.2-0.7,3.8-2.5,3.8-4.7V2.4H33.4L33.4,2.4z"/>
	<path fill="none" stroke="#1A171B" stroke-width="0.1741" stroke-miterlimit="3.8636" d="M34.5,35.8c-0.7,0-1.3,0.5-1.3,1.1v0.3
		h-0.4c-0.7,0-1.3,0.5-1.3,1.1c0,0.6,0.6,1.1,1.3,1.1l0.4,0v0.3c0,0.6,0.6,1.1,1.3,1.1c0.7,0,1.3-0.5,1.3-1.1v-0.3l0.4,0
		c0.7,0,1.3-0.5,1.3-1.1c0-0.6-0.6-1.1-1.3-1.1h-0.4v-0.3C35.8,36.2,35.2,35.8,34.5,35.8z M33.4,2.4c0-0.6,0.5-1,1.2-1
		s1.2,0.5,1.2,1h0.5v29.6c0,2.1,1.6,4,3.8,4.7v2.8c-2.2,0.7-3.8,2.6-3.8,4.7v0.4h-3.4v-0.4c0-2.1-1.6-4-3.8-4.7v-2.8
		c2.2-0.7,3.8-2.5,3.8-4.7V2.4H33.4L33.4,2.4z"/>
	<path fill="none" stroke="#1A171B" stroke-width="0.1741" stroke-miterlimit="3.8636" d="M34.6,32.1c0,3-2.3,5.4-5.5,6.1
		c3.2,0.7,5.5,3.1,5.5,6.1v0.5v-0.5c0-3,2.2-5.4,5.5-6.1C36.8,37.5,34.6,35.1,34.6,32.1z"/>
	<path fill-rule="evenodd" clip-rule="evenodd" fill="#FFE600" d="M33.1,31.4c-0.7,0-1.2-0.3-1.2-0.7c0-0.4,0.5-0.7,1.2-0.7H36
		c0.7,0,1.2,0.3,1.2,0.7c0,0.4-0.5,0.7-1.2,0.7H33.1z"/>
	<path fill="none" stroke="#1A171B" stroke-width="0.1741" stroke-miterlimit="3.8636" d="M33.1,31.4c-0.7,0-1.2-0.3-1.2-0.7
		c0-0.4,0.5-0.7,1.2-0.7H36c0.7,0,1.2,0.3,1.2,0.7c0,0.4-0.5,0.7-1.2,0.7H33.1z"/>
	<path fill-rule="evenodd" clip-rule="evenodd" fill="#FFE600" d="M33.1,29.2c-0.7,0-1.2-0.3-1.2-0.7c0-0.4,0.5-0.7,1.2-0.7H36
		c0.7,0,1.2,0.3,1.2,0.7c0,0.4-0.5,0.7-1.2,0.7H33.1z"/>
	<path fill="none" stroke="#1A171B" stroke-width="0.1741" stroke-miterlimit="3.8636" d="M33.1,29.2c-0.7,0-1.2-0.3-1.2-0.7
		c0-0.4,0.5-0.7,1.2-0.7H36c0.7,0,1.2,0.3,1.2,0.7c0,0.4-0.5,0.7-1.2,0.7H33.1z"/>
	<path fill-rule="evenodd" clip-rule="evenodd" fill="#FFE600" d="M40,37c0-0.6,0.3-1,0.8-1c0.4,0,0.8,0.5,0.8,1v2.5
		c0,0.6-0.3,1-0.8,1c-0.4,0-0.8-0.5-0.8-1V37z"/>
	<path fill="none" stroke="#1A171B" stroke-width="0.1741" stroke-miterlimit="3.8636" d="M40,37c0-0.6,0.3-1,0.8-1
		c0.4,0,0.8,0.5,0.8,1v2.5c0,0.6-0.3,1-0.8,1c-0.4,0-0.8-0.5-0.8-1V37z"/>
	<path fill-rule="evenodd" clip-rule="evenodd" fill="#FFE600" d="M27.5,37c0-0.6,0.3-1,0.8-1c0.4,0,0.8,0.5,0.8,1v2.5
		c0,0.6-0.3,1-0.8,1c-0.4,0-0.8-0.5-0.8-1V37z"/>
	<path fill="none" stroke="#1A171B" stroke-width="0.1741" stroke-miterlimit="3.8636" d="M27.5,37c0-0.6,0.3-1,0.8-1
		c0.4,0,0.8,0.5,0.8,1v2.5c0,0.6-0.3,1-0.8,1c-0.4,0-0.8-0.5-0.8-1V37z"/>
	<path fill-rule="evenodd" clip-rule="evenodd" fill="#1A171B" d="M12.4,14.7C12.1,14.3,5.7,7.8,3.1,3c-4,4.1,6.9,11.4,6.9,11.4
		s-4.4-1-7.4-3.2c-2.4,4.2,6.9,4.7,6.9,4.7s-3.4,0.8-7.4,0.4c0.7,4.2,7.6,1.1,7.6,1.1s-2.5,2.2-6.9,3.2c2.4,4,8.1-1.9,8.1-1.9
		s-0.8,2.8-7.5,9c5.5,2.5,9.8-8.5,9.8-8.5S14,21,7.9,33.6c7.2,0.9,8.1-14.4,8.1-14.4s0.8,1.8-0.3,11.1c6-2,2.4-11.1,3.1-11.3
		c0.4-0.1,0.5,0,0.8,0.5l2,5.1l-5,8.5l2.5-0.3l1.6,3.4l2.3-7.2c0,0,1.9,2.8,1.8,7.4c-0.2,4.6-5.5,7.5-7,6.3
		c-0.8-0.7,1.5-1.3,0.3-2.5c-1.5-1.6-3.9,0.1-4,0.8c0.7-0.3,1.6-0.7,2-0.1c0.7,0.9-2.4,1.1-1.8,3.4c0.5,1.6,6.4,1.9,10.4-3.7
		c0.5,3-2.7,3.2-2.7,4.6c0,1,1.6,0.9,2.2,1.4c0.6,0.5,1,0.8,1,0.8V11.7c0,0-0.3-0.5-0.9-0.9c0.6-0.1,0.9-0.6,0.9-0.6
		s-1.3,0.1-1.7-0.7c0.8,0.1,1.2-0.6,1.2-0.6s-0.9,0.1-1.3-0.1c-0.3-0.3-1-0.7-1-0.7h-6.5c0,0-0.2,0.2-0.2,0.4
		c2.7,1.3,6.3,5.7,6.4,6.9c-2-0.9-3.3,0.8-3.3,0.8c-1.6-1.5-5.3,1.6-6.8,0.3C11.1,15.6,11.8,15,12.4,14.7z"/>
	<path fill="none" stroke="#1A171B" stroke-width="9.047893e-02" stroke-miterlimit="3.8637" d="M12.4,14.7C12.1,14.3,5.7,7.8,3.1,3
		c-4,4.1,6.9,11.4,6.9,11.4s-4.4-1-7.4-3.2c-2.4,4.2,6.9,4.7,6.9,4.7s-3.4,0.8-7.4,0.4c0.7,4.2,7.6,1.1,7.6,1.1s-2.5,2.2-6.9,3.2
		c2.4,4,8.1-1.9,8.1-1.9s-0.8,2.8-7.5,9c5.5,2.5,9.8-8.5,9.8-8.5S14,21,7.9,33.6c7.2,0.9,8.1-14.4,8.1-14.4s0.8,1.8-0.3,11.1
		c6-2,2.4-11.1,3.1-11.3c0.4-0.1,0.5,0,0.8,0.5l2,5.1l-5,8.5l2.5-0.3l1.6,3.4l2.3-7.2c0,0,1.9,2.8,1.8,7.4c-0.2,4.6-5.5,7.5-7,6.3
		c-0.8-0.7,1.5-1.3,0.3-2.5c-1.5-1.6-3.9,0.1-4,0.8c0.7-0.3,1.6-0.7,2-0.1c0.7,0.9-2.4,1.1-1.8,3.4c0.5,1.6,6.4,1.9,10.4-3.7
		c0.5,3-2.7,3.2-2.7,4.6c0,1,1.6,0.9,2.2,1.4c0.6,0.5,1,0.8,1,0.8V11.7c0,0-0.3-0.5-0.9-0.9c0.6-0.1,0.9-0.6,0.9-0.6
		s-1.3,0.1-1.7-0.7c0.8,0.1,1.2-0.6,1.2-0.6s-0.9,0.1-1.3-0.1c-0.3-0.3-1-0.7-1-0.7h-6.5c0,0-0.2,0.2-0.2,0.4
		c2.7,1.3,6.3,5.7,6.4,6.9c-2-0.9-3.3,0.8-3.3,0.8c-1.6-1.5-5.3,1.6-6.8,0.3C11.1,15.6,11.8,15,12.4,14.7z"/>
	<path fill-rule="evenodd" clip-rule="evenodd" fill="#ED081B" d="M17.7,33L14,36.7c-0.3,0.3-0.7,0.4-1.1,0.4c-0.6,0-1,0-1.4-0.4
		c-0.7-0.4-0.7-1.2-1.2-1.4c-0.4-0.1-0.7,0-0.7,0c-0.3-0.3-1.2-0.6-1.9-0.3c-0.7,0.3-1,1-0.6,1.4c0.4-0.9,1.3-1,1.8-0.5
		c-0.3,0.5,1.5,1.8,2.7,1.7c-0.8,0.6-2.4-0.2-3-0.1c-0.4,0.1-0.4,0.3-0.4,0.3S7.1,38,7,38.9c-0.1,0.9,0.6,1.2,0.6,1.2s0-1.3,1-1.4
		c0.5,0.7,2.5-0.1,3.6-0.1c-1.1,1.1-2.7,2.1-2.2,2.9c-0.4,0.7,0.5,1.4,1.8,1.3c-0.7-0.4-0.9-0.9-0.5-1.1c1.3-0.2,0.4-2.3,2.9-3.2
		c1.5-0.5,2.7,0.3,3.4,0.2c0.7-0.1,0.7-0.3,0.7-0.3s1.1,0.3,0.9,1.2c1-0.5,0.7-1.6-0.5-1.8c-0.3-0.9-3.4-0.5-3.4-0.5l4.1-4L19,32.9
		L17.7,33z"/>
	<path fill="none" stroke="#1A171B" stroke-width="9.047893e-02" stroke-miterlimit="3.8637" d="M17.7,33L14,36.7
		c-0.3,0.3-0.7,0.4-1.1,0.4c-0.6,0-1,0-1.4-0.4c-0.7-0.4-0.7-1.2-1.2-1.4c-0.4-0.1-0.7,0-0.7,0c-0.3-0.3-1.2-0.6-1.9-0.3
		c-0.7,0.3-1,1-0.6,1.4c0.4-0.9,1.3-1,1.8-0.5c-0.3,0.5,1.5,1.8,2.7,1.7c-0.8,0.6-2.4-0.2-3-0.1c-0.4,0.1-0.4,0.3-0.4,0.3
		S7.1,38,7,38.9c-0.1,0.9,0.6,1.2,0.6,1.2s0-1.3,1-1.4c0.5,0.7,2.5-0.1,3.6-0.1c-1.1,1.1-2.7,2.1-2.2,2.9c-0.4,0.7,0.5,1.4,1.8,1.3
		c-0.7-0.4-0.9-0.9-0.5-1.1c1.3-0.2,0.4-2.3,2.9-3.2c1.5-0.5,2.7,0.3,3.4,0.2c0.7-0.1,0.7-0.3,0.7-0.3s1.1,0.3,0.9,1.2
		c1-0.5,0.7-1.6-0.5-1.8c-0.3-0.9-3.4-0.5-3.4-0.5l4.1-4L19,32.9L17.7,33z"/>
	<path fill="none" stroke="#1A171B" stroke-width="9.047893e-02" stroke-miterlimit="3.8637" d="M18.6,37.9c0,0,0,0.4-0.3,0.6"/>
	<path fill="none" stroke="#1A171B" stroke-width="9.047893e-02" stroke-miterlimit="3.8637" d="M8.3,38c0,0,0,0.5,0.4,0.8"/>
	<path fill="none" stroke="#1A171B" stroke-width="9.047893e-02" stroke-miterlimit="3.8637" d="M9,36c0-0.1,0.2-0.4,0.6-0.6"/>
</g>
</svg>
