<?xml version="1.0" encoding="utf-8"?>
<!-- Generator: Adobe Illustrator 18.1.1, SVG Export Plug-In . SVG Version: 6.00 Build 0)  -->
<svg version="1.1" id="Ebene_1" xmlns="http://www.w3.org/2000/svg" xmlns:xlink="http://www.w3.org/1999/xlink" x="0px" y="0px"
	 viewBox="0 0 50 50" enable-background="new 0 0 50 50" xml:space="preserve">
<g>
	<rect x="0" fill-rule="evenodd" clip-rule="evenodd" fill="#ED081B" width="50" height="50"/>
	<rect x="0" fill="none" width="50" height="50"/>
	<circle fill="#FFE600" cx="29.1" cy="8.9" r="5.1"/>
	<circle fill="none" stroke="#1A171B" stroke-width="0.1467" stroke-miterlimit="3.8637" cx="29.1" cy="8.9" r="5.1"/>
	<polygon fill-rule="evenodd" clip-rule="evenodd" fill="#FFE600" points="16.9,45.8 12.6,6.2 11.5,6.2 16,45.5 	"/>
	<polygon fill="none" stroke="#1A171B" stroke-width="0.1467" stroke-miterlimit="3.8637" points="16.9,45.8 12.6,6.2 11.5,6.2 
		16,45.5 	"/>
	
		<ellipse transform="matrix(-0.9946 0.1042 -0.1042 -0.9946 27.989 30.9835)" fill="#FFE600" cx="13.2" cy="16.2" rx="1.4" ry="0.9"/>
	
		<ellipse transform="matrix(-0.9946 0.1042 -0.1042 -0.9946 27.989 30.9835)" fill="none" stroke="#1A171B" stroke-width="0.1467" stroke-miterlimit="3.8637" cx="13.2" cy="16.2" rx="1.4" ry="0.9"/>
	<ellipse transform="matrix(-0.9946 0.1042 -0.1042 -0.9946 24.4892 10.0904)" fill="#FFE600" cx="12" cy="5.7" rx="1.4" ry="0.9"/>
	
		<ellipse transform="matrix(-0.9946 0.1042 -0.1042 -0.9946 24.4892 10.0904)" fill="none" stroke="#1A171B" stroke-width="0.1467" stroke-miterlimit="3.8637" cx="12" cy="5.7" rx="1.4" ry="0.9"/>
	<path fill-rule="evenodd" clip-rule="evenodd" fill="#1A171B" d="M27.5,11.4c-1.7,7-10.2,7.2-10.2,7.2v2.7h7L22,43h6.1l-2.3-16.8
		h0.5L28.7,43H33l-2.2,2.1c-0.7,0.8,0.5,1.4,1,1.2c1.5-0.5,3.9-1.4,4.3-1.9c0-0.4-2-19.9-2-19.9c0-0.3,0.3-0.3,0.3-0.3
		c0,0,1.8,0,1.8,0c0.7-0.2,0.6-0.9,0.6-0.9l-1.4-7.5c-0.1-0.4-0.4-0.6-0.4-0.6c-4.9-2.9-4.3-3.9-4.3-3.9H27.5z"/>
	<path fill="none" stroke="#1A171B" stroke-width="0.1467" stroke-miterlimit="3.8637" d="M27.5,11.4c-1.7,7-10.2,7.2-10.2,7.2v2.7
		h7L22,43h6.1l-2.3-16.8h0.5L28.7,43H33l-2.2,2.1c-0.7,0.8,0.5,1.4,1,1.2c1.5-0.5,3.9-1.4,4.3-1.9c0-0.4-2-19.9-2-19.9
		c0-0.3,0.3-0.3,0.3-0.3c0,0,1.8,0,1.8,0c0.7-0.2,0.6-0.9,0.6-0.9l-1.4-7.5c-0.1-0.4-0.4-0.6-0.4-0.6c-4.9-2.9-4.3-3.9-4.3-3.9H27.5
		z"/>
	<path fill-rule="evenodd" clip-rule="evenodd" fill="#1A171B" d="M23.8,43.3h-1.9c-0.2,0.6-1.1,0.6-1.1,0.6l-2.4,0.3
		c-0.8,0.3-0.6,1.4,0.2,1.6c0.4,0,4.8,0,4.8,0c0.6,0,0.6-0.6,0.6-0.6L23.8,43.3z"/>
	<path fill="none" stroke="#1A171B" stroke-width="0.1467" stroke-miterlimit="3.8637" d="M23.8,43.3h-1.9c-0.2,0.6-1.1,0.6-1.1,0.6
		l-2.4,0.3c-0.8,0.3-0.6,1.4,0.2,1.6c0.4,0,4.8,0,4.8,0c0.6,0,0.6-0.6,0.6-0.6L23.8,43.3z"/>
	<circle fill="#1A171B" cx="29.1" cy="8.9" r="3.5"/>
	<circle fill="none" stroke="#1A171B" stroke-width="0.1467" stroke-miterlimit="3.8637" cx="29.1" cy="8.9" r="3.5"/>
	<rect x="26.1" y="18.1" fill="#FFE600" width="5.8" height="3.2"/>
	
		<rect x="26.1" y="18.1" fill="none" stroke="#1A171B" stroke-width="0.1467" stroke-miterlimit="3.8637" width="5.8" height="3.2"/>
	<rect x="26.6" y="18.1" fill-rule="evenodd" clip-rule="evenodd" fill="#FFE600" width="0.9" height="3.2"/>
	
		<rect x="26.6" y="18.1" fill="none" stroke="#1A171B" stroke-width="0.1467" stroke-miterlimit="3.8637" width="0.9" height="3.2"/>
	<path fill-rule="evenodd" clip-rule="evenodd" fill="#FFFFFF" d="M17.2,21.3l0-2.7l-4.8,0.1c-0.4,0-0.1,0.5,0.1,0.5
		c-0.2,0.1-0.2,0.5,0.1,0.6c-0.2,0.1-0.3,0.5-0.1,0.5c-0.2,0.1-0.2,0.5,0.1,0.5c-0.2,0.1,0,0.4,0.2,0.5C13,21.3,17.2,21.3,17.2,21.3
		z"/>
	<path fill="none" stroke="#1A171B" stroke-width="0.1467" stroke-miterlimit="3.8637" d="M17.2,21.3l0-2.7l-4.8,0.1
		c-0.4,0-0.1,0.5,0.1,0.5c-0.2,0.1-0.2,0.5,0.1,0.6c-0.2,0.1-0.3,0.5-0.1,0.5c-0.2,0.1-0.2,0.5,0.1,0.5c-0.2,0.1,0,0.4,0.2,0.5
		C13,21.3,17.2,21.3,17.2,21.3z"/>
	<path fill-rule="evenodd" clip-rule="evenodd" fill="#FFFFFF" d="M30.2,7.5c0,0-0.4,0.1-1.1,0.1c-1,0-1.2-0.2-1.2-0.2
		c0,0-0.7,0.1-0.7,1c0,0.1,0.1,2.1,0.2,3.1c0.1,0.3,0.4,0.7,0.9,0.9c0.7,0.1,1.5,0,1.5,0c0.6-0.3,0.8-0.6,0.9-0.9
		c0.2-1,0.2-3.1,0.2-3.1C31,7.5,30.2,7.5,30.2,7.5z"/>
	<path fill="none" stroke="#1A171B" stroke-width="0.1467" stroke-miterlimit="3.8637" d="M30.2,7.5c0,0-0.4,0.1-1.1,0.1
		c-1,0-1.2-0.2-1.2-0.2c0,0-0.7,0.1-0.7,1c0,0.1,0.1,2.1,0.2,3.1c0.1,0.3,0.4,0.7,0.9,0.9c0.7,0.1,1.5,0,1.5,0
		c0.6-0.3,0.8-0.6,0.9-0.9c0.2-1,0.2-3.1,0.2-3.1C31,7.5,30.2,7.5,30.2,7.5z"/>
	<path fill-rule="evenodd" clip-rule="evenodd" fill="#FFFFFF" d="M27.5,11.4c0,0,0.5,2,0.9,2c0.2,0,1.5,0,1.5,0c0.4,0,0.9-2,0.9-2
		l-0.1,2.4c0,0,0,0.5-0.5,0.5c-0.2,0-2.1,0-2.1,0c-0.4,0-0.5-0.5-0.5-0.5L27.5,11.4z"/>
	<path fill="none" stroke="#1A171B" stroke-width="0.1467" stroke-miterlimit="3.8637" d="M27.5,11.4c0,0,0.5,2,0.9,2
		c0.2,0,1.5,0,1.5,0c0.4,0,0.9-2,0.9-2l-0.1,2.4c0,0,0,0.5-0.5,0.5c-0.2,0-2.1,0-2.1,0c-0.4,0-0.5-0.5-0.5-0.5L27.5,11.4z"/>
	<path fill-rule="evenodd" clip-rule="evenodd" fill="#FFFFFF" d="M29.7,21.3l0.5,2.5l-3.9,0c-0.4,0-0.3-0.4-0.2-0.5
		c-0.3-0.2-0.2-0.5-0.1-0.5c-0.3-0.2-0.1-0.6,0-0.6c-0.5-0.5-0.5-0.9-0.5-0.9c0.1-0.3,0.5-0.4,0.7,0C26.3,21.3,29.7,21.3,29.7,21.3z
		"/>
	<path fill="none" stroke="#1A171B" stroke-width="0.1467" stroke-miterlimit="3.8637" d="M29.7,21.3l0.5,2.5l-3.9,0
		c-0.4,0-0.3-0.4-0.2-0.5c-0.3-0.2-0.2-0.5-0.1-0.5c-0.3-0.2-0.1-0.6,0-0.6c-0.5-0.5-0.5-0.9-0.5-0.9c0.1-0.3,0.5-0.4,0.7,0
		C26.3,21.3,29.7,21.3,29.7,21.3z"/>
	<path fill="none" stroke="#1A171B" stroke-width="0.1467" stroke-miterlimit="3.8637" d="M12.4,19.2l1.7,0c0.6,0,1,0.7,1,0.7"/>
	<line fill="none" stroke="#1A171B" stroke-width="0.1467" stroke-miterlimit="3.8637" x1="12.5" y1="19.7" x2="14.4" y2="19.7"/>
	<line fill="none" stroke="#1A171B" stroke-width="0.1467" stroke-miterlimit="3.8637" x1="12.5" y1="20.2" x2="14.3" y2="20.2"/>
	<line fill="none" stroke="#1A171B" stroke-width="0.1467" stroke-miterlimit="3.8637" x1="12.6" y1="20.8" x2="14.3" y2="20.8"/>
	<path fill="none" stroke="#1A171B" stroke-width="0.1467" stroke-miterlimit="3.8637" d="M14.4,19.3c0.2,0.2,0,0.5,0,0.5
		c0.3,0.3,0,0.5,0,0.5c0.3,0.2,0,0.5,0,0.5c0.4,0.4,0,0.5,0,0.5"/>
	<path fill="none" stroke="#1A171B" stroke-width="0.1467" stroke-miterlimit="3.8637" d="M26.2,21.3c0,0-0.1,0.2,0.5,0.4
		c0.4,0,1.1,0,1.1,0"/>
	<polyline fill="none" stroke="#1A171B" stroke-width="0.1467" stroke-miterlimit="3.8637" points="25.9,22.2 26.2,22.3 27.2,22.3 	
		"/>
	<line fill="none" stroke="#1A171B" stroke-width="0.1467" stroke-miterlimit="3.8637" x1="26" y1="22.8" x2="27.2" y2="22.8"/>
	<line fill="none" stroke="#1A171B" stroke-width="0.1467" stroke-miterlimit="3.8637" x1="26" y1="23.3" x2="27.2" y2="23.3"/>
	<path fill="none" stroke="#1A171B" stroke-width="0.1467" stroke-miterlimit="3.8637" d="M27.5,8.7c0.5-0.2,1.2,0,1.2,0.1
		c0.1,0.1,0,1.6,0,1.8c0.1,0.1,0.7,0.2,0.9,0"/>
	<path fill="none" stroke="#1A171B" stroke-width="0.1467" stroke-miterlimit="3.8637" d="M30.8,8.7c-0.5-0.1-1-0.1-1.2,0.1"/>
	<circle fill="#1A171B" cx="28.1" cy="9.5" r="0.3"/>
	<circle fill="none" stroke="#1A171B" stroke-width="0.1467" stroke-miterlimit="3.8637" cx="28.1" cy="9.5" r="0.3"/>
	<circle fill="#1A171B" cx="30.2" cy="9.5" r="0.3"/>
	<circle fill="none" stroke="#1A171B" stroke-width="0.1467" stroke-miterlimit="3.8637" cx="30.2" cy="9.5" r="0.3"/>
	<path fill-rule="evenodd" clip-rule="evenodd" fill="#FFFFFF" d="M28.4,11.4c0.1-0.1,1.4-0.1,1.5,0C29.7,11.5,28.5,11.5,28.4,11.4z
		"/>
	<path fill="none" stroke="#1A171B" stroke-width="0.1467" stroke-miterlimit="3.8637" d="M28.4,11.4c0.1-0.1,1.4-0.1,1.5,0
		C29.7,11.5,28.5,11.5,28.4,11.4z"/>
</g>
</svg>
