<?xml version="1.0" encoding="UTF-8" ?>
<!DOCTYPE svg PUBLIC "-//W3C//DTD SVG 1.1//EN" "http://www.w3.org/Graphics/SVG/1.1/DTD/svg11.dtd">
<svg width="1134pt" height="780pt" viewBox="0 0 1134 780" version="1.1" xmlns="http://www.w3.org/2000/svg">
<path fill="#fefefd" d=" M 0.00 0.00 L 1134.00 0.00 L 1134.00 780.00 L 0.00 780.00 L 0.00 0.00 Z" />
<path fill="#8ab820" d=" M 492.69 77.42 C 495.33 77.51 497.99 77.48 500.64 77.42 L 500.36 78.59 C 502.70 78.37 505.07 78.29 507.41 78.00 C 514.42 77.54 521.67 76.61 528.57 78.24 C 528.86 78.30 529.44 78.43 529.73 78.50 C 530.97 78.51 532.21 78.51 533.46 78.47 C 540.03 78.90 546.62 78.79 553.19 78.72 C 553.53 78.87 554.20 79.16 554.54 79.30 C 558.77 78.46 563.00 80.15 567.24 79.33 L 566.02 81.05 C 567.25 80.48 568.48 79.91 569.73 79.34 C 577.12 80.52 584.58 81.17 592.03 81.73 C 597.17 83.29 602.61 82.14 607.83 83.30 C 614.27 84.60 621.10 83.89 627.29 86.37 C 631.17 88.08 635.48 85.41 639.37 87.56 C 639.33 88.16 639.25 89.36 639.21 89.96 C 642.31 91.59 645.94 91.39 649.34 91.75 C 646.66 90.48 643.67 90.55 640.80 90.16 C 640.70 89.60 640.50 88.48 640.40 87.93 C 644.82 87.77 649.18 88.93 653.43 90.03 C 652.85 90.41 651.70 91.18 651.12 91.57 C 654.53 90.50 653.85 94.65 654.52 96.74 C 659.61 97.87 664.85 97.84 669.96 98.91 C 670.54 98.74 671.70 98.40 672.28 98.23 C 670.32 97.47 668.32 96.86 666.32 96.22 C 668.35 95.97 670.40 95.77 672.43 95.47 C 670.57 95.22 668.69 95.09 666.84 94.93 C 666.60 95.46 666.12 96.52 665.88 97.06 C 665.01 96.68 664.16 96.31 663.31 95.93 C 660.32 96.74 657.18 96.47 654.30 95.42 C 655.47 94.31 656.68 93.23 657.89 92.15 C 656.78 91.25 655.71 90.36 654.63 89.45 C 655.23 89.67 656.44 90.10 657.05 90.31 C 658.45 90.00 659.90 89.53 661.36 89.93 C 661.47 90.87 661.70 92.76 661.82 93.71 C 662.54 92.14 663.18 90.54 663.73 88.91 C 663.71 89.47 663.66 90.60 663.64 91.16 C 664.92 91.19 666.22 91.20 667.52 91.22 C 666.29 91.87 665.33 92.78 664.66 93.97 C 666.60 93.02 668.43 91.85 670.28 90.71 C 670.25 91.29 670.19 92.45 670.16 93.03 C 672.28 92.03 674.60 91.79 676.92 91.64 L 677.15 93.12 C 677.51 92.88 678.24 92.42 678.60 92.19 C 681.38 93.08 684.33 93.29 687.22 92.80 C 688.13 93.26 689.05 93.73 689.98 94.19 C 692.60 92.89 695.37 93.31 697.76 94.92 C 695.02 95.52 692.22 95.73 689.43 95.44 C 691.02 96.83 693.17 96.83 695.15 97.20 C 695.43 97.01 696.01 96.62 696.30 96.42 C 698.29 97.46 700.77 98.27 702.82 96.85 C 702.61 94.82 698.92 96.40 697.51 95.67 C 698.29 95.15 699.08 94.64 699.88 94.13 C 701.41 94.32 702.96 94.50 704.52 94.65 C 706.72 96.41 709.52 96.13 712.17 96.23 C 710.74 96.70 709.33 97.19 707.93 97.69 C 714.13 100.04 720.96 98.64 727.40 99.75 C 724.07 104.10 717.99 100.58 713.88 100.97 C 713.71 101.26 713.37 101.86 713.20 102.15 L 712.44 101.64 L 711.78 101.13 C 708.49 100.24 705.03 100.62 701.68 100.88 C 701.76 100.51 701.94 99.79 702.02 99.43 C 697.00 100.67 691.79 99.29 686.73 98.93 C 687.41 98.50 688.75 97.66 689.42 97.23 C 685.61 97.33 681.81 97.54 678.06 98.22 C 676.30 97.65 674.48 97.28 672.65 97.10 C 673.47 98.03 674.35 98.91 675.26 99.78 C 676.03 99.48 676.81 99.18 677.60 98.89 C 683.39 100.85 689.64 99.95 695.51 101.61 C 696.24 101.47 697.71 101.18 698.45 101.03 C 697.76 102.09 697.08 103.15 696.39 104.20 C 697.81 104.69 699.25 105.17 700.70 105.64 C 701.30 105.07 701.91 104.51 702.53 103.93 C 701.54 103.41 699.56 102.38 698.56 101.86 C 707.70 102.67 716.86 103.11 726.02 103.54 C 721.68 103.82 717.32 103.89 712.98 104.03 C 713.41 104.66 714.27 105.92 714.70 106.55 C 715.66 106.54 717.60 106.52 718.57 106.51 C 719.61 105.87 720.65 105.22 721.74 104.61 C 721.59 105.23 721.29 106.45 721.14 107.06 C 725.39 107.96 729.62 109.04 733.96 109.46 C 733.47 109.54 732.49 109.71 732.00 109.80 C 722.87 108.35 713.73 106.98 704.46 107.12 C 707.63 108.41 711.07 108.77 714.37 109.65 C 709.96 109.44 705.58 108.84 701.16 108.98 C 701.32 108.39 701.65 107.21 701.82 106.62 C 697.35 106.26 692.85 105.94 688.37 106.29 C 692.23 106.80 696.17 107.16 699.77 108.78 C 690.35 108.48 680.98 107.31 671.56 107.02 C 670.63 105.75 673.35 105.42 673.92 105.69 C 678.72 105.55 683.59 106.93 688.32 105.52 C 682.33 105.54 676.29 104.50 670.35 105.62 L 670.58 104.56 C 670.19 104.97 669.41 105.77 669.02 106.18 C 659.01 106.69 649.00 104.65 638.98 104.35 C 635.05 104.33 631.06 102.32 627.24 104.04 C 626.68 103.76 625.55 103.19 624.99 102.90 C 623.03 103.29 621.04 103.47 619.06 103.26 C 595.04 101.14 571.01 99.11 546.99 97.02 C 517.23 94.09 487.16 94.77 457.48 98.30 C 434.94 101.05 412.52 105.28 390.74 111.73 C 340.54 128.19 296.97 160.00 258.89 195.93 C 253.25 201.95 247.78 208.17 241.25 213.27 C 237.53 215.89 236.15 220.68 232.19 223.01 C 234.09 217.98 237.09 213.47 240.12 209.06 C 250.60 194.15 263.94 181.62 276.18 168.20 C 280.45 163.38 286.24 160.27 290.53 155.49 C 293.16 152.44 296.67 150.36 299.41 147.43 C 305.13 141.29 312.99 137.84 319.48 132.64 C 323.08 129.63 327.60 128.06 331.34 125.25 C 335.07 122.40 339.21 120.12 343.56 118.38 C 356.82 110.81 370.70 104.18 385.10 99.02 C 385.86 99.00 387.36 98.96 388.12 98.95 C 388.43 98.59 389.07 97.88 389.39 97.52 C 398.32 93.85 407.80 92.10 416.95 89.18 C 422.67 87.66 428.38 86.00 434.25 85.16 C 439.27 84.38 444.25 82.03 449.38 82.85 C 449.54 82.52 449.86 81.85 450.03 81.51 C 453.96 82.48 457.58 80.00 461.48 80.63 C 462.88 81.03 463.96 80.00 465.07 79.32 C 465.96 79.68 466.85 80.04 467.75 80.40 C 469.49 79.92 471.25 79.47 473.02 79.07 C 480.30 79.28 487.68 77.46 494.98 79.09 C 494.40 78.67 493.26 77.84 492.69 77.42 Z" />
<path fill="#8ab820" d=" M 690.29 92.28 C 690.78 92.84 690.78 92.84 690.29 92.28 Z" />
<path fill="#fefefd" d=" M 672.75 94.51 C 675.40 93.94 678.32 93.22 680.45 95.38 C 677.87 95.25 675.29 94.90 672.75 94.51 Z" />
<path fill="#fefefd" d=" M 680.93 95.63 C 683.43 95.26 685.90 94.72 688.35 94.09 C 688.30 94.53 688.18 95.43 688.12 95.88 C 685.72 95.65 683.32 95.57 680.93 95.63 Z" />
<path fill="#8ab820" d=" M 707.17 94.49 C 708.34 93.63 709.09 93.85 709.44 95.16 C 708.24 96.03 707.48 95.81 707.17 94.49 Z" />
<path fill="#8ab820" d=" M 714.35 97.58 C 717.36 95.86 720.84 97.01 724.09 96.61 C 725.23 96.81 726.83 96.53 727.16 98.04 L 727.13 98.74 L 726.77 99.21 C 724.14 98.17 721.39 97.24 718.58 98.17 C 717.17 97.99 715.73 97.79 714.35 97.58 Z" />
<path fill="#fefefd" d=" M 704.38 97.64 C 703.83 95.92 707.74 96.28 707.56 97.70 C 706.48 98.34 705.42 98.32 704.38 97.64 Z" />
<path fill="#8ab820" d=" M 728.96 98.19 C 733.08 97.29 737.38 97.44 741.44 98.61 C 737.40 98.26 733.42 99.15 729.40 99.17 C 729.29 98.92 729.07 98.43 728.96 98.19 Z" />
<path fill="#8ab820" d=" M 684.43 98.23 C 685.02 98.81 685.02 98.81 684.43 98.23 Z" />
<path fill="#8ab820" d=" M 739.94 101.15 C 741.10 100.10 742.27 99.05 743.42 97.98 C 743.31 98.42 743.09 99.30 742.98 99.74 C 746.33 99.43 749.71 99.32 753.09 99.18 C 752.32 100.57 751.38 101.95 749.73 102.42 C 751.22 102.87 752.75 103.33 754.26 103.81 C 745.88 103.65 737.54 102.51 729.17 102.72 C 728.56 103.69 727.91 104.63 727.22 105.53 C 727.50 104.97 728.07 103.86 728.35 103.30 C 728.05 102.52 727.44 100.96 727.14 100.18 C 730.72 100.13 734.30 101.60 737.84 100.76 C 738.05 100.68 738.48 100.52 738.70 100.44 L 739.01 100.77 C 741.71 103.28 745.90 101.81 749.23 102.37 C 749.10 98.53 744.95 100.68 742.57 100.21 C 741.91 100.45 740.60 100.92 739.94 101.15 Z" />
<path fill="#fefefd" d=" M 749.34 101.13 C 749.42 99.73 750.10 99.41 751.38 100.18 C 751.27 101.56 750.59 101.88 749.34 101.13 Z" />
<path fill="#fefefd" d=" M 703.41 105.77 C 703.64 105.17 704.10 103.96 704.33 103.36 C 705.81 103.72 707.29 104.08 708.78 104.44 C 709.74 104.30 711.67 104.01 712.63 103.87 C 712.63 104.50 712.62 105.76 712.61 106.38 C 709.54 106.15 706.47 105.95 703.41 105.77 Z" />
<path fill="#8ab820" d=" M 759.58 112.74 C 762.11 112.15 764.70 111.78 767.20 111.01 C 768.60 111.44 770.00 111.89 771.42 112.34 C 772.11 115.19 773.88 117.92 773.72 120.90 C 772.05 123.45 769.36 125.12 767.46 127.49 C 765.55 129.24 764.25 131.71 761.99 133.02 C 759.29 133.15 756.65 132.52 754.02 132.14 C 748.97 137.01 744.07 142.01 739.71 147.50 C 738.46 150.85 735.13 152.52 732.52 154.64 L 735.48 154.31 C 734.25 155.78 733.05 157.26 731.86 158.75 C 728.99 162.07 725.63 164.98 723.41 168.82 C 722.41 169.23 721.42 169.65 720.43 170.07 C 720.29 171.37 720.11 172.66 719.95 173.96 C 718.95 174.32 717.96 174.69 716.98 175.05 C 716.33 176.37 715.68 177.68 715.05 179.00 C 713.37 178.99 711.70 179.00 710.03 179.01 C 710.75 179.41 712.17 180.21 712.88 180.61 C 712.37 181.94 711.82 183.24 711.23 184.52 C 709.56 185.06 707.85 185.38 706.17 185.84 C 705.48 184.87 704.86 183.87 704.26 182.86 C 703.43 183.75 702.61 184.65 701.79 185.54 C 701.02 186.79 700.24 188.03 699.46 189.27 C 700.56 187.92 701.62 186.56 702.75 185.22 C 703.39 185.92 704.03 186.63 704.66 187.36 C 705.52 187.51 707.24 187.83 708.10 187.98 C 705.87 189.66 703.55 191.23 701.10 192.57 L 701.04 190.30 C 698.75 192.41 696.15 194.16 693.28 195.37 L 693.83 193.36 C 692.62 193.80 691.42 194.23 690.22 194.63 C 689.87 194.95 689.15 195.58 688.79 195.89 C 693.10 197.02 696.82 194.51 700.55 192.80 C 698.17 197.44 693.13 200.10 688.17 201.14 C 691.52 202.47 688.71 203.98 687.38 205.31 C 687.47 204.52 687.64 202.96 687.72 202.18 C 685.38 204.18 682.92 206.08 680.10 207.36 C 680.25 207.70 680.56 208.38 680.71 208.72 C 677.17 210.47 673.06 211.84 670.82 215.32 C 667.45 216.74 664.51 218.95 661.37 220.77 C 661.90 221.34 662.44 221.90 663.00 222.46 C 664.09 221.57 665.22 220.73 666.39 219.93 C 665.15 223.25 660.98 223.36 658.96 226.05 C 659.11 225.55 659.41 224.54 659.56 224.04 C 660.02 223.91 660.95 223.65 661.42 223.52 C 660.88 223.42 659.81 223.23 659.27 223.13 L 659.56 224.04 L 658.29 223.02 C 657.18 224.14 655.88 225.00 654.35 225.43 C 659.30 220.95 665.24 217.74 670.15 213.20 C 674.88 210.69 678.39 206.52 683.06 203.95 C 684.05 203.23 685.99 202.67 684.80 201.19 C 683.41 200.12 682.05 201.56 680.73 201.99 C 680.72 202.38 680.71 203.16 680.70 203.55 C 674.14 207.09 668.79 212.47 662.50 216.46 C 659.93 219.04 655.38 219.29 653.75 222.69 C 653.39 222.59 652.68 222.38 652.33 222.27 C 648.53 225.90 644.04 228.80 639.37 231.17 C 643.50 226.13 650.11 223.89 654.33 218.94 C 654.39 218.48 654.52 217.54 654.59 217.08 C 661.77 211.60 667.34 204.33 674.45 198.80 C 673.63 198.29 672.81 197.81 672.00 197.34 C 674.78 195.33 676.94 192.67 678.97 189.94 C 686.30 181.64 693.54 173.25 700.78 164.87 C 703.70 161.44 707.61 158.95 710.16 155.19 C 714.57 148.91 719.76 143.24 724.29 137.04 C 729.75 132.89 735.25 128.61 739.91 123.52 C 740.03 123.06 740.27 122.16 740.39 121.71 C 742.31 120.28 744.56 119.45 746.79 118.61 C 751.18 116.93 754.96 113.86 759.58 112.74 Z" />
<path fill="#8ab820" d=" M 442.01 132.20 C 443.45 127.84 445.72 122.91 450.95 122.47 C 451.01 125.01 450.91 127.56 450.69 130.09 C 460.92 131.24 470.47 135.48 479.18 140.81 C 483.59 143.27 487.44 146.98 492.62 147.80 C 491.63 146.60 490.64 145.40 489.63 144.22 C 491.16 145.02 492.65 146.34 494.52 145.92 C 495.88 147.40 497.31 148.84 498.89 150.10 C 506.70 156.22 514.02 163.09 519.89 171.12 C 535.47 166.68 551.09 162.38 566.64 157.85 C 568.21 156.28 569.86 154.78 571.40 153.17 C 566.54 154.09 561.87 156.33 556.82 155.67 C 550.98 159.26 544.06 159.85 537.63 161.77 L 537.67 160.33 C 536.87 160.57 535.26 161.06 534.45 161.30 C 533.93 162.12 533.42 162.95 532.91 163.77 C 532.40 161.45 530.85 162.33 529.44 163.24 C 527.59 164.19 525.67 164.99 523.72 165.70 C 523.03 165.47 521.65 165.00 520.95 164.77 C 520.63 165.23 519.97 166.16 519.64 166.62 C 518.99 166.24 518.35 165.85 517.72 165.46 C 519.52 164.99 521.33 164.51 523.16 164.07 C 535.87 159.60 549.00 156.39 562.22 153.83 C 565.37 152.87 568.53 151.87 571.57 150.59 C 572.42 149.26 572.29 147.10 573.92 146.40 C 576.77 147.16 579.51 148.35 582.17 149.64 C 582.76 151.51 584.07 152.97 585.35 154.40 C 587.08 153.72 588.72 152.85 590.16 151.66 C 594.43 152.13 598.47 150.35 602.64 149.75 C 602.71 149.28 602.85 148.36 602.92 147.90 C 603.04 148.35 603.28 149.26 603.40 149.71 C 606.52 148.61 610.14 149.22 612.89 147.10 C 612.22 147.97 611.49 148.87 610.35 149.07 C 602.51 150.75 594.74 152.77 586.84 154.16 C 594.57 163.42 603.85 171.69 609.44 182.53 C 614.26 198.13 614.63 215.10 610.43 230.90 C 608.45 238.78 605.30 246.30 601.67 253.55 C 600.69 255.23 600.40 257.49 598.77 258.69 C 598.18 256.70 597.82 254.65 597.31 252.65 C 598.60 240.18 603.17 227.71 600.40 215.12 C 597.84 206.28 592.80 198.23 586.31 191.74 C 581.43 185.93 575.04 181.56 570.34 175.60 C 569.50 173.94 571.84 173.96 572.81 174.50 C 577.62 177.56 581.79 181.47 586.22 185.05 C 583.01 178.98 576.45 175.93 572.53 170.44 C 574.25 170.58 575.94 171.84 577.71 171.28 C 578.91 171.86 580.11 172.45 581.33 173.00 C 579.79 171.76 578.15 170.65 576.54 169.51 L 574.46 170.49 L 575.51 168.64 C 575.24 167.79 574.71 166.08 574.44 165.23 C 581.38 167.28 585.81 173.43 591.09 177.96 C 586.55 170.60 579.03 166.04 572.72 160.41 C 571.85 164.55 569.59 168.19 568.23 172.17 C 566.82 176.38 565.35 180.57 563.87 184.76 C 562.88 187.49 563.61 190.58 562.19 193.20 C 558.05 202.54 553.10 211.73 551.48 221.95 C 549.60 228.15 550.24 234.69 549.87 241.07 C 550.45 242.55 551.00 244.04 551.53 245.55 C 544.84 245.66 547.60 237.35 543.35 234.62 C 541.66 243.38 543.04 252.47 541.33 261.26 C 544.22 261.50 547.13 261.48 550.02 261.15 C 555.25 265.59 561.94 268.62 565.35 274.88 C 562.73 273.58 560.01 272.54 557.23 271.64 C 554.56 270.38 552.12 268.65 549.33 267.62 L 549.86 269.67 C 538.27 266.16 525.85 270.25 516.46 277.28 C 510.46 281.84 504.78 287.07 500.66 293.43 C 504.74 292.75 506.25 288.52 509.57 286.62 C 513.81 283.98 519.15 284.34 523.43 281.74 C 523.89 281.72 524.81 281.68 525.27 281.66 C 526.72 279.70 528.47 277.99 530.35 276.45 C 531.62 276.40 532.90 276.34 534.18 276.27 C 533.59 276.69 532.41 277.52 531.82 277.93 C 534.47 279.58 537.56 279.27 540.49 278.79 C 540.89 278.20 541.70 277.02 542.10 276.43 C 543.09 277.29 544.06 278.20 545.14 278.97 C 546.44 278.91 547.71 278.53 548.99 278.24 C 549.75 279.43 550.52 280.63 551.28 281.83 C 550.72 282.93 550.16 284.03 549.62 285.13 C 550.34 284.88 551.78 284.36 552.50 284.11 C 552.33 286.05 553.06 287.68 554.70 288.74 C 554.78 290.37 554.82 292.02 554.85 293.67 C 554.06 294.20 553.27 294.73 552.49 295.27 C 553.09 296.44 553.64 297.64 554.15 298.87 C 553.69 300.02 552.82 300.92 552.10 301.90 C 552.48 302.11 553.25 302.52 553.63 302.73 C 552.55 304.55 551.74 306.50 551.36 308.59 C 555.90 308.63 560.46 308.08 564.80 306.73 C 569.80 306.04 571.35 311.31 574.80 313.65 C 575.24 310.46 575.46 307.24 576.10 304.08 C 576.85 306.19 577.70 308.38 580.11 308.98 C 582.45 305.74 583.78 301.96 584.24 298.00 C 582.90 295.33 581.14 292.93 579.24 290.65 C 578.53 289.89 578.92 288.71 578.73 287.80 C 581.50 290.70 583.97 293.96 585.49 297.70 C 587.46 298.90 589.59 300.10 591.94 299.16 C 592.47 301.55 592.61 304.10 593.74 306.30 C 595.30 307.20 597.28 307.14 599.03 307.60 C 599.80 309.83 600.38 312.38 602.64 313.61 C 603.28 314.96 603.69 316.40 603.86 317.90 L 605.10 318.27 C 603.82 322.56 602.21 326.89 599.23 330.31 C 597.16 332.53 593.81 333.84 593.12 337.09 C 592.15 341.13 592.72 346.16 596.13 348.94 C 600.48 352.00 606.57 351.45 611.12 349.14 C 615.84 346.54 616.12 340.14 614.37 335.63 C 613.45 333.18 611.08 331.85 609.04 330.46 C 657.91 326.61 706.73 321.96 755.59 317.83 C 776.80 315.93 798.03 314.17 819.24 312.21 C 823.29 357.50 827.25 402.80 831.13 448.11 C 678.16 461.48 525.19 474.90 372.22 488.24 C 371.44 479.83 370.77 471.41 370.01 462.99 C 369.97 461.64 369.47 460.41 368.82 459.28 C 364.45 461.56 359.63 462.67 354.93 463.99 C 323.07 472.72 289.91 475.28 257.02 476.27 C 242.98 476.48 228.97 475.37 214.96 474.55 C 199.98 473.41 184.89 469.86 171.88 462.12 C 172.40 461.96 173.44 461.64 173.96 461.48 C 173.02 460.59 172.09 459.71 171.16 458.82 C 171.01 457.32 170.85 455.83 170.66 454.35 C 170.61 453.04 170.54 451.74 170.46 450.44 C 171.41 448.51 172.34 446.57 172.95 444.51 C 176.72 441.97 178.45 437.66 181.29 434.29 C 183.61 431.17 188.07 432.25 191.02 430.12 C 236.21 401.26 286.22 380.24 337.96 366.39 C 337.73 366.09 337.29 365.50 337.06 365.20 C 329.96 363.78 322.62 363.62 315.68 361.39 C 316.70 361.05 317.72 360.72 318.75 360.41 C 319.01 360.02 319.52 359.24 319.77 358.85 C 318.88 359.32 317.99 359.80 317.11 360.29 C 315.83 359.97 314.56 359.65 313.29 359.34 C 310.49 357.08 306.77 357.27 303.48 356.33 C 303.12 356.49 302.40 356.82 302.04 356.99 C 301.80 354.60 299.20 354.31 297.42 353.56 C 293.88 352.56 290.54 351.03 287.12 349.72 C 279.58 345.48 271.33 342.15 265.10 335.92 C 262.19 332.69 258.43 330.51 254.84 328.17 C 249.87 324.18 244.59 320.47 240.56 315.48 C 237.32 311.70 234.92 307.31 232.75 302.86 C 199.52 317.81 167.28 334.81 135.23 352.10 C 120.75 359.96 106.14 367.61 91.97 376.04 C 89.06 378.18 85.43 376.38 82.18 376.44 C 83.55 374.66 84.89 372.86 86.22 371.06 C 85.12 370.45 84.03 369.85 82.93 369.26 C 83.36 368.07 83.87 366.85 85.03 366.19 C 117.21 342.71 151.67 322.61 186.57 303.50 C 194.63 299.24 202.44 294.51 210.81 290.87 C 215.82 288.14 220.56 284.88 225.96 282.93 C 235.07 278.83 243.85 274.04 252.84 269.69 C 257.51 267.54 261.74 264.52 266.55 262.67 C 266.41 262.23 266.12 261.34 265.97 260.89 C 266.40 261.17 267.26 261.73 267.68 262.01 C 270.13 260.65 272.66 259.45 275.31 258.56 C 278.84 256.85 282.42 255.21 286.04 253.68 C 285.76 253.32 285.20 252.61 284.92 252.26 C 287.17 253.40 289.04 252.44 289.82 250.06 C 289.68 250.92 289.40 252.63 289.27 253.49 C 290.55 252.63 291.68 251.60 292.67 250.40 C 293.24 250.13 294.37 249.58 294.94 249.31 C 294.40 249.11 293.33 248.71 292.79 248.51 C 295.97 249.53 298.81 247.52 301.01 245.43 C 301.86 245.23 302.71 245.03 303.57 244.83 C 304.33 244.56 305.10 244.29 305.87 244.03 C 307.59 243.80 309.19 243.18 310.40 241.88 C 314.25 240.61 318.05 238.92 320.85 235.88 C 320.46 236.48 319.68 237.67 319.29 238.27 C 321.69 238.19 323.46 236.62 325.18 235.15 C 318.09 219.30 312.20 202.55 311.32 185.05 C 310.56 180.82 315.22 176.03 319.42 178.48 C 319.05 180.48 318.68 182.49 318.36 184.51 C 334.70 182.33 351.27 183.14 367.51 185.69 C 380.71 187.01 393.24 191.53 405.95 195.00 C 409.74 196.17 413.50 197.79 417.55 197.68 L 417.26 199.17 C 417.39 198.78 417.64 198.01 417.77 197.63 C 425.81 198.35 431.57 191.38 439.07 190.04 C 439.86 183.41 435.07 177.65 436.02 170.97 C 435.40 159.82 436.87 148.73 439.47 137.90 C 438.77 136.45 436.75 134.78 437.93 133.08 C 439.26 132.70 440.64 132.46 442.01 132.20 Z" />
<path fill="#8ab820" d=" M 616.24 142.14 C 617.71 140.89 619.23 139.70 620.80 138.56 C 620.62 139.11 620.25 140.19 620.07 140.73 C 620.85 140.79 622.41 140.91 623.19 140.97 C 620.95 141.76 618.58 141.98 616.24 142.14 Z" />
<path fill="#fefefd" d=" M 448.25 140.79 C 450.61 141.72 452.93 142.74 455.24 143.80 C 455.44 143.25 455.82 142.14 456.01 141.58 C 456.09 142.08 456.24 143.08 456.32 143.58 C 458.29 143.57 460.32 143.48 462.27 143.93 C 461.81 145.32 460.85 146.43 459.97 147.56 C 461.68 149.64 463.03 152.31 465.72 153.28 C 471.05 155.22 475.58 158.71 480.48 161.48 C 486.55 167.22 493.42 172.10 499.24 178.11 C 497.60 178.29 495.95 178.42 494.31 178.52 L 494.68 179.49 C 492.80 179.91 490.95 180.40 489.08 180.84 C 488.15 181.22 487.22 181.60 486.29 181.97 C 484.61 182.79 482.92 183.60 481.23 184.39 C 480.87 185.13 480.52 185.86 480.17 186.60 C 483.62 185.44 487.09 184.33 490.58 183.29 C 490.34 183.79 489.87 184.79 489.63 185.30 C 484.35 186.44 479.47 188.88 474.34 190.54 C 473.26 189.96 472.19 189.39 471.12 188.82 C 471.32 189.29 471.71 190.22 471.91 190.68 C 465.31 192.00 459.53 195.96 452.88 196.89 C 457.93 193.63 464.44 193.23 468.99 189.16 C 471.57 186.64 475.27 186.19 478.47 184.87 L 476.25 183.64 C 476.97 183.27 478.40 182.54 479.11 182.17 C 478.17 182.29 476.28 182.52 475.34 182.64 C 475.62 182.15 476.18 181.16 476.46 180.67 C 477.86 180.39 479.26 180.07 480.67 179.75 L 479.94 178.41 C 482.00 178.10 484.00 177.52 485.98 176.89 C 485.85 175.55 485.72 174.22 485.60 172.89 C 485.49 173.83 485.39 174.76 485.29 175.70 C 484.85 176.06 483.98 176.79 483.54 177.16 C 481.15 175.71 478.32 176.11 475.67 175.99 C 477.13 176.71 478.58 177.41 479.96 178.29 C 479.13 178.92 478.30 179.54 477.46 180.14 C 477.18 179.52 476.62 178.29 476.34 177.68 C 475.56 177.65 474.80 177.63 474.04 177.62 C 472.41 179.74 469.43 179.19 467.13 179.87 C 469.16 180.08 471.15 180.60 472.77 181.90 C 470.71 182.60 468.66 183.31 466.62 184.05 C 466.84 183.37 467.27 182.02 467.49 181.34 C 463.89 183.14 460.12 184.78 456.02 184.79 C 456.01 184.30 455.99 183.32 455.98 182.83 C 456.12 186.14 452.52 186.60 450.25 187.82 C 450.16 187.48 449.98 186.79 449.89 186.45 C 450.69 186.11 452.29 185.44 453.09 185.10 C 452.27 185.12 450.63 185.17 449.82 185.19 C 448.27 182.04 447.19 178.62 447.13 175.09 C 446.77 163.67 445.36 152.01 448.25 140.79 Z" />
<path fill="#8ab820" d=" M 484.98 141.56 C 485.92 140.89 488.10 141.78 487.63 143.10 C 486.68 143.82 484.56 142.82 484.98 141.56 Z" />
<path fill="#8ab820" d=" M 611.33 142.25 C 611.04 140.36 614.59 140.23 615.34 141.66 C 614.85 143.02 612.42 142.73 611.33 142.25 Z" />
<path fill="#8ab820" d=" M 456.61 144.27 C 457.87 143.53 458.65 143.83 458.95 145.15 C 457.71 145.88 456.93 145.59 456.61 144.27 Z" />
<path fill="#8ab820" d=" M 598.98 144.74 C 600.75 144.75 602.57 144.58 604.12 143.62 C 605.11 143.72 607.09 143.93 608.08 144.03 C 605.39 145.33 602.45 145.89 599.53 146.30 L 598.98 144.74 Z" />
<path fill="#8ab820" d=" M 587.32 147.82 C 590.44 146.58 587.13 151.16 587.32 147.82 Z" />
<path fill="#fefefd" d=" M 521.82 172.36 C 536.07 168.64 550.24 164.61 564.48 160.87 C 563.32 162.75 562.08 164.58 560.91 166.46 C 555.01 176.26 550.72 186.97 547.51 197.92 C 545.61 204.27 545.35 210.91 544.88 217.47 C 539.87 201.24 532.29 185.79 521.82 172.36 Z" />
<path fill="#8ab820" d=" M 490.46 172.50 C 491.02 173.04 491.02 173.04 490.46 172.50 Z" />
<path fill="#8ab820" d=" M 492.34 173.24 C 492.94 173.73 492.94 173.73 492.34 173.24 Z" />
<path fill="#8ab820" d=" M 488.39 173.64 C 488.89 174.08 489.89 174.94 490.39 175.38 C 491.09 175.39 492.50 175.43 493.20 175.44 C 491.14 176.17 489.04 176.79 486.88 177.08 C 487.70 176.69 489.34 175.89 490.16 175.50 C 489.66 175.29 488.67 174.89 488.18 174.68 L 488.39 173.64 Z" />
<path fill="#8ab820" d=" M 486.50 179.17 C 489.56 177.80 486.52 182.49 486.50 179.17 Z" />
<path fill="#fefefd" d=" M 493.27 182.37 C 495.98 181.36 499.21 177.69 502.06 180.48 C 501.51 181.19 500.41 182.62 499.86 183.33 C 500.47 182.82 501.68 181.78 502.28 181.26 C 503.82 182.51 505.63 183.55 506.75 185.25 C 511.29 193.23 517.53 200.08 522.12 208.05 C 525.47 214.13 529.47 220.36 530.01 227.45 C 533.28 238.26 533.22 249.68 535.77 260.64 C 518.56 265.57 502.54 275.12 490.70 288.63 C 481.78 298.88 475.48 311.60 473.65 325.13 C 473.37 331.00 475.49 336.65 477.33 342.14 C 439.18 345.58 400.99 348.73 362.84 352.24 C 357.24 353.54 351.62 351.76 346.07 351.10 C 315.98 346.40 285.91 336.98 261.15 318.75 C 255.13 314.41 249.63 309.42 244.23 304.35 C 251.79 303.32 259.28 301.32 266.96 301.45 C 270.34 301.38 273.57 300.16 276.95 300.05 C 284.02 299.83 290.88 297.61 297.97 297.67 C 302.04 297.94 306.03 296.08 310.05 297.39 C 311.66 298.05 312.50 296.06 313.68 295.38 C 324.12 295.15 334.55 294.71 344.97 294.14 C 352.41 295.22 359.98 295.63 367.51 295.42 C 369.63 297.13 372.48 296.36 374.98 296.57 C 384.28 296.48 393.25 300.16 402.57 299.40 C 410.93 302.19 418.42 307.74 427.36 308.71 C 425.64 306.98 423.71 305.48 421.74 304.07 C 421.67 303.64 421.54 302.79 421.48 302.36 C 417.23 300.44 413.12 298.22 408.93 296.18 C 405.91 294.81 403.88 291.77 400.51 291.15 C 395.55 287.62 391.83 281.74 385.19 281.29 C 381.80 278.24 378.88 274.36 374.36 272.94 C 371.84 268.94 367.22 267.27 364.17 263.81 C 358.74 258.01 351.99 253.48 347.42 246.88 C 353.12 243.60 359.37 241.46 365.10 238.24 C 367.76 235.06 372.09 235.01 375.66 233.55 C 378.50 232.48 380.49 230.09 382.77 228.20 C 385.72 231.39 389.71 227.97 392.53 226.28 C 392.80 225.73 393.33 224.62 393.60 224.06 C 390.26 225.31 387.12 227.07 383.69 228.09 C 388.42 225.67 393.39 222.63 398.83 222.57 C 405.01 219.45 411.02 215.61 417.97 214.44 C 427.25 219.91 436.65 225.20 445.49 231.37 C 451.41 236.82 457.70 241.93 462.94 248.07 C 465.64 252.55 468.66 256.89 472.48 260.50 C 473.97 261.43 475.47 260.09 476.86 259.60 C 479.78 263.79 483.22 267.57 486.34 271.62 C 487.69 273.45 490.10 273.75 492.03 274.68 C 487.29 270.14 484.89 263.83 480.72 258.81 C 480.54 257.38 481.14 255.54 479.64 254.65 C 477.07 252.81 476.80 249.45 475.38 246.84 C 473.92 238.13 467.00 231.69 464.48 223.34 C 460.86 216.05 457.62 208.55 455.22 200.76 C 458.48 199.43 461.82 198.28 464.94 196.63 C 463.73 196.91 461.32 197.47 460.11 197.75 C 460.31 197.33 460.71 196.49 460.92 196.07 C 465.31 193.96 470.10 192.86 474.75 191.44 C 475.80 190.94 476.92 191.35 477.92 191.80 L 476.07 193.05 C 478.65 192.49 481.15 191.53 483.37 190.09 C 481.65 190.44 479.93 190.83 478.22 191.24 C 479.24 188.74 483.03 188.98 485.24 187.80 C 489.48 185.41 494.49 184.99 498.79 182.67 C 496.80 183.18 495.06 183.06 493.27 182.37 Z" />
<path fill="#fefefd" d=" M 473.30 180.17 C 476.18 178.81 473.52 183.08 473.30 180.17 Z" />
<path fill="#fefefd" d=" M 491.32 183.15 C 494.21 181.86 491.29 186.40 491.32 183.15 Z" />
<path fill="#fefefd" d=" M 464.25 183.95 C 467.35 182.66 464.05 187.27 464.25 183.95 Z" />
<path fill="#fefefd" d=" M 333.73 228.27 C 326.29 215.75 320.91 201.87 319.11 187.36 C 321.78 188.42 324.38 189.66 327.04 190.77 C 332.97 192.92 339.59 190.51 345.45 192.74 C 344.76 192.95 343.40 193.37 342.72 193.58 C 343.70 193.87 344.69 194.16 345.68 194.46 L 345.29 193.02 C 353.08 195.64 361.32 196.27 369.37 197.53 C 377.36 200.44 386.12 201.05 393.62 205.26 C 392.26 206.25 390.87 207.21 389.48 208.16 C 383.04 209.16 377.91 213.57 371.98 215.90 C 367.10 217.24 362.47 219.27 357.63 220.70 C 353.54 221.81 350.76 225.39 346.69 226.54 C 344.12 226.53 341.85 227.72 339.73 229.04 C 338.32 229.57 336.88 230.06 335.43 230.47 C 334.78 229.79 334.22 229.06 333.73 228.27 Z" />
<path fill="#8ab820" d=" M 473.78 188.29 C 474.78 187.28 476.43 186.31 477.90 186.78 C 477.86 188.20 474.44 189.50 473.78 188.29 Z" />
<path fill="#fefefd" d=" M 683.11 190.10 C 680.50 193.18 676.99 195.35 674.57 198.60 C 674.70 198.03 674.96 196.88 675.10 196.31 C 677.67 194.13 680.15 191.78 683.11 190.10 Z" />
<path fill="#8ab820" d=" M 466.08 195.24 C 469.19 194.61 472.17 193.43 475.34 193.05 C 471.81 194.55 468.19 195.79 464.61 197.14 C 464.98 196.67 465.71 195.72 466.08 195.24 Z" />
<path fill="#fefefd" d=" M 427.01 198.04 C 429.46 196.27 432.35 195.35 435.19 194.44 C 435.19 194.81 435.19 195.55 435.19 195.92 C 436.91 195.26 438.65 194.61 440.42 194.04 C 437.85 196.26 434.84 197.87 431.84 199.41 C 432.39 198.70 433.48 197.28 434.02 196.57 C 431.70 197.14 429.38 197.74 427.01 198.04 Z" />
<path fill="#fefefd" d=" M 456.80 198.00 C 457.63 196.76 458.39 196.73 459.08 197.90 C 458.24 199.13 457.48 199.17 456.80 198.00 Z" />
<path fill="#fefefd" d=" M 683.62 198.12 C 684.80 197.21 685.49 197.45 685.68 198.86 C 684.49 199.74 683.80 199.50 683.62 198.12 Z" />
<path fill="#fefefd" d=" M 688.20 198.14 C 691.24 197.99 687.70 200.93 686.41 200.93 C 685.12 199.84 686.93 198.12 688.20 198.14 Z" />
<path fill="#fefefd" d=" M 429.96 204.36 C 433.49 201.73 437.83 201.06 442.06 200.44 C 438.14 202.06 434.25 203.98 429.96 204.36 Z" />
<path fill="#fefefd" d=" M 435.15 207.80 C 438.01 206.81 440.87 205.81 443.74 204.83 C 445.41 208.37 448.50 211.84 447.52 216.03 C 442.90 214.10 439.16 210.70 435.15 207.80 Z" />
<path fill="#fefefd" d=" M 388.01 209.20 L 388.41 208.58 L 389.36 208.85 L 389.57 209.78 C 389.22 209.80 388.53 209.84 388.19 209.86 L 388.01 209.20 Z" />
<path fill="#fefefd" d=" M 383.44 211.70 C 383.50 210.38 385.57 209.92 386.70 209.88 C 386.72 210.23 386.76 210.92 386.77 211.27 C 385.70 211.92 384.59 212.06 383.44 211.70 Z" />
<path fill="#fefefd" d=" M 400.54 210.19 C 401.74 209.28 402.42 209.51 402.55 210.89 C 401.33 211.79 400.66 211.56 400.54 210.19 Z" />
<path fill="#fefefd" d=" M 399.73 214.90 C 401.40 211.74 405.44 210.81 408.75 211.04 C 405.92 212.68 402.90 214.05 399.73 214.90 Z" />
<path fill="#fefefd" d=" M 361.46 221.09 C 363.79 219.95 366.22 218.88 368.81 218.49 C 369.17 219.60 369.35 220.76 369.61 221.91 C 368.02 222.43 366.43 222.98 364.86 223.55 C 365.72 222.66 366.58 221.77 367.45 220.88 C 365.45 220.96 363.45 221.03 361.46 221.09 Z" />
<path fill="#fefefd" d=" M 659.27 223.13 C 659.81 223.23 660.88 223.42 661.42 223.52 C 660.95 223.65 660.02 223.91 659.56 224.04 L 659.27 223.13 Z" />
<path fill="#8ab820" d=" M 652.99 225.71 C 653.44 226.09 653.90 226.48 654.36 226.87 C 652.00 228.31 649.78 229.94 647.53 231.53 C 644.25 233.22 641.15 235.26 638.40 237.72 C 637.75 237.76 636.44 237.83 635.79 237.86 C 638.07 236.68 640.31 235.43 642.53 234.13 C 643.07 233.28 643.63 232.44 644.20 231.60 C 644.92 231.43 646.34 231.08 647.06 230.91 C 648.62 228.75 650.98 227.41 652.99 225.71 Z" />
<path fill="#8ab820" d=" M 634.32 238.23 C 634.83 238.79 634.83 238.79 634.32 238.23 Z" />
<path fill="#fefefd" d=" M 307.09 266.56 C 316.88 262.17 325.85 255.98 335.97 252.36 C 343.23 256.77 349.66 262.33 355.74 268.24 C 362.76 275.09 371.17 280.17 379.11 285.85 C 343.16 283.37 306.64 282.79 271.21 290.30 C 267.38 291.04 263.75 292.56 259.92 293.28 C 253.39 294.64 247.34 297.64 240.82 299.01 C 262.74 287.86 284.99 277.35 307.09 266.56 Z" />
<path fill="#8ab820" d=" M 576.98 277.25 C 579.57 277.55 582.22 278.02 584.41 279.55 C 587.88 281.70 592.52 282.46 594.75 286.22 C 596.64 289.53 599.25 292.32 601.50 295.37 C 598.85 295.09 596.21 294.72 593.58 294.37 C 592.46 293.47 591.34 292.58 590.22 291.69 C 589.98 293.42 589.74 295.16 589.47 296.89 C 586.05 296.13 585.51 292.47 583.85 289.98 C 582.20 287.37 579.15 286.11 577.40 283.60 C 576.03 281.72 576.87 279.33 576.98 277.25 Z" />
<path fill="#fefefd" d=" M 572.43 333.64 C 575.47 332.56 578.82 332.45 581.98 332.99 C 590.55 334.50 591.85 348.64 583.93 351.93 C 580.28 353.45 576.02 353.76 572.23 352.58 C 564.50 349.67 564.28 336.23 572.43 333.64 Z" />
<path fill="#fefefd" d=" M 735.24 342.39 C 755.68 340.71 776.09 338.79 796.52 337.10 C 797.13 345.38 797.97 353.64 798.62 361.92 C 788.18 363.04 777.70 363.69 767.26 364.79 C 767.49 367.36 767.71 369.92 767.92 372.50 C 777.59 371.82 787.24 370.85 796.90 370.02 C 797.54 378.30 798.35 386.56 799.04 394.84 C 789.39 395.65 779.76 396.59 770.10 397.31 C 770.34 400.01 770.59 402.72 770.84 405.43 C 781.62 404.55 792.39 403.48 803.19 402.67 C 804.39 410.92 805.44 419.18 806.63 427.42 C 785.46 429.27 764.29 431.11 743.13 432.99 C 740.55 402.79 737.83 372.59 735.24 342.39 Z" />
<path fill="#fefefd" d=" M 691.50 346.30 C 700.52 345.47 709.54 344.57 718.59 344.00 C 721.11 374.17 723.86 404.31 726.45 434.47 C 717.28 435.20 708.13 436.04 698.97 436.86 C 692.75 425.81 686.47 414.79 680.27 403.73 C 678.07 400.01 677.05 395.75 674.84 392.04 C 676.28 407.55 677.78 423.09 679.03 438.63 C 670.06 439.31 661.10 440.19 652.13 440.93 C 649.53 410.74 646.90 380.54 644.20 350.35 C 654.39 349.57 664.56 348.54 674.75 347.76 C 679.90 357.07 685.21 366.30 690.43 375.59 C 692.33 378.89 692.99 382.79 695.30 385.87 C 693.70 372.72 692.72 359.49 691.50 346.30 Z" />
<path fill="#fefefd" d=" M 599.64 354.42 C 609.23 353.38 618.85 352.52 628.48 351.90 C 629.81 368.90 631.43 385.88 632.88 402.87 C 633.94 413.37 634.57 425.14 628.13 434.17 C 621.97 442.75 611.03 445.58 601.07 446.63 C 590.98 447.60 579.69 448.11 570.99 442.01 C 562.69 436.03 559.83 425.41 558.79 415.74 C 557.06 396.60 555.42 377.46 553.75 358.31 C 563.74 357.46 573.72 356.50 583.72 355.73 C 585.41 375.12 587.07 394.52 588.82 413.91 C 589.16 416.32 589.32 419.88 592.28 420.54 C 595.68 421.21 599.41 420.92 602.61 419.55 C 605.38 418.12 604.70 414.55 604.70 412.00 C 603.05 392.80 601.39 373.60 599.64 354.42 Z" />
<path fill="#fefefd" d=" M 469.92 365.63 C 483.59 364.49 497.24 363.19 510.90 362.09 C 519.40 361.57 528.82 362.72 535.35 368.72 C 542.15 375.05 543.78 385.03 543.15 393.91 C 542.67 401.24 539.00 408.08 533.52 412.91 C 535.96 416.38 538.17 420.02 540.72 423.42 C 542.04 425.70 544.91 424.32 546.96 424.40 C 547.90 432.89 548.46 441.42 549.29 449.93 C 542.64 451.23 535.66 452.75 528.97 450.93 C 524.68 449.83 521.26 446.72 518.76 443.20 C 514.35 436.82 511.38 429.53 506.94 423.20 C 506.24 423.08 504.85 422.84 504.15 422.72 C 504.98 433.04 505.82 443.36 506.87 453.66 C 497.18 454.44 487.50 455.40 477.82 456.15 C 475.18 425.98 472.50 395.81 469.92 365.63 Z" />
<path fill="#fefefd" d=" M 407.92 371.23 C 422.76 366.77 438.66 367.82 453.63 371.09 C 452.44 379.77 451.37 388.46 450.44 397.17 C 441.73 395.34 432.86 393.51 423.90 394.41 C 421.04 394.71 417.42 395.11 416.09 398.09 C 414.28 402.12 414.81 406.70 415.00 410.98 C 415.54 417.19 415.85 423.47 417.34 429.55 C 418.06 432.09 419.14 435.26 422.08 435.91 C 425.44 436.66 428.86 435.70 432.21 435.24 C 431.98 432.72 431.74 430.21 431.45 427.71 C 429.16 427.91 426.87 428.13 424.58 428.35 C 424.03 420.74 423.26 413.15 422.65 405.54 C 434.15 404.45 445.67 403.55 457.16 402.46 C 458.62 418.99 460.00 435.52 461.53 452.04 C 448.49 457.84 434.47 462.48 420.02 462.01 C 410.87 462.12 401.26 458.94 395.22 451.79 C 388.60 444.03 386.10 433.75 384.77 423.87 C 383.34 411.64 382.67 398.49 388.16 387.10 C 391.92 379.12 399.62 373.71 407.92 371.23 Z" />
<path fill="#fefefd" d=" M 342.91 372.04 C 349.22 371.08 355.34 368.13 361.81 368.82 C 363.79 392.48 365.89 416.13 368.00 439.77 C 355.28 442.13 342.64 444.95 329.73 446.10 C 329.46 446.00 328.92 445.79 328.65 445.69 C 325.75 447.32 322.22 446.19 319.06 446.92 C 315.08 447.79 310.98 447.22 306.99 447.99 C 298.61 448.82 290.12 447.41 281.78 448.75 C 257.39 446.68 232.25 448.14 208.71 440.24 C 204.15 438.51 199.31 437.10 195.37 434.11 C 197.76 432.83 200.36 432.02 202.72 430.68 C 211.41 425.09 221.05 421.20 229.97 416.00 C 232.98 414.21 236.00 412.38 239.31 411.17 C 269.86 399.35 299.15 383.77 331.24 376.32 C 335.33 375.41 338.65 372.45 342.91 372.04 Z" />
<path fill="#8ab820" d=" M 500.85 385.86 C 504.43 385.86 508.53 384.06 511.80 386.05 C 514.37 389.34 514.38 394.09 513.62 398.03 C 511.94 402.59 505.94 400.99 502.17 401.69 C 501.85 396.40 501.31 391.13 500.85 385.86 Z" />
<path fill="#8ab820" d=" M 373.24 499.19 C 595.74 479.87 818.21 460.18 1040.71 440.91 C 1044.48 486.19 1048.62 531.45 1052.50 576.72 C 830.02 596.14 607.55 615.67 385.07 635.08 C 381.13 589.79 377.05 544.50 373.24 499.19 Z" />
<path fill="#fefefd" d=" M 974.60 470.52 C 988.95 464.40 1004.94 466.95 1019.91 468.77 C 1018.69 477.39 1017.26 485.98 1015.91 494.58 C 1006.51 493.47 996.94 490.93 987.48 492.63 C 985.35 492.75 985.62 495.37 985.99 496.87 C 987.80 498.80 990.74 498.64 993.13 499.31 C 1001.76 501.24 1011.34 501.71 1018.48 507.53 C 1025.66 513.27 1027.96 523.14 1027.32 531.93 C 1026.82 539.65 1022.87 546.99 1016.79 551.75 C 1008.73 558.23 998.11 560.41 987.99 560.61 C 978.68 560.95 969.58 558.64 960.56 556.65 C 961.97 548.05 963.72 539.50 965.28 530.92 C 975.46 532.65 985.66 536.61 996.11 535.06 C 998.81 534.88 998.36 531.85 998.04 529.95 C 995.90 527.99 992.78 527.91 990.13 527.12 C 981.78 524.91 972.55 524.07 965.64 518.39 C 957.95 512.15 955.89 501.26 957.17 491.88 C 958.38 482.17 965.74 474.14 974.60 470.52 Z" />
<path fill="#fefefd" d=" M 880.99 477.55 C 903.10 475.94 925.16 473.50 947.28 472.00 C 948.52 480.15 948.71 488.44 949.67 496.63 C 943.52 497.39 937.34 497.77 931.18 498.36 C 933.12 520.21 934.94 542.08 936.95 563.93 C 927.03 564.97 917.06 565.59 907.15 566.67 C 904.75 544.80 903.34 522.83 901.14 500.94 C 895.11 501.58 889.06 501.99 883.03 502.59 C 882.29 494.25 881.35 485.92 880.99 477.55 Z" />
<path fill="#fefefd" d=" M 801.95 484.52 C 815.30 483.47 828.62 482.15 841.97 481.08 C 850.52 480.58 860.05 481.25 866.80 487.17 C 874.04 493.47 875.84 503.82 875.13 512.96 C 874.67 520.25 870.95 527.01 865.54 531.83 C 867.99 535.29 870.12 538.99 872.71 542.37 C 874.04 544.69 876.87 543.33 878.99 543.28 C 879.82 551.81 880.52 560.35 881.24 568.89 C 874.13 570.27 866.56 571.69 859.49 569.39 C 852.92 566.97 849.47 560.42 846.27 554.67 C 843.77 550.50 841.77 546.01 838.96 542.05 C 838.26 541.97 836.86 541.82 836.15 541.74 C 836.93 552.03 837.91 562.31 838.79 572.59 C 829.12 573.36 819.48 574.34 809.81 575.06 C 807.19 544.88 804.43 514.71 801.95 484.52 Z" />
<path fill="#fefefd" d=" M 725.72 491.24 C 746.11 489.47 766.50 487.58 786.90 485.94 C 787.61 494.22 788.44 502.50 789.02 510.79 C 778.58 511.78 768.11 512.49 757.68 513.65 C 757.90 516.21 758.12 518.78 758.36 521.35 C 768.01 520.62 777.63 519.57 787.29 518.91 C 788.10 527.16 788.69 535.43 789.53 543.68 C 779.87 544.36 770.24 545.45 760.58 546.09 C 760.77 548.82 761.00 551.57 761.37 554.30 C 772.09 553.18 782.85 552.48 793.57 551.35 C 794.83 559.61 795.89 567.91 797.05 576.20 C 775.89 578.15 754.71 579.84 733.56 581.83 C 731.04 551.63 728.21 521.45 725.72 491.24 Z" />
<path fill="#fefefd" d=" M 686.97 494.80 C 696.85 493.46 706.87 493.04 716.80 491.99 C 711.64 522.86 706.62 553.75 701.44 584.62 C 689.31 585.64 677.18 586.67 665.05 587.81 C 654.64 558.30 644.22 528.79 633.91 499.24 C 644.13 498.38 654.36 497.48 664.58 496.55 C 668.19 508.93 671.61 521.36 675.14 533.76 C 676.67 539.45 678.57 545.05 679.61 550.86 C 680.00 553.11 680.42 555.41 681.45 557.49 C 681.45 542.23 683.85 527.12 685.15 511.95 C 685.86 506.24 686.10 500.48 686.97 494.80 Z" />
<path fill="#fefefd" d=" M 568.90 503.85 C 580.31 501.99 591.87 503.79 603.21 505.30 C 602.04 513.90 600.59 522.47 599.23 531.05 C 590.24 529.81 581.15 527.82 572.05 528.83 C 570.35 528.67 568.57 530.17 569.03 531.95 C 569.13 535.02 572.90 534.85 575.06 535.50 C 585.38 537.83 597.66 538.16 604.89 547.07 C 613.70 558.55 612.76 576.98 601.78 586.80 C 593.25 594.60 581.24 597.15 569.98 597.01 C 561.11 597.25 552.46 595.00 543.89 593.04 C 545.32 584.46 547.06 575.94 548.61 567.38 C 557.36 569.06 566.03 571.65 574.98 572.03 C 577.38 571.77 581.63 572.20 581.75 568.82 C 581.66 567.42 581.36 565.63 579.75 565.30 C 569.99 561.95 558.92 561.80 550.20 555.78 C 543.19 550.99 540.22 542.20 540.18 534.02 C 539.86 526.86 542.27 519.53 547.26 514.32 C 552.88 508.30 560.90 505.11 568.90 503.85 Z" />
<path fill="#8ab820" d=" M 832.85 504.81 C 836.46 504.76 840.60 502.89 843.86 505.04 C 846.33 508.27 846.34 512.87 845.69 516.72 C 844.19 521.53 837.97 519.89 834.15 520.61 C 833.86 515.33 833.30 510.08 832.85 504.81 Z" />
<path fill="#fefefd" d=" M 510.99 510.02 C 516.21 509.67 521.41 508.80 526.65 508.89 C 527.61 517.10 528.22 525.36 528.84 533.61 C 518.40 534.42 507.98 535.40 497.55 536.31 C 497.76 538.88 497.95 541.47 498.16 544.06 C 507.84 543.44 517.48 542.29 527.16 541.69 C 527.87 549.94 528.60 558.18 529.31 566.43 C 519.68 567.18 510.08 568.12 500.46 568.91 C 500.63 571.62 500.85 574.34 501.05 577.06 C 511.84 576.00 522.66 575.16 533.46 574.17 C 534.58 582.43 535.81 590.68 536.83 598.96 C 515.71 600.90 494.56 602.63 473.44 604.56 C 470.75 574.39 468.20 544.21 465.47 514.05 C 480.64 512.60 495.82 511.37 510.99 510.02 Z" />
<path fill="#fefefd" d=" M 397.81 519.92 C 407.77 519.01 417.74 518.19 427.70 517.30 C 429.43 539.15 431.49 560.97 433.36 582.81 C 441.81 582.12 450.25 581.21 458.72 580.71 C 460.11 588.96 461.38 597.23 462.82 605.48 C 443.77 607.10 424.73 608.84 405.68 610.44 C 403.10 580.26 400.37 550.10 397.81 519.92 Z" />
<path fill="#e41784" d=" M 385.95 646.03 C 574.06 629.49 762.18 613.03 950.31 596.66 C 952.04 615.58 953.64 634.52 955.31 653.45 C 767.21 669.89 579.11 686.35 391.01 702.81 C 389.21 683.90 387.74 664.95 385.95 646.03 Z" />
<path fill="#fefefd" d=" M 933.00 607.42 C 936.02 607.20 939.05 606.99 942.08 606.75 C 943.20 619.47 944.30 632.18 945.42 644.90 C 942.34 645.20 939.26 645.49 936.19 645.72 C 935.88 640.47 935.21 635.25 934.93 630.01 C 931.25 630.38 927.57 630.70 923.90 631.02 C 924.34 636.21 924.79 641.40 925.31 646.59 C 922.24 646.94 919.17 647.23 916.11 647.55 C 914.96 634.79 913.82 622.03 912.77 609.26 C 915.81 609.02 918.85 608.74 921.89 608.42 C 922.35 613.33 922.83 618.24 923.16 623.17 C 926.84 622.96 930.51 622.60 934.18 622.19 C 933.80 617.26 933.18 612.36 933.00 607.42 Z" />
<path fill="#fefefd" d=" M 886.76 613.73 C 892.48 609.01 900.66 609.52 907.41 611.38 C 906.97 614.06 906.57 616.74 906.14 619.42 C 902.23 618.55 897.80 616.85 894.03 619.03 C 891.09 621.42 891.81 625.67 891.79 629.02 C 892.20 633.05 892.24 637.77 895.28 640.85 C 899.90 642.88 904.56 639.94 908.61 637.90 C 909.40 640.56 910.27 643.21 911.12 645.87 C 904.93 649.10 897.35 651.07 890.68 648.14 C 885.00 645.48 883.13 638.83 882.42 633.11 C 881.60 626.54 881.57 618.63 886.76 613.73 Z" />
<path fill="#fefefd" d=" M 842.97 617.02 C 848.70 612.87 856.21 613.91 862.78 614.77 C 862.34 617.43 861.91 620.10 861.49 622.77 C 857.70 622.29 853.84 621.40 850.03 622.09 C 847.63 622.60 846.69 625.82 848.43 627.57 C 853.18 630.14 859.40 629.58 863.46 633.57 C 868.01 638.51 867.10 647.66 861.14 651.15 C 855.03 654.62 847.45 654.15 840.97 652.06 C 840.75 649.38 841.64 646.77 842.09 644.16 C 846.19 644.93 850.39 646.27 854.59 645.54 C 857.59 645.09 858.33 640.45 855.63 639.14 C 851.34 637.32 846.28 637.37 842.43 634.52 C 836.98 630.33 837.29 620.88 842.97 617.02 Z" />
<path fill="#fefefd" d=" M 808.26 618.32 C 817.11 617.75 825.93 616.78 834.77 616.09 C 834.95 618.62 835.16 621.16 835.41 623.69 C 832.57 623.98 829.73 624.25 826.90 624.53 C 827.47 634.71 828.89 644.82 829.32 655.00 C 826.32 655.53 823.28 655.62 820.26 655.84 C 819.39 645.69 818.39 635.56 817.65 625.40 C 814.78 625.59 811.91 625.83 809.05 626.04 C 808.76 623.46 808.50 620.89 808.26 618.32 Z" />
<path fill="#fefefd" d=" M 778.01 621.10 C 783.34 620.57 788.67 619.98 794.02 619.75 C 797.73 619.56 801.91 620.59 804.06 623.88 C 807.49 629.36 806.63 637.42 801.10 641.24 C 802.78 643.82 804.45 646.42 806.16 649.00 C 806.80 649.00 808.09 649.01 808.73 649.01 C 808.89 651.66 809.07 654.31 809.25 656.97 C 806.27 657.32 802.62 658.28 800.22 655.85 C 797.10 652.42 795.25 648.07 792.75 644.20 C 791.54 644.22 790.35 644.26 789.16 644.30 C 789.49 649.02 789.90 653.74 790.31 658.46 C 787.38 658.75 784.45 659.16 781.51 659.16 C 780.09 646.51 779.32 633.77 778.01 621.10 Z" />
<path fill="#fefefd" d=" M 747.68 623.67 C 755.50 623.19 763.28 622.03 771.12 621.85 C 771.72 624.31 771.74 626.87 771.89 629.40 C 767.08 629.75 762.27 630.10 757.48 630.61 C 757.69 633.10 757.88 635.59 758.06 638.09 C 762.59 637.60 767.14 637.17 771.70 636.91 C 771.88 639.42 772.09 641.93 772.32 644.44 C 767.80 644.87 763.27 645.22 758.77 645.72 C 758.97 648.30 759.21 650.90 759.48 653.49 C 764.40 653.10 769.31 652.66 774.22 652.22 C 774.60 654.75 774.95 657.29 775.29 659.84 C 767.18 660.50 759.08 661.22 750.99 661.98 C 749.82 649.21 748.64 636.45 747.68 623.67 Z" />
<path fill="#fefefd" d=" M 696.04 624.94 C 698.30 624.26 700.69 624.29 703.03 624.07 C 698.97 639.68 694.75 655.26 690.71 670.89 C 688.35 671.12 686.00 671.36 683.65 671.59 C 687.72 656.02 691.69 640.41 696.04 624.94 Z" />
<path fill="#fefefd" d=" M 734.13 624.89 C 737.19 624.60 740.26 624.32 743.35 624.07 C 740.80 637.11 738.32 650.16 735.83 663.21 C 732.21 663.64 728.58 663.91 724.95 664.17 C 720.30 651.75 715.48 639.40 710.85 626.97 C 714.00 626.62 717.15 626.33 720.32 626.16 C 723.39 635.29 726.70 644.34 729.74 653.49 C 730.78 643.90 732.74 634.43 734.13 624.89 Z" />
<path fill="#e41784" d=" M 787.63 627.27 C 790.31 627.40 793.76 625.93 795.88 628.19 C 797.30 630.41 797.57 633.65 795.86 635.80 C 793.82 637.50 790.95 637.07 788.51 637.51 C 788.16 634.10 787.88 630.68 787.63 627.27 Z" />
<path fill="#fefefd" d=" M 663.48 631.10 C 666.56 630.82 669.63 630.51 672.71 630.22 C 673.76 643.01 675.05 655.78 675.98 668.58 C 672.93 668.80 669.88 669.01 666.84 669.25 C 666.38 664.05 666.03 658.85 665.46 653.67 C 661.81 653.90 658.17 654.20 654.54 654.60 C 654.93 659.85 655.54 665.08 655.82 670.34 C 652.80 670.57 649.78 670.82 646.77 671.05 C 645.54 658.32 644.49 645.58 643.41 632.83 C 646.47 632.53 649.55 632.25 652.63 632.05 C 652.93 636.97 653.41 641.88 653.87 646.79 C 657.48 646.42 661.10 646.12 664.73 645.91 C 664.40 640.96 664.02 636.02 663.48 631.10 Z" />
<path fill="#fefefd" d=" M 620.29 635.40 C 625.85 632.85 632.24 633.59 638.05 634.80 C 637.62 637.53 637.18 640.26 636.81 643.00 C 632.88 642.11 628.40 640.43 624.62 642.64 C 621.49 645.43 622.31 650.23 622.51 653.98 C 623.10 657.79 623.00 663.01 627.07 664.94 C 631.44 665.94 635.47 663.38 639.18 661.45 C 640.06 664.11 640.91 666.77 641.78 669.44 C 635.98 672.47 629.15 674.19 622.72 672.28 C 618.69 671.02 615.82 667.48 614.59 663.55 C 612.76 657.88 612.30 651.76 613.10 645.87 C 613.68 641.53 616.15 637.21 620.29 635.40 Z" />
<path fill="#fefefd" d=" M 568.65 639.37 C 576.53 638.67 584.42 637.98 592.30 637.29 C 592.54 639.83 592.77 642.38 593.02 644.93 C 588.16 645.46 583.28 645.74 578.44 646.35 C 578.69 648.79 578.90 651.23 579.09 653.68 C 583.64 653.24 588.21 652.93 592.77 652.52 C 592.92 655.05 593.11 657.60 593.29 660.15 C 588.80 660.56 584.31 660.91 579.83 661.29 C 580.00 663.87 580.21 666.45 580.44 669.04 C 585.37 668.92 590.26 668.20 595.19 667.94 C 595.61 670.43 595.99 672.94 596.38 675.46 C 588.31 676.23 580.22 676.79 572.16 677.68 C 570.63 664.95 569.83 652.14 568.65 639.37 Z" />
<path fill="#fefefd" d=" M 552.45 640.80 C 555.21 640.52 557.98 640.27 560.75 640.05 C 561.76 652.79 562.98 665.53 564.05 678.27 C 561.14 678.58 558.22 678.83 555.31 679.04 C 550.63 671.28 545.21 663.97 541.04 655.91 C 541.56 664.00 542.46 672.07 543.05 680.16 C 540.36 680.39 537.67 680.73 534.98 680.74 C 533.25 668.12 532.67 655.29 531.38 642.59 C 534.58 642.32 537.78 642.07 540.99 641.81 C 545.52 649.23 550.69 656.26 554.69 663.99 C 553.52 656.31 553.17 648.53 552.45 640.80 Z" />
<path fill="#fefefd" d=" M 872.46 642.51 C 874.90 641.69 878.56 642.07 879.25 645.08 C 880.79 648.51 877.62 652.28 873.99 651.58 C 868.97 652.01 867.76 643.82 872.46 642.51 Z" />
<path fill="#fefefd" d=" M 500.97 645.27 C 508.87 644.59 516.78 643.96 524.67 643.14 C 524.87 645.72 525.08 648.29 525.30 650.88 C 520.48 651.30 515.67 651.81 510.84 652.10 C 511.02 654.58 511.24 657.06 511.48 659.54 C 516.00 659.22 520.50 658.82 525.02 658.45 C 525.27 660.96 525.50 663.47 525.77 665.98 C 521.23 666.49 516.68 666.80 512.15 667.30 C 512.38 669.89 512.63 672.50 512.87 675.11 C 517.77 674.67 522.67 674.13 527.59 673.91 C 527.94 676.43 528.35 678.93 528.79 681.44 C 520.65 682.08 512.51 682.73 504.39 683.61 C 503.13 670.84 502.13 658.05 500.97 645.27 Z" />
<path fill="#fefefd" d=" M 484.57 646.73 C 487.53 646.42 490.50 646.17 493.48 645.99 C 493.96 654.33 494.95 662.64 495.52 670.98 C 495.79 675.13 495.08 679.87 491.68 682.66 C 487.05 686.38 480.63 686.36 475.02 685.69 C 470.06 684.71 466.99 679.86 466.42 675.11 C 465.42 666.24 464.75 657.34 464.04 648.46 C 467.07 648.22 470.11 647.99 473.14 647.74 C 473.78 655.53 474.50 663.32 475.14 671.11 C 475.44 673.53 475.60 676.68 478.13 677.90 C 480.59 678.44 483.50 678.29 485.54 676.65 C 486.87 675.12 486.77 672.95 486.67 671.07 C 486.03 662.95 485.21 654.85 484.57 646.73 Z" />
<path fill="#fefefd" d=" M 430.97 651.34 C 437.84 651.28 444.75 649.20 451.58 650.55 C 460.67 652.86 461.49 666.80 454.00 671.57 C 455.69 674.15 457.37 676.74 459.06 679.33 C 459.71 679.33 461.01 679.33 461.66 679.33 C 461.83 681.98 462.02 684.64 462.25 687.30 C 459.13 687.63 455.34 688.66 452.91 686.02 C 450.03 682.55 448.09 678.41 445.75 674.58 C 444.48 674.64 443.21 674.70 441.95 674.78 C 442.51 679.47 442.83 684.18 443.26 688.88 C 440.29 689.09 437.32 689.39 434.36 689.68 C 433.20 676.90 432.12 664.12 430.97 651.34 Z" />
<path fill="#fefefd" d=" M 404.12 654.12 C 410.18 651.80 416.84 652.29 423.09 653.46 C 422.80 656.27 422.41 659.07 421.94 661.86 C 417.53 660.71 412.70 659.63 408.30 661.38 C 404.82 663.17 405.23 667.78 405.33 671.08 C 405.79 674.99 405.65 679.48 408.28 682.69 C 410.72 685.32 414.56 683.79 417.59 683.35 C 417.41 680.87 417.21 678.39 417.00 675.92 C 415.36 676.04 413.74 676.18 412.11 676.31 C 411.88 673.81 411.65 671.31 411.43 668.81 C 415.91 668.33 420.42 668.02 424.91 667.59 C 425.61 674.51 426.16 681.44 426.76 688.38 C 420.37 690.97 413.33 693.10 406.41 691.50 C 402.07 690.40 398.89 686.73 397.55 682.57 C 395.68 676.93 395.35 670.82 396.03 664.95 C 396.55 660.23 399.67 655.86 404.12 654.12 Z" />
<path fill="#e41784" d=" M 440.56 657.72 C 443.22 657.74 446.30 656.50 448.66 658.28 C 450.42 660.76 450.68 665.10 447.81 666.87 C 445.77 667.61 443.55 667.59 441.43 667.85 C 441.09 664.47 440.82 661.09 440.56 657.72 Z" />
<path fill="#fefefd" d=" M 602.36 666.35 C 604.43 665.46 607.29 665.25 608.98 667.03 C 610.52 668.57 609.89 670.97 610.14 672.94 C 608.13 674.37 605.66 675.95 603.11 674.91 C 599.53 673.81 599.01 668.02 602.36 666.35 Z" />
</svg>
