<?xml version="1.0" encoding="utf-8"?>
<!-- Generator: Adobe Illustrator 18.1.1, SVG Export Plug-In . SVG Version: 6.00 Build 0)  -->
<svg version="1.1" id="Ebene_1" xmlns="http://www.w3.org/2000/svg" xmlns:xlink="http://www.w3.org/1999/xlink" x="0px" y="0px"
	 viewBox="0 0 50 50" enable-background="new 0 0 50 50" xml:space="preserve">
<g>
	<rect x="0" fill="#FFFFFF" width="50" height="50"/>
	<rect x="0" fill="none" width="50" height="50"/>
	<rect x="25" y="0" fill-rule="evenodd" clip-rule="evenodd" fill="#FFE600" width="25" height="22.3"/>
	<rect x="25" y="0" fill="none" stroke="#1A171B" stroke-width="0.2311" stroke-miterlimit="3.8636" width="25" height="22.3"/>
	<rect x="39.6" y="13.3" fill-rule="evenodd" clip-rule="evenodd" fill="#007CFF" width="10.4" height="9.1"/>
	
		<rect x="39.6" y="13.3" fill="none" stroke="#1A171B" stroke-width="0.2311" stroke-miterlimit="3.8636" width="10.4" height="9.1"/>
	<polygon fill-rule="evenodd" clip-rule="evenodd" fill="#007CFF" points="50,9.1 39.6,9.1 39.6,0 37.5,0 37.5,11.2 25,11.2 
		25,13.3 35.4,13.3 35.4,22.3 37.5,22.3 37.5,11.2 50,11.2 	"/>
	<polygon fill="none" stroke="#1A171B" stroke-width="0.2311" stroke-miterlimit="3.8636" points="50,9.1 39.6,9.1 39.6,0 37.5,0 
		37.5,11.2 25,11.2 25,13.3 35.4,13.3 35.4,22.3 37.5,22.3 37.5,11.2 50,11.2 	"/>
	<rect x="25" y="0" fill-rule="evenodd" clip-rule="evenodd" fill="#007CFF" width="10.4" height="9.1"/>
	<rect x="25" y="0" fill="none" stroke="#1A171B" stroke-width="0.2311" stroke-miterlimit="3.8636" width="10.4" height="9.1"/>
	<line fill="none" stroke="#1A171B" stroke-width="0.2311" stroke-miterlimit="3.8636" x1="50" y1="22.3" x2="0" y2="22.3"/>
	<rect x="0" y="0" fill-rule="evenodd" clip-rule="evenodd" fill="#1A171B" width="12.4" height="22.3"/>
	<rect x="0" y="0" fill="none" stroke="#1A171B" stroke-width="0.1123" stroke-miterlimit="3.8637" width="12.4" height="22.3"/>
	<path fill-rule="evenodd" clip-rule="evenodd" fill="#1A171B" d="M35.1,46.7c0,0,0.8,0.4,1.4,0.3c0.8,0-1.2,2.1-2.5,1.9
		C34.1,49,34.5,47.7,35.1,46.7z"/>
	<path fill-rule="evenodd" clip-rule="evenodd" fill="#1A171B" d="M34.6,46.2l0.2,0.4c0,0-0.6,0.9-0.9,2c-0.2,0.1-0.6,0.1-0.6,0.1
		C33.3,48.4,34.3,46.7,34.6,46.2z"/>
	<path fill-rule="evenodd" clip-rule="evenodd" fill="#1A171B" d="M17.4,46.2c0.1-0.1,0.4,0.3,1.4,0.4c0.9,0.1-1.3,2.3-2.8,2.1
		C16,48.7,16.3,47.5,17.4,46.2z"/>
	<path fill-rule="evenodd" clip-rule="evenodd" fill="#1A171B" d="M17,45.6c0-0.1,0.2,0.2,0.3,0.3c0,0-0.8,0.7-1.4,2.2
		c-0.2,0.1-0.6,0-0.6,0C15.7,46.9,16.3,46.2,17,45.6z"/>
	<path fill-rule="evenodd" clip-rule="evenodd" fill="#1A171B" d="M7.9,35.3c0.2-0.2,1.4-0.9,2-0.9c0.6,0.6,1.3,0.3,1.4,0.7
		C11.5,35.8,8.9,35.9,7.9,35.3z"/>
	<path fill="#1A171B" d="M7.5,34.3c0.6-0.3,1.7-0.7,2.3-0.8c-0.1,0.1-0.3,0.4-0.1,0.6c-0.5,0-1.1,0.3-1.6,0.7
		C8.1,34.8,7.6,34.7,7.5,34.3z"/>
	<path fill-rule="evenodd" clip-rule="evenodd" fill="#1A171B" d="M10.6,27.9c0.3-0.2,1-0.1,1.6,0c1.5,0.5,2,0.7,3.5,1.3
		c0.2,0.1,0.8,0.1,1,0.2c0.3,0.1,0.5,0.2,0.8,0.3c0.7,0.2,1,0.9,1.9,1.4c0.5,0.3,0.8,0.4,0.8,0.4c-1,0.7-1.2,1.8-1.3,1.6
		c-1.8-2.3-5-3.5-6-2.4c-0.2,0-0.3-0.1-0.3-0.2c0-0.2,0.1-0.6-0.2-0.7c-0.2-0.1-0.8-0.3-1.2-0.1C11.2,29.8,10.3,28.1,10.6,27.9z"/>
	<path fill-rule="evenodd" clip-rule="evenodd" fill="#1A171B" d="M8.1,28.6c0.4-0.3,1.5-0.2,2.2,0c0.1,0.5,0.4,1,0.7,1.3
		C10.3,30.2,7.7,28.8,8.1,28.6z"/>
	<path fill-rule="evenodd" clip-rule="evenodd" fill="#1A171B" d="M8.4,27.8c0.7-0.3,2.1-0.2,2,0c0,0.1-0.3,0.2,0,0.6
		c-0.7-0.3-1.6-0.2-1.8-0.2C8.5,28.2,8.3,27.8,8.4,27.8z"/>
	<path fill-rule="evenodd" clip-rule="evenodd" fill="#1A171B" d="M26,37.6c1.4-0.2,3.5,0.2,3.5,1.2c0,0.7,0.3,1.1,0.7,1.8
		c0.1,0.2-0.3,0.7-0.7,0.7c-0.6,0-1.1-0.7-1-1.2c0.1-0.8,0.6-0.7,0.5-1.1c-0.1-0.4-3.3,0.7-3.6,2.6c-0.1,0.8,0.9,0.7,1,1
		c0,0.1,0.1,0.3,0,0.3c0,0.1-0.6,0.5-1.5,0.9c-0.4-0.1-4.5,2-4.6,2.5c0,0.1-0.3,0.2-0.4,0c-0.2-0.3,0-0.6-0.4-0.6
		c-0.2,0-0.4,0.6-0.8,0.6c-0.7,0-1.7-0.6-1.4-1.1c0.5-0.9,6.3-1.8,5.5-2.9c-0.2-0.2-0.3,1.1-2,0.3c0,0,1.2-0.3,1.3-0.8
		c0.1-0.4-1.3,1.1-2.7,0c0.6,0.2,2,0,2.2-0.5c0,0-1.8,0.9-2.8-0.5c0,0,2.1,0.4,2.5-0.4C22,39,23.9,37.9,26,37.6z"/>
	<path fill-rule="evenodd" clip-rule="evenodd" fill="#1A171B" d="M26.1,36.7c-0.9-0.1-3.5,0.1-4.6,1.1c-0.4,0.4-3.3-4-8.4-2.3
		c-0.2,0.1-0.4,0-0.4-0.1c0-0.3,0.1-0.8-0.6-0.8c-0.4,0-0.6,0.3-0.9,0.1c-0.5-0.2-1.2-0.4-1.1-0.9c0.2-0.6,1.7-0.8,2.6-0.6
		c1.5,0.3,3,0.4,3.3,0.2c1.4,0.1,1.7,0.1,2.4,0.5c1,0.5,3.1,1.2,2.3,0.5c-0.5-0.4-0.6-0.3-1.3-0.4c-0.7-0.1,1-2.6,2.6-3.3
		c1.5-0.7,4-1,3.4-2.2c-0.1-0.2,1.4,0.5,2.5-0.2c0.2-0.1,0.1-0.2,0.1-0.3c-0.1,0-0.7,0.4-1.3,0.3c-0.9,0-1.8-0.5-1.8-0.2
		c-0.2,1.2-2.5,1.8-2.9,1.2c-0.3-0.2,1.7-0.3,1.6-1.2c0.1-0.2-0.8-0.3-0.6-0.4c0.6-0.5,2.2-0.1,1.9-0.9c-0.4-0.9-1.9-0.3-2.1-0.5
		c-0.1-0.1,0.1-0.5,0.3-0.5c0.4-0.2,1,0.2,0.9-0.3c0-0.5-0.8,0.1-0.9,0c-0.2-0.2,0.3-0.6,0.4-0.7c0.5-0.3,0.8-0.2,1.5-0.3
		c0.6,0,1.4-0.3,2.1-0.4c0.3,0,0.4-0.4,0.2-1.1c0.7,0,0.7,1,0.7,1c0.1,0.4,0.3-0.5,0.3-1c0.2,0,0.6,0.3,0.7,0.9
		c0.1,0.1,0.5,0.1,0.8,0c0.2-0.1,0.1-0.4,0.5-0.3c0.1,0,0.4,0,0.5,0.1c0.4,0.4,0.1,1.3,0.3,1.2c0.3-0.1,0-0.8,0.2-1
		c0.2-0.2,0.3,0.1,0.6,0.2c0.5,0.1,0.6,0.1,1.3,0.1c0.2,0,0.3-0.1,0.5,0c0.3,0.4-0.4,1,0,1.1c0.3,0.1,0.3-0.4,0.4-0.8
		c0.1-0.1,0.3-0.3,0.8,0.1c0.4,0.2,0.7,0.4,1.7,0.4c0.2,0,0.3,0.2,0.3,0.3c0.2,0.4-0.6,0.9-0.2,1c0.3,0.1,0.3-0.3,0.5-0.7
		c0.1-0.2,0.4-0.3,0.8,0.2c1.2,1,1,0.6,1.6,0.9c0.2,0.1,0.3,0.4,0.1,0.6c-0.3,0.3-0.7,0.4-0.5,0.7c0.2,0.3,0.4-0.3,0.8-0.5
		c0.2-0.1,0.5,0,0.4,0.7c0.1,0.9,0.7,2.3-0.3,3.9c0,0,0.2-1.3-0.4-2.3c-2.3-4.1-10.3-4.7-10.4-4.2c-0.1,0.4,0.4,0.5,1,0.7
		c0.2,0,0.3-0.1,0.5-0.1c0.2,0,0.4,0.1,0.4,0.2c0.2,0.4-0.4,1.1-0.1,1.2c0.2,0.1,0.4-0.6,0.6-0.9c0.1-0.1,0.3,0,0.4,0
		c0.9,0.4,1.1,0.3,1.4,0.4c0.1,0,0.4,0.1,0.4,0.4c-0.1,0.4-0.5,0.7-0.2,0.8c0.4,0.2,0.4-0.5,0.7-0.7c0.1-0.1,0.4,0,0.5,0.2
		c0.4,0.4,1.1,0.6,1.4,0.7c0.1,0,0.2,0.2,0.2,0.4c-0.1,0.2-0.7,0.6-0.5,0.8c0.3,0.3,0.7-0.6,1-0.6c0.3,0,0.4,0.3,0.4,0.4
		c0.6,0.8,0.9,0.6,1.2,1.1c0.2,0.2,0,0.4-0.1,0.5c-0.2,0.3-0.6,0.2-0.5,0.5c0.1,0.2,0.2,0,0.6-0.1c0.3-0.1,0.6,0,0.5,0.2
		c0,0.1-0.3,0.4-0.2,0.7c0.1,1.8-0.4,2.6-1.6,3.2c0.2-0.4,1.2-2.6-0.8-4.6c-1.1-1.2-2.1-1.6-3.6-2.2c-1.6-0.7-3.1-1-3.6-1.1
		c0.5,0.6,2.8,1.1,2.5,1.4c-1.6,1.6-2.7-0.5-2.8-0.4c0,0.1-0.4,0.6-0.5,0.8c0,0.1,0.4,0.5,1.1,0.6c-0.4,0.9-1.7,0.2-1.7,0.2
		l-0.3,0.5c0,0,0.3,0.5,1.4,0.4c-0.6,1-1.8,0.3-1.8,0.3l-0.2,0.6c0,0,0.5,0.3,1.2,0.2c-0.3,0.6-1.1,0.5-1.4,0.4l0,0.3
		c0.1,0.2,0.5,0.6,0.9,0.7c0.9,0.2,2.5,0.8,3.6,2.1c0.3,0.5,0.8,0,1.5-0.1c1-0.1,1.7,0.1,2.7,0c0.9-0.1,0.9-1.2,0.9-0.6
		c-0.1,1.7-1.7,1.3-1.8,1.4c0.6,0.4,1,0.4,1.5,0.4c-0.6,0.4-1,0.5-1.5,0.4c-1-0.1-2-1.1-2.5-0.8c-0.1,0.1,0.6,0.6,0.9,1.1
		c0.6,0.9,0.7,2.3,1.4,2.4c0.4,0,0.9-0.8,1.2-0.4c0.3,0.5,0.7,0.9,0.9,1.3c0.1,0.3-0.1,0.7,0,0.9c0.4,0.6,1.1,1.4,1.7,2
		c0.5,0.4,0.5,1.4,0.2,1.5c-0.4,0.2-0.7-0.2-1.2,0.2c-0.4,0.3-0.2,0.9-0.6,0.8c-0.5-0.1-1.6-0.3-1.6-0.7c-0.2-0.5,1.5-0.5,1.3-1.4
		c-0.2-0.9-1-2.2-1.4-2c-0.1,0.1,0,1.1-0.8,1.5c0,0,0.2-1.6-0.2-1.7c-0.4-0.1,0.2,1.2-1,2c0,0,0.4-2-0.1-2c-0.4,0,0.1,1.6-1.2,2
		c0.3-0.6,0.5-2.3,0.1-2.8c-0.6-0.7-1-1.2-1.5-2c-0.4-0.7-0.2-1.3-0.4-1.7C29.3,37.6,27.8,36.9,26.1,36.7z M25.4,25.7
		c0,0,0.3-0.5,1-0.5c0,0-0.2,0.5,0.2,0.6c0.5,0.2,0.6-0.1,0.6-0.5c0,0,0.5,0.1,0.7,0.4c0,0-0.4,0.5-1,0.4
		C25.8,26.1,25.6,25.4,25.4,25.7z"/>
	<path fill-rule="evenodd" clip-rule="evenodd" fill="#ED081B" d="M24.5,27.4c0,0,0,0-0.1,0c-1.2-0.4-2.1,0.1-3.3,0
		c-0.8-0.1-0.8-0.5-0.8-0.8c0-0.3,0.2-0.7,0.3-0.8C21,27.5,24.1,26.4,24.5,27.4z"/>
	<path fill-rule="evenodd" clip-rule="evenodd" fill="#ED081B" d="M26.7,37.5c1.3-0.8,2.7,0.3,2.7,0.3c0.2,0.2,0.3,1,0.3,1
		C29.7,38.4,28.4,37.3,26.7,37.5z"/>
</g>
</svg>
