<?xml version="1.0" encoding="utf-8"?>
<!-- Generator: Adobe Illustrator 18.1.1, SVG Export Plug-In . SVG Version: 6.00 Build 0)  -->
<svg version="1.1" id="Ebene_1" xmlns="http://www.w3.org/2000/svg" xmlns:xlink="http://www.w3.org/1999/xlink" x="0px" y="0px"
	 viewBox="0 0 50 50" enable-background="new 0 0 50 50" xml:space="preserve">
<g>
	<rect x="0" fill-rule="evenodd" clip-rule="evenodd" fill="#FFFFFF" width="50" height="50"/>
	<rect x="25.1" y="0" fill-rule="evenodd" clip-rule="evenodd" fill="#ED081B" width="24.9" height="7"/>
	<rect x="25.1" y="14.2" fill-rule="evenodd" clip-rule="evenodd" fill="#ED081B" width="24.9" height="7.2"/>
	<rect x="25.1" y="28.6" fill-rule="evenodd" clip-rule="evenodd" fill="#ED081B" width="24.9" height="7.2"/>
	<rect x="25.1" y="42.9" fill-rule="evenodd" clip-rule="evenodd" fill="#ED081B" width="24.9" height="7.1"/>
	<path fill-rule="evenodd" clip-rule="evenodd" fill="#ED081B" d="M8.1,5.1c-1.8-0.1-3.6,1-3.6,3c0,0.6,0.1,2,1.3,2.1
		C5.1,9.3,5.2,7.1,7.6,7.1c1.2,0,2.2,1,2,2.6c-0.2,1.7-1.9,2.8-3.6,2.7c-3.4-0.1-4.3-2.8-4.3-4.8c0.1-3.7,2.9-6,6.8-6
		c7.8,0,7.7,7.5,8.2,13.4h-5.3c0.3-2.7,0.4-5.3,0.4-5.3S11.9,5.4,8.1,5.1z"/>
	<path fill="none" stroke="#1A171B" stroke-width="0.1741" stroke-miterlimit="3.8636" d="M8.1,5.1c-1.8-0.1-3.6,1-3.6,3
		c0,0.6,0.1,2,1.3,2.1C5.1,9.3,5.2,7.1,7.6,7.1c1.2,0,2.2,1,2,2.6c-0.2,1.7-1.9,2.8-3.6,2.7c-3.4-0.1-4.3-2.8-4.3-4.8
		c0.1-3.7,2.9-6,6.8-6c7.8,0,7.7,7.5,8.2,13.4h-5.3c0.3-2.7,0.4-5.3,0.4-5.3S11.9,5.4,8.1,5.1z"/>
	<rect x="8.5" y="15.7" fill="#ED081B" width="10.9" height="1.1"/>
	
		<rect x="8.5" y="15.7" fill="none" stroke="#1A171B" stroke-width="0.1741" stroke-miterlimit="3.8636" width="10.9" height="1.1"/>
	<rect x="6.8" y="17.3" fill="#ED081B" width="14.3" height="1.1"/>
	
		<rect x="6.8" y="17.3" fill="none" stroke="#1A171B" stroke-width="0.1741" stroke-miterlimit="3.8636" width="14.3" height="1.1"/>
	<rect x="8.5" y="19" fill="#ED081B" width="10.9" height="1.1"/>
	<rect x="8.5" y="19" fill="none" stroke="#1A171B" stroke-width="0.1741" stroke-miterlimit="3.8636" width="10.9" height="1.1"/>
	<path fill-rule="evenodd" clip-rule="evenodd" fill="#ED081B" d="M17.3,20.6h-6.8c0,0-1.1,20.3-4.7,23.4c4,0,6-4.8,6-4.8l2.1,9.9
		l2.1-9.9c0,0,2.1,4.7,6,4.7C18.5,41,17.3,20.6,17.3,20.6z"/>
	<path fill="none" stroke="#1A171B" stroke-width="0.1741" stroke-miterlimit="3.8636" d="M17.3,20.6h-6.8c0,0-1.1,20.3-4.7,23.4
		c4,0,6-4.8,6-4.8l2.1,9.9l2.1-9.9c0,0,2.1,4.7,6,4.7C18.5,41,17.3,20.6,17.3,20.6z"/>
	<line fill="none" stroke="#1A171B" stroke-width="0.1741" stroke-miterlimit="3.8636" x1="25.1" y1="49.1" x2="25.1" y2="0"/>
	<line fill="none" stroke="#1A171B" stroke-width="0.1741" stroke-miterlimit="3.8636" x1="50" y1="21.4" x2="25.1" y2="21.4"/>
	<line fill="none" stroke="#1A171B" stroke-width="0.1741" stroke-miterlimit="3.8636" x1="50" y1="14.2" x2="25.1" y2="14.2"/>
	<line fill="none" stroke="#1A171B" stroke-width="0.1741" stroke-miterlimit="3.8636" x1="50" y1="7" x2="25.1" y2="7"/>
	<line fill="none" stroke="#1A171B" stroke-width="0.1741" stroke-miterlimit="3.8636" x1="50" y1="28.6" x2="25.1" y2="28.6"/>
	<line fill="none" stroke="#1A171B" stroke-width="0.1741" stroke-miterlimit="3.8636" x1="50" y1="35.8" x2="25.1" y2="35.8"/>
	<line fill="none" stroke="#1A171B" stroke-width="0.1741" stroke-miterlimit="3.8636" x1="50" y1="42.9" x2="25.1" y2="42.9"/>
</g>
</svg>
