<?xml version="1.0" encoding="utf-8"?>
<!-- Generator: Adobe Illustrator 18.1.1, SVG Export Plug-In . SVG Version: 6.00 Build 0)  -->
<svg version="1.1" id="Ebene_1" xmlns="http://www.w3.org/2000/svg" xmlns:xlink="http://www.w3.org/1999/xlink" x="0px" y="0px"
	 viewBox="0 0 50 50" enable-background="new 0 0 50 50" xml:space="preserve">
<g>
	<rect x="33.3" fill="#ED081B" width="16.7" height="50"/>
	<rect x="33.3" fill="none" stroke="#ED081B" stroke-width="0" stroke-miterlimit="3.8637" width="16.7" height="50"/>
	<polygon fill-rule="evenodd" clip-rule="evenodd" fill="#FFFFFF" points="43,9.7 43,15.4 40.4,15.4 40.4,9.7 34.6,9.7 34.6,7 
		40.4,7 40.4,1.3 43,1.3 43,7 48.7,7 48.7,9.7 43,9.7 	"/>
	<polygon fill="none" stroke="#FFFFFF" stroke-width="0" stroke-miterlimit="3.8636" points="43,9.7 43,15.4 40.4,15.4 40.4,9.7 
		34.6,9.7 34.6,7 40.4,7 40.4,1.3 43,1.3 43,7 48.7,7 48.7,9.7 43,9.7 	"/>
	<rect x="0" fill="#00814A" width="16.7" height="50"/>
	<rect x="0" fill="none" stroke="#00814A" stroke-width="0" stroke-miterlimit="3.8637" width="16.7" height="50"/>
	<rect x="16.7" fill="#FFFFFF" width="16.7" height="50"/>
	<rect x="16.7" fill="none" stroke="#FFFFFF" stroke-width="0" stroke-miterlimit="3.8636" width="16.7" height="50"/>
	<rect x="0" fill="none" width="50" height="50"/>
</g>
</svg>
