<?xml version="1.0" encoding="utf-8"?>
<!-- Generator: Adobe Illustrator 18.1.1, SVG Export Plug-In . SVG Version: 6.00 Build 0)  -->
<svg version="1.1" id="Ebene_1" xmlns="http://www.w3.org/2000/svg" xmlns:xlink="http://www.w3.org/1999/xlink" x="0px" y="0px"
	 viewBox="0 0 81 49" enable-background="new 0 0 81 49" xml:space="preserve">
<g>
	<g>
		<path fill="#FFFFFF" d="M13,48.8v-8.6C13,38,11.7,37,9.6,37c-1.2,0-3.1,1-4.3,1.8v10h-3v-8.8c0-1.4-0.4-1.8-2.2-2.5v-0.7
			c1.6-0.5,3.1-1,4.9-1.8c0.1,0,0.2,0.1,0.2,0.4v2.4c2.1-1.5,4-2.8,6.5-2.8c3.2,0,4.3,2.3,4.3,5.2v8.6H13z"/>
		<path fill="#FFFFFF" d="M21.8,48.8c-0.8-1.6-1-3.3-1-4.3c0-7.3,4.9-9.5,7.5-9.5c3,0,6.3,1.9,6.3,5.9c0,0.2,0,0.4,0,0.7l-0.3,0.2
			H23.8c-0.1,0.3-0.1,0.9,0,2.2c0.1,1.9,0.8,3.7,2,4.8L21.8,48.8z M30,40.5c0.9,0,1-0.5,1-0.9c0-1.9-1.2-3.4-3.2-3.4
			c-2.3,0-3.8,1.7-4.3,4.4H30z"/>
		<path fill="#FFFFFF" d="M50,48.8c0.7-1.3,1-2.9,1-4.4c0-4-3.1-7.4-6-7.4c-1.4,0-2.5,0.9-3.5,1.8v9.1c0,0.3,0.1,0.6,0.2,0.9l-3.3,0
			c0.1-1.2,0.2-2.4,0.2-3.7v-16c0-2.4-0.6-2.5-2-2.9v-0.6c1.5-0.5,3.1-1.2,3.8-1.6c0.4-0.2,0.7-0.4,0.8-0.4c0.2,0,0.3,0.2,0.3,0.5
			v13.6c1.5-1.3,3.5-2.7,5.6-2.7c4.3,0,6.9,3.8,6.9,7.8c0,2.1-0.7,4.2-1.9,6L50,48.8z"/>
		<path fill="#FFFFFF" d="M65.6,48.7c0-4.4-8.1-3-8.1-9c0-2.1,1.7-4.8,5.8-4.8c1.2,0,2.8,0.3,4.3,1.1l0.3,3.8h-0.9
			c-0.4-2.4-1.7-3.7-4.1-3.7c-1.5,0-2.9,0.9-2.9,2.5c0,4.4,8.7,3,8.7,8.9c0,0.4-0.1,0.8-0.2,1.2L65.6,48.7z M57.9,46.8"/>
	</g>
	<path fill="#FFFFFF" d="M50,2.3c-1.3,8.6-2.6,16.8-3.8,24.7c10.3,11.3,20.6-3.2,30.9,2.4c1.3-8.6,2.6-16.8,3.8-24.7
		C70.6-6.7,60.3,7.9,50,2.3z M73.2,7.5c0.1,0.5,0.2,0.9,0.3,1.4c0.5,0.1,1,0.2,1.4,0.3c-0.4,0.2-0.9,0.4-1.3,0.6
		c0.1,0.5,0.1,1,0.2,1.4c-0.3-0.3-0.7-0.7-1-1c-0.4,0.2-0.9,0.5-1.3,0.8c0.2-0.5,0.4-0.9,0.6-1.4c-0.3-0.3-0.7-0.6-1-0.9
		c0.5,0,1,0,1.4,0C72.7,8.3,73,7.9,73.2,7.5z M69.5,5.4c0.2-0.5,0.5-1,0.7-1.5c0.1,0.5,0.2,0.9,0.3,1.4c0.5,0,1,0,1.4,0
		c-0.4,0.3-0.9,0.6-1.3,0.9c0.1,0.5,0.1,0.9,0.2,1.4c-0.3-0.3-0.7-0.5-1-0.7c-0.4,0.3-0.9,0.7-1.3,1.1c0.2-0.5,0.4-1,0.6-1.5
		c-0.3-0.2-0.7-0.5-1-0.7C68.5,5.6,69,5.5,69.5,5.4z M55.8,12.2c0.2-0.5,0.5-0.9,0.7-1.4c0.1,0.5,0.2,0.9,0.3,1.4
		c0.5,0,1-0.1,1.4-0.2c-0.4,0.4-0.9,0.7-1.3,1.1c0.1,0.5,0.1,0.9,0.2,1.4c-0.3-0.2-0.7-0.5-1-0.7c-0.4,0.3-0.9,0.6-1.3,0.8
		c0.2-0.5,0.4-0.9,0.6-1.4c-0.3-0.3-0.7-0.6-1-0.9C54.8,12.2,55.3,12.2,55.8,12.2z M52.4,16.6c0.5,0.1,1,0.2,1.4,0.2
		c0.2-0.4,0.5-0.9,0.7-1.3c0.1,0.5,0.2,0.9,0.3,1.4c0.5,0,1,0,1.4,0c-0.4,0.3-0.9,0.6-1.3,0.9c0.1,0.5,0.1,0.9,0.2,1.4
		c-0.4-0.3-0.7-0.6-1-0.9c-0.4,0.2-0.9,0.5-1.3,0.6c0.2-0.4,0.4-0.9,0.6-1.3C53.1,17.4,52.8,17,52.4,16.6z M54.6,23.1
		c-0.4,0.3-0.9,0.5-1.3,0.7c0.2-0.4,0.4-0.9,0.6-1.3c-0.3-0.3-0.7-0.7-1-1.1c0.5,0.1,1,0.2,1.4,0.2c0.2-0.4,0.5-0.9,0.7-1.4
		c0.1,0.5,0.2,0.9,0.3,1.4c0.5,0,1,0,1.4,0c-0.4,0.3-0.9,0.7-1.3,1c0.1,0.5,0.1,0.9,0.2,1.4C55.3,23.7,54.9,23.4,54.6,23.1z
		 M58.5,27.4c-0.3-0.2-0.7-0.4-1-0.7c-0.4,0.3-0.9,0.7-1.3,1c0.2-0.5,0.4-1,0.6-1.5c-0.3-0.3-0.7-0.5-1-0.8c0.5,0,1-0.1,1.4-0.1
		c0.2-0.5,0.5-1,0.7-1.5c0.1,0.4,0.2,0.9,0.3,1.3c0.5-0.1,1-0.2,1.4-0.3c-0.4,0.4-0.9,0.8-1.3,1.2C58.3,26.5,58.4,26.9,58.5,27.4z
		 M58.7,10.6c0.2-0.5,0.4-1,0.6-1.5c-0.3-0.2-0.7-0.4-1-0.7c0.5-0.1,1-0.2,1.4-0.3c0.2-0.5,0.5-1,0.7-1.6c0.1,0.4,0.2,0.9,0.3,1.3
		c0.5-0.1,1-0.3,1.4-0.4c-0.4,0.4-0.9,0.8-1.3,1.3c0.1,0.5,0.1,0.9,0.2,1.4c-0.3-0.2-0.7-0.4-1-0.6C59.5,9.9,59.1,10.3,58.7,10.6z
		 M63.1,27.4c-0.3-0.2-0.7-0.3-1-0.5c-0.4,0.4-0.9,0.8-1.3,1.2c0.2-0.5,0.4-1.1,0.6-1.6c-0.3-0.2-0.7-0.4-1-0.6
		c0.5-0.1,1-0.3,1.4-0.4c0.2-0.5,0.5-1.1,0.7-1.6c0.1,0.4,0.2,0.9,0.3,1.3c0.5-0.1,1-0.3,1.4-0.4c-0.4,0.4-0.9,0.9-1.3,1.3
		C63,26.5,63,27,63.1,27.4z M63.7,7.9c0.2-0.5,0.4-1.1,0.6-1.6c-0.3-0.2-0.7-0.4-1-0.6c0.5-0.2,1-0.3,1.4-0.5
		c0.2-0.5,0.5-1.1,0.7-1.6c0.1,0.4,0.2,0.9,0.3,1.3c0.5-0.1,1-0.2,1.4-0.4c-0.4,0.4-0.9,0.8-1.3,1.2C66,6.3,66,6.8,66.1,7.2
		c-0.3-0.2-0.7-0.4-1-0.5C64.6,7.1,64.2,7.5,63.7,7.9z M68.2,24.7c-0.3-0.2-0.7-0.4-1-0.6c-0.4,0.4-0.9,0.8-1.3,1.2
		c0.2-0.5,0.4-1.1,0.6-1.6c-0.3-0.2-0.7-0.4-1-0.6c0.5-0.2,1-0.3,1.4-0.4c0.2-0.5,0.5-1,0.7-1.6c0.1,0.4,0.2,0.9,0.3,1.3
		c0.5-0.1,1-0.2,1.4-0.2c-0.4,0.4-0.9,0.7-1.3,1.1C68.1,23.8,68.1,24.3,68.2,24.7z M72.3,20.7c-0.3-0.3-0.7-0.6-1-0.9
		c-0.4,0.3-0.9,0.6-1.3,0.9c0.2-0.5,0.4-1,0.6-1.5c-0.3-0.3-0.7-0.5-1-0.8c0.5-0.1,1-0.1,1.4-0.2c0.2-0.5,0.5-0.9,0.7-1.4
		c0.1,0.5,0.2,0.9,0.3,1.4c0.5,0,1,0.1,1.4,0.2c-0.4,0.2-0.9,0.5-1.3,0.8C72.2,19.7,72.3,20.2,72.3,20.7z M74.1,16.1
		c-0.3-0.4-0.7-0.7-1-1c-0.4,0.2-0.9,0.5-1.3,0.8c0.2-0.5,0.4-0.9,0.6-1.4c-0.3-0.3-0.7-0.6-1-0.9c0.5,0,1,0,1.4,0
		c0.2-0.4,0.5-0.9,0.7-1.3c0.1,0.5,0.2,1,0.3,1.4c0.5,0.1,1,0.2,1.4,0.4c-0.4,0.2-0.9,0.3-1.3,0.6C74,15.2,74,15.7,74.1,16.1z"/>
</g>
</svg>
