<?xml version="1.0" encoding="utf-8"?>
<!-- Generator: Adobe Illustrator 18.1.1, SVG Export Plug-In . SVG Version: 6.00 Build 0)  -->
<svg version="1.1" id="Ebene_1" xmlns="http://www.w3.org/2000/svg" xmlns:xlink="http://www.w3.org/1999/xlink" x="0px" y="0px"
	 viewBox="0 0 50 50" enable-background="new 0 0 50 50" xml:space="preserve">
<g>
	<rect x="0" fill="#ED081B" width="50" height="50"/>
	<rect x="0" fill="none" width="50" height="50"/>
	<polygon fill-rule="evenodd" clip-rule="evenodd" fill="#FFFFFF" points="20.6,18.5 18.5,18.5 18.5,20.5 14.5,20.5 14.5,18.5 
		12.7,18.5 12.7,20.5 8.4,20.5 8.4,18 10.7,18 10.7,16.2 8.4,16.2 8.4,13.9 12.7,13.9 12.7,15.9 14.5,15.9 14.5,13.9 16.6,13.9 
		16.6,11.9 14.5,11.9 14.5,9.9 12.7,9.9 12.7,11.9 8.4,11.9 8.4,9.5 10.7,9.5 10.7,7.6 8.4,7.6 8.4,5.2 12.7,5.2 12.7,7.3 14.5,7.3 
		14.5,5.2 18.5,5.2 18.5,7.3 20.6,7.3 	"/>
	<polygon fill="none" stroke="#1A171B" stroke-width="0.2015" stroke-miterlimit="3.8636" points="20.6,18.5 18.5,18.5 18.5,20.5 
		14.5,20.5 14.5,18.5 12.7,18.5 12.7,20.5 8.4,20.5 8.4,18 10.7,18 10.7,16.2 8.4,16.2 8.4,13.9 12.7,13.9 12.7,15.9 14.5,15.9 
		14.5,13.9 16.6,13.9 16.6,11.9 14.5,11.9 14.5,9.9 12.7,9.9 12.7,11.9 8.4,11.9 8.4,9.5 10.7,9.5 10.7,7.6 8.4,7.6 8.4,5.2 
		12.7,5.2 12.7,7.3 14.5,7.3 14.5,5.2 18.5,5.2 18.5,7.3 20.6,7.3 	"/>
	<polygon fill-rule="evenodd" clip-rule="evenodd" fill="#FFFFFF" points="21.4,23.2 24.3,23.2 24.3,2.8 21.4,2.8 21.4,23.2 	"/>
	<polygon fill="none" stroke="#1A171B" stroke-width="0.2015" stroke-miterlimit="3.8636" points="21.4,23.2 24.3,23.2 24.3,2.8 
		21.4,2.8 21.4,23.2 	"/>
	<polygon fill-rule="evenodd" clip-rule="evenodd" fill="#FFFFFF" points="29.4,18.5 31.5,18.5 31.5,20.5 35.5,20.5 35.5,18.5 
		37.3,18.5 37.3,20.5 41.5,20.5 41.5,18 39.3,18 39.3,16.2 41.5,16.2 41.5,13.9 37.3,13.9 37.3,15.9 35.5,15.9 35.5,13.9 33.4,13.9 
		33.4,11.9 35.5,11.9 35.5,11.9 35.5,9.9 37.3,9.9 37.3,11.9 41.5,11.9 41.5,9.5 39.3,9.5 39.3,7.6 41.5,7.6 41.5,5.2 37.3,5.2 
		37.3,7.3 35.5,7.3 35.5,5.2 31.5,5.2 31.5,7.3 29.4,7.3 	"/>
	<polygon fill="none" stroke="#1A171B" stroke-width="0.2015" stroke-miterlimit="3.8636" points="29.4,18.5 31.5,18.5 31.5,20.5 
		35.5,20.5 35.5,18.5 37.3,18.5 37.3,20.5 41.5,20.5 41.5,18 39.3,18 39.3,16.2 41.5,16.2 41.5,13.9 37.3,13.9 37.3,15.9 35.5,15.9 
		35.5,13.9 33.4,13.9 33.4,11.9 35.5,11.9 35.5,11.9 35.5,9.9 37.3,9.9 37.3,11.9 41.5,11.9 41.5,9.5 39.3,9.5 39.3,7.6 41.5,7.6 
		41.5,5.2 37.3,5.2 37.3,7.3 35.5,7.3 35.5,5.2 31.5,5.2 31.5,7.3 29.4,7.3 	"/>
	<polygon fill-rule="evenodd" clip-rule="evenodd" fill="#FFFFFF" points="28.6,23.2 25.7,23.2 25.7,2.8 28.6,2.8 28.6,23.2 	"/>
	<polygon fill="none" stroke="#1A171B" stroke-width="0.2015" stroke-miterlimit="3.8636" points="28.6,23.2 25.7,23.2 25.7,2.8 
		28.6,2.8 28.6,23.2 	"/>
	<path fill-rule="evenodd" clip-rule="evenodd" fill="#FFFFFF" d="M24.3,29.9v-3l-2.8,0l0,3c0,0.1,0,0.3-0.3,0.4
		c-1.2,0.3-1.5-4.3-6.4-4.5c-3.3-0.2-6.1,3.2-6.3,6.8c-0.2,3.9,2.6,7.5,6.4,7.6c3.4,0.1,4.4-3.1,5.3-2.2c0.9,0.9-1.1,1.4-1.2,3.6
		c-0.2,3.4,2.9,6,6,6c3,0,6.1-2.6,6-6c-0.1-2.2-2.1-2.7-1.2-3.6c0.9-0.9,1.9,2.3,5.3,2.2c3.8-0.1,6.6-3.7,6.4-7.6
		c-0.2-3.6-2.9-7-6.3-6.8c-4.8,0.3-5.1,4.8-6.4,4.5c-0.2,0-0.2-0.2-0.3-0.4l0-3l-2.8,0v3c0.1,1.8,1.3,2.3,2.5,2.5
		c3.4,0.5,2.9-4.1,6.8-4.1c2.3,0,3.6,2.3,3.6,4.6c0,2.4-1.5,4.7-3.9,4.7c-2.3,0-4.1-3-6.3-1.3c-2,1.6,0,3.3-0.1,5.1
		c0,2.4-2.3,3.2-3.5,3.2c-1.2,0-3.4-0.9-3.5-3.2c0-1.8,1.9-3.5-0.1-5.1c-2.2-1.8-3.9,1.3-6.3,1.3c-2.4,0-3.9-2.3-3.9-4.7
		c0-2.3,1.3-4.6,3.6-4.6c3.9,0,3.5,4.6,6.8,4.1C23,32.2,24.1,31.7,24.3,29.9z"/>
	<path fill="none" stroke="#1A171B" stroke-width="0.2015" stroke-miterlimit="3.8636" d="M24.3,29.9v-3l-2.8,0l0,3
		c0,0.1,0,0.3-0.3,0.4c-1.2,0.3-1.5-4.3-6.4-4.5c-3.3-0.2-6.1,3.2-6.3,6.8c-0.2,3.9,2.6,7.5,6.4,7.6c3.4,0.1,4.4-3.1,5.3-2.2
		c0.9,0.9-1.1,1.4-1.2,3.6c-0.2,3.4,2.9,6,6,6c3,0,6.1-2.6,6-6c-0.1-2.2-2.1-2.7-1.2-3.6c0.9-0.9,1.9,2.3,5.3,2.2
		c3.8-0.1,6.6-3.7,6.4-7.6c-0.2-3.6-2.9-7-6.3-6.8c-4.8,0.3-5.1,4.8-6.4,4.5c-0.2,0-0.2-0.2-0.3-0.4l0-3l-2.8,0v3
		c0.1,1.8,1.3,2.3,2.5,2.5c3.4,0.5,2.9-4.1,6.8-4.1c2.3,0,3.6,2.3,3.6,4.6c0,2.4-1.5,4.7-3.9,4.7c-2.3,0-4.1-3-6.3-1.3
		c-2,1.6,0,3.3-0.1,5.1c0,2.4-2.3,3.2-3.5,3.2c-1.2,0-3.4-0.9-3.5-3.2c0-1.8,1.9-3.5-0.1-5.1c-2.2-1.8-3.9,1.3-6.3,1.3
		c-2.4,0-3.9-2.3-3.9-4.7c0-2.3,1.3-4.6,3.6-4.6c3.9,0,3.5,4.6,6.8,4.1C23,32.2,24.1,31.7,24.3,29.9z"/>
	<path fill-rule="evenodd" clip-rule="evenodd" fill="#FFFFFF" d="M25,26.1l-3.9,0c-0.6,0-1.1-0.5-1.1-1.1c0-0.6,0.5-1.1,1.1-1.1
		l0,0H25h3.9l0,0c0.6,0,1.1,0.5,1.1,1.1c0,0.6-0.5,1.1-1.1,1.1L25,26.1z"/>
	<path fill="none" stroke="#1A171B" stroke-width="0.2015" stroke-miterlimit="3.8636" d="M25,26.1l-3.9,0c-0.6,0-1.1-0.5-1.1-1.1
		c0-0.6,0.5-1.1,1.1-1.1l0,0H25h3.9l0,0c0.6,0,1.1,0.5,1.1,1.1c0,0.6-0.5,1.1-1.1,1.1L25,26.1z"/>
</g>
</svg>
