<?xml version="1.0" encoding="utf-8"?>
<!-- Generator: Adobe Illustrator 18.1.1, SVG Export Plug-In . SVG Version: 6.00 Build 0)  -->
<svg version="1.1" id="Ebene_1" xmlns="http://www.w3.org/2000/svg" xmlns:xlink="http://www.w3.org/1999/xlink" x="0px" y="0px"
	 viewBox="0 0 50 50" enable-background="new 0 0 50 50" xml:space="preserve">
<g>
	<rect x="0" fill="#FFFFFF" width="50" height="50"/>
	<g>
		<defs>
			<rect id="SVGID_45_" x="0" width="50" height="50"/>
		</defs>
		<clipPath id="SVGID_1_">
			<use xlink:href="#SVGID_45_"  overflow="visible"/>
		</clipPath>
		<rect x="0" clip-path="url(#SVGID_1_)" fill="#ED081B" width="50" height="25"/>
	</g>
	<rect x="0" fill="none" width="50" height="50"/>
	<polygon fill-rule="evenodd" clip-rule="evenodd" fill="#FFFFFF" points="25,8.7 25,1.6 27.6,1.6 27.6,25 25,25 	"/>
	<polygon fill="none" stroke="#1A171B" stroke-width="0.2016" stroke-miterlimit="3.8636" points="25,8.7 25,1.6 27.6,1.6 27.6,25 
		25,25 	"/>
	<polygon fill-rule="evenodd" clip-rule="evenodd" fill="#FFFFFF" points="25,1.6 21.1,1.6 21.1,3.9 19.5,3.9 19.5,1.6 15.3,1.6 
		15.3,4.4 18.7,4.4 18.7,6 15.3,6 15.3,8.9 19.5,8.9 19.5,6.6 21.1,6.6 21.1,8.9 23.4,8.9 23.4,10.5 21.1,10.5 21.1,12.8 19.5,12.8 
		19.5,10.5 15.3,10.5 15.3,13.4 18.7,13.4 18.7,15 15.3,15 15.3,17.8 19.5,17.8 19.5,15.5 21.1,15.5 21.1,17.8 25,17.8 	"/>
	<polygon fill="none" stroke="#1A171B" stroke-width="0.2016" stroke-miterlimit="3.8636" points="25,1.6 21.1,1.6 21.1,3.9 
		19.5,3.9 19.5,1.6 15.3,1.6 15.3,4.4 18.7,4.4 18.7,6 15.3,6 15.3,8.9 19.5,8.9 19.5,6.6 21.1,6.6 21.1,8.9 23.4,8.9 23.4,10.5 
		21.1,10.5 21.1,12.8 19.5,12.8 19.5,10.5 15.3,10.5 15.3,13.4 18.7,13.4 18.7,15 15.3,15 15.3,17.8 19.5,17.8 19.5,15.5 21.1,15.5 
		21.1,17.8 25,17.8 	"/>
	<polygon fill-rule="evenodd" clip-rule="evenodd" fill="#ED081B" points="30.7,37.5 29.6,38.6 33.4,42.5 34.9,41.5 	"/>
	<polygon fill="none" stroke="#1A171B" stroke-width="0.2016" stroke-miterlimit="3.8636" points="30.7,37.5 29.6,38.6 33.4,42.5 
		34.9,41.5 	"/>
	<polygon fill-rule="evenodd" clip-rule="evenodd" fill="#ED081B" points="21.7,37.6 17.6,41.2 18.9,42.6 22.8,38.6 	"/>
	<polygon fill="none" stroke="#1A171B" stroke-width="0.2016" stroke-miterlimit="3.8636" points="21.7,37.6 17.6,41.2 18.9,42.6 
		22.8,38.6 	"/>
	<path fill-rule="evenodd" clip-rule="evenodd" fill="#ED081B" d="M26.2,45.5c1.9,0.1,3.9-1.1,4.4-2.7c0.3-1.2,0.1-2-0.5-2.3
		c-0.6-0.3-1.5,0.1-2,0.5c-0.4-1.1,0.8-1.9,2.1-1.9c1,0,1.6,0.5,2.2,1.3c1.4,1.8,0.2,5.1-1,6.1c-1.7,1.4-3.2,1.9-5.1,1.9
		c-1.9,0-3.5-0.5-5.1-1.9c-1.2-1-2.4-4.3-1-6.1c0.6-0.8,1.2-1.3,2.2-1.3c1.3,0,2.6,0.9,2.1,1.9c-0.6-0.3-1.4-0.8-2-0.5
		c-0.6,0.3-0.9,1.2-0.5,2.3C22.3,44.4,24.3,45.6,26.2,45.5z"/>
	<path fill="none" stroke="#1A171B" stroke-width="0.2016" stroke-miterlimit="3.8636" d="M26.2,45.5c1.9,0.1,3.9-1.1,4.4-2.7
		c0.3-1.2,0.1-2-0.5-2.3c-0.6-0.3-1.5,0.1-2,0.5c-0.4-1.1,0.8-1.9,2.1-1.9c1,0,1.6,0.5,2.2,1.3c1.4,1.8,0.2,5.1-1,6.1
		c-1.7,1.4-3.2,1.9-5.1,1.9c-1.9,0-3.5-0.5-5.1-1.9c-1.2-1-2.4-4.3-1-6.1c0.6-0.8,1.2-1.3,2.2-1.3c1.3,0,2.6,0.9,2.1,1.9
		c-0.6-0.3-1.4-0.8-2-0.5c-0.6,0.3-0.9,1.2-0.5,2.3C22.3,44.4,24.3,45.6,26.2,45.5z"/>
	<path fill-rule="evenodd" clip-rule="evenodd" fill="#ED081B" d="M21.2,37.7c0-0.7,0.6-1.3,1.3-1.3c0.7,0,1.3,0.6,1.3,1.3
		c0,0.7-0.6,1.3-1.3,1.3C21.8,39,21.2,38.4,21.2,37.7z"/>
	<path fill="none" stroke="#1A171B" stroke-width="0.2016" stroke-miterlimit="3.8636" d="M21.2,37.7c0-0.7,0.6-1.3,1.3-1.3
		c0.7,0,1.3,0.6,1.3,1.3c0,0.7-0.6,1.3-1.3,1.3C21.8,39,21.2,38.4,21.2,37.7z"/>
	<path fill-rule="evenodd" clip-rule="evenodd" fill="#ED081B" d="M16.9,42c0-0.7,0.6-1.3,1.3-1.3c0.7,0,1.3,0.6,1.3,1.3
		s-0.6,1.3-1.3,1.3C17.5,43.3,16.9,42.7,16.9,42z"/>
	<path fill="none" stroke="#1A171B" stroke-width="0.2016" stroke-miterlimit="3.8636" d="M16.9,42c0-0.7,0.6-1.3,1.3-1.3
		c0.7,0,1.3,0.6,1.3,1.3s-0.6,1.3-1.3,1.3C17.5,43.3,16.9,42.7,16.9,42z"/>
	<path fill-rule="evenodd" clip-rule="evenodd" fill="#ED081B" d="M31.2,37.7c0-0.7-0.6-1.3-1.3-1.3c-0.7,0-1.3,0.6-1.3,1.3
		c0,0.7,0.6,1.3,1.3,1.3C30.6,39,31.2,38.4,31.2,37.7z"/>
	<path fill="none" stroke="#1A171B" stroke-width="0.2016" stroke-miterlimit="3.8636" d="M31.2,37.7c0-0.7-0.6-1.3-1.3-1.3
		c-0.7,0-1.3,0.6-1.3,1.3c0,0.7,0.6,1.3,1.3,1.3C30.6,39,31.2,38.4,31.2,37.7z"/>
	<path fill-rule="evenodd" clip-rule="evenodd" fill="#ED081B" d="M35.6,42c0-0.7-0.6-1.3-1.3-1.3c-0.7,0-1.3,0.6-1.3,1.3
		s0.6,1.3,1.3,1.3C35,43.3,35.6,42.7,35.6,42z"/>
	<path fill="none" stroke="#1A171B" stroke-width="0.2016" stroke-miterlimit="3.8636" d="M35.6,42c0-0.7-0.6-1.3-1.3-1.3
		c-0.7,0-1.3,0.6-1.3,1.3s0.6,1.3,1.3,1.3C35,43.3,35.6,42.7,35.6,42z"/>
	<rect x="23.2" y="25" fill-rule="evenodd" clip-rule="evenodd" fill="#ED081B" width="6" height="0.8"/>
	<rect x="23.2" y="25" fill="none" stroke="#1A171B" stroke-width="0.2016" stroke-miterlimit="3.8636" width="6" height="0.8"/>
	<rect x="23.2" y="27.1" fill-rule="evenodd" clip-rule="evenodd" fill="#ED081B" width="6" height="0.8"/>
	<rect x="23.2" y="27.1" fill="none" stroke="#1A171B" stroke-width="0.2016" stroke-miterlimit="3.8636" width="6" height="0.8"/>
	<path fill-rule="evenodd" clip-rule="evenodd" fill="#ED081B" d="M29.8,27.1c0.3,0,0.6-0.3,0.5-0.6c0-0.3-0.2-0.7-0.5-0.7h-7.2
		c-0.3,0-0.5,0.3-0.5,0.7c0,0.3,0.2,0.6,0.5,0.6H29.8z"/>
	<path fill="none" stroke="#1A171B" stroke-width="0.2016" stroke-miterlimit="3.8636" d="M29.8,27.1c0.3,0,0.6-0.3,0.5-0.6
		c0-0.3-0.2-0.7-0.5-0.7h-7.2c-0.3,0-0.5,0.3-0.5,0.7c0,0.3,0.2,0.6,0.5,0.6H29.8z"/>
	<path fill="none" stroke="#1A171B" stroke-width="0.2016" stroke-miterlimit="3.8636" d="M22.4,32.2"/>
	<path fill-rule="evenodd" clip-rule="evenodd" fill="#ED081B" d="M26.3,27.9h3.2c0.4,0,0.8,0.3,0.8,0.8c0,0.3,0,0.6-0.3,0.9
		c-0.5,0.4-1.6,2.4-1.7,3.1h-2h-2.1c-0.1-0.7-1.1-2.7-1.7-3.1c-0.3-0.2-0.3-0.5-0.3-0.9c0-0.5,0.3-0.8,0.8-0.8H26.3L26.3,27.9z"/>
	<path fill="none" stroke="#1A171B" stroke-width="0.2016" stroke-miterlimit="3.8636" d="M26.3,27.9h3.2c0.4,0,0.8,0.3,0.8,0.8
		c0,0.3,0,0.6-0.3,0.9c-0.5,0.4-1.6,2.4-1.7,3.1h-2h-2.1c-0.1-0.7-1.1-2.7-1.7-3.1c-0.3-0.2-0.3-0.5-0.3-0.9c0-0.5,0.3-0.8,0.8-0.8
		H26.3L26.3,27.9z"/>
	<path fill-rule="evenodd" clip-rule="evenodd" fill="#ED081B" d="M19.5,36.2c0.3,0.5,0.8,2.3-0.7,2.6c-3,0.5-3.5-3.9-1.8-6.1
		c1.4-1.7,4.2-2.1,5.4-0.3c0.5,0.7-0.2,1.9-1.1,2.1c0.9,0.4,2.2,0.2,2.7-1.5c0.6-2.1-1.2-3.6-3.4-4.2c-5.2-1.4-9.8,5.5-6.3,10.2
		c1.2,1.6,5.4,2.9,6.8,0C21.6,38,21.2,36.6,19.5,36.2z"/>
	<path fill="none" stroke="#1A171B" stroke-width="0.2016" stroke-miterlimit="3.8636" d="M19.5,36.2c0.3,0.5,0.8,2.3-0.7,2.6
		c-3,0.5-3.5-3.9-1.8-6.1c1.4-1.7,4.2-2.1,5.4-0.3c0.5,0.7-0.2,1.9-1.1,2.1c0.9,0.4,2.2,0.2,2.7-1.5c0.6-2.1-1.2-3.6-3.4-4.2
		c-5.2-1.4-9.8,5.5-6.3,10.2c1.2,1.6,5.4,2.9,6.8,0C21.6,38,21.2,36.6,19.5,36.2z"/>
	<path fill-rule="evenodd" clip-rule="evenodd" fill="#ED081B" d="M24,33.5c0-1.2,1-2.2,2.2-2.2c1.2,0,2.2,1,2.2,2.2
		c0,1.2-1,2.2-2.2,2.2C25,35.8,24,34.7,24,33.5z"/>
	<path fill="none" stroke="#1A171B" stroke-width="0.2016" stroke-miterlimit="3.8636" d="M24,33.5c0-1.2,1-2.2,2.2-2.2
		c1.2,0,2.2,1,2.2,2.2c0,1.2-1,2.2-2.2,2.2C25,35.8,24,34.7,24,33.5z"/>
	<path fill-rule="evenodd" clip-rule="evenodd" fill="#ED081B" d="M24.5,29.6c0-0.9,0.8-1.7,1.7-1.7c0.9,0,1.7,0.8,1.7,1.7
		s-0.8,1.7-1.7,1.7C25.3,31.2,24.5,30.5,24.5,29.6z"/>
	<path fill="none" stroke="#1A171B" stroke-width="0.2016" stroke-miterlimit="3.8636" d="M24.5,29.6c0-0.9,0.8-1.7,1.7-1.7
		c0.9,0,1.7,0.8,1.7,1.7s-0.8,1.7-1.7,1.7C25.3,31.2,24.5,30.5,24.5,29.6z"/>
	<path fill-rule="evenodd" clip-rule="evenodd" fill="#ED081B" d="M32.9,36.2c-0.3,0.5-0.8,2.3,0.7,2.6c3,0.5,3.5-3.9,1.8-6.1
		c-1.4-1.7-4.2-2.1-5.4-0.3c-0.5,0.7,0.2,1.9,1.1,2.1c-0.9,0.4-2.2,0.2-2.7-1.5c-0.6-2.1,1.2-3.6,3.4-4.2c5.2-1.4,9.8,5.5,6.3,10.2
		c-1.2,1.6-5.4,2.9-6.8,0C30.9,38,31.2,36.6,32.9,36.2z"/>
	<path fill="none" stroke="#1A171B" stroke-width="0.2016" stroke-miterlimit="3.8636" d="M32.9,36.2c-0.3,0.5-0.8,2.3,0.7,2.6
		c3,0.5,3.5-3.9,1.8-6.1c-1.4-1.7-4.2-2.1-5.4-0.3c-0.5,0.7,0.2,1.9,1.1,2.1c-0.9,0.4-2.2,0.2-2.7-1.5c-0.6-2.1,1.2-3.6,3.4-4.2
		c5.2-1.4,9.8,5.5,6.3,10.2c-1.2,1.6-5.4,2.9-6.8,0C30.9,38,31.2,36.6,32.9,36.2z"/>
</g>
</svg>
