<?xml version="1.0" encoding="utf-8"?>
<!-- Generator: Adobe Illustrator 18.1.1, SVG Export Plug-In . SVG Version: 6.00 Build 0)  -->
<svg version="1.1" id="Ebene_1" xmlns="http://www.w3.org/2000/svg" xmlns:xlink="http://www.w3.org/1999/xlink" x="0px" y="0px"
	 viewBox="0 0 50 50" enable-background="new 0 0 50 50" xml:space="preserve">
<g>
	<rect x="0" fill="#00814A" width="50" height="50"/>
	<rect x="0" fill="none" width="50" height="50"/>
	<path fill-rule="evenodd" clip-rule="evenodd" fill="#FFFFFF" d="M25.9,44.3c0,0.5-0.4,0.9-0.9,0.9s-0.9-0.4-0.9-0.9V5.6
		c0-0.5,0.4-0.9,0.9-0.9s0.9,0.4,0.9,0.9V44.3z"/>
	<path fill="none" stroke="#1A171B" stroke-width="0.1341" stroke-miterlimit="3.8637" d="M25.9,44.3c0,0.5-0.4,0.9-0.9,0.9
		s-0.9-0.4-0.9-0.9V5.6c0-0.5,0.4-0.9,0.9-0.9s0.9,0.4,0.9,0.9V44.3z"/>
	<path fill-rule="evenodd" clip-rule="evenodd" fill="#FFFFFF" d="M26.2,7.4l-2.7-0.5c-1.1-0.2-3-1.3-3.7-2.6
		c-1.1,1.3-1.3,2.6-1.3,4.1s0.1,2.7,1.3,4.1c0.7-1.3,2.6-2.4,3.7-2.6l2.7-0.5l1-1L26.2,7.4z"/>
	<path fill="none" stroke="#1A171B" stroke-width="0.1341" stroke-miterlimit="3.8637" d="M26.2,7.4l-2.7-0.5
		c-1.1-0.2-3-1.3-3.7-2.6c-1.1,1.3-1.3,2.6-1.3,4.1s0.1,2.7,1.3,4.1c0.7-1.3,2.6-2.4,3.7-2.6l2.7-0.5l1-1L26.2,7.4z"/>
	<line fill="none" stroke="#1A171B" stroke-width="0.1341" stroke-miterlimit="3.8637" x1="23.5" y1="6.9" x2="23.5" y2="10"/>
	<path fill="none" stroke="#1A171B" stroke-width="0.1341" stroke-miterlimit="3.8637" d="M26.2,7.8"/>
	<line fill="none" stroke="#1A171B" stroke-width="0.1341" stroke-miterlimit="3.8637" x1="26.2" y1="7.4" x2="26.2" y2="9.5"/>
	<path fill-rule="evenodd" clip-rule="evenodd" fill="#FFFFFF" d="M30.1,40.6c0,0,0,0.6-0.9,0.6s-0.9-0.6-0.9-0.6s0,0.5-1.1,0.5
		c-1.1,0-1-0.5-1-0.5s0,0.5-1.2,0.5c-1.2,0-1.2-0.5-1.2-0.5s0,0.5-1,0.5c-1.1,0-1.1-0.5-1.1-0.5s0,0.6-0.9,0.6
		c-0.9,0-0.9-0.6-0.9-0.6V13.3c0,0,0-0.6,0.9-0.6c0.9,0,0.9,0.6,0.9,0.6s0-0.5,1.1-0.5c1.1,0,1,0.5,1,0.5s0-0.5,1.2-0.5
		c1.2,0,1.2,0.5,1.2,0.5s0-0.5,1-0.5c1.1,0,1.1,0.5,1.1,0.5s0-0.6,0.9-0.6s0.9,0.6,0.9,0.6V40.6z"/>
	<path fill="none" stroke="#1A171B" stroke-width="0.1341" stroke-miterlimit="3.8637" d="M30.1,40.6c0,0,0,0.6-0.9,0.6
		s-0.9-0.6-0.9-0.6s0,0.5-1.1,0.5c-1.1,0-1-0.5-1-0.5s0,0.5-1.2,0.5c-1.2,0-1.2-0.5-1.2-0.5s0,0.5-1,0.5c-1.1,0-1.1-0.5-1.1-0.5
		s0,0.6-0.9,0.6c-0.9,0-0.9-0.6-0.9-0.6V13.3c0,0,0-0.6,0.9-0.6c0.9,0,0.9,0.6,0.9,0.6s0-0.5,1.1-0.5c1.1,0,1,0.5,1,0.5
		s0-0.5,1.2-0.5c1.2,0,1.2,0.5,1.2,0.5s0-0.5,1-0.5c1.1,0,1.1,0.5,1.1,0.5s0-0.6,0.9-0.6s0.9,0.6,0.9,0.6V40.6z"/>
	<line fill="none" stroke="#1A171B" stroke-width="0.1341" stroke-miterlimit="3.8637" x1="28.3" y1="13.3" x2="28.3" y2="40.6"/>
	<line fill="none" stroke="#1A171B" stroke-width="0.1341" stroke-miterlimit="3.8637" x1="26.2" y1="40.6" x2="26.2" y2="13.3"/>
	<line fill="none" stroke="#1A171B" stroke-width="0.1341" stroke-miterlimit="3.8637" x1="21.6" y1="13.3" x2="21.6" y2="40.6"/>
	<line fill="none" stroke="#1A171B" stroke-width="0.1341" stroke-miterlimit="3.8637" x1="23.7" y1="40.6" x2="23.7" y2="13.3"/>
	<polygon fill-rule="evenodd" clip-rule="evenodd" fill="#00814A" points="30.6,35.6 30.6,31.8 19.3,18.3 19.3,22.1 	"/>
	<polygon fill="none" stroke="#1A171B" stroke-width="0.1341" stroke-miterlimit="3.8637" points="30.6,35.6 30.6,31.8 19.3,18.3 
		19.3,22.1 	"/>
	<polygon fill-rule="evenodd" clip-rule="evenodd" fill="#00814A" points="19.3,35.6 19.3,31.8 30.6,18.3 30.6,22.1 	"/>
	<polygon fill="none" stroke="#1A171B" stroke-width="0.1341" stroke-miterlimit="3.8637" points="19.3,35.6 19.3,31.8 30.6,18.3 
		30.6,22.1 	"/>
	<rect x="19.3" y="15.1" fill-rule="evenodd" clip-rule="evenodd" fill="#00814A" width="11.3" height="2"/>
	<rect x="19.3" y="15.1" fill="none" stroke="#1A171B" stroke-width="0.1341" stroke-miterlimit="3.8637" width="11.3" height="2"/>
	<rect x="19.3" y="36.7" fill-rule="evenodd" clip-rule="evenodd" fill="#00814A" width="11.3" height="2"/>
	<rect x="19.3" y="36.7" fill="none" stroke="#1A171B" stroke-width="0.1341" stroke-miterlimit="3.8637" width="11.3" height="2"/>
</g>
</svg>
