<?xml version="1.0" encoding="utf-8"?>
<!-- Generator: Adobe Illustrator 18.1.1, SVG Export Plug-In . SVG Version: 6.00 Build 0)  -->
<svg version="1.1" id="Ebene_1" xmlns="http://www.w3.org/2000/svg" xmlns:xlink="http://www.w3.org/1999/xlink" x="0px" y="0px"
	 viewBox="0 0 50 50" enable-background="new 0 0 50 50" xml:space="preserve">
<g>
	<rect x="0" fill="#FFE600" width="50" height="50"/>
	<rect x="0" fill="none" width="50" height="50"/>
	<path fill-rule="evenodd" clip-rule="evenodd" fill="#1A171B" d="M12.9,47.6c0.8-0.6,1.9-1.9,1.9-1.9c0.6,0.2,1.1,0.2,1.3,0.3
		c0.2,0.1-0.1,1.1-0.5,1.3C14.8,47.7,12.9,47.6,12.9,47.6z M13.9,45.1c0.1,0.1,0.4,0.4,0.4,0.4c-0.1,0.1-0.8,1-1.2,1.2
		c-0.1,0.1-0.8,0-0.7-0.1C12.9,46.2,13.9,45,13.9,45.1z M24.9,31.2c-0.5-0.2-1.3-0.7-1.9,0.5c-0.5-0.7-1.8-0.3-1.8,0.7
		c-0.9-0.7-1.8,0.1-1.6,1c-1.1-0.1-1.4,1.1-1.1,1.6c-1,0.3-0.9,1.8-0.1,2.1c-0.3,0.6-0.1,2,1.3,1.7c-0.3,0.8,0.6,1.1,1.1,0.9
		c0,0.3,0.1,0.8,0.1,0.8s-2,0.9-2.6,1.4c-1,0.7-1.7,1.3-2.1,1.4c-0.5,0.2-0.9,0.1-1.5,1.4c-0.3-0.2-0.7-0.1-1,0.2
		c-0.2,0.2-2,2.1-2.4,2.3c-0.4,0.2,1.3,0.2,1.3,0.2L12,47.8c0,0.2,2.9,0.3,3.6-0.1c0.7-0.3,0.8-0.8,0.9-1.1c0.1-0.4,0.1-1-0.3-1
		c0-0.2,0.1-0.6,0.2-0.7c0.1-0.1,0.3,0,0.3,0.1c0,0.1,0.1,0.2,0.3,0.3c0.2,0.1,0.6,0,0.7-0.2c0.1-0.2,0.1-0.7,0.3-1
		c0.2-0.3,3.1-2.1,4.1-2.4c0.8-0.3,0.8-0.2,1.3-0.2c0.5-0.1,0.7-0.7,0.6-1c-0.1-0.6-0.5-0.5-0.6-0.8c-0.1-0.2,0.1-0.8,0.1-0.8
		s1.2,0,1.2-1.5c0-0.8,0.4-2.1,1.7-3.5C26.4,33.4,25.8,31.5,24.9,31.2z"/>
	<path fill="none" stroke="#1A171B" stroke-width="0" stroke-miterlimit="3.8637" d="M12.9,47.6c0.8-0.6,1.9-1.9,1.9-1.9
		c0.6,0.2,1.1,0.2,1.3,0.3c0.2,0.1-0.1,1.1-0.5,1.3C14.8,47.7,12.9,47.6,12.9,47.6z M13.9,45.1c0.1,0.1,0.4,0.4,0.4,0.4
		c-0.1,0.1-0.8,1-1.2,1.2c-0.1,0.1-0.8,0-0.7-0.1C12.9,46.2,13.9,45,13.9,45.1z M24.9,31.2c-0.5-0.2-1.3-0.7-1.9,0.5
		c-0.5-0.7-1.8-0.3-1.8,0.7c-0.9-0.7-1.8,0.1-1.6,1c-1.1-0.1-1.4,1.1-1.1,1.6c-1,0.3-0.9,1.8-0.1,2.1c-0.3,0.6-0.1,2,1.3,1.7
		c-0.3,0.8,0.6,1.1,1.1,0.9c0,0.3,0.1,0.8,0.1,0.8s-2,0.9-2.6,1.4c-1,0.7-1.7,1.3-2.1,1.4c-0.5,0.2-0.9,0.1-1.5,1.4
		c-0.3-0.2-0.7-0.1-1,0.2c-0.2,0.2-2,2.1-2.4,2.3c-0.4,0.2,1.3,0.2,1.3,0.2L12,47.8c0,0.2,2.9,0.3,3.6-0.1c0.7-0.3,0.8-0.8,0.9-1.1
		c0.1-0.4,0.1-1-0.3-1c0-0.2,0.1-0.6,0.2-0.7c0.1-0.1,0.3,0,0.3,0.1c0,0.1,0.1,0.2,0.3,0.3c0.2,0.1,0.6,0,0.7-0.2
		c0.1-0.2,0.1-0.7,0.3-1c0.2-0.3,3.1-2.1,4.1-2.4c0.8-0.3,0.8-0.2,1.3-0.2c0.5-0.1,0.7-0.7,0.6-1c-0.1-0.6-0.5-0.5-0.6-0.8
		c-0.1-0.2,0.1-0.8,0.1-0.8s1.2,0,1.2-1.5c0-0.8,0.4-2.1,1.7-3.5C26.4,33.4,25.8,31.5,24.9,31.2z"/>
	<path fill-rule="evenodd" clip-rule="evenodd" fill="#FFE600" d="M24.8,31.1c0.5,0.3,1.4,1.5,1.6,3c-0.4,0.4-1.8,1.6-1.9,3.3
		c-0.1,1.7,1.9,2.2,2.5,1.5c0.4,0.2,2.2,0.3,2.3-1.1c0.2-1.6-1.5-3.3-1.5-3.3s0.1-1-0.2-1.5c-0.3-0.5-2.8-2-2.8-2L24.8,31.1z"/>
	<path fill="none" stroke="#1A171B" stroke-width="0.2298" stroke-miterlimit="3.8636" d="M24.8,31.1c0.5,0.3,1.4,1.5,1.6,3
		c-0.4,0.4-1.8,1.6-1.9,3.3c-0.1,1.7,1.9,2.2,2.5,1.5c0.4,0.2,2.2,0.3,2.3-1.1c0.2-1.6-1.5-3.3-1.5-3.3s0.1-1-0.2-1.5
		c-0.3-0.5-2.8-2-2.8-2L24.8,31.1z"/>
	<path fill="none" stroke="#1A171B" stroke-width="0.2298" stroke-miterlimit="3.8636" d="M27.2,38.9c0,0-1.3-0.6-1.4-2
		c-0.1-1.3,0.7-2,0.7-2.4c0-0.5,0-0.4-0.1-0.8"/>
	<path fill-rule="evenodd" clip-rule="evenodd" fill="#1A171B" d="M6.9,17.5c0,0,1.3,0.2,2.2,0.1c0.2,0.2,0.4,0.4,0.4,0.4
		c0.1,0.2-0.6,0.7-1.1,0.7C7.9,18.8,6.9,17.5,6.9,17.5z M6.7,16.4c1.2,0.3,2.1,0.2,2.1,0.4c0,0,0,0.3,0.1,0.5
		c-0.3,0.1-1.8-0.1-1.8-0.1S6.8,16.8,6.7,16.4z M11.3,16.7c0.2,0,2.7,0.3,3.4,0.4c1,0.1,1.3-0.1,1.6,0c0.4,0.3,0.6,0.3,0.7,0.5
		c0.1,0.2,0.1,0.4,0.2,0.6c0.1,0.5,1.2,2.9,1.4,3.2c-0.6,0.4-0.5,1.4-0.4,1.5c-0.3,0.1-0.6,0.1-0.8,0.6c-0.4-0.4-0.9-1.7-1.2-2.5
		c-0.2-0.6-0.3-1.5-0.5-2c-0.1-0.1-0.4-0.3-0.5-0.4c-0.8-0.2-3.5-0.7-3.6-0.6c-0.2,0.1-0.5,0.4-0.7,0.4c-0.2,0-0.4,0-0.4-0.2
		c0-0.2,0-0.5-0.2-0.5c-0.2,0-0.2,0.3-0.3,0.5c-0.1,0.3-0.9,0.8-1.3,0.9c-0.7,0.3-2.8-2.1-2.8-2.1l0.7,0c0,0-0.7-1.2-0.6-1.2
		c1.1,0.3,3,0.4,3,0.4s0.5-0.3,1.1-0.1C10.9,16.4,10.9,16.6,11.3,16.7z"/>
	<path fill="none" stroke="#1A171B" stroke-width="0" stroke-miterlimit="3.8637" d="M6.9,17.5c0,0,1.3,0.2,2.2,0.1
		c0.2,0.2,0.4,0.4,0.4,0.4c0.1,0.2-0.6,0.7-1.1,0.7C7.9,18.8,6.9,17.5,6.9,17.5z M6.7,16.4c1.2,0.3,2.1,0.2,2.1,0.4
		c0,0,0,0.3,0.1,0.5c-0.3,0.1-1.8-0.1-1.8-0.1S6.8,16.8,6.7,16.4z M11.3,16.7c0.2,0,2.7,0.3,3.4,0.4c1,0.1,1.3-0.1,1.6,0
		c0.4,0.3,0.6,0.3,0.7,0.5c0.1,0.2,0.1,0.4,0.2,0.6c0.1,0.5,1.2,2.9,1.4,3.2c-0.6,0.4-0.5,1.4-0.4,1.5c-0.3,0.1-0.6,0.1-0.8,0.6
		c-0.4-0.4-0.9-1.7-1.2-2.5c-0.2-0.6-0.3-1.5-0.5-2c-0.1-0.1-0.4-0.3-0.5-0.4c-0.8-0.2-3.5-0.7-3.6-0.6c-0.2,0.1-0.5,0.4-0.7,0.4
		c-0.2,0-0.4,0-0.4-0.2c0-0.2,0-0.5-0.2-0.5c-0.2,0-0.2,0.3-0.3,0.5c-0.1,0.3-0.9,0.8-1.3,0.9c-0.7,0.3-2.8-2.1-2.8-2.1l0.7,0
		c0,0-0.7-1.2-0.6-1.2c1.1,0.3,3,0.4,3,0.4s0.5-0.3,1.1-0.1C10.9,16.4,10.9,16.6,11.3,16.7z"/>
	<path fill-rule="evenodd" clip-rule="evenodd" fill="#1A171B" d="M39.2,44.7c0.7,0.1,1.6-0.4,1.6-0.4s0.1,1.4-0.1,1.7
		c-0.4,0.4-0.9,0.6-2,1C39,46.4,39.1,45.6,39.2,44.7z M38.5,44.6c0.2,0,0.4,0.1,0.4,0.1s-0.2,1.4-0.4,2c-0.1,0.2-0.3,0.2-0.7,0.4
		C37.9,46.7,38,44.7,38.5,44.6z M7.4,28.5c0.4-0.6,1.2-1.9,1.2-1.9s0.8-0.1,1-0.3c0,0,0.3,1.1,0.1,1.5C9.6,27.9,9.2,28.4,7.4,28.5z
		 M7.6,26.3c0,0,0.2,0.2,0.4,0.2c-0.2,0.4-0.8,1.4-0.9,1.5c-0.2,0.2-0.8,0.1-0.8,0.1L7.6,26.3z M30.3,19.6c0.3,0.1,0.6,1.5-0.9,1.5
		c0.4,0.3,0.5,1.6-0.9,1.3c0.5,0.5,0.1,1.4-0.7,1.2c0.3,0.4,0.2,1.1-0.5,1.2c0.1,0.4,0.9,1.4,1.8,2c1.5,0.9,3.9,1.3,4.4,3
		c0.6,0,1,0,1.5-0.4c1.4-1.1,0.3-2.9,1.8-3c-0.5-0.9,0.2-1.7,0.9-1.6c-0.1-0.9,0.6-1.5,1.5-1.2c0-0.9,1-1.3,1.6-0.9
		c0.5-0.6,1.5-0.4,1.5,0.6c0.8,0.2,0.9,1.3,0.2,1.7c0.4,0.7,0,1.5-0.9,1.4c0.3,0.9-0.7,1.5-1.3,1.2c0.3,1-0.6,1.6-1.4,1.2
		c0,1.1-1.5,1.4-2,0.8c-0.1,0.6-1.7,1.2-2.8,1.1c0.2,0.5,0.8,1.8,0.8,1.8c0.4-0.2,1.5,0.1,1.4,1.1c0.5-0.3,1.4,0.3,1,1.2
		c0,0,0.3,0,0.3,0c0.7-0.3,0.7-0.4,1.4,0c0.5,0.3,0.5,0.6,0.3,1.3c-0.1,0.2,0.4,2,0.7,2.8c0.4,0.8,0.6,2.1,1,2.4
		c0.4,0.4,0.7,0.7,0.8,1s0.3,0.7,0,0.9c-0.3,0.2-0.8,0-0.9-0.1c-0.1,0-0.1,0.2,0,0.3c0.1,0.1,0.1,0.4,0.2,0.4c0.1,0,0.3,0,0.3,0
		s0,1.4,0,1.6c-0.1,0.8-1,1.3-3.2,2.1c0,0,0.2-0.6,0.2-0.6s-0.7,0.4-1.1,0.4c0,0,0.3-0.8,0.3-1.1c0.1-0.3,0.3-1.8,0.5-1.9
		c0.2-0.1,0.5-0.1,0.5-0.3c0-0.2,0.1-0.7,0.3-0.9c0.2-0.2,0.7-0.4,0.6-0.8c-0.1-0.4-1.7-4.3-1.8-4.6c-0.2-0.7-0.6-0.7-0.6-0.5
		c0,0.7-1.1,1.5-2,0.6c0,1-1.7,1.4-2.1,0.4c-0.5,0.9-2,0.7-2.1-0.3c-0.7,0.6-1.9,0.3-1.7-0.8c-0.9,0.4-1.5-0.5-1.1-1.3
		c-1.1,0.1-0.9-1.2-0.5-1.4c0-0.4,0.1-1.4-1.2-2.6c-1.3-1.2-2.3-0.9-3.4-1.4c-1-0.5-2.7-1.7-2.9-2.1c-0.8,0.7-1.8,0.2-1.8-0.7
		c-1.3,0.3-1.9-0.8-1.4-1.7c-0.4-0.2-2.1-1.9-2.4-1.9c-0.4,0-0.8-0.2-0.9-0.1c-0.3,0.2-1.6,0.7-1.8,1.3c-0.3,0.5-0.5,0.9-0.9,1
		c-0.3,0-0.4-0.2-0.5-0.3c-0.1-0.1-0.3-0.1-0.2,0.2c0.1,0.4,0.3,1.4,0,1.9c-0.3,0.4-1.3,0.9-3.5,0.9C6.8,28.7,7,28.4,7,28.4
		s-1.3,0.3-1.3,0.1c0.1-0.1,1.4-2.2,1.5-2.4C7.4,25.8,7.9,26,8,25.9c0.1-0.2,0.4-0.8,0.9-1.1c0.3-0.2,0.6,0,0.9-0.1
		c0.3-0.1,3-1.9,3.5-2.2c0.1-0.1,0.2-0.2,0.4-0.3c0.2,0,0.7-0.1,1,0c0.1,0,0.1,0.1,0.2,0.2c0.5,0.3,2.4,1.8,2.4,1.8
		c0-0.3,0.4-1.1,1.2-0.8c-0.5-0.5-0.4-2.1,0.9-2c-0.3-0.6,0.4-1.9,1.7-1.2c-0.1-1.1,1.1-1.4,1.6-0.9c-0.1-0.7,0.9-1.2,1.6-0.7
		c0.2-0.9,0.9-1,1.7-0.8c0.9,0.2,1.6-0.4,2-0.5c0.4-0.1,0.6,0,0.7,0.2C29,17.8,29.4,19.2,30.3,19.6z"/>
	<path fill="none" stroke="#1A171B" stroke-width="0" stroke-miterlimit="3.8637" d="M39.2,44.7c0.7,0.1,1.6-0.4,1.6-0.4
		s0.1,1.4-0.1,1.7c-0.4,0.4-0.9,0.6-2,1C39,46.4,39.1,45.6,39.2,44.7z M38.5,44.6c0.2,0,0.4,0.1,0.4,0.1s-0.2,1.4-0.4,2
		c-0.1,0.2-0.3,0.2-0.7,0.4C37.9,46.7,38,44.7,38.5,44.6z M7.4,28.5c0.4-0.6,1.2-1.9,1.2-1.9s0.8-0.1,1-0.3c0,0,0.3,1.1,0.1,1.5
		C9.6,27.9,9.2,28.4,7.4,28.5z M7.6,26.3c0,0,0.2,0.2,0.4,0.2c-0.2,0.4-0.8,1.4-0.9,1.5c-0.2,0.2-0.8,0.1-0.8,0.1L7.6,26.3z
		 M30.3,19.6c0.3,0.1,0.6,1.5-0.9,1.5c0.4,0.3,0.5,1.6-0.9,1.3c0.5,0.5,0.1,1.4-0.7,1.2c0.3,0.4,0.2,1.1-0.5,1.2
		c0.1,0.4,0.9,1.4,1.8,2c1.5,0.9,3.9,1.3,4.4,3c0.6,0,1,0,1.5-0.4c1.4-1.1,0.3-2.9,1.8-3c-0.5-0.9,0.2-1.7,0.9-1.6
		c-0.1-0.9,0.6-1.5,1.5-1.2c0-0.9,1-1.3,1.6-0.9c0.5-0.6,1.5-0.4,1.5,0.6c0.8,0.2,0.9,1.3,0.2,1.7c0.4,0.7,0,1.5-0.9,1.4
		c0.3,0.9-0.7,1.5-1.3,1.2c0.3,1-0.6,1.6-1.4,1.2c0,1.1-1.5,1.4-2,0.8c-0.1,0.6-1.7,1.2-2.8,1.1c0.2,0.5,0.8,1.8,0.8,1.8
		c0.4-0.2,1.5,0.1,1.4,1.1c0.5-0.3,1.4,0.3,1,1.2c0,0,0.3,0,0.3,0c0.7-0.3,0.7-0.4,1.4,0c0.5,0.3,0.5,0.6,0.3,1.3
		c-0.1,0.2,0.4,2,0.7,2.8c0.4,0.8,0.6,2.1,1,2.4c0.4,0.4,0.7,0.7,0.8,1s0.3,0.7,0,0.9c-0.3,0.2-0.8,0-0.9-0.1c-0.1,0-0.1,0.2,0,0.3
		c0.1,0.1,0.1,0.4,0.2,0.4c0.1,0,0.3,0,0.3,0s0,1.4,0,1.6c-0.1,0.8-1,1.3-3.2,2.1c0,0,0.2-0.6,0.2-0.6s-0.7,0.4-1.1,0.4
		c0,0,0.3-0.8,0.3-1.1c0.1-0.3,0.3-1.8,0.5-1.9c0.2-0.1,0.5-0.1,0.5-0.3c0-0.2,0.1-0.7,0.3-0.9c0.2-0.2,0.7-0.4,0.6-0.8
		c-0.1-0.4-1.7-4.3-1.8-4.6c-0.2-0.7-0.6-0.7-0.6-0.5c0,0.7-1.1,1.5-2,0.6c0,1-1.7,1.4-2.1,0.4c-0.5,0.9-2,0.7-2.1-0.3
		c-0.7,0.6-1.9,0.3-1.7-0.8c-0.9,0.4-1.5-0.5-1.1-1.3c-1.1,0.1-0.9-1.2-0.5-1.4c0-0.4,0.1-1.4-1.2-2.6c-1.3-1.2-2.3-0.9-3.4-1.4
		c-1-0.5-2.7-1.7-2.9-2.1c-0.8,0.7-1.8,0.2-1.8-0.7c-1.3,0.3-1.9-0.8-1.4-1.7c-0.4-0.2-2.1-1.9-2.4-1.9c-0.4,0-0.8-0.2-0.9-0.1
		c-0.3,0.2-1.6,0.7-1.8,1.3c-0.3,0.5-0.5,0.9-0.9,1c-0.3,0-0.4-0.2-0.5-0.3c-0.1-0.1-0.3-0.1-0.2,0.2c0.1,0.4,0.3,1.4,0,1.9
		c-0.3,0.4-1.3,0.9-3.5,0.9C6.8,28.7,7,28.4,7,28.4s-1.3,0.3-1.3,0.1c0.1-0.1,1.4-2.2,1.5-2.4C7.4,25.8,7.9,26,8,25.9
		c0.1-0.2,0.4-0.8,0.9-1.1c0.3-0.2,0.6,0,0.9-0.1c0.3-0.1,3-1.9,3.5-2.2c0.1-0.1,0.2-0.2,0.4-0.3c0.2,0,0.7-0.1,1,0
		c0.1,0,0.1,0.1,0.2,0.2c0.5,0.3,2.4,1.8,2.4,1.8c0-0.3,0.4-1.1,1.2-0.8c-0.5-0.5-0.4-2.1,0.9-2c-0.3-0.6,0.4-1.9,1.7-1.2
		c-0.1-1.1,1.1-1.4,1.6-0.9c-0.1-0.7,0.9-1.2,1.6-0.7c0.2-0.9,0.9-1,1.7-0.8c0.9,0.2,1.6-0.4,2-0.5c0.4-0.1,0.6,0,0.7,0.2
		C29,17.8,29.4,19.2,30.3,19.6z"/>
	<path fill-rule="evenodd" clip-rule="evenodd" fill="#ED081B" d="M24.2,16.5c-1.6-0.5-5.1,0.6-4.6-2c-0.8,0.4-1.1,1.1-0.7,1.8
		c0.9,1.4,3.4,0.3,5.3,0.5C23.8,16.7,24.2,16.5,24.2,16.5z"/>
	<path fill="none" stroke="#1A171B" stroke-width="0.2298" stroke-miterlimit="3.8636" d="M24.2,16.5c-1.6-0.5-5.1,0.6-4.6-2
		c-0.8,0.4-1.1,1.1-0.7,1.8c0.9,1.4,3.4,0.3,5.3,0.5C23.8,16.7,24.2,16.5,24.2,16.5z"/>
	<path fill-rule="evenodd" clip-rule="evenodd" fill="#1A171B" d="M30.8,16.6c0,0-0.2,0.1-0.2,0.2c0,0.1,0.1,0.2,0.2,0.2
		c0.5,0.3,1,0.8,1.3,1.5c0.4,1.2,0.3,2.6,0.1,2.6c-0.2,0.1-0.2-0.9-0.8-1.2s-1.1-0.7-1.4-1c-0.5-0.6-0.5-1.4-0.8-1.7
		c-0.2-0.3-0.5-0.4-1-0.2c-0.3,0.1-0.9,0.5-1.7,0.5c-1.1,0-1.9-0.4-2.2-0.1c-0.3,0.2-1.3,1-1.9,0.9c-0.6-0.1-0.8-0.6-0.9-1
		c0.5-0.1,1.6-0.3,2.5-0.8c-0.8-0.4-1.7-0.2-2.6-0.4c-0.7-0.2-0.6-1.3,0.3-1.5c0.1,0,0.1,0,0.1,0c0.4-0.3,2.1-1,2.6-1
		c-0.8-0.8,2.5-1.3,2.6-1.8c1,0.3,4.4,4.6,4.4,4.6L30.8,16.6z"/>
	<path fill="none" stroke="#1A171B" stroke-width="0" stroke-miterlimit="3.8637" d="M30.8,16.6c0,0-0.2,0.1-0.2,0.2
		c0,0.1,0.1,0.2,0.2,0.2c0.5,0.3,1,0.8,1.3,1.5c0.4,1.2,0.3,2.6,0.1,2.6c-0.2,0.1-0.2-0.9-0.8-1.2s-1.1-0.7-1.4-1
		c-0.5-0.6-0.5-1.4-0.8-1.7c-0.2-0.3-0.5-0.4-1-0.2c-0.3,0.1-0.9,0.5-1.7,0.5c-1.1,0-1.9-0.4-2.2-0.1c-0.3,0.2-1.3,1-1.9,0.9
		c-0.6-0.1-0.8-0.6-0.9-1c0.5-0.1,1.6-0.3,2.5-0.8c-0.8-0.4-1.7-0.2-2.6-0.4c-0.7-0.2-0.6-1.3,0.3-1.5c0.1,0,0.1,0,0.1,0
		c0.4-0.3,2.1-1,2.6-1c-0.8-0.8,2.5-1.3,2.6-1.8c1,0.3,4.4,4.6,4.4,4.6L30.8,16.6z"/>
	<path fill="none" stroke="#1A171B" stroke-width="0.1125" stroke-miterlimit="3.8637" d="M30.4,12.9c0,0-0.3-1.7,1.7-2.3"/>
	<line fill="none" stroke="#1A171B" stroke-width="0" stroke-miterlimit="3.8637" x1="30.1" y1="13.5" x2="30.1" y2="13.5"/>
	<line fill="none" stroke="#1A171B" stroke-width="0" stroke-miterlimit="3.8637" x1="30.1" y1="13.5" x2="30.1" y2="13.5"/>
	<path fill-rule="evenodd" clip-rule="evenodd" fill="#FFFFFF" d="M21.7,15c0.1,0.2-0.2,0.4-0.4,0.5c-0.2,0,0,0.4,0.2,0.2
		c0.3-0.2,0.4-0.4,0.4-0.7C21.9,14.8,21.7,15,21.7,15z"/>
	<path fill="none" stroke="#1A171B" stroke-width="0" stroke-miterlimit="3.8637" d="M21.7,15c0.1,0.2-0.2,0.4-0.4,0.5
		c-0.2,0,0,0.4,0.2,0.2c0.3-0.2,0.4-0.4,0.4-0.7C21.9,14.8,21.7,15,21.7,15z"/>
	<path fill-rule="evenodd" clip-rule="evenodd" fill="#FFFFFF" d="M26.6,13.8c0,0,0.1,0.2,0.1,0.3c0,0.3-0.2,0.6-0.6,0.6
		c-0.3,0-0.6-0.2-0.6-0.6c0-0.3,0.2-0.7,0.6-0.5c-0.3-0.2-0.7-0.1-1,0c0.3-0.2,0.8-0.4,1.2-0.2c0.6,0.3,0.7,0.9,0.7,1.4
		C26.9,14.2,26.9,14.1,26.6,13.8L26.6,13.8z"/>
	<path fill="none" stroke="#1A171B" stroke-width="0" stroke-miterlimit="3.8637" d="M26.6,13.8c0,0,0.1,0.2,0.1,0.3
		c0,0.3-0.2,0.6-0.6,0.6c-0.3,0-0.6-0.2-0.6-0.6c0-0.3,0.2-0.7,0.6-0.5c-0.3-0.2-0.7-0.1-1,0c0.3-0.2,0.8-0.4,1.2-0.2
		c0.6,0.3,0.7,0.9,0.7,1.4C26.9,14.2,26.9,14.1,26.6,13.8L26.6,13.8z"/>
	<path fill-rule="evenodd" clip-rule="evenodd" fill="#FFE600" d="M27.6,11.3c1.4-5.3-2.2-6.6-4-5.4c-1.5,1-0.4,3.3,0.8,2.5
		c0.7-0.5-0.2-1.3-0.5-1.2c1.4-0.9,2.4,0.6,1.8,1.5c0.2,0.2,0.2,0.9-0.1,1.3c-0.3,0.3-1,0.6-1.5,0c-0.3,0.6-1.8,0.9-2.2-0.5
		c-0.9,0.3-2.2-0.6-1.4-2.1c-1.1-0.7-0.8-2.3,0.3-2.6c-0.4-1.5,1.1-2.3,1.8-1.8C22.8,2,24,1.6,25,2.5c0.3-0.6,2.3-0.8,2.6,0.8
		c0.8-0.3,2.4,0.1,2.3,2.1C31.1,5.4,32,6.6,31.2,8c0.8,0.3,1.3,1.5,0.8,2.5c0.4-0.1,1.3-0.2,1.8,0.3c0.9-1,2.5-1,3.4,0.1
		c1.1-0.6,2.8,0.2,2.7,1.4c1,0.1,2,1.2,1.3,2.7c1,0.4,1.3,1.9,0.3,2.6c0.7,0.6,0.3,2.5-1.1,2.4c0.2,1-1,2-2.3,1.4
		c-0.3,0.9-2.1,1-2.4,0c-1.2,0.4-2-1-1.5-1.7c-0.9-0.6-0.3-2.1,0.7-2c0.5-1,1.8-1,2.2,0.1c-0.4,0.1-0.8,0.3-0.6,0.9
		c0.3,0.8,2,0.8,2-1.2c0.1-2.1-2-3.9-6.8-1.8C30,14.1,29.7,12.7,27.6,11.3z"/>
	<path fill="none" stroke="#1A171B" stroke-width="0.2298" stroke-miterlimit="3.8636" d="M27.6,11.3c1.4-5.3-2.2-6.6-4-5.4
		c-1.5,1-0.4,3.3,0.8,2.5c0.7-0.5-0.2-1.3-0.5-1.2c1.4-0.9,2.4,0.6,1.8,1.5c0.2,0.2,0.2,0.9-0.1,1.3c-0.3,0.3-1,0.6-1.5,0
		c-0.3,0.6-1.8,0.9-2.2-0.5c-0.9,0.3-2.2-0.6-1.4-2.1c-1.1-0.7-0.8-2.3,0.3-2.6c-0.4-1.5,1.1-2.3,1.8-1.8C22.8,2,24,1.6,25,2.5
		c0.3-0.6,2.3-0.8,2.6,0.8c0.8-0.3,2.4,0.1,2.3,2.1C31.1,5.4,32,6.6,31.2,8c0.8,0.3,1.3,1.5,0.8,2.5c0.4-0.1,1.3-0.2,1.8,0.3
		c0.9-1,2.5-1,3.4,0.1c1.1-0.6,2.8,0.2,2.7,1.4c1,0.1,2,1.2,1.3,2.7c1,0.4,1.3,1.9,0.3,2.6c0.7,0.6,0.3,2.5-1.1,2.4
		c0.2,1-1,2-2.3,1.4c-0.3,0.9-2.1,1-2.4,0c-1.2,0.4-2-1-1.5-1.7c-0.9-0.6-0.3-2.1,0.7-2c0.5-1,1.8-1,2.2,0.1
		c-0.4,0.1-0.8,0.3-0.6,0.9c0.3,0.8,2,0.8,2-1.2c0.1-2.1-2-3.9-6.8-1.8C30,14.1,29.7,12.7,27.6,11.3z"/>
	<path fill="none" stroke="#1A171B" stroke-width="0.2298" stroke-miterlimit="3.8636" d="M22,7c-0.2-3.2,7.4-4.3,7.1,3.1"/>
	<path fill="none" stroke="#1A171B" stroke-width="0.2298" stroke-miterlimit="3.8636" d="M31.4,14.6c0,0,1.7-1,4.1-0.9
		c2.5,0.1,4.5,1.9,3.9,4.5c-0.6,2.8-3.9,2.5-3.8,0.7"/>
	<circle fill="#FFE600" cx="29" cy="10.7" r="0.8"/>
	<circle fill="none" stroke="#1A171B" stroke-width="0.2298" stroke-miterlimit="3.8636" cx="29" cy="10.7" r="0.8"/>
	<circle fill="#FFE600" cx="31" cy="12.6" r="0.8"/>
	<circle fill="none" stroke="#1A171B" stroke-width="0.2298" stroke-miterlimit="3.8636" cx="31" cy="12.6" r="0.8"/>
	<circle fill="#FFE600" cx="32.7" cy="14.5" r="0.8"/>
	<circle fill="none" stroke="#1A171B" stroke-width="0.2298" stroke-miterlimit="3.8636" cx="32.7" cy="14.5" r="0.8"/>
	<path fill-rule="evenodd" clip-rule="evenodd" fill="#FFE600" d="M32,13.4c0.2,0.3-0.1,1.4-0.5,1.8c0,0,1.8-0.7,2.6,1.3
		c-0.8-0.2-1.3-0.6-2.5-0.1c-0.7-1-0.4-1-1.9-2.6c-1.5-1.6-1.9-1.8-2.7-2.4c0.1-0.3,0.4-0.8-0.3-2.3c0.9,0.4,2,1.3,1.8,2.8
		c0.3-0.4,1.4-0.6,1.6-0.4c0.3,0.4,0.5,1.1,0,2C30.9,13,31.8,13.2,32,13.4z"/>
	<path fill="none" stroke="#1A171B" stroke-width="0.2298" stroke-miterlimit="3.8636" d="M32,13.4c0.2,0.3-0.1,1.4-0.5,1.8
		c0,0,1.8-0.7,2.6,1.3c-0.8-0.2-1.3-0.6-2.5-0.1c-0.7-1-0.4-1-1.9-2.6c-1.5-1.6-1.9-1.8-2.7-2.4c0.1-0.3,0.4-0.8-0.3-2.3
		c0.9,0.4,2,1.3,1.8,2.8c0.3-0.4,1.4-0.6,1.6-0.4c0.3,0.4,0.5,1.1,0,2C30.9,13,31.8,13.2,32,13.4z"/>
	<path fill-rule="evenodd" clip-rule="evenodd" fill="#FFE600" d="M27,11.3c0,0-0.6,0.8-0.6,0.8s2.6,1.4,4.5,4.7
		c0,0,0.8-0.4,0.8-0.4C30.8,14.4,29,12.7,27,11.3z"/>
	<path fill="none" stroke="#1A171B" stroke-width="0.2298" stroke-miterlimit="3.8636" d="M27,11.3c0,0-0.6,0.8-0.6,0.8
		s2.6,1.4,4.5,4.7c0,0,0.8-0.4,0.8-0.4C30.8,14.4,29,12.7,27,11.3z"/>
</g>
</svg>
