<?xml version="1.0" encoding="utf-8"?>
<!-- Generator: Adobe Illustrator 18.1.1, SVG Export Plug-In . SVG Version: 6.00 Build 0)  -->
<svg version="1.1" id="Ebene_1" xmlns="http://www.w3.org/2000/svg" xmlns:xlink="http://www.w3.org/1999/xlink" x="0px" y="0px"
	 viewBox="0 0 50 50" enable-background="new 0 0 50 50" xml:space="preserve">
<g>
	<rect x="0" fill="#FFFFFF" width="50" height="50"/>
	<g>
		<defs>
			<rect id="SVGID_59_" x="0" width="50" height="50"/>
		</defs>
		<clipPath id="SVGID_1_">
			<use xlink:href="#SVGID_59_"  overflow="visible"/>
		</clipPath>
		<polygon clip-path="url(#SVGID_1_)" fill-rule="evenodd" clip-rule="evenodd" fill="#00814A" points="50,50 0,50.1 0,0.1 		"/>
	</g>
	<rect x="0" fill="none" width="50" height="50"/>
	<path fill-rule="evenodd" clip-rule="evenodd" fill="#FFE600" d="M37.2,21.7c-2.7,0.5-1.8,2.9-1.7,3.4c-0.8,0.4-1.7-0.2-1.7-0.2
		s0.4,0.6,0.7,0.9c-0.9,0-1.7-0.6-1.7-0.6l0.5,0.6c-0.8,0.3-1.8-0.9-1.8-0.9c0,0.6,0.6,0.9,0.3,0.9c-1.4-0.5-2-1.6-2.8-1.8
		c-0.7-0.2-0.9-0.1-1.3,0c-0.7,0.2-1.5-1.5-2.5-1.9c-0.3-0.1-0.9,0.1-1.1-0.1c-0.2-0.3-0.2-0.7,0-0.9c0.2-0.2,0.8,0.2,0.8,0
		c0.1-0.3-0.6-0.1-0.7-0.4c-0.1-0.3,0.1-0.6,0.3-0.8c0.3-0.3,0.8,0.6,1,0.4c0.1-0.1-1-0.6-0.8-0.9c0.2-0.2,0.3-0.5,0.6-0.4
		c0.4,0,0.5,0.8,0.7,0.7c0.1-0.1-0.4-0.4-0.1-0.6c0.2-0.1,0.3-0.2,0.6-0.2c0.8-0.1,0.9,2.3,1.4,2.7c1.5,1.1,4.1,0.8,4.8-0.5
		c0,0-0.2-0.1-1.3,0.1c0.3-0.6,1.1-1,1.1-1s-0.5,0-1.2,0.2c1.5-2,5-1.7,5-1.7c0.9-0.1,1.7,0.5,1.9,1.3
		C38.6,20.7,38.1,21.5,37.2,21.7z"/>
	<path fill="none" stroke="#1A171B" stroke-width="0.2024" stroke-miterlimit="3.8636" d="M37.2,21.7c-2.7,0.5-1.8,2.9-1.7,3.4
		c-0.8,0.4-1.7-0.2-1.7-0.2s0.4,0.6,0.7,0.9c-0.9,0-1.7-0.6-1.7-0.6l0.5,0.6c-0.8,0.3-1.8-0.9-1.8-0.9c0,0.6,0.6,0.9,0.3,0.9
		c-1.4-0.5-2-1.6-2.8-1.8c-0.7-0.2-0.9-0.1-1.3,0c-0.7,0.2-1.5-1.5-2.5-1.9c-0.3-0.1-0.9,0.1-1.1-0.1c-0.2-0.3-0.2-0.7,0-0.9
		c0.2-0.2,0.8,0.2,0.8,0c0.1-0.3-0.6-0.1-0.7-0.4c-0.1-0.3,0.1-0.6,0.3-0.8c0.3-0.3,0.8,0.6,1,0.4c0.1-0.1-1-0.6-0.8-0.9
		c0.2-0.2,0.3-0.5,0.6-0.4c0.4,0,0.5,0.8,0.7,0.7c0.1-0.1-0.4-0.4-0.1-0.6c0.2-0.1,0.3-0.2,0.6-0.2c0.8-0.1,0.9,2.3,1.4,2.7
		c1.5,1.1,4.1,0.8,4.8-0.5c0,0-0.2-0.1-1.3,0.1c0.3-0.6,1.1-1,1.1-1s-0.5,0-1.2,0.2c1.5-2,5-1.7,5-1.7c0.9-0.1,1.7,0.5,1.9,1.3
		C38.6,20.7,38.1,21.5,37.2,21.7z"/>
	<path fill-rule="evenodd" clip-rule="evenodd" fill="#FFE600" d="M26.8,18.7c-0.6-0.8-1.3-0.6-1.3-0.6c0.5,0.4,0.6,0.8,0.6,0.8
		L26.8,18.7z"/>
	<path fill="none" stroke="#1A171B" stroke-width="0.2024" stroke-miterlimit="3.8636" d="M26.8,18.7c-0.6-0.8-1.3-0.6-1.3-0.6
		c0.5,0.4,0.6,0.8,0.6,0.8L26.8,18.7z"/>
	<path fill-rule="evenodd" clip-rule="evenodd" fill="#FFE600" d="M25.3,19c-0.7-0.5-1.2-0.1-1.2-0.1c0.5,0.2,0.7,0.5,0.7,0.5
		L25.3,19z"/>
	<path fill="none" stroke="#1A171B" stroke-width="0.2024" stroke-miterlimit="3.8636" d="M25.3,19c-0.7-0.5-1.2-0.1-1.2-0.1
		c0.5,0.2,0.7,0.5,0.7,0.5L25.3,19z"/>
	<path fill-rule="evenodd" clip-rule="evenodd" fill="#FFE600" d="M24.6,19.9c-1.1-0.4-1.3,0.3-1.3,0.3c0.7,0,1,0.3,1,0.3L24.6,19.9
		z"/>
	<path fill="none" stroke="#1A171B" stroke-width="0.2024" stroke-miterlimit="3.8636" d="M24.6,19.9c-1.1-0.4-1.3,0.3-1.3,0.3
		c0.7,0,1,0.3,1,0.3L24.6,19.9z"/>
	<path fill-rule="evenodd" clip-rule="evenodd" fill="#FFE600" d="M24.1,21.1c-0.8-0.1-0.9,0.7-0.9,0.7c0.6-0.3,0.8-0.1,0.8-0.1
		L24.1,21.1z"/>
	<path fill="none" stroke="#1A171B" stroke-width="0.2024" stroke-miterlimit="3.8636" d="M24.1,21.1c-0.8-0.1-0.9,0.7-0.9,0.7
		c0.6-0.3,0.8-0.1,0.8-0.1L24.1,21.1z"/>
	<path fill-rule="evenodd" clip-rule="evenodd" fill="#FFE600" d="M24.5,12.7c-1.5-0.2-3.3,0.1-4.9-0.2c-1.5-0.3-2.7-1.1-2.6-1.7
		c0-0.1,0.2-0.3,0.3-0.6c0.1-0.4,0.1-0.8,0-0.9c-0.3-0.2-0.8-0.1-0.9,0c-0.1,0.2,0.2,0.5,0.1,0.5c-0.2,0.1-0.2-0.7-0.6-0.6
		c-0.3,0-0.6,0.3-0.7,0.4c-0.1,0.3,0.6,0.5,0.4,0.6c-0.2,0.1-0.4-0.4-0.7-0.3c-0.2,0.1-0.4,0.4-0.5,0.7c-0.1,0.4,0.9,0.4,0.7,0.6
		c-0.1,0.3-0.6-0.3-0.9-0.1c-0.3,0.2-0.4,0.6-0.3,0.9c0.1,0.5,1,0.1,1.3,0.4c0.3,0.4,0.3,1.3,0.8,1.7c0.6,0.5,1.7,0.3,2.7,0.7
		c0.8,0.3,0.6,0.8,1.8,1c0,0-0.4-0.5-0.4-0.8c0.4,0.1,1,1.1,1.8,1c0,0-0.4-0.5-0.4-0.8c0.3,0.2,0.7,0.8,1.6,1c0,0-0.3-0.6-0.3-0.8
		c0,0,1.8,1.5,3.7,1.3c0,0,1.1-0.1,1.8-0.1c0.9,0.1,1.3,0.5,2.4,0.6c1.9,0.4,5.4-0.2,6.7,2.3c0.8,1.6-2.6,4.9-0.2,7.1
		c0,0,0.1-1.1,0.6-1.1c0,0-0.5,1.5,0.3,2.1c0,0-0.1-0.6,0.3-1c0,0-0.2,1.6,0.7,2.1c0,0,0-0.5,0.3-0.8c0.3,1.5,1.1,1.8,1.1,2.1
		c0.3,1.3,0.4,3.2-0.2,3.3c-1.3,0.3-1.1-3-1.9-2.3c-0.2,0.2-0.5,0.3-0.5,0.6c0,0.2,0.6,0.3,0.4,0.4c-0.2,0.1-0.3-0.1-0.5-0.1
		c-0.3,0-0.5,0.7-0.3,1c0.1,0.2,1-0.2,1,0.2c0,0.3-0.6,0-0.6,0.3c0,0.2,0.1,0.5,0.3,0.7c0.4,0.3,0.9-0.6,1-0.2
		c0.1,0.3-0.6,0.3-0.6,0.7c0,0.3,0.2,0.5,0.5,0.7c0.2,0.1,0.5-0.4,1-0.1c1,0.4,1.4,1.4,2.4,1.2c1.1-0.2,0.3-3.5,0.8-4
		c0.5-0.5,0.9-1,1-1.6c0,0-0.4,0.3-0.8,0.3c0,0,0.9-0.7,0.9-1.5c0,0-0.5,0.6-1.1,0.7c0,0,1-0.9,1-1.6c0,0-0.7,0.7-1.3,0.7
		c0.7-0.5,1.3-1,1.1-1.8c-0.2-0.9-2.2-0.7-2.7-1.5c-0.7-1.4,0.6-3.8-0.5-5.7c1.3,0.7,2.1,0,2.4-0.5c1.3-2.2-2.7-5-2.6-6.7
		c0.1-0.8,2.8-1.2,1.4-2.7c-0.1,1.1-1.8,0.9-2.5,2.3c-0.7-1.9,2.7-1.5,1.3-3.3c-0.4,1.3-1.6,0.5-2.3,2.1c-1.3-1.3,2.2-1.7,0.8-3.3
		c0.1,0.9-1.8,0.9-2,2c-3.4-5.3,1.9-9.2,2.9-6.8c0.3,0.7-1,1.3-1.8,0.7c-0.8,1.6,1.6,1.5,2,0.9c-1.8,4.2,3.4,3.8,2.8,1.5
		C43.7,6.8,43.4,7,43.1,7c-1.3-0.3-0.2-1.5,0-2.3c2,1.1,2.5-0.8,1.8-1.5c-0.4,0.8-0.5,0.7-0.9,0.8c-0.7,0.1-1.1-3.3-5.8-1.4
		c-2.2,0.9-2.7,4-2.3,5.7c0.8,3.8,8.7,9.5,6.5,11.6c0,0-0.6,0.2-1-0.2c-0.3-0.3-0.6-0.7-1.1-1.1c-1.8-1.4-4.1-4.1-4.3-5.5l-2.1-1.6
		L25.2,11c-1.7-1.2-5-4.7-4.8-5.4c0.1-0.3,0.5-2.5,0-2.5c-0.4-0.1-0.7,0.1-0.9,0.3C19.3,3.5,19.8,4,19.5,4c-0.3,0.1-0.2-0.7-0.5-0.7
		c-0.2,0-0.6,0-0.8,0.3c-0.2,0.2,0.3,0.5,0.1,0.6c-0.4,0.2-0.4-0.6-0.8-0.6c-0.4,0-0.7,0.5-0.7,0.7c0,0.2,0.5,0.4,0.4,0.5
		c-0.1,0.1-0.4-0.1-0.6-0.1c-0.3,0.1-0.3,0.6-0.1,0.8c0.1,0.2,0.8-0.1,1,0.2c0.1,0.1,0,0.2,0.1,0.3c0.3,0.5,0.6,0.7,0.9,1.1
		c0.2,0.4,0.2,0.6,0.4,1c0.1,0.2,0.2,0.2,0.4,0.4c0.9,0.7,0.4,2.1,1.3,2.6l0.1-0.7c0.2,1.3,0.7,1.6,0.7,1.6l0-0.9
		c0.3,1.1,0.7,1.3,0.7,1.3l0.1-0.5l0.5,0.7L24.5,12.7z"/>
	<path fill="none" stroke="#1A171B" stroke-width="0.2024" stroke-miterlimit="3.8636" d="M24.5,12.7c-1.5-0.2-3.3,0.1-4.9-0.2
		c-1.5-0.3-2.7-1.1-2.6-1.7c0-0.1,0.2-0.3,0.3-0.6c0.1-0.4,0.1-0.8,0-0.9c-0.3-0.2-0.8-0.1-0.9,0c-0.1,0.2,0.2,0.5,0.1,0.5
		c-0.2,0.1-0.2-0.7-0.6-0.6c-0.3,0-0.6,0.3-0.7,0.4c-0.1,0.3,0.6,0.5,0.4,0.6c-0.2,0.1-0.4-0.4-0.7-0.3c-0.2,0.1-0.4,0.4-0.5,0.7
		c-0.1,0.4,0.9,0.4,0.7,0.6c-0.1,0.3-0.6-0.3-0.9-0.1c-0.3,0.2-0.4,0.6-0.3,0.9c0.1,0.5,1,0.1,1.3,0.4c0.3,0.4,0.3,1.3,0.8,1.7
		c0.6,0.5,1.7,0.3,2.7,0.7c0.8,0.3,0.6,0.8,1.8,1c0,0-0.4-0.5-0.4-0.8c0.4,0.1,1,1.1,1.8,1c0,0-0.4-0.5-0.4-0.8
		c0.3,0.2,0.7,0.8,1.6,1c0,0-0.3-0.6-0.3-0.8c0,0,1.8,1.5,3.7,1.3c0,0,1.1-0.1,1.8-0.1c0.9,0.1,1.3,0.5,2.4,0.6
		c1.9,0.4,5.4-0.2,6.7,2.3c0.8,1.6-2.6,4.9-0.2,7.1c0,0,0.1-1.1,0.6-1.1c0,0-0.5,1.5,0.3,2.1c0,0-0.1-0.6,0.3-1c0,0-0.2,1.6,0.7,2.1
		c0,0,0-0.5,0.3-0.8c0.3,1.5,1.1,1.8,1.1,2.1c0.3,1.3,0.4,3.2-0.2,3.3c-1.3,0.3-1.1-3-1.9-2.3c-0.2,0.2-0.5,0.3-0.5,0.6
		c0,0.2,0.6,0.3,0.4,0.4c-0.2,0.1-0.3-0.1-0.5-0.1c-0.3,0-0.5,0.7-0.3,1c0.1,0.2,1-0.2,1,0.2c0,0.3-0.6,0-0.6,0.3
		c0,0.2,0.1,0.5,0.3,0.7c0.4,0.3,0.9-0.6,1-0.2c0.1,0.3-0.6,0.3-0.6,0.7c0,0.3,0.2,0.5,0.5,0.7c0.2,0.1,0.5-0.4,1-0.1
		c1,0.4,1.4,1.4,2.4,1.2c1.1-0.2,0.3-3.5,0.8-4c0.5-0.5,0.9-1,1-1.6c0,0-0.4,0.3-0.8,0.3c0,0,0.9-0.7,0.9-1.5c0,0-0.5,0.6-1.1,0.7
		c0,0,1-0.9,1-1.6c0,0-0.7,0.7-1.3,0.7c0.7-0.5,1.3-1,1.1-1.8c-0.2-0.9-2.2-0.7-2.7-1.5c-0.7-1.4,0.6-3.8-0.5-5.7
		c1.3,0.7,2.1,0,2.4-0.5c1.3-2.2-2.7-5-2.6-6.7c0.1-0.8,2.8-1.2,1.4-2.7c-0.1,1.1-1.8,0.9-2.5,2.3c-0.7-1.9,2.7-1.5,1.3-3.3
		c-0.4,1.3-1.6,0.5-2.3,2.1c-1.3-1.3,2.2-1.7,0.8-3.3c0.1,0.9-1.8,0.9-2,2c-3.4-5.3,1.9-9.2,2.9-6.8c0.3,0.7-1,1.3-1.8,0.7
		c-0.8,1.6,1.6,1.5,2,0.9c-1.8,4.2,3.4,3.8,2.8,1.5C43.7,6.8,43.4,7,43.1,7c-1.3-0.3-0.2-1.5,0-2.3c2,1.1,2.5-0.8,1.8-1.5
		c-0.4,0.8-0.5,0.7-0.9,0.8c-0.7,0.1-1.1-3.3-5.8-1.4c-2.2,0.9-2.7,4-2.3,5.7c0.8,3.8,8.7,9.5,6.5,11.6c0,0-0.6,0.2-1-0.2
		c-0.3-0.3-0.6-0.7-1.1-1.1c-1.8-1.4-4.1-4.1-4.3-5.5l-2.1-1.6L25.2,11c-1.7-1.2-5-4.7-4.8-5.4c0.1-0.3,0.5-2.5,0-2.5
		c-0.4-0.1-0.7,0.1-0.9,0.3C19.3,3.5,19.8,4,19.5,4c-0.3,0.1-0.2-0.7-0.5-0.7c-0.2,0-0.6,0-0.8,0.3c-0.2,0.2,0.3,0.5,0.1,0.6
		c-0.4,0.2-0.4-0.6-0.8-0.6c-0.4,0-0.7,0.5-0.7,0.7c0,0.2,0.5,0.4,0.4,0.5c-0.1,0.1-0.4-0.1-0.6-0.1c-0.3,0.1-0.3,0.6-0.1,0.8
		c0.1,0.2,0.8-0.1,1,0.2c0.1,0.1,0,0.2,0.1,0.3c0.3,0.5,0.6,0.7,0.9,1.1c0.2,0.4,0.2,0.6,0.4,1c0.1,0.2,0.2,0.2,0.4,0.4
		c0.9,0.7,0.4,2.1,1.3,2.6l0.1-0.7c0.2,1.3,0.7,1.6,0.7,1.6l0-0.9c0.3,1.1,0.7,1.3,0.7,1.3l0.1-0.5l0.5,0.7L24.5,12.7z"/>
	<path fill="none" stroke="#1A171B" stroke-width="0.2024" stroke-miterlimit="3.8636" d="M17.5,5.7c0-0.6,0.3-0.8,0.8-1
		c0.4-0.2,0.9-0.5,1.3-0.2c0.5,0.4,0.3,1.2,0.3,2c0,0.7,0.1,1.6-0.1,1.7c-0.2,0.1-0.3,0.2-0.6,0.1"/>
	<path fill-rule="evenodd" clip-rule="evenodd" fill="#FFE600" d="M17.2,9.4c-0.3-1.3-1.3-1-1.3-1c0.6,0.5,0.6,0.9,0.6,0.9L17.2,9.4
		z"/>
	<path fill="none" stroke="#1A171B" stroke-width="0.2024" stroke-miterlimit="3.8636" d="M17.2,9.4c-0.3-1.3-1.3-1-1.3-1
		c0.6,0.5,0.6,0.9,0.6,0.9L17.2,9.4z"/>
	<path fill-rule="evenodd" clip-rule="evenodd" fill="#FFE600" d="M15.6,9.3c-0.8-0.8-1.4-0.1-1.4-0.1c0.7,0.1,0.9,0.4,0.9,0.4
		L15.6,9.3z"/>
	<path fill="none" stroke="#1A171B" stroke-width="0.2024" stroke-miterlimit="3.8636" d="M15.6,9.3c-0.8-0.8-1.4-0.1-1.4-0.1
		c0.7,0.1,0.9,0.4,0.9,0.4L15.6,9.3z"/>
	<path fill-rule="evenodd" clip-rule="evenodd" fill="#FFE600" d="M14.8,10.1c-0.9-0.5-1.4,0.2-1.4,0.2c0.8,0,1,0.3,1,0.3L14.8,10.1
		z"/>
	<path fill="none" stroke="#1A171B" stroke-width="0.2024" stroke-miterlimit="3.8636" d="M14.8,10.1c-0.9-0.5-1.4,0.2-1.4,0.2
		c0.8,0,1,0.3,1,0.3L14.8,10.1z"/>
	<path fill-rule="evenodd" clip-rule="evenodd" fill="#FFE600" d="M14.1,11.3C13,11.1,13,11.9,13,11.9c0.7-0.1,0.9,0,0.9,0
		L14.1,11.3z"/>
	<path fill="none" stroke="#1A171B" stroke-width="0.2024" stroke-miterlimit="3.8636" d="M14.1,11.3C13,11.1,13,11.9,13,11.9
		c0.7-0.1,0.9,0,0.9,0L14.1,11.3z"/>
	<path fill-rule="evenodd" clip-rule="evenodd" fill="#FFE600" d="M17.3,3.7c-0.8-0.7-1.4,0-1.4,0c0.8,0.1,1,0.5,1,0.5L17.3,3.7z"/>
	<path fill="none" stroke="#1A171B" stroke-width="0.2024" stroke-miterlimit="3.8636" d="M17.3,3.7c-0.8-0.7-1.4,0-1.4,0
		c0.8,0.1,1,0.5,1,0.5L17.3,3.7z"/>
	<path fill-rule="evenodd" clip-rule="evenodd" fill="#FFE600" d="M16.5,4.8L16.5,4.8c-1.3,0-1.1,0.9-1.1,0.9c0.7-0.4,1-0.3,1-0.3
		L16.5,4.8z"/>
	<path fill="none" stroke="#1A171B" stroke-width="0.2024" stroke-miterlimit="3.8636" d="M16.5,4.8L16.5,4.8
		c-1.3,0-1.1,0.9-1.1,0.9c0.7-0.4,1-0.3,1-0.3L16.5,4.8z"/>
	<path fill="none" stroke="#1A171B" stroke-width="0.2024" stroke-miterlimit="3.8636" d="M25.4,22.1c-0.3-0.4,0-0.6,0.2-1.1
		c0.2-0.6,0.4-1.1,0.8-0.9c0.5,0.3,0.4,0.9,0.8,1.4c0.4,0.6,1.8,1.7,0.6,2.3"/>
	<path fill-rule="evenodd" clip-rule="evenodd" fill="#FFE600" d="M37.8,32.5c-0.8,0.1-0.8,1-0.8,1c0.5-0.5,0.8-0.4,0.8-0.4
		L37.8,32.5z"/>
	<path fill="none" stroke="#1A171B" stroke-width="0.2024" stroke-miterlimit="3.8636" d="M37.8,32.5c-0.8,0.1-0.8,1-0.8,1
		c0.5-0.5,0.8-0.4,0.8-0.4L37.8,32.5z"/>
	<path fill-rule="evenodd" clip-rule="evenodd" fill="#FFE600" d="M38.1,33.8c-0.9,0.4-0.7,1.2-0.7,1.2c0.5-0.6,1-0.6,1-0.6
		L38.1,33.8z"/>
	<path fill="none" stroke="#1A171B" stroke-width="0.2024" stroke-miterlimit="3.8636" d="M38.1,33.8c-0.9,0.4-0.7,1.2-0.7,1.2
		c0.5-0.6,1-0.6,1-0.6L38.1,33.8z"/>
	<path fill-rule="evenodd" clip-rule="evenodd" fill="#FFE600" d="M38.9,34.9c-0.6,0.4-0.4,1.1-0.4,1.1c0.4-0.5,0.9-0.5,0.9-0.5
		L38.9,34.9z"/>
	<path fill="none" stroke="#1A171B" stroke-width="0.2024" stroke-miterlimit="3.8636" d="M38.9,34.9c-0.6,0.4-0.4,1.1-0.4,1.1
		c0.4-0.5,0.9-0.5,0.9-0.5L38.9,34.9z"/>
	<path fill-rule="evenodd" clip-rule="evenodd" fill="#FFE600" d="M38.7,31.2c-1.2-0.5-1.6,0.2-1.6,0.2c0.7,0.1,1,0.3,1,0.3
		L38.7,31.2z"/>
	<path fill="none" stroke="#1A171B" stroke-width="0.2024" stroke-miterlimit="3.8636" d="M38.7,31.2c-1.2-0.5-1.6,0.2-1.6,0.2
		c0.7,0.1,1,0.3,1,0.3L38.7,31.2z"/>
	<path fill="none" stroke="#1A171B" stroke-width="2.916772e-02" stroke-miterlimit="3.8637" d="M37.8,32.5
		c-0.8,0.1-0.8,1.1-0.8,1.1c0.4-0.4,0.8-0.4,0.8-0.4"/>
	<path fill="none" stroke="#1A171B" stroke-width="0.2024" stroke-miterlimit="3.8636" d="M41,5.1c0,0,0.3-0.3,0.4-0.7"/>
	<path fill="none" stroke="#1A171B" stroke-width="0.2024" stroke-miterlimit="3.8636" d="M43.1,4.6c0-0.9-0.7-1.3-0.7-1.3"/>
	<path fill-rule="evenodd" clip-rule="evenodd" fill="#FFE600" d="M28.3,10.3c-0.7,1.5-3.6-0.7-4.6,2.1c0.4-0.5,1.7-0.6,1.7-0.6
		c-1.4,0.6-1.5,2-1.5,2c0.6-0.8,1.7-0.9,2-1.1c-0.7,0.5-0.6,1.5-1.7,1.9c1.1,0.5,2.3-0.7,2.3-0.7s-0.3,1.3-1.3,1.7
		c1.4,0.2,2.3-0.7,2.3-0.7s0.2,1.2-1.1,2.2c1.5,0.1,2.1-1.2,2.1-1.2c0.3,0.7-0.2,2-0.2,2c1-0.3,1.8-1.7,1.8-2.1c0.4,0.7,0,2,0,2
		c1.4-0.7,1.7-2.3,1.7-2.3c0.4,0.8,0.3,2,0.3,2c1.2-0.7,1.5-2.9,1.5-2.9c0.4,0.8,0.5,1.5,0.5,1.5c1.2-1.3,0.6-3.6,0.6-3.6
		c0.4,0.2,1,1.5,1,1.5c0.5-1.3-0.5-2.9-0.5-2.9c0.4,0,1.1,0.6,1.1,0.6c-0.5-1.3-2-2.1-2.1-2.3c0.7,0,1.2,0.2,1.2,0.2
		c-0.8-0.6-0.6-2.2-2-3.1c0.5-1.1,0.1-1.8,0.1-1.8C32.9,4.4,32.3,5,32.3,5c0-0.3,0.1-0.9,0-1.2c-0.6,0.1-1.2,0.7-1.4,0.9
		c-0.8-0.1-2.1,0.1-2.1,0.1l-0.5,0.4c-1.1,0.1-2.1,0.5-2.1,0.5c-0.3,0.3,0.2,0.5,0.2,0.5c-0.2,0.2-0.2,0.5-0.1,0.7
		c0.3,0.3,1.5-0.4,2.2,0.1c0.8,0.6,0.8,2.1,0.6,2.4c-0.2,0.4-1.8-0.3-2.3,0.1c-0.1,0.1-0.2,1,0.3,0.8C27.6,10.2,27.6,10.3,28.3,10.3
		z"/>
	<path fill="none" stroke="#1A171B" stroke-width="0.2024" stroke-miterlimit="3.8636" d="M28.3,10.3c-0.7,1.5-3.6-0.7-4.6,2.1
		c0.4-0.5,1.7-0.6,1.7-0.6c-1.4,0.6-1.5,2-1.5,2c0.6-0.8,1.7-0.9,2-1.1c-0.7,0.5-0.6,1.5-1.7,1.9c1.1,0.5,2.3-0.7,2.3-0.7
		s-0.3,1.3-1.3,1.7c1.4,0.2,2.3-0.7,2.3-0.7s0.2,1.2-1.1,2.2c1.5,0.1,2.1-1.2,2.1-1.2c0.3,0.7-0.2,2-0.2,2c1-0.3,1.8-1.7,1.8-2.1
		c0.4,0.7,0,2,0,2c1.4-0.7,1.7-2.3,1.7-2.3c0.4,0.8,0.3,2,0.3,2c1.2-0.7,1.5-2.9,1.5-2.9c0.4,0.8,0.5,1.5,0.5,1.5
		c1.2-1.3,0.6-3.6,0.6-3.6c0.4,0.2,1,1.5,1,1.5c0.5-1.3-0.5-2.9-0.5-2.9c0.4,0,1.1,0.6,1.1,0.6c-0.5-1.3-2-2.1-2.1-2.3
		c0.7,0,1.2,0.2,1.2,0.2c-0.8-0.6-0.6-2.2-2-3.1c0.5-1.1,0.1-1.8,0.1-1.8C32.9,4.4,32.3,5,32.3,5c0-0.3,0.1-0.9,0-1.2
		c-0.6,0.1-1.2,0.7-1.4,0.9c-0.8-0.1-2.1,0.1-2.1,0.1l-0.5,0.4c-1.1,0.1-2.1,0.5-2.1,0.5c-0.3,0.3,0.2,0.5,0.2,0.5
		c-0.2,0.2-0.2,0.5-0.1,0.7c0.3,0.3,1.5-0.4,2.2,0.1c0.8,0.6,0.8,2.1,0.6,2.4c-0.2,0.4-1.8-0.3-2.3,0.1c-0.1,0.1-0.2,1,0.3,0.8
		C27.6,10.2,27.6,10.3,28.3,10.3z"/>
	<path fill="none" stroke="#1A171B" stroke-width="0.2024" stroke-miterlimit="3.8636" d="M33.3,5.1c-0.1,0.5-0.6,0.8-0.6,0.8"/>
	<path fill="none" stroke="#1A171B" stroke-width="0.2024" stroke-miterlimit="3.8636" d="M33.5,6.3c-0.1,0.2-0.3,0.3-0.3,0.3"/>
	<path fill="none" stroke="#1A171B" stroke-width="0.2024" stroke-miterlimit="3.8636" d="M30.8,4.7c0.7,0.1,1.3,0.4,1.3,0.4"/>
	
		<line fill="none" stroke="#1A171B" stroke-width="2.916772e-02" stroke-miterlimit="3.8637" x1="30.7" y1="17.3" x2="30.7" y2="17.3"/>
	<path fill="none" stroke="#1A171B" stroke-width="0.2024" stroke-miterlimit="3.8636" d="M28.3,10.3c3,0.1,3.4-1,3.4-1"/>
	
		<path fill="none" stroke="#1A171B" stroke-width="0.2024" stroke-linecap="round" stroke-linejoin="round" stroke-miterlimit="3.8636" d="
		M26.5,7c-0.1,0.6,0.4,0.9,0.4,0.9c-0.1-0.5,0.4-1.1,0.4-1.1c0.2,1,0.6,0.9,0.6,0.9C27.8,7.2,28.4,7,28.4,7"/>
	
		<path fill="none" stroke="#1A171B" stroke-width="0.2024" stroke-linecap="round" stroke-linejoin="round" stroke-miterlimit="3.8636" d="
		M26.9,9.4c-0.1-0.6,0.3-0.8,0.3-0.8c0.1,0.6,0.5,0.8,0.5,0.8c-0.2-0.5,0.4-0.8,0.4-0.8c0.2,0.8,0.6,0.9,0.6,0.9"/>
	<path fill="none" stroke="#1A171B" stroke-width="0.2024" stroke-miterlimit="3.8636" d="M32.3,5c-0.4,0.3-0.6,0.7-0.6,0.7"/>
	<path fill-rule="evenodd" clip-rule="evenodd" fill="#FFE600" d="M19.8,42.6c-0.3,0-0.6,0.5-0.6,0.5c-0.1-0.5,0.5-1.3,0.5-1.3
		c-0.4,0.1-0.8,0.8-0.8,0.8c-0.2-0.7,0.5-1.4,0.5-1.4c-0.6,0.2-0.9,0.9-0.9,0.9c-0.4-2.7,3.6-3.6,3.6-3.6c0,0,2.8-0.6,3.8,0.5
		c0.2,0.2,0.6,1.9,0.6,1.9c-0.8-0.1-2.3,0.2-2.7,1.4c-0.4,1.4,0.3,2.2,1.3,2.5c-0.4,0.5-1.6,0.5-1.6,0.5c0.5,0.4,1.4,0.2,1.4,0.2
		c-0.4,0.6-1.9,0.7-1.9,0.7c0.4,0.3,1,0.3,1,0.3c-0.5,0.5-1.8,0.5-1.8,0.5c0.4,0.3,1.2,0.5,1.2,0.5c-2.3,1.4-4.9-0.9-6-1
		c-0.1,0.1-0.2,0.2-0.4,0.2c-0.3,0.1-1-0.2-1.6-0.2c-0.6,0-1.7,0.2-2.1-0.4c-0.4,0.1-0.8,0.3-1,0.2c-0.2-0.2-0.5-0.5-0.4-0.8
		c0.1-0.3,0.7-0.1,0.6-0.4c-0.1-0.2-0.7,0.2-0.9,0c-0.3-0.3-0.3-0.7-0.1-1c0.2-0.3,0.8,0.1,0.9-0.1c0.2-0.4-0.7-0.2-0.8-0.5
		c-0.1-0.4,0.4-0.8,0.7-0.8c0.3-0.1,0.5,0.6,0.7,0.5c0.2-0.1-0.1-0.3-0.1-0.5c0.1-0.3,0.5-0.3,0.8-0.4c0.5-0.1,1.1,2.2,3.5,2.5
		c0.5,0.1,2-0.3,2.3-0.8C19.8,43.6,19.5,43.5,19.8,42.6z"/>
	<path fill="none" stroke="#1A171B" stroke-width="0.2024" stroke-miterlimit="3.8636" d="M19.8,42.6c-0.3,0-0.6,0.5-0.6,0.5
		c-0.1-0.5,0.5-1.3,0.5-1.3c-0.4,0.1-0.8,0.8-0.8,0.8c-0.2-0.7,0.5-1.4,0.5-1.4c-0.6,0.2-0.9,0.9-0.9,0.9c-0.4-2.7,3.6-3.6,3.6-3.6
		c0,0,2.8-0.6,3.8,0.5c0.2,0.2,0.6,1.9,0.6,1.9c-0.8-0.1-2.3,0.2-2.7,1.4c-0.4,1.4,0.3,2.2,1.3,2.5c-0.4,0.5-1.6,0.5-1.6,0.5
		c0.5,0.4,1.4,0.2,1.4,0.2c-0.4,0.6-1.9,0.7-1.9,0.7c0.4,0.3,1,0.3,1,0.3c-0.5,0.5-1.8,0.5-1.8,0.5c0.4,0.3,1.2,0.5,1.2,0.5
		c-2.3,1.4-4.9-0.9-6-1c-0.1,0.1-0.2,0.2-0.4,0.2c-0.3,0.1-1-0.2-1.6-0.2c-0.6,0-1.7,0.2-2.1-0.4c-0.4,0.1-0.8,0.3-1,0.2
		c-0.2-0.2-0.5-0.5-0.4-0.8c0.1-0.3,0.7-0.1,0.6-0.4c-0.1-0.2-0.7,0.2-0.9,0c-0.3-0.3-0.3-0.7-0.1-1c0.2-0.3,0.8,0.1,0.9-0.1
		c0.2-0.4-0.7-0.2-0.8-0.5c-0.1-0.4,0.4-0.8,0.7-0.8c0.3-0.1,0.5,0.6,0.7,0.5c0.2-0.1-0.1-0.3-0.1-0.5c0.1-0.3,0.5-0.3,0.8-0.4
		c0.5-0.1,1.1,2.2,3.5,2.5c0.5,0.1,2-0.3,2.3-0.8C19.8,43.6,19.5,43.5,19.8,42.6z"/>
	<path fill="none" stroke="#1A171B" stroke-width="0.2024" stroke-miterlimit="3.8636" d="M13.3,46.1c-0.5-0.7-0.3-2.4,0.1-2.4
		c0.5,0,1.2,0.9,2,1.4c0.5,0.2,1.8,0.4,2.1,1.1c0.1,0.1,0,0.2,0,0.4"/>
	<path fill-rule="evenodd" clip-rule="evenodd" fill="#FFE600" d="M20.1,32l-5.2,5c7,3.6,9.7,1.1,10.8,1.8c0.9,0.7,0.3,1.9,1.4,3.5
		c0.6,0.8,1.1,1.1,1.5,1.2c0,0-0.5-0.4-0.5-0.9c0.6,0.8,1.7,0.8,1.7,0.8c-0.6-0.5-0.8-1-0.8-1c0.9,0.7,1.7,0.5,1.7,0.5
		c-0.2-0.1-0.6-0.5-0.8-1c2.1,1.6,2.8,0,4.8,1.2c0.7,0.4,0.3,1.2,0,1.2c-0.5,0-1-0.9-1.3-0.7c-0.2,0.2-0.4,0.5-0.3,0.7
		c0.1,0.3,0.8,0,0.8,0.2c0,0.3-0.6,0-0.7,0.2c-0.2,0.3,0.1,0.7,0.4,0.8c0.3,0,0.4-0.5,0.7-0.4c0.2,0.1-0.3,0.5-0.2,0.7
		c0.1,0.2,0.7,0.5,0.9,0.4c0.3-0.1,0.2-0.7,0.4-0.6c0.3,0.1-0.3,0.6,0,0.8c0.3,0.2,0.8,0.1,1,0c0.3-0.2-0.3-0.7,0-1
		c0.2-0.2,0.5,0.2,1.3-0.7c0.3-0.3,0-2.7-1.1-3.9c-0.3-0.3-3.5-0.1-5.5-0.9c-1.7-0.7-1.6-1.1-2.1-2c1.5,1.4,4.1,1.8,4.8,0.1
		c0.9-2.2-2.3-3.3-2.4-3.5c-0.1-0.2,0.4-1.3-0.5-1.6c0,0.7-0.7,0.7-0.2,1.6c-1.4-0.5,0.5-1.6-0.7-2.6c0.2,1-0.9,1.2-0.5,2.3
		c-1.2-0.7,0.8-2.1-1-2.9c0.7,1.1-1.1,1.7,0,2.8c-1.3-0.6-3.6-0.3-4.7-1.1c-1.3-0.8-1.3-2.5-0.2-2.5c0.4,0,0.9,0.7-0.1,1.2
		c0.6,1.1,1.6,0.2,1.6,0.2c1.3,2.2,2.9,0.2,2.5-0.5c-0.2,0.2-0.4,0.4-0.9,0.5c-0.5,0.1-0.4-1.3-1.4-1.7c2.3,0.6,1.3-1.7,0.9-1.6
		c-0.1,0.6-0.2,0.8-0.5,1c-0.5,0.3-1.6-1.4-3.4,0c-1.6,1.2,0,4.3,1.9,4.7c3.7,0.9,9.8,1.1,8.6,3.5c-0.4,0.9-1.8,0.6-2.9,0.1
		c-0.6-0.3-1.2-1.3-2.2-2c-1.7-1.2-3.3-0.5-5.1-1.6C21.5,33.6,20.8,33.1,20.1,32z"/>
	<path fill="none" stroke="#1A171B" stroke-width="0.2024" stroke-miterlimit="3.8636" d="M20.1,32l-5.2,5c7,3.6,9.7,1.1,10.8,1.8
		c0.9,0.7,0.3,1.9,1.4,3.5c0.6,0.8,1.1,1.1,1.5,1.2c0,0-0.5-0.4-0.5-0.9c0.6,0.8,1.7,0.8,1.7,0.8c-0.6-0.5-0.8-1-0.8-1
		c0.9,0.7,1.7,0.5,1.7,0.5c-0.2-0.1-0.6-0.5-0.8-1c2.1,1.6,2.8,0,4.8,1.2c0.7,0.4,0.3,1.2,0,1.2c-0.5,0-1-0.9-1.3-0.7
		c-0.2,0.2-0.4,0.5-0.3,0.7c0.1,0.3,0.8,0,0.8,0.2c0,0.3-0.6,0-0.7,0.2c-0.2,0.3,0.1,0.7,0.4,0.8c0.3,0,0.4-0.5,0.7-0.4
		c0.2,0.1-0.3,0.5-0.2,0.7c0.1,0.2,0.7,0.5,0.9,0.4c0.3-0.1,0.2-0.7,0.4-0.6c0.3,0.1-0.3,0.6,0,0.8c0.3,0.2,0.8,0.1,1,0
		c0.3-0.2-0.3-0.7,0-1c0.2-0.2,0.5,0.2,1.3-0.7c0.3-0.3,0-2.7-1.1-3.9c-0.3-0.3-3.5-0.1-5.5-0.9c-1.7-0.7-1.6-1.1-2.1-2
		c1.5,1.4,4.1,1.8,4.8,0.1c0.9-2.2-2.3-3.3-2.4-3.5c-0.1-0.2,0.4-1.3-0.5-1.6c0,0.7-0.7,0.7-0.2,1.6c-1.4-0.5,0.5-1.6-0.7-2.6
		c0.2,1-0.9,1.2-0.5,2.3c-1.2-0.7,0.8-2.1-1-2.9c0.7,1.1-1.1,1.7,0,2.8c-1.3-0.6-3.6-0.3-4.7-1.1c-1.3-0.8-1.3-2.5-0.2-2.5
		c0.4,0,0.9,0.7-0.1,1.2c0.6,1.1,1.6,0.2,1.6,0.2c1.3,2.2,2.9,0.2,2.5-0.5c-0.2,0.2-0.4,0.4-0.9,0.5c-0.5,0.1-0.4-1.3-1.4-1.7
		c2.3,0.6,1.3-1.7,0.9-1.6c-0.1,0.6-0.2,0.8-0.5,1c-0.5,0.3-1.6-1.4-3.4,0c-1.6,1.2,0,4.3,1.9,4.7c3.7,0.9,9.8,1.1,8.6,3.5
		c-0.4,0.9-1.8,0.6-2.9,0.1c-0.6-0.3-1.2-1.3-2.2-2c-1.7-1.2-3.3-0.5-5.1-1.6C21.5,33.6,20.8,33.1,20.1,32z"/>
	<path fill="none" stroke="#1A171B" stroke-width="0.2024" stroke-miterlimit="3.8636" d="M25,32c-0.1,0-0.2-1.1-0.6-1.4"/>
	<line fill="none" stroke="#1A171B" stroke-width="0.2024" stroke-miterlimit="3.8636" x1="25.3" y1="30.3" x2="24.9" y2="30"/>
	<path fill-rule="evenodd" clip-rule="evenodd" fill="#FFE600" d="M10.3,28.4c0,0,0.3-6.9,2.9-9.6c0.2-0.2,0.8,0.3,1-0.4
		c0.1-0.2-0.3-0.6-0.6-0.5c-0.2,0-0.3,0.3-0.5,0.3c-0.2,0,0.3-0.4,0.3-0.7c0-0.2-0.7-0.5-1-0.3c-0.1,0.1-0.1,0.7-0.3,0.6
		c-0.3-0.1,0.1-0.7-0.1-0.8c-0.1-0.1-0.7-0.1-0.9,0.1c-0.2,0.2,0.3,0.7,0,0.8c-0.3,0-0.1-0.6-0.4-0.7c-0.1,0-0.5,0.1-0.7,0.3
		c-0.1,0.2,0.4,0.7,0.4,0.8c-0.2,0.2-0.3,0.2-0.4,0.4c-0.3,0.4,0,0.7-0.1,1.1c-0.1,0.5-0.6,0.8-0.5,1.1c0,0.1,0,0.1,0.1,0.2
		C8.9,22.6,8,23,8,23c0.3,0.1,1-0.2,1-0.2c0,0.8-1.5,1.4-1.5,1.4c0.3,0.1,0.9-0.1,0.9-0.1c-0.2,0.7-1.3,1.2-1.3,1.2
		c0.4,0.1,0.9,0,0.9,0C7.7,26.1,6.5,27,6.5,27c-0.4-1.4-0.5-3.5,0.2-4.3C7,22.4,8.4,22,8,21.3c-0.1-0.1-0.4-0.4-0.6-0.3
		c-0.2,0.1-0.1,0.4-0.3,0.5c-0.3,0,0.1-0.4,0-0.7c-0.1-0.2-0.9-0.3-1-0.1c-0.1,0.3,0.3,0.7,0.1,0.8c-0.3,0.2-0.2-0.6-0.5-0.7
		c-0.4-0.1-0.8,0.3-0.8,0.5c0,0.3,0.7,0.6,0.5,0.7c-0.3,0.2-0.4-0.5-0.8-0.4c-0.3,0-0.6,0.3-0.6,0.7c0,0.4,0.6,0.5,0.7,0.9
		c0.2,0.4-1,1.7-1.1,2.8c-0.1,0.8,0.3,1.7,0.3,2c0,0.8-0.1,1.3-0.4,2.1c0.6-0.3,0.9-1,0.9-1c-0.1,1.1-0.3,1.8-0.6,2.2
		c0.6-0.2,1-0.8,1-0.8c-0.1,0.9-0.6,2.1-0.6,2.1c0.9-0.3,1-0.9,1-0.9c0.9,4.9,3.5,4.8,3.5,4.8l2.8-0.4L10.3,28.4z"/>
	<path fill="none" stroke="#1A171B" stroke-width="0.2024" stroke-miterlimit="3.8636" d="M10.3,28.4c0,0,0.3-6.9,2.9-9.6
		c0.2-0.2,0.8,0.3,1-0.4c0.1-0.2-0.3-0.6-0.6-0.5c-0.2,0-0.3,0.3-0.5,0.3c-0.2,0,0.3-0.4,0.3-0.7c0-0.2-0.7-0.5-1-0.3
		c-0.1,0.1-0.1,0.7-0.3,0.6c-0.3-0.1,0.1-0.7-0.1-0.8c-0.1-0.1-0.7-0.1-0.9,0.1c-0.2,0.2,0.3,0.7,0,0.8c-0.3,0-0.1-0.6-0.4-0.7
		c-0.1,0-0.5,0.1-0.7,0.3c-0.1,0.2,0.4,0.7,0.4,0.8c-0.2,0.2-0.3,0.2-0.4,0.4c-0.3,0.4,0,0.7-0.1,1.1c-0.1,0.5-0.6,0.8-0.5,1.1
		c0,0.1,0,0.1,0.1,0.2C8.9,22.6,8,23,8,23c0.3,0.1,1-0.2,1-0.2c0,0.8-1.5,1.4-1.5,1.4c0.3,0.1,0.9-0.1,0.9-0.1
		c-0.2,0.7-1.3,1.2-1.3,1.2c0.4,0.1,0.9,0,0.9,0C7.7,26.1,6.5,27,6.5,27c-0.4-1.4-0.5-3.5,0.2-4.3C7,22.4,8.4,22,8,21.3
		c-0.1-0.1-0.4-0.4-0.6-0.3c-0.2,0.1-0.1,0.4-0.3,0.5c-0.3,0,0.1-0.4,0-0.7c-0.1-0.2-0.9-0.3-1-0.1c-0.1,0.3,0.3,0.7,0.1,0.8
		c-0.3,0.2-0.2-0.6-0.5-0.7c-0.4-0.1-0.8,0.3-0.8,0.5c0,0.3,0.7,0.6,0.5,0.7c-0.3,0.2-0.4-0.5-0.8-0.4c-0.3,0-0.6,0.3-0.6,0.7
		c0,0.4,0.6,0.5,0.7,0.9c0.2,0.4-1,1.7-1.1,2.8c-0.1,0.8,0.3,1.7,0.3,2c0,0.8-0.1,1.3-0.4,2.1c0.6-0.3,0.9-1,0.9-1
		c-0.1,1.1-0.3,1.8-0.6,2.2c0.6-0.2,1-0.8,1-0.8c-0.1,0.9-0.6,2.1-0.6,2.1c0.9-0.3,1-0.9,1-0.9c0.9,4.9,3.5,4.8,3.5,4.8l2.8-0.4
		L10.3,28.4z"/>
	<path fill-rule="evenodd" clip-rule="evenodd" fill="#FFE600" d="M7.5,21L8,21.3c0.1-1.2-0.5-1.3-0.5-1.3C7.6,20.7,7.5,21,7.5,21z"
		/>
	<path fill="none" stroke="#1A171B" stroke-width="0.2024" stroke-miterlimit="3.8636" d="M7.5,21L8,21.3c0.1-1.2-0.5-1.3-0.5-1.3
		C7.6,20.7,7.5,21,7.5,21z"/>
	<path fill-rule="evenodd" clip-rule="evenodd" fill="#FFE600" d="M6.9,20.6c0-0.8-0.9-1-0.9-1c0.3,0.5,0.2,1,0.2,1L6.9,20.6z"/>
	<path fill="none" stroke="#1A171B" stroke-width="0.2024" stroke-miterlimit="3.8636" d="M6.9,20.6c0-0.8-0.9-1-0.9-1
		c0.3,0.5,0.2,1,0.2,1L6.9,20.6z"/>
	<path fill-rule="evenodd" clip-rule="evenodd" fill="#FFE600" d="M4.8,21.2l0.5-0.4C4.6,20,4,20.8,4,20.8
		C4.7,20.8,4.8,21.2,4.8,21.2z"/>
	<path fill="none" stroke="#1A171B" stroke-width="0.2024" stroke-miterlimit="3.8636" d="M4.8,21.2l0.5-0.4C4.6,20,4,20.8,4,20.8
		C4.7,20.8,4.8,21.2,4.8,21.2z"/>
	<path fill-rule="evenodd" clip-rule="evenodd" fill="#FFE600" d="M3.9,22.2l0.4-0.5C3.3,21.3,3,22,3,22C3.7,22,3.9,22.2,3.9,22.2z"
		/>
	<path fill="none" stroke="#1A171B" stroke-width="0.2024" stroke-miterlimit="3.8636" d="M3.9,22.2l0.4-0.5C3.3,21.3,3,22,3,22
		C3.7,22,3.9,22.2,3.9,22.2z"/>
	<path fill="none" stroke="#1A171B" stroke-width="0.2024" stroke-miterlimit="3.8636" d="M10.5,18.2c0.3-0.2,1.6-0.3,1.7,0.3
		c0.2,0.6-0.6,0.7-0.9,1.2c-0.2,0.4-0.2,0.7-0.5,1c-0.4,0.4-0.8,0.5-1.3,0.4"/>
	<path fill="none" stroke="#1A171B" stroke-width="0.2024" stroke-miterlimit="3.8636" d="M6.5,27c0.5,1.6,1.8,2.7,1.8,2.7"/>
	<path fill-rule="evenodd" clip-rule="evenodd" fill="#FFE600" d="M10.1,17.4l0.5-0.2c-0.4-0.7-1.1-0.4-1.1-0.4
		C10,17,10.1,17.4,10.1,17.4z"/>
	<path fill="none" stroke="#1A171B" stroke-width="0.2024" stroke-miterlimit="3.8636" d="M10.1,17.4l0.5-0.2
		c-0.4-0.7-1.1-0.4-1.1-0.4C10,17,10.1,17.4,10.1,17.4z"/>
	<path fill-rule="evenodd" clip-rule="evenodd" fill="#FFE600" d="M11.3,17l0.6-0.1c-0.2-0.7-0.9-0.7-1.1-0.7
		C11.2,16.8,11.3,17,11.3,17z"/>
	<path fill="none" stroke="#1A171B" stroke-width="0.2024" stroke-miterlimit="3.8636" d="M11.3,17l0.6-0.1
		c-0.2-0.7-0.9-0.7-1.1-0.7C11.2,16.8,11.3,17,11.3,17z"/>
	<path fill-rule="evenodd" clip-rule="evenodd" fill="#FFE600" d="M12.5,17.1c0.4,0,0.7,0.2,0.7,0.2c0-0.8-0.9-1.2-0.9-1.2
		C12.7,16.9,12.5,17.1,12.5,17.1z"/>
	<path fill="none" stroke="#1A171B" stroke-width="0.2024" stroke-miterlimit="3.8636" d="M12.5,17.1c0.4,0,0.7,0.2,0.7,0.2
		c0-0.8-0.9-1.2-0.9-1.2C12.7,16.9,12.5,17.1,12.5,17.1z"/>
	<path fill-rule="evenodd" clip-rule="evenodd" fill="#FFE600" d="M13.6,17.8c0.4,0.2,0.6,0.5,0.6,0.5c0.4-0.9-0.2-1.5-0.2-1.5
		C14,17.8,13.6,17.8,13.6,17.8z"/>
	<path fill="none" stroke="#1A171B" stroke-width="0.2024" stroke-miterlimit="3.8636" d="M13.6,17.8c0.4,0.2,0.6,0.5,0.6,0.5
		c0.4-0.9-0.2-1.5-0.2-1.5C14,17.8,13.6,17.8,13.6,17.8z"/>
	<path fill-rule="evenodd" clip-rule="evenodd" fill="#FFE600" d="M21.1,31.8c-0.7-1.1,0.8-3.3-0.1-4.5c0.7-1,0.3-1.6,0.3-1.6
		c-0.3-0.1-0.7,0-0.7,0c0.1-0.4-0.1-0.6-0.1-0.6c-0.8-0.2-1.2,0.5-1.2,0.5c-0.8-0.2-1.7-0.2-1.7-0.2c-0.3,0-0.7,0.3-0.7,0.3
		c-1.2,0.2-2-0.2-2.3,0.4c-0.3,0.5,0.1,0.2,0.3,0.3c-0.6,0-0.6,0.4-0.6,0.7c0,0.3,1.9,0.3,2.2,1.2c0.1,0.2,0.2,1-0.1,1.5
		c-0.3,0.5-2-0.4-2.3-0.1c-0.2,0.1-0.3,0.8-0.2,1c0.4,0.4,0.5,0,1.8,0c-0.7,0.5-1.4,0.9-2.2,0.7c-1.3-0.3-1.8-1.7-2.5-2.5
		c-0.4-0.4-1.6-0.8-2.1-0.4c1,0.1,0.7,1.5,1.3,1.8c-1-0.1-1.7-1.3-1.7-1.3c-0.7,1.7,1.4,2.3,1.4,2.3c-1.9-0.1-2.4-0.7-2.4-0.7
		c0.3,1.6,1.9,2.1,1.9,2.1c-1.1,0-1.7-0.5-1.7-0.5c0.1,1.5,1.9,2,1.9,2C9,34.2,8,34,8,34c1,1.6,2.6,1.6,2.6,1.6
		c-0.7,0.6-2.3,0.6-2.3,0.6c1.5,1.4,3.3,1,3.3,1c-0.3,0.4-1.2,0.7-1.2,0.7c2,0.7,3.1-0.5,3.1-0.5c0.1,0.4-0.6,1.1-0.6,1.1
		c2,0.2,2.9-1.4,2.9-1.4c0.2,0.4,0,1.1,0,1.1c1.5-0.7,1.9-1.8,1.9-1.8c0.3,0.1,0.5,0.9,0.5,0.9c0.8-0.7,0.9-2.4,0.9-2.4
		c0.4,0,0.8,1,0.8,1c1.3-2,0.2-3.1,0.2-3.1c0.4,0,0.9,0.8,0.9,0.8c0.5-1.5-0.5-2.1-0.5-2.1C20.9,31.8,21.1,31.8,21.1,31.8z"/>
	<path fill="none" stroke="#1A171B" stroke-width="0.2024" stroke-miterlimit="3.8636" d="M21.1,31.8c-0.7-1.1,0.8-3.3-0.1-4.5
		c0.7-1,0.3-1.6,0.3-1.6c-0.3-0.1-0.7,0-0.7,0c0.1-0.4-0.1-0.6-0.1-0.6c-0.8-0.2-1.2,0.5-1.2,0.5c-0.8-0.2-1.7-0.2-1.7-0.2
		c-0.3,0-0.7,0.3-0.7,0.3c-1.2,0.2-2-0.2-2.3,0.4c-0.3,0.5,0.1,0.2,0.3,0.3c-0.6,0-0.6,0.4-0.6,0.7c0,0.3,1.9,0.3,2.2,1.2
		c0.1,0.2,0.2,1-0.1,1.5c-0.3,0.5-2-0.4-2.3-0.1c-0.2,0.1-0.3,0.8-0.2,1c0.4,0.4,0.5,0,1.8,0c-0.7,0.5-1.4,0.9-2.2,0.7
		c-1.3-0.3-1.8-1.7-2.5-2.5c-0.4-0.4-1.6-0.8-2.1-0.4c1,0.1,0.7,1.5,1.3,1.8c-1-0.1-1.7-1.3-1.7-1.3c-0.7,1.7,1.4,2.3,1.4,2.3
		c-1.9-0.1-2.4-0.7-2.4-0.7c0.3,1.6,1.9,2.1,1.9,2.1c-1.1,0-1.7-0.5-1.7-0.5c0.1,1.5,1.9,2,1.9,2C9,34.2,8,34,8,34
		c1,1.6,2.6,1.6,2.6,1.6c-0.7,0.6-2.3,0.6-2.3,0.6c1.5,1.4,3.3,1,3.3,1c-0.3,0.4-1.2,0.7-1.2,0.7c2,0.7,3.1-0.5,3.1-0.5
		c0.1,0.4-0.6,1.1-0.6,1.1c2,0.2,2.9-1.4,2.9-1.4c0.2,0.4,0,1.1,0,1.1c1.5-0.7,1.9-1.8,1.9-1.8c0.3,0.1,0.5,0.9,0.5,0.9
		c0.8-0.7,0.9-2.4,0.9-2.4c0.4,0,0.8,1,0.8,1c1.3-2,0.2-3.1,0.2-3.1c0.4,0,0.9,0.8,0.9,0.8c0.5-1.5-0.5-2.1-0.5-2.1
		C20.9,31.8,21.1,31.8,21.1,31.8z"/>
	<path fill="none" stroke="#1A171B" stroke-width="0.2024" stroke-miterlimit="3.8636" d="M15.7,30.6c1.1-0.2,2,1.4,3.2,0"/>
	<path fill-rule="evenodd" clip-rule="evenodd" fill="#FFE600" d="M15.9,27.8c-0.3-0.3-1.7-0.5-1.7-0.5c-0.1,0.5,0.1,0.8,0.1,0.8
		c0.3-0.4,0.6-0.5,0.6-0.5s0,0.4,0.3,0.8C15.4,28,15.9,27.8,15.9,27.8z"/>
	<path fill="none" stroke="#1A171B" stroke-width="0.2024" stroke-miterlimit="3.8636" d="M15.9,27.8c-0.3-0.3-1.7-0.5-1.7-0.5
		c-0.1,0.5,0.1,0.8,0.1,0.8c0.3-0.4,0.6-0.5,0.6-0.5s0,0.4,0.3,0.8C15.4,28,15.9,27.8,15.9,27.8z"/>
	<path fill-rule="evenodd" clip-rule="evenodd" fill="#FFE600" d="M15.8,29.9c-0.3,0.1-1.2-0.3-1.7-0.3c-0.1-0.5,0.3-0.6,0.3-0.6
		c0.1,0.6,0.4,0.7,0.4,0.7c0.2-0.6,0.5-0.4,0.5-0.4C15.6,29.7,15.8,29.9,15.8,29.9z"/>
	<path fill="none" stroke="#1A171B" stroke-width="0.2024" stroke-miterlimit="3.8636" d="M15.8,29.9c-0.3,0.1-1.2-0.3-1.7-0.3
		c-0.1-0.5,0.3-0.6,0.3-0.6c0.1,0.6,0.4,0.7,0.4,0.7c0.2-0.6,0.5-0.4,0.5-0.4C15.6,29.7,15.8,29.9,15.8,29.9z"/>
	<path fill="none" stroke="#1A171B" stroke-width="0.2024" stroke-miterlimit="3.8636" d="M19.2,25.6c0.5,0.1,0.7,0.4,0.7,0.4"/>
	<path fill="none" stroke="#1A171B" stroke-width="0.2024" stroke-miterlimit="3.8636" d="M20.5,25.7c-0.8,0.2-1,0.9-1,0.9"/>
	<path fill="none" stroke="#1A171B" stroke-width="0.2024" stroke-miterlimit="3.8636" d="M20.9,26.2c0,0.4-0.3,0.7-0.3,0.7"/>
	<path fill="none" stroke="#1A171B" stroke-width="0.2024" stroke-miterlimit="3.8636" d="M21,27.3c-0.1,0.2-0.5,0.3-0.5,0.3"/>
	<path fill-rule="evenodd" clip-rule="evenodd" fill="#FFE600" d="M32.9,44.3l0.3-0.6c-1.2-0.2-1.4,0.6-1.4,0.6
		C32.5,44.1,32.9,44.3,32.9,44.3z"/>
	<path fill="none" stroke="#1A171B" stroke-width="0.2024" stroke-miterlimit="3.8636" d="M32.9,44.3l0.3-0.6
		c-1.2-0.2-1.4,0.6-1.4,0.6C32.5,44.1,32.9,44.3,32.9,44.3z"/>
	<path fill-rule="evenodd" clip-rule="evenodd" fill="#FFE600" d="M32.9,45c-0.6,0.7,0,1.4,0,1.4c0-0.7,0.5-0.8,0.5-0.8L32.9,45z"/>
	<path fill="none" stroke="#1A171B" stroke-width="0.2024" stroke-miterlimit="3.8636" d="M32.9,45c-0.6,0.7,0,1.4,0,1.4
		c0-0.7,0.5-0.8,0.5-0.8L32.9,45z"/>
	<path fill-rule="evenodd" clip-rule="evenodd" fill="#FFE600" d="M34.5,46.3L33.9,46c-0.6,1,0.4,1.4,0.4,1.4
		C34.1,46.6,34.5,46.3,34.5,46.3z"/>
	<path fill="none" stroke="#1A171B" stroke-width="0.2024" stroke-miterlimit="3.8636" d="M34.5,46.3L33.9,46
		c-0.6,1,0.4,1.4,0.4,1.4C34.1,46.6,34.5,46.3,34.5,46.3z"/>
	<path fill-rule="evenodd" clip-rule="evenodd" fill="#FFE600" d="M36,46.6l-0.7,0c-0.1,1.1,0.8,1,0.8,1C35.8,47,36,46.6,36,46.6z"
		/>
	<path fill="none" stroke="#1A171B" stroke-width="0.2024" stroke-miterlimit="3.8636" d="M36,46.6l-0.7,0c-0.1,1.1,0.8,1,0.8,1
		C35.8,47,36,46.6,36,46.6z"/>
	<path fill-rule="evenodd" clip-rule="evenodd" fill="#FFE600" d="M12.2,46.2l-0.3-0.5c-0.7,0.3-0.5,1.2-0.5,1.2
		C11.7,46.3,12.2,46.2,12.2,46.2z"/>
	<path fill="none" stroke="#1A171B" stroke-width="0.2024" stroke-miterlimit="3.8636" d="M12.2,46.2l-0.3-0.5
		c-0.7,0.3-0.5,1.2-0.5,1.2C11.7,46.3,12.2,46.2,12.2,46.2z"/>
	<path fill-rule="evenodd" clip-rule="evenodd" fill="#FFE600" d="M11.5,44.9v-0.7c-1.2,0.2-1,0.9-1,0.9
		C11,44.8,11.5,44.9,11.5,44.9z"/>
	<path fill="none" stroke="#1A171B" stroke-width="0.2024" stroke-miterlimit="3.8636" d="M11.5,44.9v-0.7c-1.2,0.2-1,0.9-1,0.9
		C11,44.8,11.5,44.9,11.5,44.9z"/>
	<path fill-rule="evenodd" clip-rule="evenodd" fill="#FFE600" d="M11.7,43.3l0.6-0.5c-1.2-0.6-1.6,0.2-1.6,0.2
		C11.5,42.9,11.7,43.3,11.7,43.3z"/>
	<path fill="none" stroke="#1A171B" stroke-width="0.2024" stroke-miterlimit="3.8636" d="M11.7,43.3l0.6-0.5
		c-1.2-0.6-1.6,0.2-1.6,0.2C11.5,42.9,11.7,43.3,11.7,43.3z"/>
	<path fill-rule="evenodd" clip-rule="evenodd" fill="#FFE600" d="M13.1,42.6l0.7-0.2c-0.7-1.1-1.6-0.3-1.6-0.3
		C13,42.2,13.1,42.6,13.1,42.6z"/>
	<path fill="none" stroke="#1A171B" stroke-width="0.2024" stroke-miterlimit="3.8636" d="M13.1,42.6l0.7-0.2
		c-0.7-1.1-1.6-0.3-1.6-0.3C13,42.2,13.1,42.6,13.1,42.6z"/>
	<path fill="none" stroke="#1A171B" stroke-width="0.2024" stroke-miterlimit="3.8636" d="M29,5.3c-1.3,0.5,0.3,0.4,0.9,1"/>
	<path fill-rule="evenodd" clip-rule="evenodd" fill="#FD182A" d="M37.7,20.2c-0.5-0.8-1.6-1.2-1.6-1.2c1.1,1.6,1.2,2.6,1.2,2.6
		L37.7,20.2z"/>
	<path fill="none" stroke="#1A171B" stroke-width="0.2024" stroke-miterlimit="3.8636" d="M37.7,20.2c-0.5-0.8-1.6-1.2-1.6-1.2
		c1.1,1.6,1.2,2.6,1.2,2.6L37.7,20.2z"/>
	<path fill-rule="evenodd" clip-rule="evenodd" fill="#FD182A" d="M24.8,7.7c-0.3-0.6-0.1-1.1,0.3-1.4c-1.2-0.1-2.5,1-1.7,2.2
		c0.9,1.4,2.8,0.1,4.1,0.1c0.6,0,0.9,0.2,1.6,0.2c0-0.2,0-0.5-0.1-0.6C27.2,7.3,25.3,8.8,24.8,7.7z"/>
	<path fill="none" stroke="#1A171B" stroke-width="0.2024" stroke-miterlimit="3.8636" d="M24.8,7.7c-0.3-0.6-0.1-1.1,0.3-1.4
		c-1.2-0.1-2.5,1-1.7,2.2c0.9,1.4,2.8,0.1,4.1,0.1c0.6,0,0.9,0.2,1.6,0.2c0-0.2,0-0.5-0.1-0.6C27.2,7.3,25.3,8.8,24.8,7.7z"/>
	<path fill-rule="evenodd" clip-rule="evenodd" fill="#FD182A" d="M16.2,29.7c0,0,0.3-0.3,0.1-0.6c-1.5-1.8-3.8-0.9-3.8-1.9
		c0-0.4,0.4-0.7,0.4-0.7c-1.4-0.7-2.1,0.9-1.7,1.7c0.4,0.9,1.5,0.8,2.6,0.6C15.6,28.6,16.2,29.7,16.2,29.7z"/>
	<path fill="none" stroke="#1A171B" stroke-width="0.2024" stroke-miterlimit="3.8636" d="M16.2,29.7c0,0,0.3-0.3,0.1-0.6
		c-1.5-1.8-3.8-0.9-3.8-1.9c0-0.4,0.4-0.7,0.4-0.7c-1.4-0.7-2.1,0.9-1.7,1.7c0.4,0.9,1.5,0.8,2.6,0.6C15.6,28.6,16.2,29.7,16.2,29.7
		z"/>
	<path fill-rule="evenodd" clip-rule="evenodd" fill="#FD182A" d="M23.4,38.9c0,0,1.8,0.3,2.7,1.2c0-0.6-0.3-1-0.7-1.3
		C25.1,38.6,23.4,38.9,23.4,38.9z"/>
	<path fill="none" stroke="#1A171B" stroke-width="0.2024" stroke-miterlimit="3.8636" d="M23.4,38.9c0,0,1.8,0.3,2.7,1.2
		c0-0.6-0.3-1-0.7-1.3C25.1,38.6,23.4,38.9,23.4,38.9z"/>
	<path fill-rule="evenodd" clip-rule="evenodd" fill="#FFFFFF" d="M17.2,26.2c-0.2,0.3-0.4,0.6,0,0.8c0.3,0.2,0.8,0.2,1-0.1
		C17.4,26.4,17.2,26.2,17.2,26.2z"/>
	<path fill="none" stroke="#1A171B" stroke-width="0.2024" stroke-miterlimit="3.8636" d="M17.2,26.2c-0.2,0.3-0.4,0.6,0,0.8
		c0.3,0.2,0.8,0.2,1-0.1C17.4,26.4,17.2,26.2,17.2,26.2z"/>
	<path fill="none" stroke="#1A171B" stroke-width="0.2024" stroke-miterlimit="3.8636" d="M17.6,25.8c-1.2,0.3,0.4,0.7,0.9,1.5"/>
	<path fill-rule="evenodd" clip-rule="evenodd" fill="#1A171B" d="M17.4,26.4c0,0.1-0.3,0.4-0.3,0.4c0.3,0,0.6-0.3,0.6-0.3
		L17.4,26.4z"/>
	<path fill="none" stroke="#1A171B" stroke-width="0" stroke-miterlimit="3.8637" d="M17.4,26.4c0,0.1-0.3,0.4-0.3,0.4
		c0.3,0,0.6-0.3,0.6-0.3L17.4,26.4z"/>
	<path fill-rule="evenodd" clip-rule="evenodd" fill="#FFFFFF" d="M28.7,5.7c-0.3,0.2-0.2,0.6,0.3,0.7c0.3,0,0.6-0.1,0.5-0.4
		C29.6,6.1,29,5.8,28.7,5.7z"/>
	<path fill="none" stroke="#1A171B" stroke-width="0.2024" stroke-miterlimit="3.8636" d="M28.7,5.7c-0.3,0.2-0.2,0.6,0.3,0.7
		c0.3,0,0.6-0.1,0.5-0.4C29.6,6.1,29,5.8,28.7,5.7z"/>
	<path fill-rule="evenodd" clip-rule="evenodd" fill="#1A171B" d="M28.9,5.8c0,0.1-0.1,0.5-0.1,0.5c0.3-0.1,0.4-0.4,0.4-0.4
		L28.9,5.8z"/>
</g>
</svg>
