<?xml version="1.0" encoding="utf-8"?>
<!-- Generator: Adobe Illustrator 18.1.1, SVG Export Plug-In . SVG Version: 6.00 Build 0)  -->
<svg version="1.1" id="Ebene_1" xmlns="http://www.w3.org/2000/svg" xmlns:xlink="http://www.w3.org/1999/xlink" x="0px" y="0px"
	 viewBox="0 0 50 50" enable-background="new 0 0 50 50" xml:space="preserve">
<g>
	<rect x="0" fill="#FFE600" width="50" height="50"/>
	<rect x="0" fill="none" width="50" height="50"/>
	<path fill-rule="evenodd" clip-rule="evenodd" d="M18.5,41.1c-0.6-1.3-0.6-4.8-0.4-5.3c0.3-0.5,0.7-0.5,0.8-0.5
		c-0.1-2-1.2-4.2-2.7-6.3c-0.5-0.7,0.4-2.3,0.2-2.9c-0.2-0.6-1.2-1.9-1.8-2.8c-0.6-0.9-0.6-1.8-0.6-1.8s-1,1-3.1,0.8
		c-1.9-0.2-2.9-1.9-3.4-2.8c-0.5-0.9-1.7-1.2-1.7-1.6c-0.2-0.9,2.6-3.4,4.7-3.2c1.8,0.1,3.9,1.3,3.9,1.3s0.1-0.2,0.2-0.3
		c0.1-0.1,0.2-0.2,0.2-0.2s-1.9-1.1-3.3-2.9C10,10.9,9.9,8.1,9.5,6.2C8.9,3.9,6.9,2.9,7,2.4c0.2-0.5,1.7-0.3,3,0.5
		c1.6,1,2.2,3.5,3.3,5.7c1.1,2.2,2.5,2.6,2.5,2.6s0.2-0.8,0.6-1.1c0.5-0.3,1.3-0.5,1.9-0.2c0.2-0.7,0.6-1,1.3-1.2
		c0.6-0.2,1.1-0.1,1.6,0.4c0.3-0.5,0.6-0.8,1.2-0.9c0.6-0.1,1,0,1.5,0.4c0,0,0.3-0.6,1-0.6c0.8,0,1.1,0.6,1.1,0.6
		c0.4-0.4,0.9-0.5,1.5-0.4c0.6,0.1,0.9,0.4,1.2,0.9c0.5-0.4,1-0.5,1.6-0.4c0.7,0.2,1.1,0.6,1.3,1.2c0.7-0.4,1.4-0.2,1.9,0.2
		c0.5,0.3,0.6,1.1,0.6,1.1s1.4-0.4,2.5-2.6c1.1-2.2,1.7-4.7,3.3-5.7c1.2-0.8,2.8-1,3-0.5c0.2,0.5-1.9,1.6-2.4,3.8
		c-0.5,1.9-0.6,4.7-1.9,6.5c-1.3,1.8-3.3,2.9-3.3,2.9s0.1,0.1,0.2,0.2c0.1,0.1,0.2,0.3,0.2,0.3s2.1-1.2,3.9-1.3
		c2.1-0.2,4.9,2.3,4.7,3.2c-0.1,0.4-1.2,0.7-1.7,1.6c-0.5,0.9-1.5,2.6-3.4,2.8C37,22.6,36,21.6,36,21.6s0,0.9-0.6,1.8
		c-0.6,0.9-1.6,2.2-1.8,2.8c-0.2,0.6,0.7,2.1,0.2,2.9c-1.5,2-2.6,4.3-2.7,6.3c0.1,0,0.5,0,0.8,0.5c0.3,0.5,0.2,3.9-0.4,5.3H18.5z"/>
	<g>
		<defs>
			<path id="SVGID_43_" d="M18.5,41.1c-0.6-1.3-0.6-4.8-0.4-5.3c0.3-0.5,0.7-0.5,0.8-0.5c-0.1-2-1.2-4.2-2.7-6.3
				c-0.5-0.7,0.4-2.3,0.2-2.9c-0.2-0.6-1.2-1.9-1.8-2.8c-0.6-0.9-0.6-1.8-0.6-1.8s-1,1-3.1,0.8c-1.9-0.2-2.9-1.9-3.4-2.8
				c-0.5-0.9-1.7-1.2-1.7-1.6c-0.2-0.9,2.6-3.4,4.7-3.2c1.8,0.1,3.9,1.3,3.9,1.3s0.1-0.2,0.2-0.3c0.1-0.1,0.2-0.2,0.2-0.2
				s-1.9-1.1-3.3-2.9C10,10.9,9.9,8.1,9.5,6.2C8.9,3.9,6.9,2.9,7,2.4c0.2-0.5,1.7-0.3,3,0.5c1.6,1,2.2,3.5,3.3,5.7
				c1.1,2.2,2.5,2.6,2.5,2.6s0.2-0.8,0.6-1.1c0.5-0.3,1.3-0.5,1.9-0.2c0.2-0.7,0.6-1,1.3-1.2c0.6-0.2,1.1-0.1,1.6,0.4
				c0.3-0.5,0.6-0.8,1.2-0.9c0.6-0.1,1,0,1.5,0.4c0,0,0.3-0.6,1-0.6c0.8,0,1.1,0.6,1.1,0.6c0.4-0.4,0.9-0.5,1.5-0.4
				c0.6,0.1,0.9,0.4,1.2,0.9c0.5-0.4,1-0.5,1.6-0.4c0.7,0.2,1.1,0.6,1.3,1.2c0.7-0.4,1.4-0.2,1.9,0.2c0.5,0.3,0.6,1.1,0.6,1.1
				s1.4-0.4,2.5-2.6c1.1-2.2,1.7-4.7,3.3-5.7c1.2-0.8,2.8-1,3-0.5c0.2,0.5-1.9,1.6-2.4,3.8c-0.5,1.9-0.6,4.7-1.9,6.5
				c-1.3,1.8-3.3,2.9-3.3,2.9s0.1,0.1,0.2,0.2c0.1,0.1,0.2,0.3,0.2,0.3s2.1-1.2,3.9-1.3c2.1-0.2,4.9,2.3,4.7,3.2
				c-0.1,0.4-1.2,0.7-1.7,1.6c-0.5,0.9-1.5,2.6-3.4,2.8C37,22.6,36,21.6,36,21.6s0,0.9-0.6,1.8c-0.6,0.9-1.6,2.2-1.8,2.8
				c-0.2,0.6,0.7,2.1,0.2,2.9c-1.5,2-2.6,4.3-2.7,6.3c0.1,0,0.5,0,0.8,0.5c0.3,0.5,0.2,3.9-0.4,5.3H18.5z"/>
		</defs>
		<clipPath id="SVGID_1_">
			<use xlink:href="#SVGID_43_"  overflow="visible"/>
		</clipPath>
		<path clip-path="url(#SVGID_1_)" fill="none" stroke="#FFFFFF" stroke-width="0.2181" stroke-miterlimit="3.8636" d="M15.3,15
			c-1.1,1.4-1.9,1.9-1.5,7.1"/>
		<path clip-path="url(#SVGID_1_)" fill="none" stroke="#FFFFFF" stroke-width="0.2181" stroke-miterlimit="3.8636" d="M34.7,15
			c1.1,1.4,1.8,1.9,1.5,7.1"/>
		<path clip-path="url(#SVGID_1_)" fill="none" stroke="#FFFFFF" stroke-width="0.2181" stroke-miterlimit="3.8636" d="M34.4,11
			c0,0,0.2,0.5-0.3,1.1c0,0,1.2,0,1.6,1.1c0.2,0.8-0.2,1.6-1,1.8c0,0.6-0.3,1-0.8,1.3c-0.6,0.4-1.3,0.3-1.9-0.1
			c-0.2,0.7-0.7,1-1.4,1.2c-0.6,0.1-1,0.1-1.5-0.3c-0.3,0.5-0.7,0.8-1.3,0.9c-0.6,0.1-1.1-0.1-1.5-0.5c-0.2,0.3-0.5,0.8-1.4,0.8
			c-0.9,0-1.2-0.5-1.4-0.8c-0.4,0.4-0.9,0.6-1.5,0.5c-0.6-0.1-1-0.4-1.3-0.9c-0.5,0.3-0.9,0.4-1.5,0.3c-0.7-0.2-1.1-0.5-1.4-1.2
			c-0.6,0.5-1.2,0.5-1.9,0.1c-0.5-0.3-0.8-0.7-0.8-1.3c-0.8-0.3-1.2-1-1-1.8c0.4-1.1,1.6-1.1,1.6-1.1c-0.4-0.6-0.3-1.1-0.3-1.1"/>
		<path clip-path="url(#SVGID_1_)" fill="none" stroke="#FFFFFF" stroke-width="0.2181" stroke-miterlimit="3.8636" d="M14.2,16.5
			l7.7,5.3v10.1c0,1.8-1.8,3.2-3.1,3.3"/>
		<path clip-path="url(#SVGID_1_)" fill="none" stroke="#FFFFFF" stroke-width="0.2181" stroke-miterlimit="3.8636" d="M35.7,16.5
			L28,21.8v10.1c0,1.8,1.8,3.2,3.2,3.3"/>
	</g>
	<path fill="none" stroke="#FFFFFF" stroke-width="0.2182" stroke-miterlimit="3.8636" d="M6.3,17.8C7.4,17.5,7.9,17,9,17
		c1.6-0.1,2.3,1,3.8,1.2c0.4,0.1,0.7,0.1,1.1,0.1"/>
	<path fill-rule="evenodd" clip-rule="evenodd" fill="#FFFFFF" d="M17.2,19.2c-0.4,0.9-0.1,2.2,0.9,2.8c0.9,0.6,2,0.6,2.9-0.1
		l-0.6-0.4c-0.6,0.4-1.4,0.4-2-0.1c-0.6-0.4-0.9-1.1-0.7-1.8L17.2,19.2z"/>
	<path fill="none" stroke="#FFFFFF" stroke-width="0.2182" stroke-miterlimit="3.8636" d="M43.7,17.8C42.6,17.5,42.1,17,41,17
		c-1.6-0.1-2.3,1-3.8,1.2c-0.4,0.1-0.7,0.1-1.1,0.1"/>
	<path fill-rule="evenodd" clip-rule="evenodd" fill="#FFFFFF" d="M32.8,19.2c0.4,0.9,0.1,2.2-0.9,2.8c-0.9,0.6-2,0.6-2.9-0.1
		l0.6-0.4c0.6,0.4,1.4,0.4,2-0.1c0.6-0.4,0.8-1.1,0.7-1.8L32.8,19.2z"/>
	<path fill-rule="evenodd" clip-rule="evenodd" d="M27.1,43.1c0,0,1,0.1,1.7-0.6c0.7-0.7,0.4-1.4,0.4-1.4h-8.4c0,0-0.3,0.8,0.3,1.4
		c0.7,0.7,1.8,0.6,1.8,0.6H27.1z"/>
	<path fill-rule="evenodd" clip-rule="evenodd" fill="#ED081B" d="M25,49c3.2,0.1,6.5-2.5,6.8-6c0.3-4.4-2.8-6.5-2.8-6.5
		c-0.9,0.3-1.2,1.8-1.2,1.8c0.8,0.9,1.1,1.7,1.4,3c0.4,1.5,0.1,2.6-0.8,3.7c-0.7,0.9-2.4,1.6-3.4,1.6c-1.1,0-2.7-0.7-3.4-1.6
		c-0.9-1.2-1-2.3-0.8-3.7c0.2-1.3,0.6-2,1.4-3c0-0.1-0.3-1.5-1.2-1.8c0,0-3,2.5-2.8,6.5C18.4,46.5,21.7,49,25,49z"/>
	<path fill="none" stroke="#000000" stroke-width="0.2182" stroke-miterlimit="3.8636" d="M25,49c3.2,0.1,6.5-2.5,6.8-6
		c0.3-4.4-2.8-6.5-2.8-6.5c-0.9,0.3-1.2,1.8-1.2,1.8c0.8,0.9,1.1,1.7,1.4,3c0.4,1.5,0.1,2.6-0.8,3.7c-0.7,0.9-2.4,1.6-3.4,1.6
		c-1.1,0-2.7-0.7-3.4-1.6c-0.9-1.2-1-2.3-0.8-3.7c0.2-1.3,0.6-2,1.4-3c0-0.1-0.3-1.5-1.2-1.8c0,0-3,2.5-2.8,6.5
		C18.4,46.5,21.7,49,25,49z"/>
	<line fill="none" stroke="#FFFFFF" stroke-width="0.2182" stroke-miterlimit="3.8636" x1="20.8" y1="41.1" x2="29.2" y2="41.1"/>
	<path fill="none" stroke="#FFFFFF" stroke-width="0.2182" stroke-miterlimit="3.8636" d="M20.1,37.3c0-0.2,0-0.6,0.3-0.7
		c1.5-0.7,2.5,3,1.5,3.1c-0.2,0-0.4-0.1-0.4-0.2"/>
	<path fill="none" stroke="#FFFFFF" stroke-width="0.2182" stroke-miterlimit="3.8636" d="M29.9,37.3c0-0.2,0-0.6-0.3-0.7
		c-1.5-0.7-2.5,3-1.5,3.1c0.2,0,0.4-0.1,0.4-0.2"/>
	<path fill-rule="evenodd" clip-rule="evenodd" fill="#ED081B" d="M27.3,41.1c0,0,0.2,4.6-2.2,4.8c-2.4-0.2-2.3-4.8-2.3-4.8H27.3z"
		/>
	<path fill="none" stroke="#000000" stroke-width="0.2182" stroke-miterlimit="3.8636" d="M27.3,41.1c0,0,0.2,4.6-2.2,4.8
		c-2.4-0.2-2.3-4.8-2.3-4.8H27.3z"/>
</g>
</svg>
