<?xml version="1.0" encoding="utf-8"?>
<!-- Generator: Adobe Illustrator 18.1.1, SVG Export Plug-In . SVG Version: 6.00 Build 0)  -->
<svg version="1.1" id="Ebene_1" xmlns="http://www.w3.org/2000/svg" xmlns:xlink="http://www.w3.org/1999/xlink" x="0px" y="0px"
	 viewBox="0 0 50 50" enable-background="new 0 0 50 50" xml:space="preserve">
<g>
	<rect x="0" fill-rule="evenodd" clip-rule="evenodd" fill="#FFFFFF" width="50" height="50"/>
	<rect x="0" y="24.9" fill-rule="evenodd" clip-rule="evenodd" fill="#00814A" width="50" height="25.1"/>
	<rect id="SVGID_63_" x="0" fill-rule="evenodd" clip-rule="evenodd" fill="none" width="50" height="50"/>
	<rect x="0" fill="none" width="50" height="50"/>
	<path fill-rule="evenodd" clip-rule="evenodd" fill="#FFE936" d="M35.6,23.4h4.4l0.1-1.6h-0.3c-0.3,0.9-0.5,1.2-1.5,1.2
		c-0.4,0-0.6,0-0.8-0.1c-0.2-0.1-0.2-0.2-0.2-0.6v-1.8h0.9c0.6,0,0.7,0.2,0.8,0.7h0.3v-1.8h-0.3c-0.1,0.6-0.2,0.7-0.8,0.7h-0.9v-1.9
		c0-0.2,0-0.3,0.3-0.3h0.7c0.9,0,1,0.3,1.2,1.1h0.3v-1.4h-4.3v0.3c0.6,0,0.7,0.1,0.7,0.5v4.1c0,0.4,0,0.5-0.7,0.5V23.4z M33.8,18.6
		c0-0.4,0-0.5,0.7-0.5v-0.3H32v0.3c0.6,0,0.7,0.1,0.7,0.5v4.1c0,0.4,0,0.5-0.7,0.5v0.3h2.5v-0.3c-0.6,0-0.7-0.1-0.7-0.5V18.6z
		 M27.7,20.5v-2c0-0.3,0.1-0.3,0.5-0.3c0.6,0,1.1,0.3,1.1,1.1c0,0.7-0.3,1.2-1.1,1.2H27.7z M27.7,20.8h0.4c0.4,0,0.7,0.2,0.8,0.7
		c0.1,0.3,0.1,0.8,0.3,1.2c0.2,0.6,0.5,0.8,1.2,0.8H31v-0.3c-0.2,0-0.3-0.1-0.4-0.2c-0.2-0.2-0.3-0.5-0.4-0.9
		c-0.1-0.7-0.3-1.2-1.1-1.4v0c0.8-0.1,1.4-0.6,1.4-1.4c0-0.8-0.5-1.4-1.9-1.4h-2.7v0.3c0.6,0,0.7,0.1,0.7,0.5v4.1
		c0,0.4,0,0.5-0.7,0.5v0.3h2.5v-0.3c-0.6,0-0.7-0.1-0.7-0.5V20.8z M21.4,23.4h2.8v-0.3l-0.5,0c-0.3,0-0.3-0.1-0.3-0.4v-4.5h0.4
		c0.8,0,0.9,0.3,1.2,1.1h0.3v-1.5h-4.8v1.5h0.3c0.2-0.8,0.3-1.1,1.2-1.1h0.4v4.5c0,0.3,0,0.4-0.3,0.4l-0.5,0V23.4z M16.6,21
		c0.1-0.3,0.6-1.9,0.7-2.2h0L18,21H16.6z M14.8,23.4h1.9v-0.3l-0.5,0C16,23.1,16,23,16,22.8c0.1-0.5,0.3-0.9,0.4-1.4h1.7l0.5,1.4
		c0.1,0.2,0,0.3-0.2,0.3l-0.4,0v0.3h2.4v-0.3c-0.4,0-0.5,0-0.7-0.4L18,17.8h-0.9l-0.9,2.6c-0.3,0.8-0.6,1.7-0.8,2.2
		c-0.1,0.4-0.2,0.5-0.7,0.5V23.4z M10,23.4h2.6v-0.3c-0.8,0-0.8-0.1-0.8-0.5v-1.5h0.5c0.6,0,1.2-0.1,1.5-0.3
		c0.5-0.3,0.9-0.7,0.9-1.4c0-0.6-0.3-1.1-0.7-1.3c-0.4-0.3-0.9-0.3-1.6-0.3H10v0.3c0.6,0,0.7,0.1,0.7,0.5v4.1c0,0.4,0,0.5-0.7,0.5
		V23.4z M11.8,18.5c0-0.2,0.1-0.3,0.5-0.3c0.6,0,1.1,0.4,1.1,1.3c0,0.8-0.4,1.4-1.2,1.4c-0.4,0-0.5,0-0.5-0.3V18.5z M26.3,16.4h2.8
		v-0.3l-0.5,0c-0.3,0-0.3-0.1-0.3-0.4v-4.5h0.4c0.8,0,0.9,0.3,1.2,1.1h0.3v-1.5h-4.8v1.5h0.3c0.2-0.8,0.3-1.1,1.2-1.1h0.4v4.5
		c0,0.3,0,0.4-0.3,0.4l-0.5,0V16.4z M20.1,16.4h4.4l0.1-1.6h-0.3c-0.3,0.9-0.5,1.2-1.5,1.2c-0.4,0-0.6,0-0.8-0.1
		c-0.2-0.1-0.2-0.2-0.2-0.6v-1.8h0.9c0.6,0,0.7,0.2,0.8,0.7h0.3v-1.8h-0.3c-0.1,0.6-0.2,0.7-0.8,0.7h-0.9v-1.9c0-0.2,0-0.3,0.3-0.3
		h0.7c0.9,0,1,0.3,1.2,1.1h0.3v-1.4h-4.3v0.3c0.6,0,0.7,0.1,0.7,0.5v4.1c0,0.4,0,0.5-0.7,0.5V16.4z M40.3,3.6l1.5-0.5
		c0.4-0.1,0.6-0.2,0.6-0.4c0-0.2-0.2-0.5-0.4-0.5c-0.1,0-0.3,0-0.5,0.2l-1.3,0.9L40.3,3.6z M38.6,9.5h4.4l0.1-1.6h-0.3
		c-0.3,0.9-0.5,1.2-1.5,1.2c-0.4,0-0.6,0-0.8-0.1c-0.2-0.1-0.2-0.2-0.2-0.6V6.7h0.9c0.6,0,0.7,0.2,0.8,0.7h0.3V5.6h-0.3
		c-0.1,0.6-0.2,0.7-0.8,0.7h-0.9V4.5c0-0.2,0-0.3,0.3-0.3h0.7c0.9,0,1,0.3,1.2,1.1h0.3V3.9h-4.3v0.3c0.6,0,0.7,0.1,0.7,0.5v4.1
		c0,0.4,0,0.5-0.7,0.5V9.5z M34.2,9.5H37V9.2l-0.5,0c-0.3,0-0.3-0.1-0.3-0.4V4.2h0.4c0.8,0,0.9,0.3,1.2,1.1H38V3.9h-4.8v1.5h0.3
		c0.2-0.8,0.3-1.1,1.2-1.1H35v4.5c0,0.3,0,0.4-0.3,0.4l-0.5,0V9.5z M29.3,6.5v-2c0-0.3,0.1-0.3,0.5-0.3c0.6,0,1.1,0.3,1.1,1.1
		c0,0.7-0.3,1.2-1.1,1.2H29.3z M29.3,6.9h0.4c0.4,0,0.7,0.2,0.8,0.7c0.1,0.3,0.1,0.8,0.3,1.2C31,9.3,31.3,9.5,32,9.5h0.6V9.2
		c-0.2,0-0.3-0.1-0.4-0.2c-0.2-0.2-0.3-0.5-0.4-0.9c-0.1-0.7-0.3-1.2-1.1-1.4v0c0.8-0.1,1.4-0.6,1.4-1.4c0-0.8-0.5-1.4-1.9-1.4h-2.7
		v0.3c0.6,0,0.7,0.1,0.7,0.5v4.1c0,0.4,0,0.5-0.7,0.5v0.3H30V9.2c-0.6,0-0.7-0.1-0.7-0.5V6.9z M21.9,9.5h4.4l0.1-1.6h-0.3
		c-0.3,0.9-0.5,1.2-1.5,1.2c-0.4,0-0.6,0-0.8-0.1c-0.2-0.1-0.2-0.2-0.2-0.6V6.7h0.9c0.6,0,0.7,0.2,0.8,0.7h0.3V5.6h-0.3
		c-0.1,0.6-0.2,0.7-0.8,0.7h-0.9V4.5c0-0.2,0-0.3,0.3-0.3h0.7c0.9,0,1,0.3,1.2,1.1h0.3V3.9h-4.3v0.3c0.6,0,0.7,0.1,0.7,0.5v4.1
		c0,0.4,0,0.5-0.7,0.5V9.5z M17.6,6.3V4.5c0-0.3,0.1-0.3,0.5-0.3c0.7,0,1.1,0.4,1.1,1c0,0.7-0.4,1.1-1.2,1.1H17.6z M17.6,6.6h0.5
		c0.9,0,1.3,0.6,1.3,1.3c0,0.9-0.5,1.2-1.1,1.2c-0.5,0-0.7-0.1-0.7-0.6V6.6z M15.8,9.5h2.6c0.8,0,1.3-0.1,1.7-0.4
		c0.3-0.3,0.5-0.7,0.5-1.1c0-0.9-0.7-1.4-1.4-1.5v0c0.8-0.2,1.2-0.6,1.2-1.2c0-0.5-0.2-0.8-0.5-1c-0.3-0.2-0.9-0.3-1.5-0.3h-2.5v0.3
		c0.6,0,0.7,0.1,0.7,0.5v4.1c0,0.4,0,0.5-0.7,0.5V9.5z M13.8,4.6c0-0.4,0-0.5,0.7-0.5V3.9H12v0.3c0.6,0,0.7,0.1,0.7,0.5v4.1
		c0,0.4,0,0.5-0.7,0.5v0.3h2.5V9.2c-0.6,0-0.7-0.1-0.7-0.5V4.6z M7,9.5h4.3l0.1-1.6h-0.3c-0.2,0.9-0.5,1.2-1.4,1.2
		c-0.3,0-0.5,0-0.7-0.1C8.8,9,8.8,8.8,8.8,8.5V4.6c0-0.4,0-0.5,0.7-0.5V3.9H7v0.3c0.6,0,0.7,0.1,0.7,0.5v4.1c0,0.4,0,0.5-0.7,0.5
		V9.5z"/>
	<path fill="none" stroke="#1A171B" stroke-width="0.2143" stroke-miterlimit="3.8637" d="M35.6,23.4h4.4l0.1-1.6h-0.3
		c-0.3,0.9-0.5,1.2-1.5,1.2c-0.4,0-0.6,0-0.8-0.1c-0.2-0.1-0.2-0.2-0.2-0.6v-1.8h0.9c0.6,0,0.7,0.2,0.8,0.7h0.3v-1.8h-0.3
		c-0.1,0.6-0.2,0.7-0.8,0.7h-0.9v-1.9c0-0.2,0-0.3,0.3-0.3h0.7c0.9,0,1,0.3,1.2,1.1h0.3v-1.4h-4.3v0.3c0.6,0,0.7,0.1,0.7,0.5v4.1
		c0,0.4,0,0.5-0.7,0.5V23.4z M33.8,18.6c0-0.4,0-0.5,0.7-0.5v-0.3H32v0.3c0.6,0,0.7,0.1,0.7,0.5v4.1c0,0.4,0,0.5-0.7,0.5v0.3h2.5
		v-0.3c-0.6,0-0.7-0.1-0.7-0.5V18.6z M27.7,20.5v-2c0-0.3,0.1-0.3,0.5-0.3c0.6,0,1.1,0.3,1.1,1.1c0,0.7-0.3,1.2-1.1,1.2H27.7z
		 M27.7,20.8h0.4c0.4,0,0.7,0.2,0.8,0.7c0.1,0.3,0.1,0.8,0.3,1.2c0.2,0.6,0.5,0.8,1.2,0.8H31v-0.3c-0.2,0-0.3-0.1-0.4-0.2
		c-0.2-0.2-0.3-0.5-0.4-0.9c-0.1-0.7-0.3-1.2-1.1-1.4v0c0.8-0.1,1.4-0.6,1.4-1.4c0-0.8-0.5-1.4-1.9-1.4h-2.7v0.3
		c0.6,0,0.7,0.1,0.7,0.5v4.1c0,0.4,0,0.5-0.7,0.5v0.3h2.5v-0.3c-0.6,0-0.7-0.1-0.7-0.5V20.8z M21.4,23.4h2.8v-0.3l-0.5,0
		c-0.3,0-0.3-0.1-0.3-0.4v-4.5h0.4c0.8,0,0.9,0.3,1.2,1.1h0.3v-1.5h-4.8v1.5h0.3c0.2-0.8,0.3-1.1,1.2-1.1h0.4v4.5
		c0,0.3,0,0.4-0.3,0.4l-0.5,0V23.4z M16.6,21c0.1-0.3,0.6-1.9,0.7-2.2h0L18,21H16.6z M14.8,23.4h1.9v-0.3l-0.5,0
		C16,23.1,16,23,16,22.8c0.1-0.5,0.3-0.9,0.4-1.4h1.7l0.5,1.4c0.1,0.2,0,0.3-0.2,0.3l-0.4,0v0.3h2.4v-0.3c-0.4,0-0.5,0-0.7-0.4
		L18,17.8h-0.9l-0.9,2.6c-0.3,0.8-0.6,1.7-0.8,2.2c-0.1,0.4-0.2,0.5-0.7,0.5V23.4z M10,23.4h2.6v-0.3c-0.8,0-0.8-0.1-0.8-0.5v-1.5
		h0.5c0.6,0,1.2-0.1,1.5-0.3c0.5-0.3,0.9-0.7,0.9-1.4c0-0.6-0.3-1.1-0.7-1.3c-0.4-0.3-0.9-0.3-1.6-0.3H10v0.3c0.6,0,0.7,0.1,0.7,0.5
		v4.1c0,0.4,0,0.5-0.7,0.5V23.4z M11.8,18.5c0-0.2,0.1-0.3,0.5-0.3c0.6,0,1.1,0.4,1.1,1.3c0,0.8-0.4,1.4-1.2,1.4
		c-0.4,0-0.5,0-0.5-0.3V18.5z M26.3,16.4h2.8v-0.3l-0.5,0c-0.3,0-0.3-0.1-0.3-0.4v-4.5h0.4c0.8,0,0.9,0.3,1.2,1.1h0.3v-1.5h-4.8v1.5
		h0.3c0.2-0.8,0.3-1.1,1.2-1.1h0.4v4.5c0,0.3,0,0.4-0.3,0.4l-0.5,0V16.4z M20.1,16.4h4.4l0.1-1.6h-0.3c-0.3,0.9-0.5,1.2-1.5,1.2
		c-0.4,0-0.6,0-0.8-0.1c-0.2-0.1-0.2-0.2-0.2-0.6v-1.8h0.9c0.6,0,0.7,0.2,0.8,0.7h0.3v-1.8h-0.3c-0.1,0.6-0.2,0.7-0.8,0.7h-0.9v-1.9
		c0-0.2,0-0.3,0.3-0.3h0.7c0.9,0,1,0.3,1.2,1.1h0.3v-1.4h-4.3v0.3c0.6,0,0.7,0.1,0.7,0.5v4.1c0,0.4,0,0.5-0.7,0.5V16.4z M40.3,3.6
		l1.5-0.5c0.4-0.1,0.6-0.2,0.6-0.4c0-0.2-0.2-0.5-0.4-0.5c-0.1,0-0.3,0-0.5,0.2l-1.3,0.9L40.3,3.6z M38.6,9.5h4.4l0.1-1.6h-0.3
		c-0.3,0.9-0.5,1.2-1.5,1.2c-0.4,0-0.6,0-0.8-0.1c-0.2-0.1-0.2-0.2-0.2-0.6V6.7h0.9c0.6,0,0.7,0.2,0.8,0.7h0.3V5.6h-0.3
		c-0.1,0.6-0.2,0.7-0.8,0.7h-0.9V4.5c0-0.2,0-0.3,0.3-0.3h0.7c0.9,0,1,0.3,1.2,1.1h0.3V3.9h-4.3v0.3c0.6,0,0.7,0.1,0.7,0.5v4.1
		c0,0.4,0,0.5-0.7,0.5V9.5z M34.2,9.5H37V9.2l-0.5,0c-0.3,0-0.3-0.1-0.3-0.4V4.2h0.4c0.8,0,0.9,0.3,1.2,1.1H38V3.9h-4.8v1.5h0.3
		c0.2-0.8,0.3-1.1,1.2-1.1H35v4.5c0,0.3,0,0.4-0.3,0.4l-0.5,0V9.5z M29.3,6.5v-2c0-0.3,0.1-0.3,0.5-0.3c0.6,0,1.1,0.3,1.1,1.1
		c0,0.7-0.3,1.2-1.1,1.2H29.3z M29.3,6.9h0.4c0.4,0,0.7,0.2,0.8,0.7c0.1,0.3,0.1,0.8,0.3,1.2C31,9.3,31.3,9.5,32,9.5h0.6V9.2
		c-0.2,0-0.3-0.1-0.4-0.2c-0.2-0.2-0.3-0.5-0.4-0.9c-0.1-0.7-0.3-1.2-1.1-1.4v0c0.8-0.1,1.4-0.6,1.4-1.4c0-0.8-0.5-1.4-1.9-1.4h-2.7
		v0.3c0.6,0,0.7,0.1,0.7,0.5v4.1c0,0.4,0,0.5-0.7,0.5v0.3H30V9.2c-0.6,0-0.7-0.1-0.7-0.5V6.9z M21.9,9.5h4.4l0.1-1.6h-0.3
		c-0.3,0.9-0.5,1.2-1.5,1.2c-0.4,0-0.6,0-0.8-0.1c-0.2-0.1-0.2-0.2-0.2-0.6V6.7h0.9c0.6,0,0.7,0.2,0.8,0.7h0.3V5.6h-0.3
		c-0.1,0.6-0.2,0.7-0.8,0.7h-0.9V4.5c0-0.2,0-0.3,0.3-0.3h0.7c0.9,0,1,0.3,1.2,1.1h0.3V3.9h-4.3v0.3c0.6,0,0.7,0.1,0.7,0.5v4.1
		c0,0.4,0,0.5-0.7,0.5V9.5z M17.6,6.3V4.5c0-0.3,0.1-0.3,0.5-0.3c0.7,0,1.1,0.4,1.1,1c0,0.7-0.4,1.1-1.2,1.1H17.6z M17.6,6.6h0.5
		c0.9,0,1.3,0.6,1.3,1.3c0,0.9-0.5,1.2-1.1,1.2c-0.5,0-0.7-0.1-0.7-0.6V6.6z M15.8,9.5h2.6c0.8,0,1.3-0.1,1.7-0.4
		c0.3-0.3,0.5-0.7,0.5-1.1c0-0.9-0.7-1.4-1.4-1.5v0c0.8-0.2,1.2-0.6,1.2-1.2c0-0.5-0.2-0.8-0.5-1c-0.3-0.2-0.9-0.3-1.5-0.3h-2.5v0.3
		c0.6,0,0.7,0.1,0.7,0.5v4.1c0,0.4,0,0.5-0.7,0.5V9.5z M13.8,4.6c0-0.4,0-0.5,0.7-0.5V3.9H12v0.3c0.6,0,0.7,0.1,0.7,0.5v4.1
		c0,0.4,0,0.5-0.7,0.5v0.3h2.5V9.2c-0.6,0-0.7-0.1-0.7-0.5V4.6z M7,9.5h4.3l0.1-1.6h-0.3c-0.2,0.9-0.5,1.2-1.4,1.2
		c-0.3,0-0.5,0-0.7-0.1C8.8,9,8.8,8.8,8.8,8.5V4.6c0-0.4,0-0.5,0.7-0.5V3.9H7v0.3c0.6,0,0.7,0.1,0.7,0.5v4.1c0,0.4,0,0.5-0.7,0.5
		V9.5z"/>
</g>
</svg>
