<?xml version="1.0" encoding="utf-8"?>
<!-- Generator: Adobe Illustrator 18.1.1, SVG Export Plug-In . SVG Version: 6.00 Build 0)  -->
<svg version="1.1" id="Ebene_1" xmlns="http://www.w3.org/2000/svg" xmlns:xlink="http://www.w3.org/1999/xlink" x="0px" y="0px"
	 viewBox="0 0 50 50" enable-background="new 0 0 50 50" xml:space="preserve">
<g>
	<rect x="0" fill="none" stroke="#1A171B" stroke-width="0.1228" stroke-miterlimit="3.8637" width="25.1" height="50"/>
	<rect x="0" fill-rule="evenodd" clip-rule="evenodd" fill="#FFFFFF" width="50" height="50"/>
	<g>
		<defs>
			<rect id="SVGID_65_" x="0" width="50" height="50"/>
		</defs>
		<clipPath id="SVGID_1_">
			<use xlink:href="#SVGID_65_"  overflow="visible"/>
		</clipPath>
		<polygon clip-path="url(#SVGID_1_)" fill-rule="evenodd" clip-rule="evenodd" fill="#ED081B" points="25.1,0 50,0 50,50 25.1,50 
					"/>
		<polygon clip-path="url(#SVGID_1_)" fill-rule="evenodd" clip-rule="evenodd" fill="#FFFFFF" points="24.1,5 20.4,5 23.4,7.1 
			22.3,10.5 25.1,8.4 28,10.5 26.9,7.1 29.9,5 26.2,5 25.1,1.7 		"/>
		<polygon clip-path="url(#SVGID_1_)" fill-rule="evenodd" clip-rule="evenodd" fill="#FFFFFF" points="25.1,11.3 24.1,14.6 
			20.4,14.6 23.4,16.7 22.3,20.1 25.1,18 28,20.1 26.9,16.7 29.9,14.6 26.2,14.6 		"/>
		<polygon clip-path="url(#SVGID_1_)" fill-rule="evenodd" clip-rule="evenodd" fill="#FFFFFF" points="25.1,20.9 24.1,24.2 
			20.4,24.2 23.4,26.3 22.3,29.7 25.1,27.6 28,29.7 26.9,26.3 29.9,24.2 26.2,24.2 		"/>
		<polygon clip-path="url(#SVGID_1_)" fill-rule="evenodd" clip-rule="evenodd" fill="#FFFFFF" points="25.1,30.5 24.1,33.8 
			20.4,33.8 23.4,36 22.3,39.3 25.1,37.2 28,39.3 26.9,36 29.9,33.8 26.2,33.8 		"/>
		<polygon clip-path="url(#SVGID_1_)" fill-rule="evenodd" clip-rule="evenodd" fill="#FFFFFF" points="24.1,43.5 20.4,43.5 
			23.4,45.6 22.3,48.9 25.1,46.8 28,48.9 26.9,45.6 29.9,43.5 26.2,43.5 25.1,40.1 		"/>
		<polygon clip-path="url(#SVGID_1_)" fill-rule="evenodd" clip-rule="evenodd" fill="#FFFFFF" points="37.6,4 38.7,7.3 42.3,7.3 
			39.4,9.4 40.5,12.7 37.6,10.6 34.7,12.7 35.8,9.4 32.9,7.3 36.5,7.3 		"/>
		<polygon clip-path="url(#SVGID_1_)" fill-rule="evenodd" clip-rule="evenodd" fill="#FFFFFF" points="37.6,13.6 38.7,16.9 
			42.3,16.9 39.4,19 40.5,22.4 37.6,20.2 34.7,22.4 35.8,19 32.9,16.9 36.5,16.9 		"/>
		<polygon clip-path="url(#SVGID_1_)" fill-rule="evenodd" clip-rule="evenodd" fill="#FFFFFF" points="37.6,23.2 38.7,26.5 
			42.3,26.5 39.4,28.6 40.5,32 37.6,29.8 34.7,32 35.8,28.6 32.9,26.5 36.5,26.5 		"/>
		<polygon clip-path="url(#SVGID_1_)" fill-rule="evenodd" clip-rule="evenodd" fill="#FFFFFF" points="38.7,36.1 42.3,36.1 
			39.4,38.2 40.5,41.6 37.6,39.4 34.7,41.6 35.8,38.2 32.9,36.1 36.5,36.1 37.6,32.8 		"/>
		<polygon clip-path="url(#SVGID_1_)" fill-rule="evenodd" clip-rule="evenodd" fill="#ED081B" points="12.7,4 11.6,7.3 8,7.3 
			10.9,9.4 9.8,12.7 12.7,10.6 15.6,12.7 14.5,9.4 17.4,7.3 13.8,7.3 		"/>
		<polygon clip-path="url(#SVGID_1_)" fill-rule="evenodd" clip-rule="evenodd" fill="#ED081B" points="12.7,13.6 11.6,16.9 8,16.9 
			10.9,19 9.8,22.4 12.7,20.2 15.6,22.4 14.5,19 17.4,16.9 13.8,16.9 		"/>
		<polygon clip-path="url(#SVGID_1_)" fill-rule="evenodd" clip-rule="evenodd" fill="#ED081B" points="12.7,23.2 11.6,26.5 8,26.5 
			10.9,28.6 9.8,32 12.7,29.8 15.6,32 14.5,28.6 17.4,26.5 13.8,26.5 		"/>
		<polygon clip-path="url(#SVGID_1_)" fill-rule="evenodd" clip-rule="evenodd" fill="#ED081B" points="11.6,36.1 8,36.1 10.9,38.2 
			9.8,41.6 12.7,39.4 15.6,41.6 14.5,38.2 17.4,36.1 13.8,36.1 12.7,32.8 		"/>
		<polygon clip-path="url(#SVGID_1_)" fill-rule="evenodd" clip-rule="evenodd" fill="#ED081B" points="25.1,1.7 24.1,5 20.4,5 
			23.4,7.1 22.3,10.5 25.1,8.4 		"/>
		<polygon clip-path="url(#SVGID_1_)" fill-rule="evenodd" clip-rule="evenodd" fill="#ED081B" points="25.1,11.3 24.1,14.6 
			20.4,14.6 23.4,16.7 22.3,20.1 25.1,18 		"/>
		<polygon clip-path="url(#SVGID_1_)" fill-rule="evenodd" clip-rule="evenodd" fill="#ED081B" points="25.1,20.9 24.1,24.2 
			20.4,24.2 23.4,26.3 22.3,29.7 25.1,27.6 		"/>
		<polygon clip-path="url(#SVGID_1_)" fill-rule="evenodd" clip-rule="evenodd" fill="#ED081B" points="25.1,30.5 24.1,33.8 
			20.4,33.8 23.4,36 22.3,39.3 25.1,37.2 		"/>
		<polygon clip-path="url(#SVGID_1_)" fill-rule="evenodd" clip-rule="evenodd" fill="#ED081B" points="25.1,40.1 24.1,43.5 
			20.4,43.5 23.4,45.6 22.3,48.9 25.1,46.8 		"/>
	</g>
	<rect x="0" fill="none" width="50" height="50"/>
</g>
</svg>
